<svg width="158" height="158" viewBox="0 0 158 158" fill="none" xmlns="http://www.w3.org/2000/svg">
<circle cx="79" cy="79" r="79" fill="#202124" style="fill:#202124;fill:color(display-p3 0.1255 0.1294 0.1412);fill-opacity:1;"/>
<path fill-rule="evenodd" clip-rule="evenodd" d="M91.5165 95.0008C91.1696 94.654 90.622 94.612 90.2176 94.8896C75.7313 104.835 55.7683 103.371 42.8944 90.4973C28.3685 75.9714 28.3685 52.4203 42.8944 37.8944C57.4203 23.3685 80.9714 23.3685 95.4973 37.8944C108.371 50.7683 109.835 70.7313 99.8896 85.2176C99.612 85.622 99.654 86.1696 100.001 86.5165L130.243 116.759C132.586 119.101 132.586 122.9 130.243 125.243C127.9 127.586 124.101 127.586 121.759 125.243L91.5165 95.0008ZM89.841 84.841C78.439 96.2431 59.9527 96.2431 48.5506 84.841C37.1486 73.439 37.1486 54.9527 48.5506 43.5506C59.9527 32.1486 78.439 32.1486 89.841 43.5506C101.243 54.9527 101.243 73.439 89.841 84.841Z" fill="#E3E7F2" style="fill:#E3E7F2;fill:color(display-p3 0.8883 0.9051 0.9476);fill-opacity:1;"/>
</svg>
