<svg width="128" height="128" viewBox="0 0 128 128" fill="none" xmlns="http://www.w3.org/2000/svg">
<path fill-rule="evenodd" clip-rule="evenodd" d="M78.4193 89.2793C76.6851 87.5451 73.9625 87.3511 71.8524 88.601C53.5882 99.4201 29.647 96.9786 13.9448 81.2765C-4.64828 62.6834 -4.64828 32.538 13.9448 13.9448C32.538 -4.64828 62.6834 -4.64828 81.2765 13.9448C96.9786 29.647 99.4201 53.5882 88.601 71.8524C87.3511 73.9625 87.5451 76.6852 89.2793 78.4193L125.751 114.891C128.75 117.89 128.75 122.752 125.751 125.751C122.752 128.75 117.89 128.75 114.891 125.751L78.4193 89.2793ZM74.0365 74.0365C59.4419 88.6311 35.7794 88.6311 21.1848 74.0365C6.5902 59.4419 6.5902 35.7794 21.1848 21.1848C35.7794 6.5902 59.4419 6.5902 74.0365 21.1848C88.6311 35.7794 88.6311 59.4419 74.0365 74.0365Z" fill="#202124" style="fill:#202124;fill:color(display-p3 0.1255 0.1294 0.1412);fill-opacity:1;"/>
</svg>
