<svg width="128" height="128" viewBox="0 0 128 128" fill="none" xmlns="http://www.w3.org/2000/svg">
<path d="M128 64C128 99.3462 99.3462 128 64 128C28.6538 128 0 99.3462 0 64C0 28.6538 28.6538 0 64 0C99.3462 0 128 28.6538 128 64Z" fill="#202124" style="fill:#202124;fill:color(display-p3 0.1255 0.1294 0.1412);fill-opacity:1;"/>
<path d="M105 65.15V62.85C105 60.0886 102.761 57.85 100 57.85H72.65C71.2693 57.85 70.15 56.7307 70.15 55.35V28C70.15 25.2386 67.9114 23 65.15 23H62.85C60.0886 23 57.85 25.2386 57.85 28V55.35C57.85 56.7307 56.7307 57.85 55.35 57.85H28C25.2386 57.85 23 60.0886 23 62.85V65.15C23 67.9114 25.2386 70.15 28 70.15H55.35C56.7307 70.15 57.85 71.2693 57.85 72.65V100C57.85 102.761 60.0886 105 62.85 105H65.15C67.9114 105 70.15 102.761 70.15 100V72.65C70.15 71.2693 71.2693 70.15 72.65 70.15H100C102.761 70.15 105 67.9114 105 65.15Z" fill="#E3E7F2" style="fill:#E3E7F2;fill:color(display-p3 0.8883 0.9051 0.9476);fill-opacity:1;"/>
</svg>
