<svg width="768" height="654" viewBox="0 0 768 654" fill="none" xmlns="http://www.w3.org/2000/svg">
<path d="M695.002 29.741C634.502 -4.25923 442.259 -13.7188 287.002 30.241C315.002 27.2407 292.002 57.2407 315.002 42.2411L343.002 36.2411L353.002 28.741L364.502 36.2411C488.795 -5.9634 562.597 6.81528 693.286 29.4439L695.002 29.741Z" fill="#3D4F6C" style="fill:#3D4F6C;fill:color(display-p3 0.2392 0.3098 0.4235);fill-opacity:1;"/>
<path d="M50.0013 209.24L15.5013 217.24C1.00195 266.74 6.50192 527.74 14.5013 554.24L53.0013 561.74C43.1666 424.067 41.5911 346.883 50.0013 209.24Z" fill="#DFE4EA" style="fill:#DFE4EA;fill:color(display-p3 0.8745 0.8941 0.9176);fill-opacity:1;"/>
<path d="M29.5024 557.74C14.5591 420.659 13.502 316.74 28.5024 213.74L37.0024 211.74C28.5024 245.74 19.0993 426.74 39.0024 559.74L29.5024 557.74Z" fill="#7EB7E7" style="fill:#7EB7E7;fill:color(display-p3 0.4941 0.7176 0.9059);fill-opacity:1;"/>
<path d="M0.00292969 435.24H7.50195C7.50195 470.24 12.0024 543.74 14.5024 554.24L54.0029 561.74L63.0029 585.24L31.0029 579.24C3.50195 574.74 1.50244 504.24 0.00292969 435.24Z" fill="url(#paint0_linear_427_1055)" style=""/>
<path d="M63.0029 585.24C50.0029 582.24 43.0024 486.74 43.0024 437.74L219.503 446.74L229.003 611.24L158.003 596.24L170.003 608.24L63.0029 585.24Z" fill="url(#paint1_linear_427_1055)" style=""/>
<path d="M247.002 448.24L219.503 446.74L229.003 611.24C234.959 613.226 240.497 616.265 245.547 619.995C255.259 627.17 262.174 631.025 272.002 633.24C308.502 641.466 336.502 641.24 372.002 644.24L368.002 634.24L336.502 624.74L302.502 591.74L253.502 445.24H247.002V448.24Z" fill="url(#paint2_linear_427_1055)" style=""/>
<path d="M0 435.24C0.842033 294.989 0.791318 295.631 10.5 218.74L15.5 217.24C6.49873 272.961 6.13526 319.827 7.50195 435.24H0Z" fill="url(#paint3_linear_427_1055)" style=""/>
<path d="M43.0017 437.74C41.6054 365.212 43.5763 249.328 50.0019 209.24L215.501 169.74C241.874 218.229 241.564 322.772 253.501 445.24H247.001V448.24L43.0017 437.74Z" fill="url(#paint4_linear_427_1055)" style=""/>
<path d="M10.502 218.74L7.50195 215.24L211.502 164.74L217.002 169.74L10.502 218.74Z" fill="#3D4A56" style="fill:#3D4A56;fill:color(display-p3 0.2392 0.2902 0.3373);fill-opacity:1;"/>
<path d="M225.002 197.227C221.705 183.222 219.502 176.014 211.628 165.051L219.002 163.24C221.951 176.399 223.221 183.836 225.002 197.227Z" fill="#76B5E7" style="fill:#76B5E7;fill:color(display-p3 0.4627 0.7098 0.9059);fill-opacity:1;"/>
<path d="M206.002 148.739C216.056 144.8 217.977 149.762 219.002 163.24L52.002 204.239C52.1495 192.017 53.4297 187.528 60.002 187.239L206.002 148.739Z" fill="#76B5E7" style="fill:#76B5E7;fill:color(display-p3 0.4627 0.7098 0.9059);fill-opacity:1;"/>
<path d="M7.50195 215.241C10.426 214.506 12.074 214.069 15.002 213.241C18.5422 200.302 16.9921 198.158 10.002 200.241L7.50195 215.241Z" fill="#76B5E7" style="fill:#76B5E7;fill:color(display-p3 0.4627 0.7098 0.9059);fill-opacity:1;"/>
<path d="M297.502 418.24H247.002C240.725 315.833 236.701 258.724 219.002 163.24C216.778 151.24 217.002 145.74 208.002 148.24L60.002 187.24C53.002 188.74 54.002 191.74 52.002 204.24L15.002 213.24C18.002 197.24 15.002 199.74 10.002 200.24C17.0459 151.902 21.7122 130.182 34.002 121.24L287.002 30.2402C271.332 54.2316 269.813 68.8536 269.002 95.2402C256.351 111.062 254.198 121.285 253.002 140.24C257.502 140.24 260.592 147.599 263.502 153.24C273.852 150.911 279.651 150.622 290.002 150.74C271.394 257.217 277.313 315.387 297.502 418.24Z" fill="url(#paint5_linear_427_1055)" style=""/>
<path d="M297.502 418.24H247.002C240.725 315.833 236.701 258.724 219.002 163.24C216.778 151.24 217.002 145.74 208.002 148.24L60.002 187.24C53.002 188.74 54.002 191.74 52.002 204.24L15.002 213.24C18.002 197.24 15.002 199.74 10.002 200.24C17.0459 151.902 21.7122 130.182 34.002 121.24L287.002 30.2402C271.332 54.2316 269.813 68.8536 269.002 95.2402C256.351 111.062 254.198 121.285 253.002 140.24C257.502 140.24 260.592 147.599 263.502 153.24C273.852 150.911 279.651 150.622 290.002 150.74C271.394 257.217 277.313 315.387 297.502 418.24Z" fill="url(#paint6_linear_427_1055)" style=""/>
<path d="M449.002 418.24H247.002C283.71 579.264 305.002 622.24 349.002 631.24C361.502 633.797 368.002 635.24 372.002 644.24C399.616 647.041 422.002 647.24 433.002 648.24C547.816 657.026 690.502 655.24 727.002 643.24C726.432 637.031 731.271 632.848 741.002 625.24C766.582 605.24 774.002 512.74 763.002 416.24H737.002C737.002 523.74 695.006 590.654 614.002 595.24C521.769 584.391 491.512 533.328 449.002 418.24Z" fill="#F6F7FB" style="fill:#F6F7FB;fill:color(display-p3 0.9647 0.9686 0.9843);fill-opacity:1;"/>
<path d="M449.002 418.24H247.002C283.71 579.264 305.002 622.24 349.002 631.24C361.502 633.797 368.002 635.24 372.002 644.24C399.616 647.041 422.002 647.24 433.002 648.24C547.816 657.026 690.502 655.24 727.002 643.24C726.432 637.031 731.271 632.848 741.002 625.24C766.582 605.24 774.002 512.74 763.002 416.24H737.002C737.002 523.74 695.006 590.654 614.002 595.24C521.769 584.391 491.512 533.328 449.002 418.24Z" fill="url(#paint7_linear_427_1055)" style=""/>
<path d="M449.002 418.24H247.002C283.71 579.264 305.002 622.24 349.002 631.24C361.502 633.797 368.002 635.24 372.002 644.24C399.616 647.041 422.002 647.24 433.002 648.24C547.816 657.026 690.502 655.24 727.002 643.24C726.432 637.031 731.271 632.848 741.002 625.24C766.582 605.24 774.002 512.74 763.002 416.24H737.002C737.002 523.74 695.006 590.654 614.002 595.24C521.769 584.391 491.512 533.328 449.002 418.24Z" fill="url(#paint8_linear_427_1055)" style=""/>
<path d="M338.502 146.242L290.002 150.742C281.502 205.742 261.502 294.742 297.266 418.242H449.002C393.412 201.756 421.085 114.364 338.502 146.242Z" fill="#4E595F" style="fill:#4E595F;fill:color(display-p3 0.3059 0.3490 0.3725);fill-opacity:1;"/>
<path d="M269.002 95.2402C256.968 107.447 252.705 115.42 252.002 136.24C287.658 134.188 306.224 137.563 338.502 146.24C332.105 86.4768 327.991 56.5964 315.002 42.2402C302.002 50.7402 304.502 33.7402 300.263 30.1379C297.705 29.8075 293.654 29.4359 287.002 30.2402C272.605 51.5495 266.803 65.2148 269.002 95.2402Z" fill="#FBFCFF" style="fill:#FBFCFF;fill:color(display-p3 0.9843 0.9882 1.0000);fill-opacity:1;"/>
<path d="M698.002 83.2409C594.568 51.5516 527.252 51.4609 393.502 77.241L364.002 36.2409C403.502 -0.75882 590.502 -5.25879 695.002 29.7409C696.487 49.8534 696.048 62.1948 698.002 83.2409Z" fill="url(#paint9_linear_427_1055)" style=""/>
<path d="M606.002 531.74C583.213 531.654 570.647 530.277 550.002 516.74C557.502 520.24 563.002 519.74 567.002 509.74L590.002 428.24C592.502 421.24 592.002 420.74 573.502 420.74H505.002C483.502 420.74 476.502 440.74 484.002 453.74L482.002 455.74L470.002 435.24L466.002 416.74L572.502 414.74L615.502 415.24H724.002C726.002 460.24 722.579 490.477 667.502 523.74L649.002 529.24L606.002 531.74Z" fill="#444C57" style="fill:#444C57;fill:color(display-p3 0.2667 0.2980 0.3412);fill-opacity:1;"/>
<path d="M555.502 519.24C557.534 519.091 558.552 518.901 560.002 518.24C559.892 518.289 559.656 518.356 559.355 518.417C557.836 518.726 556.34 518.104 554.985 517.352C520.209 498.057 503.536 483.53 484.002 453.74L482.502 455.24C505.855 494.34 523.02 505.118 555.502 519.24Z" fill="#444C57" style="fill:#444C57;fill:color(display-p3 0.2667 0.2980 0.3412);fill-opacity:1;"/>
<path d="M468.002 417.74L464.002 418.24C501.002 640.74 736.502 650.74 729.502 416.24H724.002C734.502 574.74 503.002 562.74 468.002 417.74Z" fill="url(#paint10_linear_427_1055)" style=""/>
<path d="M464.002 418.24L457.002 393.24C562.883 389.959 622.386 390.519 728.502 391.24L729.502 416.24C616.461 416.805 541.982 416.866 464.002 418.24Z" fill="#3E414A" style="fill:#3E414A;fill:color(display-p3 0.2431 0.2549 0.2902);fill-opacity:1;"/>
<path d="M457.002 393.24C562.673 391.48 622.046 390.84 728.502 391.24C697.002 379.24 463.745 385.664 457.002 393.24Z" fill="#636B76" style="fill:#636B76;fill:color(display-p3 0.3882 0.4196 0.4627);fill-opacity:1;"/>
<path d="M398.54 80.5049C449.009 66.6357 508.78 60.2732 563.104 61.3027C617.795 62.3393 666.148 70.8572 693.936 86.1172C714.278 202.253 722.759 268.911 723.953 386.078C701.653 383.407 653.643 381.611 603.069 381.554C550.237 381.494 493.921 383.327 460.387 388.173C430.944 268.797 416.403 200.126 398.54 80.5049Z" fill="#4E595F" stroke="#262C38" style="fill:#4E595F;fill:color(display-p3 0.3059 0.3490 0.3725);fill-opacity:1;stroke:#262C38;stroke:color(display-p3 0.1490 0.1725 0.2196);stroke-opacity:1;" stroke-width="9"/>
<path d="M255.002 134.241C290.883 133.893 308.895 136.936 338.502 146.241C305.002 150.741 276.604 150.751 263.502 153.241C257.724 144.893 255.975 143.119 253.002 140.241C250.936 138.241 251.502 134.241 255.002 134.241Z" fill="#8F918B" style="fill:#8F918B;fill:color(display-p3 0.5608 0.5686 0.5451);fill-opacity:1;"/>
<path d="M332.002 108.24C329.453 70.7936 325.19 57.8839 315.002 42.2402C325.696 39.0839 331.798 37.6673 343.002 36.2402C347.338 32.5404 349.399 31.1271 353.002 28.7402C394.737 52.1079 396.002 75.7402 410.002 159.24C426.685 258.74 435.813 317.827 464.002 418.24H449.002C422.94 322.563 411.248 269.382 395.002 175.24C390.774 150.74 378.502 143.74 370.502 143.24C361.502 142.678 352.002 144.24 338.502 146.24C335.36 131.458 333.903 123.143 332.002 108.24Z" fill="#72BBE9" style="fill:#72BBE9;fill:color(display-p3 0.4471 0.7333 0.9137);fill-opacity:1;"/>
<path d="M723.002 147.24C726.315 143.61 728.296 143.07 732.002 144.24C743.002 201.24 763.24 309.163 763.002 416.24H737.002C733.502 242.74 706.725 182.812 723.002 147.24Z" fill="#4E595F" style="fill:#4E595F;fill:color(display-p3 0.3059 0.3490 0.3725);fill-opacity:1;"/>
<path d="M723.002 147.24C726.315 143.61 728.296 143.07 732.002 144.24C743.002 201.24 763.24 309.163 763.002 416.24H737.002C733.502 242.74 706.725 182.812 723.002 147.24Z" fill="url(#paint11_linear_427_1055)" style=""/>
<path d="M697.002 77.2402C718.21 209.87 724.222 284.063 729.502 416.24H737.002C734.623 321.745 732.056 268.762 722.002 174.24C719.662 152.24 722.002 142.74 732.002 144.24C725.373 86.9611 712.002 42.7402 695.002 29.7402V36.7402C693.652 52.6053 694.708 61.4587 697.002 77.2402Z" fill="url(#paint12_linear_427_1055)" style=""/>
<path d="M581.002 582.24C542.502 567.803 495.502 539.24 464.002 418.24H449.002C466.502 474.24 477.496 503.94 507.002 542.24C526.502 567.552 559.002 584.74 575.002 589.24C599.502 596.131 631.002 599.74 662.002 585.24C698.502 568.168 713.502 539.74 722.002 517.24C736.735 478.24 737.002 449.74 737.002 416.24H729.502C727.002 473.74 721.311 497.439 712.002 519.24C699.193 549.24 680.502 566.74 656.002 579.24C632.502 591.23 593.002 586.74 581.002 582.24Z" fill="url(#paint13_linear_427_1055)" style=""/>
<path d="M505.002 423.74H573.502C578.139 423.74 581.552 423.773 584.058 423.923C586.229 424.053 587.415 424.263 588.034 424.461C587.94 424.968 587.689 425.798 587.177 427.231L587.143 427.327L587.115 427.426L564.161 508.763C563.201 511.154 562.421 512.819 561.711 513.964C560.984 515.135 560.498 515.487 560.258 515.603C560.088 515.684 559.751 515.797 558.862 515.601C557.925 515.393 556.686 514.91 554.896 514.079C543.124 507.096 532.209 501.124 521.104 492.136C510.028 483.17 498.734 471.163 486.571 452.188C483.37 446.596 483.268 439.469 486.28 433.767C489.23 428.183 495.297 423.74 505.002 423.74Z" fill="#7E8B9D" stroke="black" style="fill:#7E8B9D;fill:color(display-p3 0.4941 0.5451 0.6157);fill-opacity:1;stroke:black;stroke-opacity:1;" stroke-width="6"/>
<circle cx="535.502" cy="472.74" r="11.5" fill="url(#paint14_radial_427_1055)" style=""/>
<ellipse cx="534.502" cy="472.24" rx="9.5" ry="10" fill="#804747" style="fill:#804747;fill:color(display-p3 0.5003 0.2774 0.2774);fill-opacity:1;"/>
<ellipse cx="556.575" cy="446.439" rx="18" ry="19.0743" transform="rotate(-20.6645 556.575 446.439)" fill="#9096A6" style="fill:#9096A6;fill:color(display-p3 0.5647 0.5882 0.6510);fill-opacity:1;"/>
<ellipse cx="556.002" cy="445.74" rx="17" ry="17.5" fill="#F8E6D2" style="fill:#F8E6D2;fill:color(display-p3 0.9725 0.9020 0.8235);fill-opacity:1;"/>
<ellipse cx="510.133" cy="447.172" rx="19.0106" ry="19.7703" transform="rotate(-20.6645 510.133 447.172)" fill="url(#paint15_radial_427_1055)" style=""/>
<ellipse cx="506.502" cy="446.24" rx="13.5" ry="14" fill="#83939B" style="fill:#83939B;fill:color(display-p3 0.5137 0.5765 0.6078);fill-opacity:1;"/>
<path d="M638.232 422.892L638.203 422.893L638.174 422.893C634.088 422.856 630.975 422.954 628.632 423.21C626.228 423.472 624.939 423.873 624.289 424.242C623.846 424.494 623.859 424.608 623.838 424.764C623.782 425.198 623.874 426.045 624.408 427.617L663.192 508.293L663.242 508.396L663.284 508.503C664.248 510.976 665.029 512.69 665.743 513.863C666.459 515.041 666.942 515.396 667.181 515.514C667.35 515.598 667.686 515.714 668.577 515.525C669.513 515.326 670.752 514.856 672.542 514.045C694.397 501.274 706.194 479.183 711.48 462.338L711.972 460.721C714.178 453.251 713.365 443.52 709.483 435.691C705.648 427.957 699.041 422.432 689.701 422.347L638.232 422.892Z" fill="#7E8B9D" stroke="black" style="fill:#7E8B9D;fill:color(display-p3 0.4941 0.5451 0.6157);fill-opacity:1;stroke:black;stroke-opacity:1;" stroke-width="6"/>
<ellipse cx="11.0002" cy="11" rx="11.0002" ry="11" transform="matrix(0.264875 -0.964283 -0.964283 -0.264875 686.044 487.888)" fill="url(#paint16_radial_427_1055)" style=""/>
<ellipse cx="9.94392" cy="10.1088" rx="9.94392" ry="10.1088" transform="matrix(0.264875 -0.964283 -0.964283 -0.264875 685.507 485.916)" fill="#804747" style="fill:#804747;fill:color(display-p3 0.5003 0.2774 0.2774);fill-opacity:1;"/>
<ellipse cx="16.0021" cy="16.9904" rx="16.0021" ry="16.9904" transform="matrix(-0.881576 0.472042 0.473555 0.880764 660.064 421.955)" fill="#9096A6" style="fill:#9096A6;fill:color(display-p3 0.5647 0.5882 0.6510);fill-opacity:1;"/>
<ellipse cx="15.1082" cy="15.5931" rx="15.1082" ry="15.5931" transform="matrix(-0.65763 0.753341 0.753341 0.65763 652.057 422.044)" fill="#F8E6D2" style="fill:#F8E6D2;fill:color(display-p3 0.9725 0.9020 0.8235);fill-opacity:1;"/>
<ellipse cx="15.7158" cy="18.3164" rx="15.7158" ry="18.3164" transform="matrix(-0.93368 0.358108 0.358097 0.933684 701.845 424.743)" fill="url(#paint17_radial_427_1055)" style=""/>
<ellipse cx="13.5002" cy="14" rx="13.5002" ry="14" transform="matrix(-0.999961 -0.00882095 -0.00882095 0.999961 706.108 431.993)" fill="#83939B" style="fill:#83939B;fill:color(display-p3 0.5137 0.5765 0.6078);fill-opacity:1;"/>
<path d="M638.232 422.892L638.203 422.893L638.174 422.893C634.088 422.856 630.975 422.954 628.632 423.21C626.228 423.472 624.939 423.873 624.289 424.242C623.846 424.494 623.859 424.608 623.838 424.764C623.782 425.198 623.874 426.045 624.408 427.617L663.192 508.293L663.242 508.396L663.284 508.503C664.248 510.976 665.029 512.69 665.743 513.863C666.459 515.041 666.942 515.396 667.181 515.514C667.35 515.598 667.686 515.714 668.577 515.525C669.513 515.326 670.752 514.856 672.542 514.045C694.397 501.274 706.194 479.183 711.48 462.338L711.972 460.721C714.178 453.251 713.365 443.52 709.483 435.691C705.648 427.957 699.041 422.432 689.701 422.347L638.232 422.892Z" stroke="black" style="stroke:black;stroke-opacity:1;" stroke-width="6"/>
<path d="M224.003 231.241C224.516 225.24 227.502 201.74 237.003 199.241L250.003 196.241C264.003 193.241 266.503 217.74 266.003 228.241L262.003 348.241C261.503 366.74 255.003 387.241 243.003 387.241H228.003C219.502 387.24 217.502 367.74 218.003 355.241C218.779 304.856 220.034 277.6 224.003 231.241Z" fill="url(#paint18_linear_427_1055)" style=""/>
<path d="M26.001 244.24L16.001 245.24C10.0851 310.709 10.002 372.24 12.0016 421.24H21.001C18.8308 349.645 19.7332 310.799 26.001 244.24Z" fill="url(#paint19_linear_427_1055)" style=""/>
<path d="M42.9999 242.24L32.9999 243.24C27.084 308.709 26.3834 349.046 27.002 421.24H36.9999C35.1613 349.986 37.0697 309.146 42.9999 242.24Z" fill="url(#paint20_linear_427_1055)" style=""/>
<defs>
<linearGradient id="paint0_linear_427_1055" x1="295.752" y1="445.24" x2="295.752" y2="644.24" gradientUnits="userSpaceOnUse">
<stop stop-color="#717578" style="stop-color:#717578;stop-color:color(display-p3 0.4431 0.4588 0.4706);stop-opacity:1;"/>
<stop offset="1" stop-color="#98968B" style="stop-color:#98968B;stop-color:color(display-p3 0.5961 0.5882 0.5451);stop-opacity:1;"/>
</linearGradient>
<linearGradient id="paint1_linear_427_1055" x1="295.752" y1="445.24" x2="295.752" y2="644.24" gradientUnits="userSpaceOnUse">
<stop stop-color="#717578" style="stop-color:#717578;stop-color:color(display-p3 0.4431 0.4588 0.4706);stop-opacity:1;"/>
<stop offset="1" stop-color="#98968B" style="stop-color:#98968B;stop-color:color(display-p3 0.5961 0.5882 0.5451);stop-opacity:1;"/>
</linearGradient>
<linearGradient id="paint2_linear_427_1055" x1="295.752" y1="445.24" x2="295.752" y2="644.24" gradientUnits="userSpaceOnUse">
<stop stop-color="#717578" style="stop-color:#717578;stop-color:color(display-p3 0.4431 0.4588 0.4706);stop-opacity:1;"/>
<stop offset="1" stop-color="#98968B" style="stop-color:#98968B;stop-color:color(display-p3 0.5961 0.5882 0.5451);stop-opacity:1;"/>
</linearGradient>
<linearGradient id="paint3_linear_427_1055" x1="6.18738" y1="229.764" x2="108.019" y2="351.063" gradientUnits="userSpaceOnUse">
<stop offset="0.000687978" stop-color="#475572" style="stop-color:#475572;stop-color:color(display-p3 0.2784 0.3333 0.4471);stop-opacity:1;"/>
<stop offset="0.498798" stop-color="#555D66" style="stop-color:#555D66;stop-color:color(display-p3 0.3319 0.3632 0.3984);stop-opacity:1;"/>
<stop offset="1" stop-color="#1D1B15" style="stop-color:#1D1B15;stop-color:color(display-p3 0.1137 0.1059 0.0824);stop-opacity:1;"/>
</linearGradient>
<linearGradient id="paint4_linear_427_1055" x1="128.502" y1="185.74" x2="149.476" y2="448.24" gradientUnits="userSpaceOnUse">
<stop offset="0.000687978" stop-color="#475572" style="stop-color:#475572;stop-color:color(display-p3 0.2784 0.3333 0.4471);stop-opacity:1;"/>
<stop offset="0.498798" stop-color="#555D66" style="stop-color:#555D66;stop-color:color(display-p3 0.3319 0.3632 0.3984);stop-opacity:1;"/>
<stop offset="1" stop-color="#1D1B15" style="stop-color:#1D1B15;stop-color:color(display-p3 0.1137 0.1059 0.0824);stop-opacity:1;"/>
</linearGradient>
<linearGradient id="paint5_linear_427_1055" x1="153.752" y1="30.2402" x2="153.752" y2="418.24" gradientUnits="userSpaceOnUse">
<stop stop-color="#D4E5EF" style="stop-color:#D4E5EF;stop-color:color(display-p3 0.8314 0.8980 0.9373);stop-opacity:1;"/>
<stop offset="1" stop-color="#E2E4E9" style="stop-color:#E2E4E9;stop-color:color(display-p3 0.8863 0.8941 0.9137);stop-opacity:1;"/>
</linearGradient>
<linearGradient id="paint6_linear_427_1055" x1="271.502" y1="384.74" x2="271.502" y2="418.24" gradientUnits="userSpaceOnUse">
<stop stop-color="#DFE4EA" style="stop-color:#DFE4EA;stop-color:color(display-p3 0.8745 0.8941 0.9176);stop-opacity:1;"/>
<stop offset="1" stop-color="#F6F7FB" style="stop-color:#F6F7FB;stop-color:color(display-p3 0.9647 0.9686 0.9843);stop-opacity:1;"/>
</linearGradient>
<linearGradient id="paint7_linear_427_1055" x1="822.002" y1="554.74" x2="633.002" y2="462.24" gradientUnits="userSpaceOnUse">
<stop stop-color="#83837E" style="stop-color:#83837E;stop-color:color(display-p3 0.5137 0.5137 0.4941);stop-opacity:1;"/>
<stop offset="1" stop-color="#666666" stop-opacity="0" style="stop-color:none;stop-opacity:0;"/>
</linearGradient>
<linearGradient id="paint8_linear_427_1055" x1="500.002" y1="603.24" x2="501.002" y2="651.24" gradientUnits="userSpaceOnUse">
<stop stop-color="#EBECF0" stop-opacity="0" style="stop-color:none;stop-opacity:0;"/>
<stop offset="0.738307" stop-color="#999997" style="stop-color:#999997;stop-color:color(display-p3 0.6000 0.6000 0.5922);stop-opacity:1;"/>
<stop offset="1" stop-color="#F2F6F9" style="stop-color:#F2F6F9;stop-color:color(display-p3 0.9490 0.9647 0.9765);stop-opacity:1;"/>
</linearGradient>
<linearGradient id="paint9_linear_427_1055" x1="530.307" y1="5.83398" x2="531.697" y2="83.2409" gradientUnits="userSpaceOnUse">
<stop stop-color="#3E516F" style="stop-color:#3E516F;stop-color:color(display-p3 0.2431 0.3176 0.4353);stop-opacity:1;"/>
<stop offset="1" stop-color="#343843" style="stop-color:#343843;stop-color:color(display-p3 0.2039 0.2196 0.2627);stop-opacity:1;"/>
</linearGradient>
<linearGradient id="paint10_linear_427_1055" x1="596.828" y1="416.24" x2="597.002" y2="572.24" gradientUnits="userSpaceOnUse">
<stop stop-color="#474C5D" style="stop-color:#474C5D;stop-color:color(display-p3 0.2784 0.2980 0.3647);stop-opacity:1;"/>
<stop offset="0.670049" stop-color="#434753" style="stop-color:#434753;stop-color:color(display-p3 0.2627 0.2784 0.3255);stop-opacity:1;"/>
<stop offset="1" stop-color="#282A29" style="stop-color:#282A29;stop-color:color(display-p3 0.1569 0.1647 0.1608);stop-opacity:1;"/>
</linearGradient>
<linearGradient id="paint11_linear_427_1055" x1="815.502" y1="270.74" x2="729.502" y2="280.24" gradientUnits="userSpaceOnUse">
<stop stop-color="white" stop-opacity="0" style="stop-color:none;stop-opacity:0;"/>
<stop offset="1" stop-color="#4E595F" style="stop-color:#4E595F;stop-color:color(display-p3 0.3059 0.3490 0.3725);stop-opacity:1;"/>
</linearGradient>
<linearGradient id="paint12_linear_427_1055" x1="715.704" y1="29.7402" x2="715.704" y2="416.24" gradientUnits="userSpaceOnUse">
<stop stop-color="#4698D0" style="stop-color:#4698D0;stop-color:color(display-p3 0.2745 0.5961 0.8157);stop-opacity:1;"/>
<stop offset="1" stop-color="#70BAE8" style="stop-color:#70BAE8;stop-color:color(display-p3 0.4392 0.7294 0.9098);stop-opacity:1;"/>
</linearGradient>
<linearGradient id="paint13_linear_427_1055" x1="593.002" y1="416.24" x2="593.002" y2="595.262" gradientUnits="userSpaceOnUse">
<stop stop-color="#72BBE9" style="stop-color:#72BBE9;stop-color:color(display-p3 0.4471 0.7333 0.9137);stop-opacity:1;"/>
<stop offset="1" stop-color="#5AAEDD" style="stop-color:#5AAEDD;stop-color:color(display-p3 0.3529 0.6824 0.8667);stop-opacity:1;"/>
</linearGradient>
<radialGradient id="paint14_radial_427_1055" cx="0" cy="0" r="1" gradientUnits="userSpaceOnUse" gradientTransform="translate(533.502 471.24) rotate(43.8806) scale(14.1598 9.19701)">
<stop stop-color="#BCBDC1" style="stop-color:#BCBDC1;stop-color:color(display-p3 0.7384 0.7428 0.7565);stop-opacity:1;"/>
<stop offset="1" stop-color="#7C7D93" style="stop-color:#7C7D93;stop-color:color(display-p3 0.4863 0.4902 0.5765);stop-opacity:1;"/>
</radialGradient>
<radialGradient id="paint15_radial_427_1055" cx="0" cy="0" r="1" gradientUnits="userSpaceOnUse" gradientTransform="translate(506.827 444.594) rotate(45.0029) scale(23.8615 15.5102)">
<stop stop-color="#7C7D93" style="stop-color:#7C7D93;stop-color:color(display-p3 0.4863 0.4902 0.5765);stop-opacity:1;"/>
<stop offset="1" stop-color="#6B6C7F" style="stop-color:#6B6C7F;stop-color:color(display-p3 0.4185 0.4219 0.4963);stop-opacity:1;"/>
</radialGradient>
<radialGradient id="paint16_radial_427_1055" cx="0" cy="0" r="1" gradientUnits="userSpaceOnUse" gradientTransform="translate(9.08712 9.56522) rotate(43.8801) scale(13.5443 8.79722)">
<stop stop-color="#BCBDC1" style="stop-color:#BCBDC1;stop-color:color(display-p3 0.7384 0.7428 0.7565);stop-opacity:1;"/>
<stop offset="1" stop-color="#7C7D93" style="stop-color:#7C7D93;stop-color:color(display-p3 0.4863 0.4902 0.5765);stop-opacity:1;"/>
</radialGradient>
<radialGradient id="paint17_radial_427_1055" cx="0" cy="0" r="1" gradientUnits="userSpaceOnUse" gradientTransform="translate(12.9826 15.9273) rotate(48.2601) scale(20.9503 13.5299)">
<stop stop-color="#7C7D93" style="stop-color:#7C7D93;stop-color:color(display-p3 0.4863 0.4902 0.5765);stop-opacity:1;"/>
<stop offset="1" stop-color="#6B6C7F" style="stop-color:#6B6C7F;stop-color:color(display-p3 0.4185 0.4219 0.4963);stop-opacity:1;"/>
</radialGradient>
<linearGradient id="paint18_linear_427_1055" x1="241.996" y1="195.988" x2="241.996" y2="387.241" gradientUnits="userSpaceOnUse">
<stop stop-color="#8BC0EA" style="stop-color:#8BC0EA;stop-color:color(display-p3 0.5451 0.7529 0.9176);stop-opacity:1;"/>
<stop offset="1" stop-color="#72AEE5" style="stop-color:#72AEE5;stop-color:color(display-p3 0.4471 0.6824 0.8980);stop-opacity:1;"/>
</linearGradient>
<linearGradient id="paint19_linear_427_1055" x1="17.4421" y1="244.24" x2="17.4421" y2="421.24" gradientUnits="userSpaceOnUse">
<stop stop-color="#4C586D" style="stop-color:#4C586D;stop-color:color(display-p3 0.2980 0.3451 0.4275);stop-opacity:1;"/>
<stop offset="0.505" stop-color="#50575F" style="stop-color:#50575F;stop-color:color(display-p3 0.3137 0.3412 0.3725);stop-opacity:1;"/>
<stop offset="1" stop-color="#2C2D2B" style="stop-color:#2C2D2B;stop-color:color(display-p3 0.1725 0.1765 0.1686);stop-opacity:1;"/>
</linearGradient>
<linearGradient id="paint20_linear_427_1055" x1="35.5617" y1="244.24" x2="35.5617" y2="421.24" gradientUnits="userSpaceOnUse">
<stop stop-color="#4C586D" style="stop-color:#4C586D;stop-color:color(display-p3 0.2980 0.3451 0.4275);stop-opacity:1;"/>
<stop offset="0.505" stop-color="#50575F" style="stop-color:#50575F;stop-color:color(display-p3 0.3137 0.3412 0.3725);stop-opacity:1;"/>
<stop offset="1" stop-color="#2C2D2B" style="stop-color:#2C2D2B;stop-color:color(display-p3 0.1725 0.1765 0.1686);stop-opacity:1;"/>
</linearGradient>
</defs>
</svg>
