<svg width="1276" height="704" viewBox="0 0 1276 704" fill="none" xmlns="http://www.w3.org/2000/svg">
<path d="M1209 687.465C1083.58 702.812 1001.45 706.499 830.5 699.965L825.5 681.965L838.5 622.465L946 613.465L961.5 601.965L1114 585.965L1152.5 591.465L1164.5 623.465L1166.5 653.465H1188L1246.5 659.965C1240.85 674.13 1234.06 680.694 1209 687.465Z" fill="#4D5965" style="fill:#4D5965;fill:color(display-p3 0.3020 0.3490 0.3961);fill-opacity:1;"/>
<path d="M863.497 668.465C841.5 666.465 840.722 635.289 863.497 625.465H865L863.497 668.465Z" fill="url(#paint0_linear_427_2063)" style=""/>
<path d="M6.5 199.964L674 87.4641C872.755 45.8485 979.347 83.7228 1174 93.9641C1114.5 57.4644 898.286 -17.199 760.5 3.96404L40 167.464C18.8939 178.402 11.7965 185.577 6.5 199.964Z" fill="#8A9BAF" style="fill:#8A9BAF;fill:color(display-p3 0.5412 0.6078 0.6863);fill-opacity:1;"/>
<path d="M1190 654.254C1163.55 651.928 1159.11 617.389 1186.5 605.965L1190 606.465L1190 654.254Z" fill="url(#paint1_linear_427_2063)" style=""/>
<path d="M635.5 654.465C638.767 632.76 643.121 616.843 651 585.465L651.818 585.688C668.661 590.285 679.48 593.238 694 596.465L935.5 612.965L958.5 567.465L1080.5 551.965L1182 553.465L1235.5 591.465L1246 589.465L1244.5 603.465L1189.5 607.465C1177.34 608.722 1171 617.465 1171 628.965C1171 640.465 1174.68 649.011 1188 653.465L1187 658.965L1171 668.465L1157.5 673.465L1144 670.965L974 681.965L942.5 665.465L925.5 644.465L939 620.965C938.733 621.02 938.491 621.034 938.271 621.008L863.5 625.465C847.5 632.965 842 657.965 863.5 668.465V681.965C845.744 681.775 834.89 681.812 830.5 679.465V699.965C764.487 697.013 720.502 686.684 635.5 654.465Z" fill="#4D5965" style="fill:#4D5965;fill:color(display-p3 0.3020 0.3490 0.3961);fill-opacity:1;"/>
<path d="M635.5 654.465C638.767 632.76 643.121 616.843 651 585.465L651.818 585.688C668.661 590.285 679.48 593.238 694 596.465L935.5 612.965L958.5 567.465L1080.5 551.965L1182 553.465L1235.5 591.465L1246 589.465L1244.5 603.465L1189.5 607.465C1177.34 608.722 1171 617.465 1171 628.965C1171 640.465 1174.68 649.011 1188 653.465L1187 658.965L1171 668.465L1157.5 673.465L1144 670.965L974 681.965L942.5 665.465L925.5 644.465L939 620.965C938.733 621.02 938.491 621.034 938.271 621.008L863.5 625.465C847.5 632.965 842 657.965 863.5 668.465V681.965C845.744 681.775 834.89 681.812 830.5 679.465V699.965C764.487 697.013 720.502 686.684 635.5 654.465Z" fill="url(#paint2_linear_427_2063)" fill-opacity="0.2" style=""/>
<path d="M668 597.465L654.5 594.965L652 616.465L662 615.465H664L668 597.465Z" fill="#2E383A" style="fill:#2E383A;fill:color(display-p3 0.1804 0.2196 0.2275);fill-opacity:1;"/>
<path d="M1171.5 555.965H1181.5L1192.5 583.965L1192 598.965L1185 597.465V591.965L1171.5 555.965Z" fill="#0D1B1B" style="fill:#0D1B1B;fill:color(display-p3 0.0510 0.1059 0.1059);fill-opacity:1;"/>
<path d="M1246 586.465C1246.51 589.376 1246.07 590.635 1242.5 591.465L1212 563.465L1173 532.965L1176.5 478.464L1209 422.464V250.464L1160.5 93.9644L811.5 79.9644L807.5 246.964L916.5 497.464V545.965C897.362 572.617 883.685 587.502 855 613.965C805.81 614.17 768.164 609.179 693.5 596.465L694.5 246.464C701.599 177.755 706.656 142.838 715.5 79.9646L674 87.4646C706.5 20.9644 829 -0.0355377 983 26.9644C1051.5 38.9742 1096.47 56.9424 1174 93.9644C1192.01 154.125 1201.34 188.332 1217 250.464C1221.82 309.137 1224 370.964 1224 439.464C1230.5 454.464 1244.5 456.464 1245.15 477.464C1245.7 494.964 1240.5 514.464 1231.5 518.964C1230.51 525.96 1230.47 529.912 1230.5 536.965C1235.08 556.466 1239.1 567.231 1246 586.465Z" fill="#DCE0E3" style="fill:#DCE0E3;fill:color(display-p3 0.8627 0.8784 0.8902);fill-opacity:1;"/>
<path d="M1164 91.4653C1045.5 45.4644 889.999 47.9658 805.999 77.9653C800.891 145.133 801 231.964 803.999 249.965C844.22 349.462 870.499 414.964 915.999 497.465C942.376 512.574 943.093 523.184 915.999 546.465C898.326 569.995 884.19 585.141 854.999 613.965C888.135 614.04 907.136 614.198 935.499 612.965L959.999 568.465C988.999 561.464 1085.96 556.152 1181 555.965C1185.89 571.763 1188.32 581.139 1192 598.965C1219.08 595.795 1235.46 593.974 1242.5 591.465C1230.85 569.136 1224.89 556.454 1215.5 533.465C1212.5 529.464 1212.5 494.464 1212.5 484.965C1220.5 428.464 1220.97 341.093 1212.5 247.465C1198 191.964 1186.36 150.395 1164 91.4653Z" fill="#6D7985" style="fill:#6D7985;fill:color(display-p3 0.4275 0.4745 0.5216);fill-opacity:1;"/>
<path d="M902 392.31C1020.42 405.541 1132.02 406.19 1197.5 388.532C1092.51 381.326 1027.43 382.5 902 392.31Z" fill="#7C8498" style="fill:#7C8498;fill:color(display-p3 0.4863 0.5176 0.5961);fill-opacity:1;"/>
<path d="M862.5 387.464C875.715 389.228 888.899 390.846 902 392.31M1220 380.964C1213.29 383.786 1205.76 386.304 1197.5 388.532M1197.5 388.532C1132.02 406.19 1020.42 405.541 902 392.31M1197.5 388.532C1092.51 381.326 1027.43 382.5 902 392.31" stroke="#616E7C" style="stroke:#616E7C;stroke:color(display-p3 0.3804 0.4314 0.4863);stroke-opacity:1;"/>
<path d="M806.018 77.9659C968.949 75.0855 1051.78 76.5438 1164.02 92.005" stroke="#455368" stroke-opacity="0.3" style="stroke:#455368;stroke:color(display-p3 0.2706 0.3255 0.4078);stroke-opacity:0.3;"/>
<ellipse cx="1006.12" cy="94.802" rx="20.4682" ry="25.0209" transform="rotate(-31.8347 1006.12 94.802)" fill="#434D66" style="fill:#434D66;fill:color(display-p3 0.2627 0.3020 0.4000);fill-opacity:1;"/>
<ellipse cx="1006.16" cy="94.7375" rx="15.5" ry="18.9476" transform="rotate(-31.8347 1006.16 94.7375)" fill="#FEFDEF" style="fill:#FEFDEF;fill:color(display-p3 0.9961 0.9922 0.9373);fill-opacity:1;"/>
<path d="M882.5 385.465C1006.68 374.471 1077.05 373.2 1205 380.465L1169.33 201H851.633L882.5 385.465Z" fill="#414850" style="fill:#414850;fill:color(display-p3 0.2549 0.2824 0.3137);fill-opacity:1;"/>
<path d="M1158 143.965C1046.09 128.365 976.762 126.429 840.5 134.465L846.279 169L851.633 201H1169.33L1163.87 173.5L1158 143.965Z" fill="#414850" style="fill:#414850;fill:color(display-p3 0.2549 0.2824 0.3137);fill-opacity:1;"/>
<ellipse cx="935.5" cy="521.465" rx="30.5" ry="31" fill="url(#paint3_linear_427_2063)" style=""/>
<ellipse cx="1201" cy="511.965" rx="22" ry="29.5" fill="url(#paint4_linear_427_2063)" style=""/>
<ellipse cx="920.5" cy="519.465" rx="14.5" ry="18" fill="#F5FCD3" style="fill:#F5FCD3;fill:color(display-p3 0.9608 0.9882 0.8275);fill-opacity:1;"/>
<ellipse cx="1196.5" cy="508.465" rx="15.5" ry="17" fill="#F5FCD3" style="fill:#F5FCD3;fill:color(display-p3 0.9608 0.9882 0.8275);fill-opacity:1;"/>
<ellipse cx="847" cy="500.964" rx="38" ry="28.5" transform="rotate(3.28598 847 500.964)" fill="url(#paint5_linear_427_2063)" style=""/>
<ellipse cx="826.5" cy="500.465" rx="15.5" ry="20" fill="#585C71" style="fill:#585C71;fill:color(display-p3 0.3441 0.3623 0.4442);fill-opacity:1;"/>
<ellipse cx="1231.86" cy="486.952" rx="10.8393" ry="27.5228" transform="rotate(1.76096 1231.86 486.952)" fill="url(#paint6_linear_427_2063)" style=""/>
<ellipse cx="1229.04" cy="483.65" rx="7.89193" ry="16.1276" transform="rotate(-0.520952 1229.04 483.65)" fill="#585C71" style="fill:#585C71;fill:color(display-p3 0.3451 0.3608 0.4431);fill-opacity:1;"/>
<path d="M662 615.464L663 597.964C664.674 596.998 665.673 596.478 676.5 598.964C679.61 599.662 680 600.964 680 603.964C680 606.964 679 620.964 679 620.964C674.677 615.899 670.951 614.757 662 615.464Z" fill="#334148" style="fill:#334148;fill:color(display-p3 0.2000 0.2549 0.2824);fill-opacity:1;"/>
<path d="M0 264.464L6.5 199.964L715.5 79.9644L694 247.464V185.964C694.051 181.572 693.421 179.751 688.5 180.077L664.5 180.753C659.651 180.654 658.022 182.43 656.5 187.964L654.5 245.964L0 264.464Z" fill="#DCE0E3" style="fill:#DCE0E3;fill:color(display-p3 0.8627 0.8784 0.8902);fill-opacity:1;"/>
<path d="M654.5 245.964L0 264.464V361.464L654 480.464L654.5 245.964Z" fill="#657690" style="fill:#657690;fill:color(display-p3 0.3961 0.4627 0.5647);fill-opacity:1;"/>
<path d="M229.5 460.464L234.5 458.964L230 470.464L229 464.964L229.5 460.464Z" fill="#4D5972" style="fill:#4D5972;fill:color(display-p3 0.3002 0.3492 0.4474);fill-opacity:1;"/>
<path d="M273.5 155.963C268.967 156.498 267.38 158.942 266.5 166.963L256.5 250.964C256 256.465 256.5 257.964 261.5 257.964L310.501 256.464C319.501 256.464 320.501 255.465 321.501 248.964L334 153.963C334.5 147.464 333 146.464 327.5 147.463L273.5 155.963Z" fill="#404040" style="fill:#404040;fill:color(display-p3 0.2526 0.2526 0.2526);fill-opacity:1;"/>
<path d="M432 490.965L438 484.465L529.5 505.965L558.5 520.465L432 490.965Z" fill="#E0EDF4" style="fill:#E0EDF4;fill:color(display-p3 0.8784 0.9294 0.9569);fill-opacity:1;"/>
<path d="M111.2 260.271L120.186 184.122C120.343 182.795 119.179 181.691 117.862 181.917L86.9429 187.217C86.0838 187.364 85.4189 188.051 85.2996 188.915L75.3277 261.093C75.157 262.328 76.1461 263.417 77.3921 263.365L109.297 262.035C110.278 261.994 111.085 261.247 111.2 260.271Z" fill="#404040" style="fill:#404040;fill:color(display-p3 0.2526 0.2526 0.2526);fill-opacity:1;"/>
<path d="M154.724 258.292L165.644 176.625C165.822 175.298 164.671 174.175 163.349 174.385L126.459 180.233C125.592 180.371 124.916 181.058 124.792 181.927L113.836 259.097C113.661 260.331 114.644 261.422 115.889 261.377L152.814 260.026C153.788 259.99 154.594 259.258 154.724 258.292Z" fill="#404040" style="fill:#404040;fill:color(display-p3 0.2526 0.2526 0.2526);fill-opacity:1;"/>
<path d="M348.188 144.01C343.654 144.544 340.414 147.155 339.535 155.177L327 249.177C326.501 254.678 331.501 255.177 336.501 255.177L395.5 253.464C404.5 253.464 405.5 251.298 406.5 244.797L419.535 141.678C420.035 135.178 417.535 132.678 412.035 133.677L348.188 144.01Z" fill="#404040" style="fill:#404040;fill:color(display-p3 0.2526 0.2526 0.2526);fill-opacity:1;"/>
<path d="M670.5 628.704L644 618.704L643.5 617.465L646.304 618.455L662.5 616.704C671.784 615.803 675.286 617.405 679.5 622.204C679.277 624.02 679.161 624.941 679 625.204C678.335 625.073 677.722 624.799 676.5 624.204L670.5 628.704Z" fill="#4B5969" style="fill:#4B5969;fill:color(display-p3 0.2939 0.3486 0.4107);fill-opacity:1;"/>
<path d="M643.5 617.464L662 615.465C671.284 614.564 674.786 616.166 679 620.965C678.777 622.78 678.661 623.702 678.5 623.965C677.835 623.834 677.222 623.56 676 622.965L670 627.464L643.5 617.464Z" fill="#556475" style="fill:#556475;fill:color(display-p3 0.3333 0.3922 0.4588);fill-opacity:1;"/>
<path d="M865 625.465L959.5 619.465L964 622.465L959.5 625.965L959 637.965L962.5 640.465L959.5 644.465L959 656.965L962.5 659.965L959 663.465L958.5 674.965L962 678.465L958.5 680.965L864 684.965L865 625.465Z" fill="#3C4B52" style="fill:#3C4B52;fill:color(display-p3 0.2353 0.2941 0.3216);fill-opacity:1;"/>
<path d="M964 622.465L959.5 619.465L865 625.465L864 684.965L958.5 680.965L962 678.465M964 622.465L959.5 625.965M964 622.465L866 627.965L865 630.465L959.5 625.965M959.5 625.965L959 637.965L962.5 640.465M962.5 640.465L959.5 644.465M962.5 640.465L867 646.965L866 649.965L959.5 644.465M959.5 644.465L959 656.965L962.5 659.965M962.5 659.965L959 663.465M962.5 659.965L867 666.465L866 668.465L959 663.465M959 663.465L958.5 674.965M958.5 674.965L962 678.465M958.5 674.965L867 680.965L866 683.465L962 678.465" stroke="#2F3C42" style="stroke:#2F3C42;stroke:color(display-p3 0.1845 0.2363 0.2605);stroke-opacity:1;"/>
<path d="M1189.86 607.869L1271.13 602.465L1275 605.167L1271.13 608.32L1270.7 619.129L1273.71 621.381L1271.13 624.984L1270.7 636.243L1273.71 638.946L1270.7 642.098L1270.27 652.457L1273.28 655.61L1270.27 657.862L1189 661.465L1189.86 607.869Z" fill="#3C4B52" style="fill:#3C4B52;fill:color(display-p3 0.2353 0.2941 0.3216);fill-opacity:1;"/>
<path d="M1275 605.167L1271.13 602.465L1189.86 607.869L1189 661.465L1270.27 657.862L1273.28 655.61M1275 605.167L1271.13 608.32M1275 605.167L1190.72 610.121L1189.86 612.373L1271.13 608.32M1271.13 608.32L1270.7 619.129L1273.71 621.381M1273.71 621.381L1271.13 624.984M1273.71 621.381L1191.58 627.236L1190.72 629.938L1271.13 624.984M1271.13 624.984L1270.7 636.243L1273.71 638.946M1273.71 638.946L1270.7 642.098M1273.71 638.946L1191.58 644.801L1190.72 646.602L1270.7 642.098M1270.7 642.098L1270.27 652.457M1270.27 652.457L1273.28 655.61M1270.27 652.457L1191.58 657.862L1190.72 660.114L1273.28 655.61" stroke="#2F3C42" style="stroke:#2F3C42;stroke:color(display-p3 0.1845 0.2363 0.2605);stroke-opacity:1;"/>
<path d="M651.5 552.464L652 478.464L0 361.464V438.964L445.5 589.464L585 636.964L635.5 654.464L651 585.464L693.5 596.464V568.464L651.5 552.464Z" fill="#DCE0E3" style="fill:#DCE0E3;fill:color(display-p3 0.8627 0.8784 0.8902);fill-opacity:1;"/>
<path d="M230 443.964L229.5 461.753" stroke="#9998A0" style="stroke:#9998A0;stroke:color(display-p3 0.6000 0.5961 0.6275);stroke-opacity:1;" stroke-width="0.3"/>
<path d="M325.915 369.329C325.961 364.31 330.322 360.424 335.313 360.954L398.398 367.657C402.721 368.116 406 371.762 406 376.109V539.831C406 545.586 400.4 549.678 394.917 547.929L330.473 527.37C326.922 526.237 324.523 522.922 324.557 519.195L325.915 369.329Z" fill="#404040" style="fill:#404040;fill:color(display-p3 0.2526 0.2526 0.2526);fill-opacity:1;"/>
<path d="M255.678 362.359C255.678 357.33 260.021 353.4 265.026 353.902L312.801 358.692C317.165 359.13 320.48 362.816 320.453 367.202L319.569 512.552C319.535 518.242 314.028 522.292 308.586 520.63L261.694 506.303C258.12 505.21 255.678 501.911 255.678 498.174V362.359Z" fill="#404040" style="fill:#404040;fill:color(display-p3 0.2526 0.2526 0.2526);fill-opacity:1;"/>
<path d="M113.5 342.36C113.5 340.002 115.529 338.156 117.876 338.378L152.199 341.622C154.253 341.816 155.822 343.541 155.822 345.604V468.051C155.822 470.742 153.22 472.665 150.648 471.875L116.325 461.332C114.646 460.816 113.5 459.265 113.5 457.509V342.36Z" fill="#404040" style="fill:#404040;fill:color(display-p3 0.2526 0.2526 0.2526);fill-opacity:1;"/>
<path d="M75 338.872C75 336.51 77.0361 334.662 79.3871 334.891L107.387 337.613C109.437 337.812 111 339.535 111 341.594V453.987C111 456.697 108.363 458.622 105.783 457.798L77.7828 448.853C76.1251 448.324 75 446.783 75 445.043V338.872Z" fill="#404040" style="fill:#404040;fill:color(display-p3 0.2526 0.2526 0.2526);fill-opacity:1;"/>
<path d="M35.5 262.964L45.5 193.464L60 190.964L50.5 262.964V396.964L47.5 400.464V412.964L33.5 409.464V397.464L35.5 394.464V262.964Z" fill="#00AA91" style="fill:#00AA91;fill:color(display-p3 0.0000 0.6667 0.5686);fill-opacity:1;"/>
<path d="M28.9803 266.866C28.9913 265.801 29.8356 264.931 30.9003 264.888L38.3324 264.591C40.0529 264.522 41.4781 265.912 41.452 267.634L40.0352 361.14C40.0167 362.363 38.9136 363.283 37.7067 363.082L28.8444 361.605C28.3584 361.524 28.0038 361.101 28.0089 360.608L28.9803 266.866Z" fill="#404040" style="fill:#404040;fill:color(display-p3 0.2526 0.2526 0.2526);fill-opacity:1;"/>
<path d="M47.4905 266.376C47.4958 265.307 48.3418 264.431 49.4105 264.388L56.8496 264.09C58.5636 264.022 59.986 265.402 59.9694 267.117L59.0227 364.627C59.0108 365.855 57.9053 366.782 56.694 366.58L47.8398 365.104C47.3558 365.024 47.0018 364.604 47.0042 364.113L47.4905 266.376Z" fill="#404040" style="fill:#404040;fill:color(display-p3 0.2526 0.2526 0.2526);fill-opacity:1;"/>
<path d="M525 512.965L529.5 505.965L575.5 516.465L569 522.965L525 512.965Z" fill="#E0EDF4" style="fill:#E0EDF4;fill:color(display-p3 0.8784 0.9294 0.9569);fill-opacity:1;"/>
<path d="M475.5 252.964L493 117.964L549 108.464L530.5 249.964L529.5 505.964L525 512.964L524 536.964L469 522.964L469.5 498.964L474.5 492.464L475.5 252.964Z" fill="#00AA91" style="fill:#00AA91;fill:color(display-p3 0.0000 0.6667 0.5686);fill-opacity:1;"/>
<path d="M230 443.964L165.5 428.653L169.5 423.964L235 438.964L234.5 458.964L229.5 462L230 443.964Z" fill="#E0EDF4" style="fill:#E0EDF4;fill:color(display-p3 0.8784 0.9294 0.9569);fill-opacity:1;"/>
<path d="M230 443.964L165.5 428.653L169.5 423.964L235 438.964L234.5 458.964L229.5 462L230 443.964Z" fill="url(#paint7_linear_427_2063)" fill-opacity="0.2" style=""/>
<path d="M188.5 260.464L199.5 167.464L226 162.964L214.5 258.464V433.964L210.5 439.246V456.964L182.48 449.464L183 432.653L186 427.964L188.5 260.464Z" fill="#00AA91" style="fill:#00AA91;fill:color(display-p3 0.0000 0.6667 0.5686);fill-opacity:1;"/>
<path d="M448.946 258.353C448.976 255.636 451.171 253.44 453.889 253.409L486.326 253.045C490.259 253.001 493.457 256.205 493.404 260.138L491.046 436.497C491.022 438.325 489.381 439.707 487.575 439.42L454.672 434.185C450.265 433.484 447.037 429.659 447.087 425.196L448.946 258.353Z" fill="#404040" style="fill:#404040;fill:color(display-p3 0.2526 0.2526 0.2526);fill-opacity:1;"/>
<path d="M512.909 257.753C512.96 254.523 515.559 251.913 518.788 251.849L554.861 251.127C559.341 251.038 563.021 254.645 563.021 259.126V444.959C563.021 448.705 559.627 451.535 555.943 450.861L520.001 444.292C514.23 443.237 510.068 438.165 510.16 432.299L512.909 257.753Z" fill="#404040" style="fill:#404040;fill:color(display-p3 0.2526 0.2526 0.2526);fill-opacity:1;"/>
<path d="M176.407 265.369C176.459 263.198 178.234 261.464 180.406 261.464H194.453C196.128 261.464 197.479 262.836 197.453 264.511L195.536 388.947C195.517 390.164 194.424 391.082 193.222 390.891L176.09 388.165C174.607 387.93 173.527 386.633 173.562 385.131L176.407 265.369Z" fill="#404040" style="fill:#404040;fill:color(display-p3 0.2526 0.2526 0.2526);fill-opacity:1;"/>
<path d="M429.5 523.464L429 516.853L491 532.964L490 540.753L429.5 523.464Z" fill="#3E4B63" style="fill:#3E4B63;fill:color(display-p3 0.2431 0.2941 0.3882);fill-opacity:1;"/>
<path d="M206 263.964C206 262.308 207.343 260.964 209 260.964H225.941C228.173 260.964 229.973 262.791 229.94 265.023L228.052 393.715C228.025 395.568 226.341 396.953 224.518 396.623L208.465 393.715C207.038 393.456 206 392.213 206 390.763V263.964Z" fill="#404040" style="fill:#404040;fill:color(display-p3 0.2526 0.2526 0.2526);fill-opacity:1;"/>
<path d="M208.5 202.964L202 258.964L200.5 430.964L197 435.964L196 455.464" stroke="#004755" style="stroke:#004755;stroke:color(display-p3 0.0000 0.2784 0.3333);stroke-opacity:1;"/>
<path d="M208.5 202.964L202 258.964L200.5 430.964L197 435.964L196 455.464" stroke="url(#paint8_linear_427_2063)" stroke-opacity="0.2" style=""/>
<path d="M196 452.253L165.5 443.464V447.464C166.024 447.619 183.061 452.224 193 454.964L196 452.253Z" fill="#323D53" style="fill:#323D53;fill:color(display-p3 0.1961 0.2392 0.3255);fill-opacity:1;"/>
<path d="M228 464.5L196.5 456V459.5L228 468.464V464.5Z" fill="#3E4B63" style="fill:#3E4B63;fill:color(display-p3 0.2447 0.2930 0.3896);fill-opacity:1;"/>
<path d="M567.5 547.465L558.5 550.465L558.5 559L567.5 556.5L567.5 547.465Z" fill="#4D5972" style="fill:#4D5972;fill:color(display-p3 0.3020 0.3490 0.4471);fill-opacity:1;"/>
<path d="M498 543L498.5 535.003L558.5 550.464V559L498 543Z" fill="#3E4B63" style="fill:#3E4B63;fill:color(display-p3 0.2431 0.2941 0.3882);fill-opacity:1;"/>
<path d="M569 522.965L575.5 516.465L575.13 554.253L567.5 556.5V547.465L569 522.965Z" fill="#CDD3D8" style="fill:#CDD3D8;fill:color(display-p3 0.8029 0.8267 0.8457);fill-opacity:1;"/>
<path d="M569 522.965L525 512.965L524 536.965L567.5 547.465L569 522.965Z" fill="#BCC1C5" style="fill:#BCC1C5;fill:color(display-p3 0.7373 0.7569 0.7725);fill-opacity:1;"/>
<path d="M469.5 499.465L432 490.965L433 513.465L469 522.965L469.5 499.465Z" fill="#BCC1C5" style="fill:#BCC1C5;fill:color(display-p3 0.7373 0.7569 0.7725);fill-opacity:1;"/>
<path d="M165.5 450.464V447.464L193 454.964V458.464L165.5 450.464Z" fill="#3E4B63" style="fill:#3E4B63;fill:color(display-p3 0.2431 0.2941 0.3882);fill-opacity:1;"/>
<path d="M436.5 485.964L438.5 248.463L447 185.963C447.9 178.605 449.842 176.26 456 175.463L578 162.463C586 161.464 588.145 162.515 587 169.963L577 247.463L575.5 556.463" stroke="#9998A0" style="stroke:#9998A0;stroke:color(display-p3 0.6000 0.5961 0.6275);stroke-opacity:1;"/>
<path d="M513 169.964L503 252.464L501 499.464L496 505.964V530.053" stroke="#004755" style="stroke:#004755;stroke:color(display-p3 0.0000 0.2784 0.3333);stroke-opacity:1;"/>
<path d="M513 169.964L503 252.464L501 499.464L496 505.964V530.053" stroke="url(#paint9_linear_427_2063)" stroke-opacity="0.2" style=""/>
<path d="M498.5 535L496 529.753V537.5L498 543L498.5 535Z" fill="#4D5972" style="fill:#4D5972;fill:color(display-p3 0.3020 0.3490 0.4471);fill-opacity:1;"/>
<path d="M429 516.853L433 513.453L496 529.753L490.16 532.748L429 516.853Z" fill="#323D53" style="fill:#323D53;fill:color(display-p3 0.1961 0.2392 0.3255);fill-opacity:1;"/>
<path d="M490 540.754V532.754L496 529.754V537.5L490 540.754Z" fill="#4D5972" style="fill:#4D5972;fill:color(display-p3 0.3020 0.3490 0.4471);fill-opacity:1;"/>
<path d="M567.5 547.464L496 529.753L498.5 535.003L558.5 550.464L567.5 547.464Z" fill="#323D53" style="fill:#323D53;fill:color(display-p3 0.1961 0.2392 0.3255);fill-opacity:1;"/>
<path d="M660.5 527.465L619 543.465L649 565.965L660.5 527.465Z" fill="#DCE0E3" style="fill:#DCE0E3;fill:color(display-p3 0.8627 0.8784 0.8902);fill-opacity:1;"/>
<path d="M694 192L663 549L694 577.964C702.873 413.351 706.539 323.113 694 192Z" fill="#DCE0E3" style="fill:#DCE0E3;fill:color(display-p3 0.8627 0.8784 0.8902);fill-opacity:1;"/>
<path d="M656.5 187.964L654.5 245.964L649 547.464C649 554.964 649.5 555.964 655 557.464L683 565.464C688.5 566.964 693 566.964 693 559.464L692 245.464L694 185.964C694.051 181.572 693.421 179.751 688.5 180.077L664.5 180.753C659.651 180.654 658.022 182.43 656.5 187.964Z" fill="#DCE0E3" stroke="#9998A0" style="fill:#DCE0E3;fill:color(display-p3 0.8627 0.8784 0.8902);fill-opacity:1;stroke:#9998A0;stroke:color(display-p3 0.6000 0.5961 0.6275);stroke-opacity:1;" stroke-width="0.2"/>
<path d="M667 215.964C665 215.964 664 217.964 664 222.964L663 245.964L662.5 459.964C662.5 464.965 663 464.965 667 465.964L673.5 466.964C677 467.465 677.832 467.174 678 463.964L680.5 245.964L681.5 221.964C682 216.465 680.5 215.464 677 215.464L667 215.964Z" fill="#404040" stroke="#404040" style="fill:#404040;fill:color(display-p3 0.2526 0.2526 0.2526);fill-opacity:1;stroke:#404040;stroke:color(display-p3 0.2526 0.2526 0.2526);stroke-opacity:1;"/>
<path d="M183 432.653L165.5 428.653V443.653L182.55 448.373L183 432.653Z" fill="#BCC1C5" style="fill:#BCC1C5;fill:color(display-p3 0.7373 0.7569 0.7725);fill-opacity:1;"/>
<path d="M23.5 406.964V394.464L33.5 396.964V409.464L23.5 406.964Z" fill="#BCC1C5" style="fill:#BCC1C5;fill:color(display-p3 0.7373 0.7569 0.7725);fill-opacity:1;"/>
<path d="M23.5 395.464L47.5 400.464L50.5 396.964L25 392.464L23.5 395.464Z" fill="#E0EDF4" style="fill:#E0EDF4;fill:color(display-p3 0.8784 0.9294 0.9569);fill-opacity:1;"/>
<path d="M33.5 397.464L50.5 396.964L62 398.964L59 402.964L33.5 397.464Z" fill="#E0EDF4" style="fill:#E0EDF4;fill:color(display-p3 0.8784 0.9294 0.9569);fill-opacity:1;"/>
<path d="M59 415.964V402.964L62 398.964L61.5 412.964L59 415.964Z" fill="#D7E1E8" style="fill:#D7E1E8;fill:color(display-p3 0.8431 0.8824 0.9098);fill-opacity:1;"/>
<path d="M59 402.964L47.5 400.464V412.964L59 415.964V402.964Z" fill="#BCC1C5" style="fill:#BCC1C5;fill:color(display-p3 0.7373 0.7569 0.7725);fill-opacity:1;"/>
<path d="M196 452.253L193 454.964V458.464L196 455.464V452.253Z" fill="#4D5972" style="fill:#4D5972;fill:color(display-p3 0.3020 0.3490 0.4471);fill-opacity:1;"/>
<path d="M196.5 459.5L196 455.453V452.243L196.5 456V459.5Z" fill="#4D5972" style="fill:#4D5972;fill:color(display-p3 0.3020 0.3490 0.4471);fill-opacity:1;"/>
<path d="M230 443.964L210.5 439.253V456.5L229.5 462L230 443.964Z" fill="#BCC1C5" style="fill:#BCC1C5;fill:color(display-p3 0.7373 0.7569 0.7725);fill-opacity:1;"/>
<path d="M229.5 461.789L196 452.253L196.5 456L228 464.5L229.5 461.789Z" fill="#323D53" style="fill:#323D53;fill:color(display-p3 0.1961 0.2392 0.3255);fill-opacity:1;"/>
<path d="M847.633 201C983.117 194.405 1054.26 194.273 1172.33 201" stroke="#6D7985" style="stroke:#6D7985;stroke:color(display-p3 0.4275 0.4745 0.5216);stroke-opacity:1;" stroke-width="4"/>
<rect x="930.042" y="142.863" width="145" height="44" transform="rotate(0.108348 930.042 142.863)" fill="#5D646D" style="fill:#5D646D;fill:color(display-p3 0.3630 0.3933 0.4279);fill-opacity:1;"/>
<g filter="url(#filter0_f_427_2063)">
<path d="M963.941 152.115L964.222 176.867L961.518 176.854L951.401 158.655L951.22 158.654L951.426 176.807L948.484 176.793L948.203 152.041L950.926 152.054L961.053 170.278L961.234 170.278L961.028 152.102L963.941 152.115Z" fill="#DEB843" style="fill:#DEB843;fill:color(display-p3 0.8716 0.7234 0.2622);fill-opacity:1;"/>
<path d="M985.31 164.591C985.34 167.234 984.985 169.504 984.245 171.402C983.504 173.292 982.477 174.745 981.162 175.762C979.853 176.771 978.358 177.272 976.676 177.264C974.988 177.256 973.475 176.741 972.136 175.72C970.805 174.69 969.747 173.223 968.964 171.318C968.181 169.413 967.774 167.143 967.744 164.508C967.714 161.866 968.069 159.599 968.81 157.709C969.55 155.811 970.574 154.358 971.883 153.349C973.198 152.332 974.699 151.828 976.388 151.835C978.07 151.843 979.577 152.362 980.908 153.392C982.246 154.413 983.307 155.876 984.09 157.781C984.873 159.678 985.28 161.948 985.31 164.591ZM982.397 164.577C982.374 162.563 982.097 160.866 981.568 159.486C981.044 158.097 980.334 157.047 979.438 156.333C978.547 155.612 977.543 155.249 976.426 155.244C975.303 155.238 974.304 155.592 973.43 156.305C972.556 157.01 971.87 158.054 971.371 159.438C970.879 160.813 970.644 162.508 970.667 164.522C970.69 166.536 970.963 168.238 971.487 169.626C972.016 171.006 972.726 172.057 973.617 172.778C974.507 173.491 975.514 173.85 976.637 173.856C977.754 173.861 978.75 173.511 979.624 172.806C980.505 172.093 981.191 171.049 981.683 169.674C982.182 168.29 982.419 166.592 982.397 164.577Z" fill="#DEB843" style="fill:#DEB843;fill:color(display-p3 0.8716 0.7234 0.2622);fill-opacity:1;"/>
<path d="M987.074 155.439L987.038 152.224L1002.13 152.295L1002.16 155.51L996.081 155.481L996.325 177.018L993.393 177.004L993.148 155.467L987.074 155.439Z" fill="#DEB843" style="fill:#DEB843;fill:color(display-p3 0.8716 0.7234 0.2622);fill-opacity:1;"/>
<path d="M1005.74 177.062L1005.46 152.311L1017.69 152.368L1017.72 155.583L1008.44 155.539L1008.53 163.081L1017.17 163.122L1017.21 166.324L1008.56 166.284L1008.65 173.861L1018.05 173.906L1018.08 177.12L1005.74 177.062Z" fill="#DEB843" style="fill:#DEB843;fill:color(display-p3 0.8716 0.7234 0.2622);fill-opacity:1;"/>
<path d="M1036.23 177.612C1034.73 177.597 1033.44 177.088 1032.36 176.083C1031.28 175.079 1030.45 173.621 1029.86 171.709C1029.28 169.797 1028.97 167.495 1028.94 164.804C1028.91 162.121 1029.17 159.83 1029.71 157.931C1030.26 156.032 1031.06 154.586 1032.12 153.592C1033.18 152.598 1034.45 152.104 1035.94 152.111C1037.44 152.118 1038.72 152.628 1039.8 153.64C1040.88 154.644 1041.71 156.098 1042.29 158.003C1042.89 159.899 1043.2 162.188 1043.23 164.871C1043.26 167.57 1043 169.874 1042.46 171.78C1041.92 173.679 1041.12 175.13 1040.06 176.132C1039.01 177.126 1037.73 177.619 1036.23 177.612ZM1036.2 174.385C1037.52 174.392 1038.54 173.579 1039.26 171.947C1039.99 170.315 1040.34 167.952 1040.31 164.858C1040.28 162.803 1040.09 161.066 1039.73 159.646C1039.38 158.219 1038.88 157.137 1038.24 156.4C1037.6 155.656 1036.85 155.282 1035.98 155.278C1034.67 155.272 1033.64 156.089 1032.91 157.729C1032.18 159.369 1031.83 161.732 1031.86 164.818C1031.89 166.88 1032.07 168.626 1032.43 170.053C1032.78 171.473 1033.28 172.551 1033.92 173.287C1034.56 174.015 1035.32 174.381 1036.2 174.385Z" fill="#DEB843" style="fill:#DEB843;fill:color(display-p3 0.8716 0.7234 0.2622);fill-opacity:1;"/>
<path d="M1053.34 177.62C1051.97 177.614 1050.77 177.31 1049.71 176.709C1048.66 176.108 1047.84 175.282 1047.24 174.232C1046.63 173.182 1046.33 171.988 1046.32 170.65C1046.3 169.603 1046.46 168.641 1046.79 167.764C1047.13 166.88 1047.6 166.145 1048.19 165.559C1048.78 164.966 1049.44 164.59 1050.17 164.433L1050.17 164.288C1049.2 163.985 1048.41 163.321 1047.82 162.295C1047.22 161.269 1046.92 160.091 1046.91 158.762C1046.89 157.497 1047.14 156.37 1047.66 155.381C1048.19 154.385 1048.92 153.603 1049.85 153.035C1050.78 152.467 1051.85 152.186 1053.05 152.192C1054.24 152.198 1055.3 152.493 1056.24 153.077C1057.19 153.654 1057.93 154.443 1058.49 155.444C1059.04 156.438 1059.32 157.563 1059.34 158.82C1059.35 160.149 1059.07 161.324 1058.49 162.345C1057.91 163.365 1057.15 164.022 1056.21 164.316L1056.21 164.461C1056.94 164.626 1057.6 165.007 1058.19 165.606C1058.79 166.197 1059.27 166.937 1059.63 167.825C1059.99 168.705 1060.18 169.668 1060.2 170.716C1060.21 172.053 1059.92 173.244 1059.35 174.289C1058.77 175.334 1057.96 176.152 1056.92 176.743C1055.88 177.334 1054.69 177.627 1053.34 177.62ZM1053.3 174.563C1054.11 174.566 1054.81 174.401 1055.39 174.065C1055.98 173.721 1056.43 173.244 1056.75 172.633C1057.06 172.014 1057.22 171.29 1057.22 170.46C1057.2 169.598 1057.02 168.836 1056.66 168.173C1056.31 167.511 1055.84 166.989 1055.24 166.608C1054.65 166.226 1053.97 166.034 1053.21 166.03C1052.44 166.027 1051.76 166.213 1051.17 166.589C1050.57 166.964 1050.11 167.482 1049.78 168.141C1049.44 168.8 1049.28 169.561 1049.3 170.423C1049.3 171.253 1049.46 171.979 1049.79 172.6C1050.12 173.214 1050.58 173.696 1051.19 174.045C1051.79 174.386 1052.49 174.559 1053.3 174.563ZM1053.17 163.045C1053.82 163.048 1054.39 162.886 1054.89 162.558C1055.39 162.23 1055.78 161.772 1056.06 161.185C1056.34 160.599 1056.48 159.91 1056.48 159.121C1056.47 158.347 1056.31 157.67 1056.02 157.088C1055.73 156.507 1055.34 156.058 1054.83 155.741C1054.33 155.417 1053.75 155.253 1053.09 155.25C1052.41 155.247 1051.82 155.405 1051.32 155.725C1050.82 156.037 1050.44 156.482 1050.16 157.061C1049.89 157.64 1049.76 158.316 1049.78 159.089C1049.78 159.879 1049.93 160.568 1050.22 161.158C1050.51 161.747 1050.91 162.209 1051.42 162.541C1051.93 162.874 1052.51 163.042 1053.17 163.045Z" fill="#DEB843" style="fill:#DEB843;fill:color(display-p3 0.8716 0.7234 0.2622);fill-opacity:1;"/>
</g>
<path d="M229.5 467.5V461.753L228 464.5V468.5L229.5 467.5Z" fill="#58657E" style="fill:#58657E;fill:color(display-p3 0.3439 0.3961 0.4925);fill-opacity:1;"/>
<path d="M229.5 461.753L230 443.964L235 439L236.5 254.964L242.424 204.385C242.72 201.854 240.605 199.695 238.068 199.938L178.193 205.693C176.327 205.872 174.836 207.323 174.606 209.183L168.5 258.464L169.5 423.964L165.5 428.464V447.464" stroke="#9998A0" style="stroke:#9998A0;stroke:color(display-p3 0.6000 0.5961 0.6275);stroke-opacity:1;" stroke-width="0.7" stroke-linecap="round"/>
<defs>
<filter id="filter0_f_427_2063" x="947.903" y="151.535" width="112.598" height="26.3852" filterUnits="userSpaceOnUse" color-interpolation-filters="sRGB">
<feFlood flood-opacity="0" result="BackgroundImageFix"/>
<feBlend mode="normal" in="SourceGraphic" in2="BackgroundImageFix" result="shape"/>
<feGaussianBlur stdDeviation="0.15" result="effect1_foregroundBlur_427_2063"/>
</filter>
<linearGradient id="paint0_linear_427_2063" x1="855.853" y1="625.465" x2="855.853" y2="668.465" gradientUnits="userSpaceOnUse">
<stop stop-color="#414E56" style="stop-color:#414E56;stop-color:color(display-p3 0.2549 0.3059 0.3373);stop-opacity:1;"/>
<stop offset="1" stop-color="#0F1C22" style="stop-color:#0F1C22;stop-color:color(display-p3 0.0588 0.1098 0.1333);stop-opacity:1;"/>
</linearGradient>
<linearGradient id="paint1_linear_427_2063" x1="1179" y1="606.465" x2="1179" y2="656.465" gradientUnits="userSpaceOnUse">
<stop stop-color="#414E56" style="stop-color:#414E56;stop-color:color(display-p3 0.2549 0.3059 0.3373);stop-opacity:1;"/>
<stop offset="1" stop-color="#0F1C22" style="stop-color:#0F1C22;stop-color:color(display-p3 0.0588 0.1098 0.1333);stop-opacity:1;"/>
</linearGradient>
<linearGradient id="paint2_linear_427_2063" x1="1067.5" y1="625.465" x2="1066" y2="559.465" gradientUnits="userSpaceOnUse">
<stop stop-opacity="0" style="stop-color:none;stop-opacity:0;"/>
<stop offset="1" style="stop-color:black;stop-opacity:1;"/>
</linearGradient>
<linearGradient id="paint3_linear_427_2063" x1="935.5" y1="490.465" x2="935.5" y2="552.465" gradientUnits="userSpaceOnUse">
<stop stop-color="#1C2431" style="stop-color:#1C2431;stop-color:color(display-p3 0.1098 0.1412 0.1922);stop-opacity:1;"/>
<stop offset="1" stop-color="#687484" style="stop-color:#687484;stop-color:color(display-p3 0.4078 0.4549 0.5176);stop-opacity:1;"/>
</linearGradient>
<linearGradient id="paint4_linear_427_2063" x1="1201" y1="482.465" x2="1201" y2="541.465" gradientUnits="userSpaceOnUse">
<stop stop-color="#21242D" style="stop-color:#21242D;stop-color:color(display-p3 0.1294 0.1412 0.1765);stop-opacity:1;"/>
<stop offset="1" stop-color="#667989" style="stop-color:#667989;stop-color:color(display-p3 0.4000 0.4745 0.5373);stop-opacity:1;"/>
</linearGradient>
<linearGradient id="paint5_linear_427_2063" x1="847" y1="472.464" x2="847" y2="529.464" gradientUnits="userSpaceOnUse">
<stop stop-color="#2E3140" style="stop-color:#2E3140;stop-color:color(display-p3 0.1804 0.1922 0.2510);stop-opacity:1;"/>
<stop offset="1" stop-color="#4B5165" style="stop-color:#4B5165;stop-color:color(display-p3 0.2941 0.3176 0.3961);stop-opacity:1;"/>
</linearGradient>
<linearGradient id="paint6_linear_427_2063" x1="1231.86" y1="459.429" x2="1231.86" y2="514.475" gradientUnits="userSpaceOnUse">
<stop stop-color="#1A2622" style="stop-color:#1A2622;stop-color:color(display-p3 0.1020 0.1490 0.1333);stop-opacity:1;"/>
<stop offset="1" stop-color="#506071" style="stop-color:#506071;stop-color:color(display-p3 0.3137 0.3765 0.4431);stop-opacity:1;"/>
</linearGradient>
<linearGradient id="paint7_linear_427_2063" x1="233" y1="441.464" x2="241.5" y2="456.964" gradientUnits="userSpaceOnUse">
<stop stop-color="#E2E3E7" stop-opacity="0" style="stop-color:none;stop-opacity:0;"/>
<stop offset="0.115" stop-color="#B3B2BA" style="stop-color:#B3B2BA;stop-color:color(display-p3 0.7020 0.6980 0.7294);stop-opacity:1;"/>
<stop offset="1" stop-color="#B3B2BA" style="stop-color:#B3B2BA;stop-color:color(display-p3 0.7020 0.6980 0.7294);stop-opacity:1;"/>
</linearGradient>
<linearGradient id="paint8_linear_427_2063" x1="196.5" y1="451.464" x2="196.5" y2="460.964" gradientUnits="userSpaceOnUse">
<stop stop-color="white" stop-opacity="0" style="stop-color:none;stop-opacity:0;"/>
<stop offset="0.31" stop-color="#9EAECD" style="stop-color:#9EAECD;stop-color:color(display-p3 0.6202 0.6810 0.8025);stop-opacity:1;"/>
</linearGradient>
<linearGradient id="paint9_linear_427_2063" x1="497.5" y1="447.965" x2="497.5" y2="457.465" gradientUnits="userSpaceOnUse">
<stop stop-color="white" stop-opacity="0" style="stop-color:none;stop-opacity:0;"/>
<stop offset="0.31" stop-color="#9EAECD" style="stop-color:#9EAECD;stop-color:color(display-p3 0.6202 0.6810 0.8025);stop-opacity:1;"/>
</linearGradient>
</defs>
</svg>
