<svg width="754" height="420" viewBox="0 0 754 420" fill="none" xmlns="http://www.w3.org/2000/svg">
<path d="M321 157.654L0 171.954V177.254L320.877 165.254C320.895 162.785 320.935 160.186 321 157.654Z" fill="#5F8BD2" style="fill:#5F8BD2;fill:color(display-p3 0.3725 0.5451 0.8235);fill-opacity:1;"/>
<path fill-rule="evenodd" clip-rule="evenodd" d="M399 334.994C396.686 334.718 388.601 334.427 378.931 334.079C361.974 333.468 340.142 332.681 336 331.494C334.947 302.801 331.594 278.35 328.312 254.407C324.423 226.044 320.631 198.395 320.877 165.254C330.489 164.725 331.698 167.32 333.697 171.606C333.796 171.818 333.896 172.034 334 172.254C333.733 170.921 333.52 169.677 333.322 168.523L333.322 168.521C332.036 161.016 331.4 157.307 321 157.654C344.205 154.278 363.138 153.563 377.498 153.703C380.156 153.729 382.657 153.754 385 153.754C386.488 170.45 388.686 187.583 390.962 205.324C395.571 241.246 400.5 279.662 400.5 321.994C400.668 327.317 400.43 330.181 399 334.994Z" fill="#CED7DC" style="fill:#CED7DC;fill:color(display-p3 0.8078 0.8431 0.8627);fill-opacity:1;"/>
<path d="M321 157.654C320.935 160.186 320.895 162.785 320.877 165.254C330.489 164.725 331.698 167.32 333.697 171.606C333.796 171.818 333.896 172.034 334 172.254C333.733 170.921 333.52 169.677 333.322 168.523L333.322 168.521C332.036 161.016 331.4 157.307 321 157.654Z" fill="#5F8BD2" style="fill:#5F8BD2;fill:color(display-p3 0.3725 0.5451 0.8235);fill-opacity:1;"/>
<path d="M380.5 57.4941C380.5 61.9939 151.464 105.507 4.5 127.994C13.8428 111.863 20.996 105.711 34.5 102.494L422.5 6.4941C517.5 -15.506 631 25.4939 683.5 54.4941L380.5 57.4941Z" fill="#8B8E8F" style="fill:#8B8E8F;fill:color(display-p3 0.5451 0.5569 0.5608);fill-opacity:1;"/>
<path d="M386.5 414.494L390.5 411.994L400.5 321.754L396.5 297.754L1 232.754V286.994L386.5 414.494Z" fill="#CED7DC" style="fill:#CED7DC;fill:color(display-p3 0.8078 0.8431 0.8627);fill-opacity:1;"/>
<path d="M1 260.494V250.994L382.5 331.494V353.494L1 260.494Z" fill="#CED7DC" style="fill:#CED7DC;fill:color(display-p3 0.8078 0.8431 0.8627);fill-opacity:1;"/>
<path d="M1 233.994L335.674 289.369C336.892 289.57 338 288.602 337.999 287.367C337.961 223.831 336.398 193.357 333.981 172.269C333.469 167.802 329.826 164.584 325.333 164.742C275.372 166.5 0 176.994 0 176.994L1 233.994Z" fill="#768189" style="fill:#768189;fill:color(display-p3 0.4627 0.5059 0.5373);fill-opacity:1;"/>
<path d="M380.5 135.994L380 75.4941L3.5 136.494L1 163.494L380.5 135.994Z" fill="#CAD2DA" style="fill:#CAD2DA;fill:color(display-p3 0.7922 0.8235 0.8549);fill-opacity:1;"/>
<path d="M380.5 154.994V135.994L1 163.494L0 171.994L380.5 154.994Z" fill="#CAD2DA" style="fill:#CAD2DA;fill:color(display-p3 0.7922 0.8235 0.8549);fill-opacity:1;"/>
<path d="M3.5 136.494C150 112.994 244.5 99.9941 367 77.9941L368 60.4941L4.49999 127.994C4.49999 127.994 3.52557 128.807 3.5 136.494Z" fill="#CAD2DA" style="fill:#CAD2DA;fill:color(display-p3 0.7922 0.8235 0.8549);fill-opacity:1;"/>
<path d="M15 263.494V257.494L37 262.494V269.994L36 270.494L15.5 264.494L15 263.494Z" fill="#152034" style="fill:#152034;fill:color(display-p3 0.0824 0.1255 0.2039);fill-opacity:1;"/>
<path d="M40 260.494L37 262.994V270.494L40 268.494V260.494Z" fill="#D1D9DB" style="fill:#D1D9DB;fill:color(display-p3 0.8196 0.8510 0.8588);fill-opacity:1;"/>
<path d="M37 263.267V269.656C37 270.324 36.3574 270.804 35.7167 270.615L16.4333 264.918C15.5833 264.666 15 263.886 15 263V258.26C15 257.614 15.6032 257.138 16.2316 257.287L25.5 259.494L36.2524 262.299C36.6928 262.414 37 262.812 37 263.267Z" fill="#C5CDD5" style="fill:#C5CDD5;fill:color(display-p3 0.7725 0.8039 0.8353);fill-opacity:1;"/>
<path d="M15 257.494L16 253.994L40 258.994C40.4302 260.016 39.552 260.83 37 262.494L15 257.494Z" fill="#F5FCFE" style="fill:#F5FCFE;fill:color(display-p3 0.9608 0.9882 0.9961);fill-opacity:1;"/>
<path d="M30 123.253L24 171.253L24.5 255.753L22 259.253V266.253L29.5 268.253V260.753L32 257.253L30 171.253L35.5 122.253L30 123.253Z" fill="#5F8BD2" style="fill:#5F8BD2;fill:color(display-p3 0.3725 0.5451 0.8235);fill-opacity:1;"/>
<path d="M29.5047 172.776C29.5021 172.239 29.9245 171.796 30.4612 171.772L35.8264 171.539C36.3915 171.515 36.8644 171.963 36.8698 172.529L37.4887 237.802C37.4946 238.424 36.9377 238.9 36.3243 238.798L31.483 237.991C30.5222 237.831 29.8165 237.002 29.8118 236.028L29.5047 172.776Z" fill="#262F34" style="fill:#262F34;fill:color(display-p3 0.1490 0.1843 0.2039);fill-opacity:1;"/>
<path d="M18.5076 172.759C18.5033 172.221 18.9262 171.776 19.4641 171.752L24.3661 171.539C24.9313 171.515 25.4043 171.963 25.4095 172.529L25.9889 235.539C25.9947 236.165 25.4298 236.642 24.8132 236.532L20.6353 235.786C19.6873 235.617 18.9945 234.796 18.987 233.833L18.5076 172.759Z" fill="#262F34" style="fill:#262F34;fill:color(display-p3 0.1490 0.1843 0.2039);fill-opacity:1;"/>
<path d="M30.5 141.89L42.2141 140.182C42.8636 140.087 43.4267 140.633 43.3518 141.285L40 170.494V259.959C40 260.293 39.8329 260.606 39.5547 260.791L37.4453 262.197C37.1671 262.383 37 262.695 37 263.029V269.087C37 269.745 36.3753 270.224 35.7399 270.052L25.5 267.294M30.5 141.89L20.9798 143.278C20.1023 143.406 19.4139 144.097 19.2885 144.975L15.5319 171.27C15.5107 171.419 15.5006 171.57 15.5019 171.72L16.198 254.262C16.1993 254.415 16.1657 254.566 16.0996 254.703L15.0985 256.789C15.0337 256.924 15 257.072 15 257.222V262.958C15 263.864 15.6092 264.657 16.4847 264.89L25.5 267.294M30.5 141.89L27 170.994L27.9951 256.573C27.9982 256.842 27.8927 257.101 27.7023 257.292L25.7929 259.201C25.6054 259.389 25.5 259.643 25.5 259.908V267.294" stroke="#5E6B74" style="stroke:#5E6B74;stroke:color(display-p3 0.3673 0.4177 0.4544);stroke-opacity:1;"/>
<path d="M141 293.994V281.494L138.08 284.414L138 295.494L141 293.994Z" fill="#D1D9DB" style="fill:#D1D9DB;fill:color(display-p3 0.8196 0.8510 0.8588);fill-opacity:1;"/>
<path d="M141.5 281.494L104 273.994L102 276.494L138 284.494L141.5 281.494Z" fill="#F5FCFE" style="fill:#F5FCFE;fill:color(display-p3 0.9608 0.9882 0.9961);fill-opacity:1;"/>
<path d="M138 294.994V284.494L102 276.494V285.494L102.5 286.494L136.5 295.494L138 294.994Z" fill="#C5CDD5" style="fill:#C5CDD5;fill:color(display-p3 0.7725 0.8039 0.8353);fill-opacity:1;"/>
<path d="M115 169.753H116.5L117 276.253L114 279.253V289.253L125 292.253V281.753L126.5 278.484V166.753L134 103.253L122.5 105.253L115 169.753Z" fill="#5F8BD2" style="fill:#5F8BD2;fill:color(display-p3 0.3725 0.5451 0.8235);fill-opacity:1;"/>
<path d="M124.412 129.873L108.933 131.706C107.517 131.874 106.415 133.015 106.297 134.436L103.5 167.994L103.998 273.619C103.999 273.859 103.904 274.09 103.735 274.26L102.293 275.701C102.105 275.889 102 276.143 102 276.408V286.34C102 286.431 102.061 286.51 102.149 286.533L119.5 291.112M124.412 129.873L140.829 127.929C142.721 127.705 144.34 129.278 144.17 131.176L141 166.494L141.439 280.625C141.441 281.177 141.203 281.702 140.787 282.065L138.686 283.896C138.25 284.276 138 284.826 138 285.404V294.696C138 295.352 137.379 295.83 136.745 295.663L119.5 291.112M124.412 129.873L120.5 166.994L121.496 276.563C121.499 276.844 121.417 277.119 121.261 277.353L119.752 279.616C119.588 279.863 119.5 280.152 119.5 280.448V291.112" stroke="#5E6B74" style="stroke:#5E6B74;stroke:color(display-p3 0.3686 0.4196 0.4549);stroke-opacity:1;"/>
<path d="M123.523 169.438C123.51 168.356 124.361 167.46 125.443 167.416L133.944 167.076C135.07 167.031 136.011 167.925 136.023 169.052L136.96 251.435C136.981 253.295 135.322 254.726 133.486 254.432L126.164 253.26C125.203 253.107 124.492 252.283 124.48 251.309L123.523 169.438Z" fill="#262F34" style="fill:#262F34;fill:color(display-p3 0.1490 0.1843 0.2039);fill-opacity:1;"/>
<path d="M106.006 169.458C106.003 168.92 106.425 168.476 106.962 168.452L116.469 168.039C117.033 168.014 117.506 168.461 117.512 169.026L118.457 247.91C118.479 249.778 116.807 251.212 114.964 250.905L108.161 249.771C107.201 249.611 106.496 248.783 106.49 247.81L106.006 169.458Z" fill="#262F34" style="fill:#262F34;fill:color(display-p3 0.1490 0.1843 0.2039);fill-opacity:1;"/>
<path d="M281.5 76.5535L272 160.254L294.5 159.254L304 72.3735L281.5 76.5535Z" fill="#5F8BD2" style="fill:#5F8BD2;fill:color(display-p3 0.3725 0.5451 0.8235);fill-opacity:1;"/>
<path d="M249 306.494L248 307.994L251.5 304.494L249 306.494Z" fill="#19253D" style="fill:#19253D;fill:color(display-p3 0.0980 0.1451 0.2392);fill-opacity:1;"/>
<path d="M248 307.994L252 303.994L324.5 318.994L319 323.494L248 307.994Z" fill="#F5FCFE" style="fill:#F5FCFE;fill:color(display-p3 0.9608 0.9882 0.9961);fill-opacity:1;"/>
<path d="M248 321.494V307.994L319 323.494V338.994L248 321.494Z" fill="#C5CDD5" style="fill:#C5CDD5;fill:color(display-p3 0.7725 0.8039 0.8353);fill-opacity:1;"/>
<path d="M319 323.494L324.5 318.994V336.994L319 338.994V323.494Z" fill="#D1D9DB" style="fill:#D1D9DB;fill:color(display-p3 0.8196 0.8510 0.8588);fill-opacity:1;"/>
<path d="M279 273.753V165.253L290 164.753L293.5 276.753V312.753L289.5 317.253V331.753L272.5 327.253V313.253L276 308.753V279.753V275.253L279 273.753Z" fill="#5F8BD2" style="fill:#5F8BD2;fill:color(display-p3 0.3725 0.5451 0.8235);fill-opacity:1;"/>
<path d="M255.552 164.882C255.523 162.717 257.222 160.922 259.385 160.832L275.369 160.166C277.628 160.072 279.516 161.868 279.535 164.129L280.46 272.314C280.481 274.772 278.302 276.667 275.871 276.305L262.889 274.371C259.494 273.866 256.966 270.973 256.921 267.541L255.552 164.882Z" fill="#262F34" style="fill:#262F34;fill:color(display-p3 0.1490 0.1843 0.2039);fill-opacity:1;"/>
<path d="M288.562 164.366C288.527 161.655 290.66 159.411 293.369 159.307L309.392 158.691C312.195 158.583 314.538 160.801 314.583 163.605L316.426 276.442C316.465 278.855 314.374 280.754 311.976 280.482L296.134 278.689C292.629 278.292 289.967 275.349 289.922 271.822L288.562 164.366Z" fill="#262F34" style="fill:#262F34;fill:color(display-p3 0.1490 0.1843 0.2039);fill-opacity:1;"/>
<path d="M289 107.994L322.738 103.496C324.658 103.24 326.313 104.843 326.119 106.771L321 157.494L324 318.994L285.6 310.994M289 107.994L259.359 111.976C257.09 112.281 255.317 114.088 255.057 116.362L250 160.494L252 303.994L285.6 310.994M289 107.994L284 158.994L285.6 310.994" stroke="#5E6C74" style="stroke:#5E6C74;stroke:color(display-p3 0.3686 0.4217 0.4549);stroke-opacity:1;"/>
<path d="M285.5 310.994L282.5 315.494V329.994M282.5 329.994L272.5 327.494L248 320.994V307.994L251.5 304.494M282.5 329.994L303.5 334.994L318.5 338.994L324.5 336.994V318.994" stroke="#5E6B74" style="stroke:#5E6B74;stroke:color(display-p3 0.3686 0.4196 0.4549);stroke-opacity:1;"/>
<path d="M74.9694 120.023C75.2838 116.925 77.6066 114.407 80.6691 113.845L97.3258 110.785C98.6525 110.541 99.835 111.654 99.6725 112.993L93.4085 164.627C93.1728 166.569 91.5663 168.056 89.6114 168.141L73.4651 168.843C71.638 168.923 70.1655 167.363 70.3502 165.543L74.9694 120.023Z" fill="#262F34" style="fill:#262F34;fill:color(display-p3 0.1490 0.1843 0.2039);fill-opacity:1;"/>
<path d="M49.116 124.723C49.4305 121.625 51.7533 119.107 54.8157 118.545L71.469 115.486C72.7967 115.242 73.9797 116.357 73.8154 117.697L67.9123 165.832C67.6744 167.772 66.0688 169.256 64.1158 169.341L47.9653 170.043C46.1381 170.123 44.6656 168.563 44.8503 166.743L49.116 124.723Z" fill="#262F34" style="fill:#262F34;fill:color(display-p3 0.1490 0.1843 0.2039);fill-opacity:1;"/>
<path d="M199.32 98.0419C199.725 95.0329 202.024 92.6283 205.012 92.0883L238.84 85.9748C240.163 85.7358 241.34 86.8434 241.182 88.1781L232.898 158.13C232.668 160.072 231.069 161.562 229.116 161.655L194.097 163.323C192.225 163.412 190.731 161.783 190.981 159.926L199.32 98.0419Z" fill="#262F34" style="fill:#262F34;fill:color(display-p3 0.1490 0.1843 0.2039);fill-opacity:1;"/>
<path d="M158.024 105.484C158.424 102.466 160.73 100.052 163.727 99.5146L191.796 94.4793C193.131 94.2397 194.313 95.3719 194.13 96.7169L185.443 160.727C185.186 162.624 183.62 164.073 181.708 164.182L153.622 165.787C151.742 165.895 150.229 164.264 150.477 162.398L158.024 105.484Z" fill="#262F34" style="fill:#262F34;fill:color(display-p3 0.1490 0.1843 0.2039);fill-opacity:1;"/>
<path d="M89.5183 225.481L72.7081 223.725C71.5277 223.601 70.5003 224.527 70.5003 225.714L70.5 289.611C70.5 291.826 71.9584 293.778 74.0834 294.406L90.4035 299.227C91.6938 299.608 92.9849 298.632 92.97 297.287L92.2064 228.432C92.1895 226.908 91.0335 225.639 89.5183 225.481Z" fill="#262F34" style="fill:#262F34;fill:color(display-p3 0.1490 0.1843 0.2039);fill-opacity:1;"/>
<path d="M63.7492 222.765L50.6661 221.675C49.5001 221.577 48.5 222.498 48.5 223.668V282.94C48.5 285.156 49.9584 287.107 52.0834 287.735L63.9334 291.236C65.2148 291.614 66.5 290.654 66.5 289.318V225.755C66.5 224.194 65.304 222.895 63.7492 222.765Z" fill="#262F34" style="fill:#262F34;fill:color(display-p3 0.1490 0.1843 0.2039);fill-opacity:1;"/>
<path d="M183.826 234.215L155.208 231.225C154.027 231.101 153 232.027 153 233.214V313.2C153 315.443 154.494 317.412 156.654 318.015L184.447 325.781C185.727 326.138 186.993 325.172 186.986 323.844L186.515 237.182C186.506 235.652 185.348 234.374 183.826 234.215Z" fill="#262F34" style="fill:#262F34;fill:color(display-p3 0.1490 0.1843 0.2039);fill-opacity:1;"/>
<path d="M229.299 238.249L194.591 235.093C194.005 235.04 193.5 235.501 193.5 236.089V324.956C193.5 326.752 194.697 328.327 196.427 328.809L231.719 338.637C232.36 338.816 232.993 338.33 232.987 337.664L232.027 241.206C232.012 239.666 230.833 238.388 229.299 238.249Z" fill="#262F34" style="fill:#262F34;fill:color(display-p3 0.1490 0.1843 0.2039);fill-opacity:1;"/>
<path d="M368 60.4941L380.5 57.4941C385.284 56.7347 387.908 56.5333 392.5 56.4941C425.716 156.644 434.248 217.6 447 327.494L439.5 404.494C425.079 406.234 413.501 408.089 390.5 411.994L400.5 321.994C393.84 260.308 389.411 225.827 380.5 164.494V134.494L380 75.4941L367 77.9941L368 60.4941Z" fill="#D7DFE8" style="fill:#D7DFE8;fill:color(display-p3 0.8431 0.8745 0.9098);fill-opacity:1;"/>
<path d="M690 371.994L662.5 363.994L734 362.494L734.5 368.994L690 371.994Z" fill="#040308" style="fill:#040308;fill:color(display-p3 0.0157 0.0118 0.0314);fill-opacity:1;"/>
<path d="M462 404.494H460.5L458.5 403.494L460 370.994L538.5 370.494L536.5 375.994L475 379.994V407.994L470.5 408.494C468.492 406.661 467.392 405.861 465.5 404.994C464.544 404.672 463.753 404.568 462 404.494Z" fill="#191611" style="fill:#191611;fill:color(display-p3 0.0980 0.0863 0.0667);fill-opacity:1;"/>
<path d="M654.5 363.994L682.5 364.494L694.5 330.994L522 337.494L522.5 371.494L654.5 363.994Z" fill="#101624" style="fill:#101624;fill:color(display-p3 0.0612 0.0846 0.1429);fill-opacity:1;"/>
<path d="M475.15 380.394L536.575 376.494L539.5 378.444L536.575 380.719L536.25 388.519L538.525 390.144L536.575 392.744L536.25 400.869L538.525 402.819L536.25 405.094L535.925 412.569L538.2 414.844L535.925 416.469L474.5 419.069L475.15 380.394Z" fill="#3C4B52" style="fill:#3C4B52;fill:color(display-p3 0.2353 0.2941 0.3216);fill-opacity:1;"/>
<path d="M539.5 378.444L536.575 376.494L475.15 380.394L474.5 419.069L535.925 416.469L538.2 414.844M539.5 378.444L536.575 380.719M539.5 378.444L475.8 382.019L475.15 383.644L536.575 380.719M536.575 380.719L536.25 388.519L538.525 390.144M538.525 390.144L536.575 392.744M538.525 390.144L476.45 394.369L475.8 396.319L536.575 392.744M536.575 392.744L536.25 400.869L538.525 402.819M538.525 402.819L536.25 405.094M538.525 402.819L476.45 407.044L475.8 408.344L536.25 405.094M536.25 405.094L535.925 412.569M535.925 412.569L538.2 414.844M535.925 412.569L476.45 416.469L475.8 418.094L538.2 414.844" stroke="#2F3C42" style="stroke:#2F3C42;stroke:color(display-p3 0.1845 0.2363 0.2605);stroke-opacity:1;"/>
<path d="M460.5 404.494C452.299 403.997 447.701 403.921 439.5 404.494L447 327.494L754 318.994C751.928 338.37 750.442 349.209 747 368.494L734.5 368.994L734 362.494C714.592 364.117 703.415 364.671 682.5 364.494L694.5 330.994C631.909 337.093 593.739 338.216 522 337.494L522.5 371.494L461.5 372.494C460.906 381.583 460.742 389.515 460.5 404.494Z" fill="#141A29" style="fill:#141A29;fill:color(display-p3 0.0784 0.1020 0.1608);fill-opacity:1;"/>
<path d="M751.5 332.494C730.1 334.118 717.434 335.01 693.5 336.494L686.5 355.994C711.485 355.672 726.66 356.057 748.5 354.494L751.5 332.494Z" fill="#141A29" style="fill:#141A29;fill:color(display-p3 0.0784 0.1020 0.1608);fill-opacity:1;"/>
<path d="M692.06 372.013L744.98 368.494L747.5 370.254L744.98 372.307L744.7 379.345L746.66 380.812L744.98 383.158L744.7 390.49L746.66 392.249L744.7 394.302L744.42 401.047L746.38 403.1L744.42 404.567L691.5 406.913L692.06 372.013Z" fill="#3C4B52" style="fill:#3C4B52;fill:color(display-p3 0.2353 0.2941 0.3216);fill-opacity:1;"/>
<path d="M747.5 370.254L744.98 368.494L692.06 372.013L691.5 406.913L744.42 404.567L746.38 403.1M747.5 370.254L744.98 372.307M747.5 370.254L692.62 373.48L692.06 374.946L744.98 372.307M744.98 372.307L744.7 379.345L746.66 380.812M746.66 380.812L744.98 383.158M746.66 380.812L693.18 384.624L692.62 386.384L744.98 383.158M744.98 383.158L744.7 390.49L746.66 392.249M746.66 392.249L744.7 394.302M746.66 392.249L693.18 396.062L692.62 397.235L744.7 394.302M744.7 394.302L744.42 401.047M744.42 401.047L746.38 403.1M744.42 401.047L693.18 404.567L692.62 406.033L746.38 403.1" stroke="#2F3C42" style="stroke:#2F3C42;stroke:color(display-p3 0.1845 0.2363 0.2605);stroke-opacity:1;"/>
<path d="M446.5 340.494C476.265 341.461 493.279 342.074 520.5 342.494V364.494C498.101 363.974 477.288 364.272 444.5 364.494L446.5 340.494Z" fill="#141A29" style="fill:#141A29;fill:color(display-p3 0.0784 0.1020 0.1608);fill-opacity:1;"/>
<path fill-rule="evenodd" clip-rule="evenodd" d="M382.5 353.494L396.678 356.427L399.16 334.169L382.5 331.494V353.494Z" fill="#CED7DC" style="fill:#CED7DC;fill:color(display-p3 0.8078 0.8431 0.8627);fill-opacity:1;"/>
<path d="M380.5 57.4946C425.5 -6.0055 598 4.9939 683.5 54.4946C570.568 47.0747 511.071 36.8343 380.5 57.4946Z" fill="#9EA9B8" style="fill:#9EA9B8;fill:color(display-p3 0.6196 0.6627 0.7216);fill-opacity:1;"/>
<path fill-rule="evenodd" clip-rule="evenodd" d="M383.462 57.2043C382.539 57.2954 381.559 57.3923 380.5 57.4935C391.327 55.2188 401.643 53.1642 411.5 51.3157L414.5 61.7532L672.5 60.7532L669.5 52.0315C674.065 52.8382 678.726 53.6605 683.5 54.4936C710.809 121.568 738.577 221.238 752.288 307.753C747.792 308.384 743.375 308.99 739.026 309.57C648.398 321.667 587.41 322.891 465.942 318.092C459.313 317.83 452.504 317.55 445.5 317.253C431.709 209.22 419.445 150.914 392.717 57.255C392.591 56.8126 392.177 56.5046 391.717 56.5259C389.096 56.6475 386.616 56.8925 383.462 57.2043Z" fill="#81ADED" style="fill:#81ADED;fill:color(display-p3 0.5059 0.6784 0.9294);fill-opacity:1;"/>
<path d="M667.265 51.6366C586.24 37.3158 534.717 28.2092 411.5 51.3157L414.5 61.7532L672.5 60.7532L669.5 52.0315L667.265 51.6366Z" fill="#656F7C" style="fill:#656F7C;fill:color(display-p3 0.3961 0.4353 0.4863);fill-opacity:1;"/>
<path d="M445.5 317.253C445.888 320.294 446.61 324.374 447 327.494C453.747 328.22 460.585 328.885 467.5 329.486L465.942 318.092C459.313 317.83 452.504 317.55 445.5 317.253Z" fill="#81ADED" style="fill:#81ADED;fill:color(display-p3 0.5059 0.6784 0.9294);fill-opacity:1;"/>
<path fill-rule="evenodd" clip-rule="evenodd" d="M467.5 329.486L465.942 318.092C587.41 322.891 648.398 321.667 739.026 309.57L740.982 321.188C656.87 334.644 555.901 337.179 467.5 329.486Z" fill="#636C7E" style="fill:#636C7E;fill:color(display-p3 0.3882 0.4235 0.4941);fill-opacity:1;"/>
<path d="M754 318.993C753.457 315.274 752.886 311.526 752.288 307.753C747.792 308.384 743.375 308.99 739.026 309.57L740.982 321.188C745.368 320.486 749.709 319.755 754 318.993Z" fill="#81ADED" style="fill:#81ADED;fill:color(display-p3 0.5059 0.6784 0.9294);fill-opacity:1;"/>
<path d="M728.5 255.494L457.5 262.494L466 318.494C580 321.494 631.03 324.614 739.03 309.614L728.5 255.494Z" fill="#4D566A" style="fill:#4D566A;fill:color(display-p3 0.3007 0.3392 0.4163);fill-opacity:1;"/>
<path d="M731.5 272.994C707.853 276.651 695.119 278.658 681.276 281.17C680.268 281.353 679.561 282.276 679.647 283.297C680.712 295.913 682.068 303.123 684.5 315.494" stroke="#141821" style="stroke:#141821;stroke:color(display-p3 0.0784 0.0941 0.1294);stroke-opacity:1;"/>
<ellipse cx="696.261" cy="295.94" rx="10.1502" ry="12.159" transform="rotate(-14.1322 696.261 295.94)" fill="#1F1D11" style="fill:#1F1D11;fill:color(display-p3 0.1216 0.1137 0.0667);fill-opacity:1;"/>
<path d="M705.5 291.494C704.5 299.994 698.68 307.994 694.18 307.494C704.18 310.494 712.5 303.494 705.5 291.494Z" fill="#5C6C69" style="fill:#5C6C69;fill:color(display-p3 0.3608 0.4235 0.4118);fill-opacity:1;"/>
<ellipse cx="510.194" cy="301.321" rx="10.8452" ry="12.3277" transform="rotate(-20.8047 510.194 301.321)" fill="#1F1D11" style="fill:#1F1D11;fill:color(display-p3 0.1216 0.1137 0.0667);fill-opacity:1;"/>
<path d="M520.7 298.494C519.7 305.994 512.7 311.994 506.7 312.494C514.5 316.494 524.5 308.994 520.7 298.494Z" fill="#5C6C69" style="fill:#5C6C69;fill:color(display-p3 0.3608 0.4235 0.4118);fill-opacity:1;"/>
<path d="M460.5 280.494C485.097 282.203 499.069 283.181 523.081 284.893C523.927 284.953 524.652 285.54 524.865 286.361C527.134 295.126 528.187 304.298 530 319.994" stroke="#141821" style="stroke:#141821;stroke:color(display-p3 0.0784 0.0941 0.1294);stroke-opacity:1;"/>
<path d="M457.5 262.494C441.457 173.598 432.154 128.047 414.5 61.4936C498 43.4939 589 42.4939 672.5 60.4936C699.489 135.575 710.755 178.479 728.5 255.494C640.971 268.769 581.718 270.407 457.5 262.494Z" fill="#414753" style="fill:#414753;fill:color(display-p3 0.2549 0.2784 0.3255);fill-opacity:1;"/>
<path d="M456.5 256.494L457.5 262.494C579.5 269.494 631 269.994 728.5 255.494L727.5 250.994L456.5 256.494Z" fill="#51596F" style="fill:#51596F;fill:color(display-p3 0.3159 0.3507 0.4353);fill-opacity:1;"/>
<path d="M672.5 60.4943C582.5 42.9942 500.5 43.4941 414.5 61.4944L427.5 112.994L689.39 109.494L672.5 60.4943Z" fill="#535B66" style="fill:#535B66;fill:color(display-p3 0.3255 0.3569 0.4000);fill-opacity:1;"/>
<path d="M520.5 105.994L510.5 66.4941H643L655 105.494L520.5 105.994Z" fill="#59594D" style="fill:#59594D;fill:color(display-p3 0.3490 0.3490 0.3020);fill-opacity:1;"/>
<path d="M550.5 243.494C539.218 192.939 532.288 165.013 519.5 115.494C583.333 115.066 618.952 114.748 681 113.494C698.096 162.135 706.455 190.109 720.5 240.494C656.151 241.241 619.634 241.753 550.5 243.494Z" fill="#79838F" style="fill:#79838F;fill:color(display-p3 0.4745 0.5137 0.5608);fill-opacity:1;"/>
<path d="M546 243.494C534.766 193.617 528.074 165.612 514.5 115.494L430 115.994C442.404 166.21 448.029 194.649 457.5 245.494L546 243.494Z" fill="#79838F" style="fill:#79838F;fill:color(display-p3 0.4745 0.5137 0.5608);fill-opacity:1;"/>
<ellipse cx="720.993" cy="294.041" rx="9.8534" ry="12.1226" transform="rotate(-15.693 720.993 294.041)" fill="url(#paint0_linear_427_2659)" style=""/>
<ellipse cx="481.07" cy="301.076" rx="11.4072" ry="13.909" transform="rotate(-30.7706 481.07 301.076)" fill="#FEFDEF" style="fill:#FEFDEF;fill:color(display-p3 0.9961 0.9922 0.9373);fill-opacity:1;"/>
<ellipse cx="481.07" cy="301.076" rx="11.4072" ry="13.909" transform="rotate(-30.7706 481.07 301.076)" fill="url(#paint1_linear_427_2659)" style=""/>
<path d="M571.5 225.494L574.5 242.994L595 242.494L592 224.994L571.5 225.494Z" fill="#2D3134" style="fill:#2D3134;fill:color(display-p3 0.1779 0.1908 0.2056);fill-opacity:1;"/>
<path d="M592 225.002C591.5 222.494 590.563 219.817 588.651 218.009C586.738 216.201 584.173 215.216 581.522 215.271C578.87 215.325 576.488 216.188 574.5 217.994C572.988 219.366 571 222.994 571.5 225.494L581.724 225.116L592 225.002Z" fill="#2D3134" style="fill:#2D3134;fill:color(display-p3 0.1765 0.1922 0.2039);fill-opacity:1;"/>
<path d="M590.676 223.528C592.362 228.729 589.896 234.188 585.167 235.721C580.439 237.254 575.186 233.695 573.5 228.494C571.814 223.293 574.333 218.419 579.061 216.886C583.79 215.353 588.989 218.327 590.676 223.528Z" fill="#FEFDEF" style="fill:#FEFDEF;fill:color(display-p3 0.9961 0.9922 0.9373);fill-opacity:1;"/>
<ellipse cx="479.5" cy="300.494" rx="10" ry="11" transform="rotate(-17.9625 479.5 300.494)" fill="#FEFDEF" style="fill:#FEFDEF;fill:color(display-p3 0.9961 0.9922 0.9373);fill-opacity:1;"/>
<path d="M525.066 77.7875L532.113 86.0648L532.272 86.0647L535.725 77.7841L538.629 77.7832L534.384 87.7355L542.947 97.6837L540.043 97.6847L533.031 89.5629L532.872 89.5629L529.384 97.6881L526.481 97.689L530.884 87.7366L522.163 77.7884L525.066 77.7875ZM546.991 97.6825L544.406 97.6833L547.565 77.7804L550.111 77.7795L561.906 97.6777L559.321 97.6785L549.601 80.9282L549.442 80.9283L546.991 97.6825ZM546.259 89.9085L556.68 89.9052L557.143 92.0429L546.723 92.0463L546.259 89.9085ZM576.908 77.771L581.226 97.6716L578.839 97.6723L564.352 82.0508L564.153 82.0509L567.544 97.6759L565.078 97.6767L560.76 77.7762L563.146 77.7754L577.681 93.4358L577.88 93.4357L574.481 77.7718L576.908 77.771ZM601.183 87.7143C601.638 89.8131 601.644 91.6271 601.2 93.1562C600.756 94.6853 599.948 95.8646 598.776 96.6942C597.603 97.5238 596.149 97.9389 594.412 97.9395C592.675 97.94 591.041 97.5259 589.509 96.6972C587.977 95.8684 586.657 94.6897 585.55 93.1612C584.442 91.6326 583.661 89.8189 583.205 87.72C582.75 85.6211 582.744 83.8071 583.188 82.2781C583.632 80.749 584.44 79.5696 585.612 78.74C586.785 77.9104 588.239 77.4953 589.976 77.4948C591.713 77.4942 593.347 77.9083 594.879 78.7371C596.412 79.5658 597.731 80.7445 598.839 82.2731C599.946 83.8016 600.727 85.6154 601.183 87.7143ZM598.796 87.715C598.422 85.9919 597.812 84.5376 596.965 83.3523C596.124 82.167 595.137 81.2701 594.004 80.6615C592.878 80.0528 591.698 79.7487 590.465 79.7491C589.232 79.7495 588.181 80.0543 587.313 80.6636C586.45 81.2728 585.853 82.1703 585.52 83.356C585.194 84.5416 585.218 85.9961 585.592 87.7192C585.966 89.4424 586.573 90.8966 587.414 92.0819C588.261 93.2672 589.248 94.1642 590.374 94.7728C591.507 95.3814 592.69 95.6855 593.923 95.6851C595.156 95.6847 596.204 95.3799 597.066 94.7706C597.935 94.1614 598.532 93.2639 598.858 92.0783C599.191 90.8926 599.17 89.4382 598.796 87.715ZM613.553 97.9334C612.386 97.9338 611.286 97.7074 610.253 97.2542C609.22 96.801 608.336 96.1794 607.601 95.3892C606.866 94.5991 606.363 93.6987 606.09 92.6882L608.477 92.6874C608.765 93.5878 609.344 94.3327 610.215 94.9219C611.09 95.5047 612.048 95.796 613.089 95.7956C613.924 95.7954 614.625 95.604 615.192 95.2216C615.765 94.8392 616.165 94.3143 616.391 93.647C616.623 92.9731 616.647 92.2119 616.463 91.3633C616.274 90.4952 615.911 89.7211 615.372 89.0411C614.839 88.3545 614.191 87.8138 613.429 87.4188C612.667 87.0239 611.851 86.8233 610.982 86.8171C610.357 86.8108 609.738 86.905 609.124 87.0995C608.508 87.2876 608.021 87.5307 607.661 87.8288L605.295 87.5575L604.403 77.7623L614.983 77.7589L615.446 79.8967L606.935 79.8994L607.493 85.7687L607.612 85.7687C607.959 85.4446 608.425 85.1756 609.008 84.9617C609.591 84.7477 610.224 84.6406 610.907 84.6404C612.153 84.64 613.327 84.9311 614.428 85.5138C615.534 86.0901 616.474 86.8801 617.249 87.8841C618.03 88.888 618.561 90.0345 618.841 91.3236C619.116 92.5933 619.07 93.7271 618.704 94.7249C618.342 95.7162 617.717 96.5003 616.827 97.0772C615.937 97.6476 614.845 97.933 613.553 97.9334ZM627.006 77.7551L631.324 97.6556L628.858 97.6564L625.089 80.2823L624.969 80.2823L620.698 83.51L620.166 81.0613L624.54 77.7559L627.006 77.7551Z" fill="#DAC92B" style="fill:#DAC92B;fill:color(display-p3 0.8567 0.7881 0.1704);fill-opacity:1;"/>
<ellipse cx="720.192" cy="293.854" rx="8.32311" ry="10.1385" transform="rotate(-17.9625 720.192 293.854)" fill="#FEFDEF" style="fill:#FEFDEF;fill:color(display-p3 0.9961 0.9922 0.9373);fill-opacity:1;"/>
<path d="M439.5 404.504L447 327.454L467.5 329.454L460.5 404.754L439.5 404.504Z" fill="#659BE8" style="fill:#659BE8;fill:color(display-p3 0.3962 0.6062 0.9118);fill-opacity:1;"/>
<path d="M358 155.994L361.654 119.002C361.852 116.997 363.509 115.452 365.523 115.396L377.786 115.056C378.971 115.023 379.924 116.021 379.836 117.203L377 155.494L381.468 337.174C381.484 337.837 380.863 338.331 380.22 338.167L359.505 332.878C358.62 332.652 358 331.855 358 330.941V155.994Z" stroke="#3D3C38" style="stroke:#3D3C38;stroke:color(display-p3 0.2405 0.2342 0.2197);stroke-opacity:1;"/>
<path d="M367.421 136.772C367.467 136.315 367.819 135.948 368.274 135.884L373.174 135.184C373.836 135.089 374.402 135.658 374.305 136.319L371.5 155.394L372.492 285.412C372.496 285.995 372.002 286.459 371.42 286.417L367.358 286.127C366.311 286.052 365.5 285.181 365.5 284.132V155.694L367.421 136.772Z" fill="#262F34" style="fill:#262F34;fill:color(display-p3 0.1490 0.1843 0.2039);fill-opacity:1;"/>
<path d="M326.061 193.221C326.032 188.737 326.018 186.496 327.377 185.041C328.737 183.586 330.975 183.449 335.45 183.175L339.955 182.899C344.902 182.596 347.375 182.445 348.948 183.914C350.52 185.384 350.535 187.862 350.566 192.818L350.934 251.772C350.965 256.692 350.981 259.153 349.441 260.64C347.902 262.127 345.444 262.027 340.527 261.826L336.03 261.642C331.52 261.458 329.265 261.366 327.873 259.926C326.482 258.487 326.468 256.229 326.438 251.715L326.061 193.221Z" fill="#5F8BD2" style="fill:#5F8BD2;fill:color(display-p3 0.3725 0.5451 0.8235);fill-opacity:1;"/>
<path d="M740.99 321.183L754 318.993C752.122 338.315 750.419 349.264 747 368.253L738 368.753C739.891 350.123 740.664 339.639 740.99 321.183Z" fill="#659BE8" style="fill:#659BE8;fill:color(display-p3 0.3961 0.6078 0.9098);fill-opacity:1;"/>
<defs>
<linearGradient id="paint0_linear_427_2659" x1="720.993" y1="281.918" x2="720.993" y2="306.163" gradientUnits="userSpaceOnUse">
<stop stop-color="#121015" style="stop-color:#121015;stop-color:color(display-p3 0.0706 0.0627 0.0824);stop-opacity:1;"/>
<stop offset="1" stop-color="#717B70" style="stop-color:#717B70;stop-color:color(display-p3 0.4431 0.4824 0.4392);stop-opacity:1;"/>
</linearGradient>
<linearGradient id="paint1_linear_427_2659" x1="481.07" y1="287.167" x2="481.07" y2="314.985" gradientUnits="userSpaceOnUse">
<stop stop-color="#121015" style="stop-color:#121015;stop-color:color(display-p3 0.0706 0.0627 0.0824);stop-opacity:1;"/>
<stop offset="1" stop-color="#717B70" style="stop-color:#717B70;stop-color:color(display-p3 0.4431 0.4824 0.4392);stop-opacity:1;"/>
</linearGradient>
</defs>
</svg>
