<svg width="754" height="420" viewBox="0 0 754 420" fill="none" xmlns="http://www.w3.org/2000/svg">
<path d="M380.5 57.4941C380.5 61.9939 151.464 105.507 4.5 127.994C13.8428 111.863 20.996 105.711 34.5 102.494L422.5 6.4941C517.5 -15.506 631 25.4939 683.5 54.4941L380.5 57.4941Z" fill="#9AA3A3" style="fill:#9AA3A3;fill:color(display-p3 0.6039 0.6392 0.6392);fill-opacity:1;"/>
<path d="M390.5 411.994L397 356.494L1 260.494V286.994L386.5 414.494L390.5 411.994Z" fill="#ABADA3" style="fill:#ABADA3;fill:color(display-p3 0.6706 0.6784 0.6392);fill-opacity:1;"/>
<path d="M1 260.494V250.994L382.5 331.494V353.494L1 260.494Z" fill="#11213A" style="fill:#11213A;fill:color(display-p3 0.0667 0.1294 0.2275);fill-opacity:1;"/>
<path d="M380.5 164.494V154.994L0 171.994L1 250.994L382.5 331.494L380.5 164.494Z" fill="#B1B3A8" style="fill:#B1B3A8;fill:color(display-p3 0.6941 0.7020 0.6588);fill-opacity:1;"/>
<path d="M380.5 135.994L380 75.4941L3.5 136.494L1 163.494L380.5 135.994Z" fill="#223E56" style="fill:#223E56;fill:color(display-p3 0.1333 0.2431 0.3373);fill-opacity:1;"/>
<path d="M380.5 154.994V135.994L1 163.494L0 171.994L380.5 154.994Z" fill="#CFD0C8" style="fill:#CFD0C8;fill:color(display-p3 0.8118 0.8157 0.7843);fill-opacity:1;"/>
<path d="M3.5 136.494C150 112.994 244.5 99.9941 367 77.9941L368 60.4941L4.49999 127.994C4.49999 127.994 3.52557 128.807 3.5 136.494Z" fill="#D2D4C9" style="fill:#D2D4C9;fill:color(display-p3 0.8235 0.8314 0.7882);fill-opacity:1;"/>
<path d="M15 263.494V257.494L37 262.494V269.994L36 270.494L15.5 264.494L15 263.494Z" fill="#152034" style="fill:#152034;fill:color(display-p3 0.0824 0.1255 0.2039);fill-opacity:1;"/>
<path d="M40 260.494L37 262.994V270.494L40 268.494V260.494Z" fill="#1E212A" style="fill:#1E212A;fill:color(display-p3 0.1176 0.1294 0.1647);fill-opacity:1;"/>
<path d="M37 263.267V269.656C37 270.324 36.3574 270.804 35.7167 270.615L16.4333 264.918C15.5833 264.666 15 263.886 15 263V258.26C15 257.614 15.6032 257.138 16.2316 257.287L25.5 259.494L36.2524 262.299C36.6928 262.414 37 262.812 37 263.267Z" fill="#0F1F38" style="fill:#0F1F38;fill:color(display-p3 0.0588 0.1216 0.2196);fill-opacity:1;"/>
<path d="M15 257.494L16 253.994L40 258.994C40.4302 260.016 39.552 260.83 37 262.494L15 257.494Z" fill="#5F7988" style="fill:#5F7988;fill:color(display-p3 0.3725 0.4745 0.5333);fill-opacity:1;"/>
<path d="M16.8 162.344L19.2881 144.974C19.4138 144.096 20.1021 143.406 20.9793 143.278L30.5 141.89L42.215 140.182C42.8642 140.087 43.4272 140.633 43.3529 141.284L41.15 160.594L28.15 161.524L16.8 162.344Z" fill="#BA322C" style="fill:#BA322C;fill:color(display-p3 0.7294 0.1961 0.1725);fill-opacity:1;"/>
<path d="M30.5 141.89L42.2141 140.182C42.8636 140.087 43.4267 140.633 43.3518 141.285L40 170.494V259.959C40 260.293 39.8329 260.606 39.5547 260.791L37.4453 262.197C37.1671 262.383 37 262.695 37 263.029V269.087C37 269.745 36.3753 270.224 35.7399 270.052L25.5 267.294M30.5 141.89L20.9798 143.278C20.1023 143.406 19.4139 144.097 19.2885 144.975L15.5319 171.27C15.5107 171.419 15.5006 171.57 15.5019 171.72L16.198 254.262C16.1993 254.415 16.1657 254.566 16.0996 254.703L15.0985 256.789C15.0337 256.924 15 257.072 15 257.222V262.958C15 263.864 15.6092 264.657 16.4847 264.89L25.5 267.294M30.5 141.89L27 170.994L27.9951 256.573C27.9982 256.842 27.8927 257.101 27.7023 257.292L25.7929 259.201C25.6054 259.389 25.5 259.643 25.5 259.908V267.294" stroke="#3A3835" style="stroke:#3A3835;stroke:color(display-p3 0.2275 0.2196 0.2078);stroke-opacity:1;"/>
<path d="M29.5047 172.776C29.5021 172.239 29.9245 171.796 30.4612 171.772L35.8264 171.539C36.3915 171.515 36.8644 171.963 36.8698 172.529L37.4887 237.802C37.4946 238.424 36.9377 238.9 36.3243 238.798L31.483 237.991C30.5222 237.831 29.8165 237.002 29.8118 236.028L29.5047 172.776Z" fill="#404040" style="fill:#404040;fill:color(display-p3 0.2526 0.2526 0.2526);fill-opacity:1;"/>
<path d="M18.5076 172.759C18.5033 172.221 18.9262 171.776 19.4641 171.752L24.3661 171.539C24.9313 171.515 25.4043 171.963 25.4095 172.529L25.9889 235.539C25.9947 236.165 25.4298 236.642 24.8132 236.532L20.6353 235.786C19.6873 235.617 18.9945 234.796 18.987 233.833L18.5076 172.759Z" fill="#404040" style="fill:#404040;fill:color(display-p3 0.2526 0.2526 0.2526);fill-opacity:1;"/>
<path d="M141 293.994V281.494L138.08 284.414L138 295.494L141 293.994Z" fill="#121E2A" style="fill:#121E2A;fill:color(display-p3 0.0706 0.1176 0.1647);fill-opacity:1;"/>
<path d="M141.5 281.494L104 273.994L102 276.494L138 284.494L141.5 281.494Z" fill="#5F7988" style="fill:#5F7988;fill:color(display-p3 0.3725 0.4745 0.5333);fill-opacity:1;"/>
<path d="M138 294.994V284.494L102 276.494V285.494L102.5 286.494L136.5 295.494L138 294.994Z" fill="#0F1F38" style="fill:#0F1F38;fill:color(display-p3 0.0588 0.1216 0.2196);fill-opacity:1;"/>
<path d="M104.5 155.994L106.297 134.436C106.415 133.015 107.517 131.874 108.933 131.706L124.412 129.873L140.873 127.924C142.751 127.701 144.364 129.25 144.217 131.135L142.5 153.244L122 154.724L104.5 155.994Z" fill="#BA322C" style="fill:#BA322C;fill:color(display-p3 0.7294 0.1961 0.1725);fill-opacity:1;"/>
<path d="M124.412 129.873L108.933 131.706C107.517 131.874 106.415 133.015 106.297 134.436L103.5 167.994L103.998 273.619C103.999 273.859 103.904 274.09 103.735 274.26L102.293 275.701C102.105 275.889 102 276.143 102 276.408V286.34C102 286.431 102.061 286.51 102.149 286.533L119.5 291.112M124.412 129.873L140.829 127.929C142.721 127.705 144.34 129.278 144.17 131.176L141 166.494L141.439 280.625C141.441 281.177 141.203 281.702 140.787 282.065L138.686 283.896C138.25 284.276 138 284.826 138 285.404V294.696C138 295.352 137.379 295.83 136.745 295.663L119.5 291.112M124.412 129.873L120.5 166.994L121.496 276.563C121.499 276.844 121.417 277.119 121.261 277.353L119.752 279.616C119.588 279.863 119.5 280.152 119.5 280.448V291.112" stroke="#3A3835" style="stroke:#3A3835;stroke:color(display-p3 0.2267 0.2211 0.2082);stroke-opacity:1;"/>
<path d="M123.523 169.438C123.51 168.356 124.361 167.46 125.443 167.416L133.944 167.076C135.07 167.031 136.011 167.925 136.023 169.052L136.96 251.435C136.981 253.295 135.322 254.726 133.486 254.432L126.164 253.26C125.203 253.107 124.492 252.283 124.48 251.309L123.523 169.438Z" fill="#404040" style="fill:#404040;fill:color(display-p3 0.2526 0.2526 0.2526);fill-opacity:1;"/>
<path d="M106.006 169.458C106.003 168.92 106.425 168.476 106.962 168.452L116.469 168.039C117.033 168.014 117.506 168.461 117.512 169.026L118.457 247.91C118.479 249.778 116.807 251.212 114.964 250.905L108.161 249.771C107.201 249.611 106.496 248.783 106.49 247.81L106.006 169.458Z" fill="#404040" style="fill:#404040;fill:color(display-p3 0.2526 0.2526 0.2526);fill-opacity:1;"/>
<path d="M249 306.494L248 307.994L251.5 304.494L249 306.494Z" fill="#19253D" style="fill:#19253D;fill:color(display-p3 0.0980 0.1451 0.2392);fill-opacity:1;"/>
<path d="M248 307.994L252 303.994L324.5 318.994L319 323.494L248 307.994Z" fill="#546F80" style="fill:#546F80;fill:color(display-p3 0.3294 0.4353 0.5020);fill-opacity:1;"/>
<path d="M248 321.494V307.994L319 323.494V338.994L248 321.494Z" fill="#0F1F38" style="fill:#0F1F38;fill:color(display-p3 0.0588 0.1216 0.2196);fill-opacity:1;"/>
<path d="M319 323.494L324.5 318.994V336.994L319 338.994V323.494Z" fill="#1E2128" style="fill:#1E2128;fill:color(display-p3 0.1176 0.1294 0.1569);fill-opacity:1;"/>
<path d="M285.5 310.994L282.5 315.494V329.994M282.5 329.994L272.5 327.494L248 320.994V307.994L251.5 304.494M282.5 329.994L303.5 334.994L318.5 338.994L324.5 336.994V318.994" stroke="#0B1A31" style="stroke:#0B1A31;stroke:color(display-p3 0.0437 0.1009 0.1904);stroke-opacity:1;"/>
<path d="M255.552 164.882C255.523 162.717 257.222 160.922 259.385 160.832L275.369 160.166C277.628 160.072 279.516 161.868 279.535 164.129L280.46 272.314C280.481 274.772 278.302 276.667 275.871 276.305L262.889 274.371C259.494 273.866 256.966 270.973 256.921 267.541L255.552 164.882Z" fill="#404040" style="fill:#404040;fill:color(display-p3 0.2526 0.2526 0.2526);fill-opacity:1;"/>
<path d="M288.562 164.366C288.527 161.655 290.66 159.411 293.369 159.307L309.392 158.691C312.195 158.583 314.538 160.801 314.583 163.605L316.426 276.442C316.465 278.855 314.374 280.754 311.976 280.482L296.134 278.689C292.629 278.292 289.967 275.349 289.922 271.822L288.562 164.366Z" fill="#404040" style="fill:#404040;fill:color(display-p3 0.2526 0.2526 0.2526);fill-opacity:1;"/>
<path d="M285.5 142.994L251.7 145.494L255.055 116.36C255.317 114.086 257.088 112.281 259.356 111.976L289 107.994L285.5 142.994Z" fill="#BA322C" style="fill:#BA322C;fill:color(display-p3 0.7294 0.1961 0.1725);fill-opacity:1;"/>
<path d="M323 140.144L285.5 142.994L289 107.994L321.906 103.231C324.489 102.858 326.732 105.018 326.456 107.613L323 140.144Z" fill="#BA322C" style="fill:#BA322C;fill:color(display-p3 0.7294 0.1961 0.1725);fill-opacity:1;"/>
<path d="M289 107.994L322.738 103.496C324.658 103.24 326.313 104.843 326.119 106.771L321 157.494L324 318.994L285.6 310.994M289 107.994L259.359 111.976C257.09 112.281 255.317 114.088 255.057 116.362L250 160.494L252 303.994L285.6 310.994M289 107.994L284 158.994L285.6 310.994" stroke="#3A3835" style="stroke:#3A3835;stroke:color(display-p3 0.2275 0.2196 0.2078);stroke-opacity:1;"/>
<path d="M166.5 172.894L162 173.094" stroke="#223E56" style="stroke:#223E56;stroke:color(display-p3 0.1333 0.2431 0.3373);stroke-opacity:1;" stroke-width="6"/>
<path d="M167 195.594L162.4 195.694" stroke="#223E56" style="stroke:#223E56;stroke:color(display-p3 0.1333 0.2431 0.3373);stroke-opacity:1;" stroke-width="6"/>
<path d="M167 220.494L162.5 220.594" stroke="#223E56" style="stroke:#223E56;stroke:color(display-p3 0.1333 0.2431 0.3373);stroke-opacity:1;" stroke-width="6"/>
<path d="M161.5 170.094L162.5 223.594" stroke="#223E56" style="stroke:#223E56;stroke:color(display-p3 0.1333 0.2431 0.3373);stroke-opacity:1;" stroke-width="2"/>
<path d="M178.8 159.494C183.8 166.994 182.8 226.494 178.8 237.494" stroke="#B1B3A8" style="stroke:#B1B3A8;stroke:color(display-p3 0.6941 0.7020 0.6588);stroke-opacity:1;" stroke-width="2"/>
<path d="M178.2 159.494C183.2 166.994 182.2 226.494 178.2 237.494" stroke="#B1B3A8" style="stroke:#B1B3A8;stroke:color(display-p3 0.6941 0.7020 0.6588);stroke-opacity:1;" stroke-width="2"/>
<path d="M178.5 159.494C183.5 166.994 182.5 226.494 178.5 237.494" stroke="#223E56" style="stroke:#223E56;stroke:color(display-p3 0.1333 0.2431 0.3373);stroke-opacity:1;" stroke-width="2"/>
<path d="M156.688 122.494C139.688 142.994 142.188 217.494 153.688 248.494" stroke="#B1B3A8" style="stroke:#B1B3A8;stroke:color(display-p3 0.6941 0.7020 0.6588);stroke-opacity:1;" stroke-width="2"/>
<path d="M157.688 121.494C140.688 141.994 142.5 218.494 154.5 248.994" stroke="#B1B3A8" style="stroke:#B1B3A8;stroke:color(display-p3 0.6941 0.7020 0.6588);stroke-opacity:1;" stroke-width="2"/>
<path d="M157 122.494C140 142.994 142.5 217.494 154 248.494" stroke="#223E56" style="stroke:#223E56;stroke:color(display-p3 0.1333 0.2431 0.3373);stroke-opacity:1;" stroke-width="2"/>
<path d="M152.5 222.99L152 172.494C160.5 171.498 158.5 196.49 153 196.49C153.032 196.311 153.666 197.093 155.5 199.49C157.334 201.887 158 223.494 158 223.494" stroke="#223E56" style="stroke:#223E56;stroke:color(display-p3 0.1333 0.2431 0.3373);stroke-opacity:1;" stroke-width="3"/>
<path d="M172 223.994L171.5 170.994C180 169.998 178 195.023 172.5 195.023C172.532 194.844 173.166 195.626 175 198.023C176.834 200.419 177.5 224.494 177.5 224.494" stroke="#223E56" style="stroke:#223E56;stroke:color(display-p3 0.1333 0.2431 0.3373);stroke-opacity:1;" stroke-width="3"/>
<path d="M358 155.994L361.654 119.002C361.852 116.997 363.509 115.452 365.523 115.396L377.995 115.05C379.101 115.019 380.022 115.893 380.05 117L381 155.494L381.496 337.203C381.498 337.857 380.883 338.336 380.249 338.175L359.505 332.878C358.62 332.652 358 331.855 358 330.941V155.994Z" stroke="#3D3C38" style="stroke:#3D3C38;stroke:color(display-p3 0.2405 0.2342 0.2197);stroke-opacity:1;"/>
<path d="M367.421 136.772C367.467 136.315 367.819 135.948 368.274 135.884L373.174 135.184C373.836 135.089 374.402 135.658 374.305 136.319L371.5 155.394L374.475 285.396C374.488 285.985 373.992 286.458 373.404 286.416L369.329 286.125C368.294 286.051 367.488 285.198 367.472 284.161L365.5 155.694L367.421 136.772Z" fill="#404040" style="fill:#404040;fill:color(display-p3 0.2526 0.2526 0.2526);fill-opacity:1;"/>
<path d="M74.9694 120.023C75.2838 116.925 77.6066 114.407 80.6691 113.845L97.3258 110.785C98.6525 110.541 99.835 111.654 99.6725 112.993L93.4085 164.627C93.1728 166.569 91.5663 168.056 89.6114 168.141L73.4651 168.843C71.638 168.923 70.1655 167.363 70.3502 165.543L74.9694 120.023Z" fill="#404040" style="fill:#404040;fill:color(display-p3 0.2526 0.2526 0.2526);fill-opacity:1;"/>
<path d="M49.116 124.723C49.4305 121.625 51.7533 119.107 54.8157 118.545L71.469 115.486C72.7967 115.242 73.9797 116.357 73.8154 117.697L67.9123 165.832C67.6744 167.772 66.0688 169.256 64.1158 169.341L47.9653 170.043C46.1381 170.123 44.6656 168.563 44.8503 166.743L49.116 124.723Z" fill="#404040" style="fill:#404040;fill:color(display-p3 0.2526 0.2526 0.2526);fill-opacity:1;"/>
<path d="M199.32 98.0419C199.725 95.0329 202.024 92.6283 205.012 92.0883L238.84 85.9748C240.163 85.7358 241.34 86.8434 241.182 88.1781L232.898 158.13C232.668 160.072 231.069 161.562 229.116 161.655L194.097 163.323C192.225 163.412 190.731 161.783 190.981 159.926L199.32 98.0419Z" fill="#404040" style="fill:#404040;fill:color(display-p3 0.2526 0.2526 0.2526);fill-opacity:1;"/>
<path d="M158.024 105.484C158.424 102.466 160.73 100.052 163.727 99.5146L191.796 94.4793C193.131 94.2397 194.313 95.3719 194.13 96.7169L185.443 160.727C185.186 162.624 183.62 164.073 181.708 164.182L153.622 165.787C151.742 165.895 150.229 164.264 150.477 162.398L158.024 105.484Z" fill="#404040" style="fill:#404040;fill:color(display-p3 0.2526 0.2526 0.2526);fill-opacity:1;"/>
<path d="M89.5183 225.481L72.7081 223.725C71.5277 223.601 70.5003 224.527 70.5003 225.714L70.5 289.611C70.5 291.826 71.9584 293.778 74.0834 294.406L90.4035 299.227C91.6938 299.608 92.9849 298.632 92.97 297.287L92.2064 228.432C92.1895 226.908 91.0335 225.639 89.5183 225.481Z" fill="#404040" style="fill:#404040;fill:color(display-p3 0.2526 0.2526 0.2526);fill-opacity:1;"/>
<path d="M63.7492 222.765L50.6661 221.675C49.5001 221.577 48.5 222.498 48.5 223.668V282.94C48.5 285.156 49.9584 287.107 52.0834 287.735L63.9334 291.236C65.2148 291.614 66.5 290.654 66.5 289.318V225.755C66.5 224.194 65.304 222.895 63.7492 222.765Z" fill="#404040" style="fill:#404040;fill:color(display-p3 0.2526 0.2526 0.2526);fill-opacity:1;"/>
<path d="M183.826 234.215L155.208 231.225C154.027 231.101 153 232.027 153 233.214V313.2C153 315.443 154.494 317.412 156.654 318.015L184.447 325.781C185.727 326.138 186.993 325.172 186.986 323.844L186.515 237.182C186.506 235.652 185.348 234.374 183.826 234.215Z" fill="#404040" style="fill:#404040;fill:color(display-p3 0.2526 0.2526 0.2526);fill-opacity:1;"/>
<path d="M229.299 238.249L194.591 235.093C194.005 235.04 193.5 235.501 193.5 236.089V324.956C193.5 326.752 194.697 328.327 196.427 328.809L231.719 338.637C232.36 338.816 232.993 338.33 232.987 337.664L232.027 241.206C232.012 239.666 230.833 238.388 229.299 238.249Z" fill="#404040" style="fill:#404040;fill:color(display-p3 0.2526 0.2526 0.2526);fill-opacity:1;"/>
<path d="M382.5 331.494C380.106 266.279 378.834 229.717 380.5 164.494C391.591 225.477 397.177 259.769 400.5 321.994C400.668 327.317 400.43 330.181 399 334.994C392.629 334.234 389.003 333.359 382.5 331.494Z" fill="#BDBDB1" style="fill:#BDBDB1;fill:color(display-p3 0.7412 0.7412 0.6941);fill-opacity:1;"/>
<path d="M368 60.4941L380.5 57.4941C385.284 56.7347 387.908 56.5333 392.5 56.4941C425.716 156.644 434.248 217.6 447 327.494L439.5 404.494C425.079 406.234 413.501 408.089 390.5 411.994L400.5 321.994C393.84 260.308 389.411 225.827 380.5 164.494V134.494L380 75.4941L367 77.9941L368 60.4941Z" fill="#D2D4C9" style="fill:#D2D4C9;fill:color(display-p3 0.8235 0.8314 0.7882);fill-opacity:1;"/>
<path d="M690 371.994L662.5 363.994L734 362.494L734.5 368.994L690 371.994Z" fill="#040308" style="fill:#040308;fill:color(display-p3 0.0157 0.0118 0.0314);fill-opacity:1;"/>
<path d="M462 404.494H460.5L458.5 403.494L460 370.994L538.5 370.494L536.5 375.994L475 379.994V407.994L470.5 408.494C468.492 406.661 467.392 405.861 465.5 404.994C464.544 404.672 463.753 404.568 462 404.494Z" fill="#191611" style="fill:#191611;fill:color(display-p3 0.0980 0.0863 0.0667);fill-opacity:1;"/>
<path d="M654.5 363.994L682.5 364.494L694.5 330.994L522 337.494L522.5 371.494L654.5 363.994Z" fill="#25251D" style="fill:#25251D;fill:color(display-p3 0.1451 0.1451 0.1137);fill-opacity:1;"/>
<path d="M475.15 380.394L536.575 376.494L539.5 378.444L536.575 380.719L536.25 388.519L538.525 390.144L536.575 392.744L536.25 400.869L538.525 402.819L536.25 405.094L535.925 412.569L538.2 414.844L535.925 416.469L474.5 419.069L475.15 380.394Z" fill="#3C4B52" style="fill:#3C4B52;fill:color(display-p3 0.2353 0.2941 0.3216);fill-opacity:1;"/>
<path d="M539.5 378.444L536.575 376.494L475.15 380.394L474.5 419.069L535.925 416.469L538.2 414.844M539.5 378.444L536.575 380.719M539.5 378.444L475.8 382.019L475.15 383.644L536.575 380.719M536.575 380.719L536.25 388.519L538.525 390.144M538.525 390.144L536.575 392.744M538.525 390.144L476.45 394.369L475.8 396.319L536.575 392.744M536.575 392.744L536.25 400.869L538.525 402.819M538.525 402.819L536.25 405.094M538.525 402.819L476.45 407.044L475.8 408.344L536.25 405.094M536.25 405.094L535.925 412.569M535.925 412.569L538.2 414.844M535.925 412.569L476.45 416.469L475.8 418.094L538.2 414.844" stroke="#2F3C42" style="stroke:#2F3C42;stroke:color(display-p3 0.1845 0.2363 0.2605);stroke-opacity:1;"/>
<path d="M460.5 404.494C452.299 403.997 447.701 403.921 439.5 404.494L447 327.494L754 318.994C751.928 338.37 750.442 349.209 747 368.494L734.5 368.994L734 362.494C714.592 364.117 703.415 364.671 682.5 364.494L694.5 330.994C631.909 337.093 593.739 338.216 522 337.494L522.5 371.494L461.5 372.494C460.906 381.583 460.742 389.515 460.5 404.494Z" fill="#7A7D74" style="fill:#7A7D74;fill:color(display-p3 0.4784 0.4902 0.4549);fill-opacity:1;"/>
<path d="M751.5 332.494C730.1 334.118 717.434 335.01 693.5 336.494L686.5 355.994C711.485 355.672 726.66 356.057 748.5 354.494L751.5 332.494Z" fill="#070E18" style="fill:#070E18;fill:color(display-p3 0.0275 0.0549 0.0941);fill-opacity:1;"/>
<path d="M692.06 372.013L744.98 368.494L747.5 370.254L744.98 372.307L744.7 379.345L746.66 380.812L744.98 383.158L744.7 390.49L746.66 392.249L744.7 394.302L744.42 401.047L746.38 403.1L744.42 404.567L691.5 406.913L692.06 372.013Z" fill="#3C4B52" style="fill:#3C4B52;fill:color(display-p3 0.2353 0.2941 0.3216);fill-opacity:1;"/>
<path d="M747.5 370.254L744.98 368.494L692.06 372.013L691.5 406.913L744.42 404.567L746.38 403.1M747.5 370.254L744.98 372.307M747.5 370.254L692.62 373.48L692.06 374.946L744.98 372.307M744.98 372.307L744.7 379.345L746.66 380.812M746.66 380.812L744.98 383.158M746.66 380.812L693.18 384.624L692.62 386.384L744.98 383.158M744.98 383.158L744.7 390.49L746.66 392.249M746.66 392.249L744.7 394.302M746.66 392.249L693.18 396.062L692.62 397.235L744.7 394.302M744.7 394.302L744.42 401.047M744.42 401.047L746.38 403.1M744.42 401.047L693.18 404.567L692.62 406.033L746.38 403.1" stroke="#2F3C42" style="stroke:#2F3C42;stroke:color(display-p3 0.1845 0.2363 0.2605);stroke-opacity:1;"/>
<path d="M446.5 340.494C476.265 341.461 493.279 342.074 520.5 342.494V364.494C498.101 363.974 477.288 364.272 444.5 364.494L446.5 340.494Z" fill="#060E18" style="fill:#060E18;fill:color(display-p3 0.0235 0.0549 0.0941);fill-opacity:1;"/>
<path d="M400.5 335.494C417.356 338.339 427.531 339.354 446.5 340.494L444.5 364.494C424.063 362.499 413.69 360.731 397 356.494L382.5 353.494V331.494L400.5 335.494Z" fill="#0D1C33" style="fill:#0D1C33;fill:color(display-p3 0.0510 0.1098 0.2000);fill-opacity:1;"/>
<path d="M400.5 335.494C417.356 338.339 427.531 339.354 446.5 340.494L444.5 364.494C424.063 362.499 413.69 360.731 397 356.494L382.5 353.494V331.494L400.5 335.494Z" fill="url(#paint0_linear_427_1872)" style=""/>
<path d="M380.5 57.4946C425.5 -6.0055 598 4.9939 683.5 54.4946C570.568 47.0747 511.071 36.8343 380.5 57.4946Z" fill="#EDEDE9" style="fill:#EDEDE9;fill:color(display-p3 0.9294 0.9294 0.9137);fill-opacity:1;"/>
<path d="M391.717 56.5259C388.33 56.6831 385.178 57.0465 380.5 57.4935C535.476 24.9337 585.824 37.4478 683.5 54.4936C712 124.494 741 229.994 754 318.993C661 335.494 544.5 337.994 447 327.494C432.739 213.532 420.199 153.555 392.717 57.255C392.591 56.8126 392.177 56.5046 391.717 56.5259Z" fill="#DDDDD1" style="fill:#DDDDD1;fill:color(display-p3 0.8667 0.8667 0.8196);fill-opacity:1;"/>
<path d="M728.5 255.494L457.5 262.494L466 318.494C580 321.494 631 324.494 739 309.494L728.5 255.494Z" fill="#494F5B" style="fill:#494F5B;fill:color(display-p3 0.2863 0.3098 0.3569);fill-opacity:1;"/>
<path d="M731.5 272.994C707.853 276.651 695.119 278.658 681.276 281.17C680.268 281.353 679.561 282.276 679.647 283.297C680.712 295.913 682.068 303.123 684.5 315.494" stroke="#141821" style="stroke:#141821;stroke:color(display-p3 0.0784 0.0941 0.1294);stroke-opacity:1;"/>
<ellipse cx="696.261" cy="295.94" rx="10.1502" ry="12.159" transform="rotate(-14.1322 696.261 295.94)" fill="#1F1D11" style="fill:#1F1D11;fill:color(display-p3 0.1216 0.1137 0.0667);fill-opacity:1;"/>
<path d="M705.5 291.494C704.5 299.994 698.68 307.994 694.18 307.494C704.18 310.494 712.5 303.494 705.5 291.494Z" fill="#5C6C69" style="fill:#5C6C69;fill:color(display-p3 0.3608 0.4235 0.4118);fill-opacity:1;"/>
<ellipse cx="510.194" cy="301.321" rx="10.8452" ry="12.3277" transform="rotate(-20.8047 510.194 301.321)" fill="#1F1D11" style="fill:#1F1D11;fill:color(display-p3 0.1216 0.1137 0.0667);fill-opacity:1;"/>
<path d="M520.7 298.494C519.7 305.994 512.7 311.994 506.7 312.494C514.5 316.494 524.5 308.994 520.7 298.494Z" fill="#5C6C69" style="fill:#5C6C69;fill:color(display-p3 0.3608 0.4235 0.4118);fill-opacity:1;"/>
<path d="M460.5 280.494C485.097 282.203 499.069 283.181 523.081 284.893C523.927 284.953 524.652 285.54 524.865 286.361C527.134 295.126 528.187 304.298 530 319.994" stroke="#141821" style="stroke:#141821;stroke:color(display-p3 0.0784 0.0941 0.1294);stroke-opacity:1;"/>
<path d="M457.5 262.494C441.457 173.598 432.154 128.047 414.5 61.4936C498 43.4939 589 42.4939 672.5 60.4936C699.489 135.575 710.755 178.479 728.5 255.494C640.971 268.769 581.718 270.407 457.5 262.494Z" fill="#7C8781" style="fill:#7C8781;fill:color(display-p3 0.4863 0.5294 0.5059);fill-opacity:1;"/>
<path d="M456.5 256.494L457.5 262.494C579.5 269.494 631 269.994 728.5 255.494L727.5 250.994L456.5 256.494Z" fill="#889490" style="fill:#889490;fill:color(display-p3 0.5333 0.5804 0.5647);fill-opacity:1;"/>
<path d="M672.5 60.4943C582.5 42.9942 500.5 43.4941 414.5 61.4944L427.5 112.994L689.39 109.494L672.5 60.4943Z" fill="#2A3137" style="fill:#2A3137;fill:color(display-p3 0.1647 0.1922 0.2157);fill-opacity:1;"/>
<path d="M520.5 105.994L510.5 66.4941H643L655 105.494L520.5 105.994Z" fill="#59594D" style="fill:#59594D;fill:color(display-p3 0.3490 0.3490 0.3020);fill-opacity:1;"/>
<path d="M550.5 243.494C539.218 192.939 532.288 165.013 519.5 115.494C583.333 115.066 618.952 114.748 681 113.494C698.096 162.135 706.455 190.109 720.5 240.494C656.151 241.241 619.634 241.753 550.5 243.494Z" fill="#414850" style="fill:#414850;fill:color(display-p3 0.2549 0.2824 0.3137);fill-opacity:1;"/>
<path d="M546 243.494C534.766 193.617 528.074 165.612 514.5 115.494L430 115.994C442.404 166.21 448.029 194.649 457.5 245.494L546 243.494Z" fill="#414850" style="fill:#414850;fill:color(display-p3 0.2549 0.2824 0.3137);fill-opacity:1;"/>
<ellipse cx="720.993" cy="294.041" rx="9.8534" ry="12.1226" transform="rotate(-15.693 720.993 294.041)" fill="url(#paint1_linear_427_1872)" style=""/>
<ellipse cx="481.07" cy="301.076" rx="11.4072" ry="13.909" transform="rotate(-30.7706 481.07 301.076)" fill="#FEFDEF" style="fill:#FEFDEF;fill:color(display-p3 0.9961 0.9922 0.9373);fill-opacity:1;"/>
<ellipse cx="481.07" cy="301.076" rx="11.4072" ry="13.909" transform="rotate(-30.7706 481.07 301.076)" fill="url(#paint2_linear_427_1872)" style=""/>
<path d="M571.5 225.494L574.5 242.994L595 242.494L592 224.994L571.5 225.494Z" fill="#2D3134" style="fill:#2D3134;fill:color(display-p3 0.1779 0.1908 0.2056);fill-opacity:1;"/>
<path d="M592 225.002C591.5 222.494 590.563 219.817 588.651 218.009C586.738 216.201 584.173 215.216 581.522 215.271C578.87 215.325 576.488 216.188 574.5 217.994C572.988 219.366 571 222.994 571.5 225.494L581.724 225.116L592 225.002Z" fill="#2D3134" style="fill:#2D3134;fill:color(display-p3 0.1765 0.1922 0.2039);fill-opacity:1;"/>
<path d="M590.676 223.528C592.362 228.729 589.896 234.188 585.167 235.721C580.439 237.254 575.186 233.695 573.5 228.494C571.814 223.293 574.333 218.419 579.061 216.886C583.79 215.353 588.989 218.327 590.676 223.528Z" fill="#FEFDEF" style="fill:#FEFDEF;fill:color(display-p3 0.9961 0.9922 0.9373);fill-opacity:1;"/>
<ellipse cx="479.5" cy="300.494" rx="10" ry="11" transform="rotate(-17.9625 479.5 300.494)" fill="#FEFDEF" style="fill:#FEFDEF;fill:color(display-p3 0.9961 0.9922 0.9373);fill-opacity:1;"/>
<path d="M519.337 76.881L518.79 74.3615L536.79 74.3558L537.337 76.8753L529.79 76.8777L534.332 97.8124L531.426 97.8133L526.884 76.8786L519.337 76.881ZM544.545 97.8092L541.498 97.8101L545.222 74.3531L548.222 74.3522L562.123 97.8036L559.077 97.8045L547.621 78.0631L547.433 78.0632L544.545 97.8092ZM543.682 88.647L555.964 88.6431L556.51 91.1626L544.229 91.1665L543.682 88.647ZM562.179 74.3477L570.483 84.1031L570.671 84.103L574.741 74.3437L578.163 74.3426L573.161 86.0721L583.252 97.7968L579.83 97.7979L571.566 88.2258L571.378 88.2259L567.268 97.8019L563.846 97.803L569.036 86.0735L558.757 74.3488L562.179 74.3477ZM587.035 97.7956L581.945 74.3414L596.43 74.3368L596.976 76.8563L585.398 76.86L587.118 84.785L597.946 84.7815L598.493 87.301L587.665 87.3045L589.394 95.2752L601.16 95.2715L601.706 97.791L587.035 97.7956ZM613.905 98.1078C612.53 98.1082 611.234 97.8414 610.016 97.3073C608.799 96.7732 607.757 96.0406 606.891 95.1093C606.024 94.1781 605.431 93.117 605.11 91.9259L607.922 91.925C608.262 92.9863 608.945 93.8641 609.971 94.5586C611.002 95.2454 612.132 95.5887 613.358 95.5883C614.343 95.588 615.169 95.3625 615.837 94.9118C616.512 94.4611 616.984 93.8425 617.25 93.0559C617.523 92.2618 617.551 91.3646 617.334 90.3644C617.112 89.3414 616.684 88.4291 616.049 87.6276C615.42 86.8184 614.657 86.1811 613.759 85.7156C612.861 85.2502 611.9 85.0138 610.875 85.0065C610.139 84.9991 609.409 85.11 608.685 85.3393C607.96 85.561 607.385 85.8475 606.961 86.1988L604.173 85.879L603.121 74.3347L615.59 74.3307L616.137 76.8502L606.105 76.8534L606.763 83.7708L606.903 83.7708C607.313 83.3889 607.861 83.0719 608.548 82.8197C609.236 82.5675 609.982 82.4413 610.787 82.441C612.256 82.4405 613.639 82.7837 614.936 83.4705C616.24 84.1496 617.348 85.0808 618.261 86.2639C619.182 87.4471 619.807 88.7984 620.137 90.3177C620.462 91.8142 620.408 93.1504 619.976 94.3263C619.549 95.4947 618.812 96.4188 617.764 97.0987C616.715 97.7709 615.428 98.1073 613.905 98.1078ZM629.761 74.3262L634.85 97.7804L631.944 97.7814L627.501 77.3047L627.36 77.3048L622.326 81.1088L621.699 78.2228L626.855 74.3271L629.761 74.3262Z" fill="#7A7017" style="fill:#7A7017;fill:color(display-p3 0.4787 0.4400 0.0914);fill-opacity:1;"/>
<ellipse cx="720.192" cy="293.854" rx="8.32311" ry="10.1385" transform="rotate(-17.9625 720.192 293.854)" fill="#FEFDEF" style="fill:#FEFDEF;fill:color(display-p3 0.9961 0.9922 0.9373);fill-opacity:1;"/>
<defs>
<linearGradient id="paint0_linear_427_1872" x1="392.5" y1="344.994" x2="382.5" y2="343.994" gradientUnits="userSpaceOnUse">
<stop stop-color="#0D1C33" stop-opacity="0" style="stop-color:none;stop-opacity:0;"/>
<stop offset="1" stop-color="#11213A" style="stop-color:#11213A;stop-color:color(display-p3 0.0667 0.1294 0.2275);stop-opacity:1;"/>
</linearGradient>
<linearGradient id="paint1_linear_427_1872" x1="720.993" y1="281.918" x2="720.993" y2="306.163" gradientUnits="userSpaceOnUse">
<stop stop-color="#121015" style="stop-color:#121015;stop-color:color(display-p3 0.0706 0.0627 0.0824);stop-opacity:1;"/>
<stop offset="1" stop-color="#717B70" style="stop-color:#717B70;stop-color:color(display-p3 0.4431 0.4824 0.4392);stop-opacity:1;"/>
</linearGradient>
<linearGradient id="paint2_linear_427_1872" x1="481.07" y1="287.167" x2="481.07" y2="314.985" gradientUnits="userSpaceOnUse">
<stop stop-color="#121015" style="stop-color:#121015;stop-color:color(display-p3 0.0706 0.0627 0.0824);stop-opacity:1;"/>
<stop offset="1" stop-color="#717B70" style="stop-color:#717B70;stop-color:color(display-p3 0.4431 0.4824 0.4392);stop-opacity:1;"/>
</linearGradient>
</defs>
</svg>
