<svg width="754" height="420" viewBox="0 0 754 420" fill="none" xmlns="http://www.w3.org/2000/svg">
<path d="M380.5 57.4946C380.5 61.9944 151.464 105.508 4.5 127.995C13.8428 111.864 20.996 105.712 34.5 102.494L422.5 6.49459C517.5 -15.5055 631 25.4944 683.5 54.4946L380.5 57.4946Z" fill="#9AA3A3" style="fill:#9AA3A3;fill:color(display-p3 0.6039 0.6392 0.6392);fill-opacity:1;"/>
<path d="M390.5 411.994L397 356.494L1 260.494V286.994L386.5 414.494L390.5 411.994Z" fill="#ABADA3" style="fill:#ABADA3;fill:color(display-p3 0.6706 0.6784 0.6392);fill-opacity:1;"/>
<path d="M1 260.494V250.994L382.5 331.494V353.494L1 260.494Z" fill="#11213A" style="fill:#11213A;fill:color(display-p3 0.0667 0.1294 0.2275);fill-opacity:1;"/>
<path d="M380.5 164.494V154.994L0 171.994L1 250.994L382.5 331.494L380.5 164.494Z" fill="#B1B3A8" style="fill:#B1B3A8;fill:color(display-p3 0.6941 0.7020 0.6588);fill-opacity:1;"/>
<path d="M380.5 135.994L380 75.4941L3.5 136.494L1 163.494L380.5 135.994Z" fill="#223E56" style="fill:#223E56;fill:color(display-p3 0.1333 0.2431 0.3373);fill-opacity:1;"/>
<path d="M380.5 154.994V135.994L1 163.494L0 171.994L380.5 154.994Z" fill="#CFD0C8" style="fill:#CFD0C8;fill:color(display-p3 0.8118 0.8157 0.7843);fill-opacity:1;"/>
<path d="M3.5 136.494C150 112.994 244.5 99.9941 367 77.9941L368 60.4941L4.49999 127.994C4.49999 127.994 3.52557 128.807 3.5 136.494Z" fill="#D2D4C9" style="fill:#D2D4C9;fill:color(display-p3 0.8235 0.8314 0.7882);fill-opacity:1;"/>
<path d="M15 263.494V257.494L37 262.494V269.994L36 270.494L15.5 264.494L15 263.494Z" fill="#152034" style="fill:#152034;fill:color(display-p3 0.0824 0.1255 0.2039);fill-opacity:1;"/>
<path d="M40 260.494L37 262.994V270.494L40 268.494V260.494Z" fill="#1E212A" style="fill:#1E212A;fill:color(display-p3 0.1176 0.1294 0.1647);fill-opacity:1;"/>
<path d="M37 263.267V269.656C37 270.324 36.3574 270.804 35.7167 270.615L16.4333 264.918C15.5833 264.666 15 263.886 15 263V258.26C15 257.614 15.6032 257.138 16.2316 257.287L25.5 259.494L36.2524 262.299C36.6928 262.414 37 262.812 37 263.267Z" fill="#0F1F38" style="fill:#0F1F38;fill:color(display-p3 0.0588 0.1216 0.2196);fill-opacity:1;"/>
<path d="M15 257.494L16 253.994L40 258.994C40.4302 260.016 39.552 260.83 37 262.494L15 257.494Z" fill="#5F7988" style="fill:#5F7988;fill:color(display-p3 0.3725 0.4745 0.5333);fill-opacity:1;"/>
<path d="M16.8 162.344L19.2881 144.974C19.4138 144.096 20.1021 143.406 20.9793 143.278L30.5 141.89L42.215 140.182C42.8642 140.087 43.4272 140.633 43.3529 141.284L41.15 160.594L28.15 161.524L16.8 162.344Z" fill="#BA322C" style="fill:#BA322C;fill:color(display-p3 0.7294 0.1961 0.1725);fill-opacity:1;"/>
<path d="M30.5 141.89L42.2141 140.182C42.8636 140.087 43.4267 140.633 43.3518 141.285L40 170.494V259.959C40 260.293 39.8329 260.606 39.5547 260.791L37.4453 262.197C37.1671 262.383 37 262.695 37 263.029V269.087C37 269.745 36.3753 270.224 35.7399 270.052L25.5 267.294M30.5 141.89L20.9798 143.278C20.1023 143.406 19.4139 144.097 19.2885 144.975L15.5319 171.27C15.5107 171.419 15.5006 171.57 15.5019 171.72L16.198 254.262C16.1993 254.415 16.1657 254.566 16.0996 254.703L15.0985 256.789C15.0337 256.924 15 257.072 15 257.222V262.958C15 263.864 15.6092 264.657 16.4847 264.89L25.5 267.294M30.5 141.89L27 170.994L27.9951 256.573C27.9982 256.842 27.8927 257.101 27.7023 257.292L25.7929 259.201C25.6054 259.389 25.5 259.643 25.5 259.908V267.294" stroke="#3A3835" style="stroke:#3A3835;stroke:color(display-p3 0.2275 0.2196 0.2078);stroke-opacity:1;"/>
<path d="M29.5047 172.776C29.5021 172.239 29.9245 171.796 30.4612 171.772L35.8264 171.539C36.3915 171.515 36.8644 171.963 36.8698 172.529L37.4887 237.802C37.4946 238.424 36.9377 238.9 36.3243 238.798L31.483 237.991C30.5222 237.831 29.8165 237.002 29.8118 236.028L29.5047 172.776Z" fill="#404040" style="fill:#404040;fill:color(display-p3 0.2526 0.2526 0.2526);fill-opacity:1;"/>
<path d="M18.5076 172.759C18.5033 172.221 18.9262 171.776 19.4641 171.752L24.3661 171.539C24.9313 171.515 25.4043 171.963 25.4095 172.529L25.9889 235.539C25.9947 236.165 25.4298 236.642 24.8132 236.532L20.6353 235.786C19.6873 235.617 18.9945 234.796 18.987 233.833L18.5076 172.759Z" fill="#404040" style="fill:#404040;fill:color(display-p3 0.2526 0.2526 0.2526);fill-opacity:1;"/>
<path d="M141 293.994V281.494L138.08 284.414L138 295.494L141 293.994Z" fill="#121E2A" style="fill:#121E2A;fill:color(display-p3 0.0706 0.1176 0.1647);fill-opacity:1;"/>
<path d="M141.5 281.494L104 273.994L102 276.494L138 284.494L141.5 281.494Z" fill="#5F7988" style="fill:#5F7988;fill:color(display-p3 0.3725 0.4745 0.5333);fill-opacity:1;"/>
<path d="M138 294.994V284.494L102 276.494V285.494L102.5 286.494L136.5 295.494L138 294.994Z" fill="#0F1F38" style="fill:#0F1F38;fill:color(display-p3 0.0588 0.1216 0.2196);fill-opacity:1;"/>
<path d="M104.5 155.994L106.297 134.436C106.415 133.015 107.517 131.874 108.933 131.706L124.412 129.873L140.873 127.924C142.751 127.701 144.364 129.25 144.217 131.135L142.5 153.244L122 154.724L104.5 155.994Z" fill="#BA322C" style="fill:#BA322C;fill:color(display-p3 0.7294 0.1961 0.1725);fill-opacity:1;"/>
<path d="M124.412 129.873L108.933 131.706C107.517 131.874 106.415 133.015 106.297 134.436L103.5 167.994L103.998 273.619C103.999 273.859 103.904 274.09 103.735 274.26L102.293 275.701C102.105 275.889 102 276.143 102 276.408V286.34C102 286.431 102.061 286.51 102.149 286.533L119.5 291.112M124.412 129.873L140.829 127.929C142.721 127.705 144.34 129.278 144.17 131.176L141 166.494L141.439 280.625C141.441 281.177 141.203 281.702 140.787 282.065L138.686 283.896C138.25 284.276 138 284.826 138 285.404V294.696C138 295.352 137.379 295.83 136.745 295.663L119.5 291.112M124.412 129.873L120.5 166.994L121.496 276.563C121.499 276.844 121.417 277.119 121.261 277.353L119.752 279.616C119.588 279.863 119.5 280.152 119.5 280.448V291.112" stroke="#3A3835" style="stroke:#3A3835;stroke:color(display-p3 0.2267 0.2211 0.2082);stroke-opacity:1;"/>
<path d="M123.523 169.438C123.51 168.356 124.361 167.46 125.443 167.416L133.944 167.076C135.07 167.031 136.011 167.925 136.023 169.052L136.96 251.435C136.981 253.295 135.322 254.726 133.486 254.432L126.164 253.26C125.203 253.107 124.492 252.283 124.48 251.309L123.523 169.438Z" fill="#404040" style="fill:#404040;fill:color(display-p3 0.2526 0.2526 0.2526);fill-opacity:1;"/>
<path d="M106.006 169.458C106.003 168.92 106.425 168.476 106.962 168.452L116.469 168.039C117.033 168.014 117.506 168.461 117.512 169.026L118.457 247.91C118.479 249.778 116.807 251.212 114.964 250.905L108.161 249.771C107.201 249.611 106.496 248.783 106.49 247.81L106.006 169.458Z" fill="#404040" style="fill:#404040;fill:color(display-p3 0.2526 0.2526 0.2526);fill-opacity:1;"/>
<path d="M249 306.494L248 307.994L251.5 304.494L249 306.494Z" fill="#19253D" style="fill:#19253D;fill:color(display-p3 0.0980 0.1451 0.2392);fill-opacity:1;"/>
<path d="M248 307.994L252 303.994L324.5 318.994L319 323.494L248 307.994Z" fill="#546F80" style="fill:#546F80;fill:color(display-p3 0.3294 0.4353 0.5020);fill-opacity:1;"/>
<path d="M248 321.494V307.994L319 323.494V338.994L248 321.494Z" fill="#0F1F38" style="fill:#0F1F38;fill:color(display-p3 0.0588 0.1216 0.2196);fill-opacity:1;"/>
<path d="M319 323.494L324.5 318.994V336.994L319 338.994V323.494Z" fill="#1E2128" style="fill:#1E2128;fill:color(display-p3 0.1176 0.1294 0.1569);fill-opacity:1;"/>
<path d="M285.5 310.994L282.5 315.494V329.994M282.5 329.994L272.5 327.494L248 320.994V307.994L251.5 304.494M282.5 329.994L303.5 334.994L318.5 338.994L324.5 336.994V318.994" stroke="#0B1A31" style="stroke:#0B1A31;stroke:color(display-p3 0.0437 0.1009 0.1904);stroke-opacity:1;"/>
<path d="M255.552 164.882C255.523 162.717 257.222 160.922 259.385 160.832L275.369 160.166C277.628 160.072 279.516 161.868 279.535 164.129L280.46 272.314C280.481 274.772 278.302 276.667 275.871 276.305L262.889 274.371C259.494 273.866 256.966 270.973 256.921 267.541L255.552 164.882Z" fill="#404040" style="fill:#404040;fill:color(display-p3 0.2526 0.2526 0.2526);fill-opacity:1;"/>
<path d="M288.562 164.366C288.527 161.655 290.66 159.411 293.369 159.307L309.392 158.691C312.195 158.583 314.538 160.801 314.583 163.605L316.426 276.442C316.465 278.855 314.374 280.754 311.976 280.482L296.134 278.689C292.629 278.292 289.967 275.349 289.922 271.822L288.562 164.366Z" fill="#404040" style="fill:#404040;fill:color(display-p3 0.2526 0.2526 0.2526);fill-opacity:1;"/>
<path d="M285.5 142.994L251.7 145.494L255.055 116.36C255.317 114.086 257.088 112.281 259.356 111.976L289 107.994L285.5 142.994Z" fill="#BA322C" style="fill:#BA322C;fill:color(display-p3 0.7294 0.1961 0.1725);fill-opacity:1;"/>
<path d="M323 140.144L285.5 142.994L289 107.994L321.906 103.231C324.489 102.858 326.732 105.018 326.456 107.613L323 140.144Z" fill="#BA322C" style="fill:#BA322C;fill:color(display-p3 0.7294 0.1961 0.1725);fill-opacity:1;"/>
<path d="M289 107.994L322.738 103.496C324.658 103.24 326.313 104.843 326.119 106.771L321 157.494L324 318.994L285.6 310.994M289 107.994L259.359 111.976C257.09 112.281 255.317 114.088 255.057 116.362L250 160.494L252 303.994L285.6 310.994M289 107.994L284 158.994L285.6 310.994" stroke="#3A3835" style="stroke:#3A3835;stroke:color(display-p3 0.2275 0.2196 0.2078);stroke-opacity:1;"/>
<path d="M358 155.994L361.654 119.002C361.852 116.997 363.509 115.452 365.523 115.396L377.995 115.05C379.101 115.019 380.022 115.893 380.05 117L381 155.494L381.496 337.203C381.498 337.857 380.883 338.336 380.249 338.175L359.505 332.878C358.62 332.652 358 331.855 358 330.941V155.994Z" stroke="#3D3C38" style="stroke:#3D3C38;stroke:color(display-p3 0.2405 0.2342 0.2197);stroke-opacity:1;"/>
<path d="M367.421 136.772C367.467 136.315 367.819 135.948 368.274 135.884L373.174 135.184C373.836 135.089 374.402 135.658 374.305 136.319L371.5 155.394L374.475 285.396C374.488 285.985 373.992 286.458 373.404 286.416L369.329 286.125C368.294 286.051 367.488 285.198 367.472 284.161L365.5 155.694L367.421 136.772Z" fill="#404040" style="fill:#404040;fill:color(display-p3 0.2526 0.2526 0.2526);fill-opacity:1;"/>
<path d="M74.9694 120.024C75.2838 116.926 77.6066 114.408 80.6691 113.845L97.3258 110.786C98.6525 110.542 99.835 111.655 99.6725 112.994L93.4085 164.628C93.1728 166.57 91.5663 168.057 89.6114 168.142L73.4651 168.844C71.638 168.924 70.1655 167.364 70.3502 165.544L74.9694 120.024Z" fill="#404040" style="fill:#404040;fill:color(display-p3 0.2526 0.2526 0.2526);fill-opacity:1;"/>
<path d="M49.116 124.724C49.4305 121.626 51.7533 119.108 54.8157 118.546L71.469 115.487C72.7967 115.243 73.9797 116.358 73.8154 117.698L67.9123 165.833C67.6744 167.773 66.0688 169.257 64.1158 169.342L47.9653 170.044C46.1381 170.124 44.6656 168.564 44.8503 166.744L49.116 124.724Z" fill="#404040" style="fill:#404040;fill:color(display-p3 0.2526 0.2526 0.2526);fill-opacity:1;"/>
<path d="M199.32 98.0419C199.725 95.0329 202.024 92.6283 205.012 92.0883L238.84 85.9748C240.163 85.7358 241.34 86.8434 241.182 88.1781L232.898 158.13C232.668 160.072 231.069 161.562 229.116 161.655L194.097 163.323C192.225 163.412 190.731 161.783 190.981 159.926L199.32 98.0419Z" fill="#404040" style="fill:#404040;fill:color(display-p3 0.2526 0.2526 0.2526);fill-opacity:1;"/>
<path d="M158.024 105.484C158.424 102.466 160.73 100.052 163.727 99.5146L191.796 94.4793C193.131 94.2397 194.313 95.3719 194.13 96.7169L185.443 160.727C185.186 162.624 183.62 164.073 181.708 164.182L153.622 165.787C151.742 165.895 150.229 164.264 150.477 162.398L158.024 105.484Z" fill="#404040" style="fill:#404040;fill:color(display-p3 0.2526 0.2526 0.2526);fill-opacity:1;"/>
<path d="M89.5183 225.481L72.7081 223.725C71.5277 223.601 70.5003 224.527 70.5003 225.714L70.5 289.611C70.5 291.826 71.9584 293.778 74.0834 294.406L90.4035 299.227C91.6938 299.608 92.9849 298.632 92.97 297.287L92.2064 228.432C92.1895 226.908 91.0335 225.639 89.5183 225.481Z" fill="#404040" style="fill:#404040;fill:color(display-p3 0.2526 0.2526 0.2526);fill-opacity:1;"/>
<path d="M63.7492 222.765L50.6661 221.675C49.5001 221.577 48.5 222.498 48.5 223.668V282.94C48.5 285.156 49.9584 287.107 52.0834 287.735L63.9334 291.236C65.2148 291.614 66.5 290.654 66.5 289.318V225.755C66.5 224.194 65.304 222.895 63.7492 222.765Z" fill="#404040" style="fill:#404040;fill:color(display-p3 0.2526 0.2526 0.2526);fill-opacity:1;"/>
<path d="M183.826 234.215L155.208 231.225C154.027 231.101 153 232.027 153 233.214V313.2C153 315.443 154.494 317.412 156.654 318.015L184.447 325.781C185.727 326.138 186.993 325.172 186.986 323.844L186.515 237.182C186.506 235.652 185.348 234.374 183.826 234.215Z" fill="#404040" style="fill:#404040;fill:color(display-p3 0.2526 0.2526 0.2526);fill-opacity:1;"/>
<path d="M229.299 238.249L194.591 235.093C194.005 235.04 193.5 235.501 193.5 236.089V324.956C193.5 326.752 194.697 328.327 196.427 328.809L231.719 338.637C232.36 338.816 232.993 338.33 232.987 337.664L232.027 241.206C232.012 239.666 230.833 238.388 229.299 238.249Z" fill="#404040" style="fill:#404040;fill:color(display-p3 0.2526 0.2526 0.2526);fill-opacity:1;"/>
<path d="M382.5 331.494C380.106 266.279 378.834 229.717 380.5 164.494C391.591 225.477 397.177 259.769 400.5 321.994C400.668 327.317 400.43 330.181 399 334.994C392.629 334.234 389.003 333.359 382.5 331.494Z" fill="#BDBDB1" style="fill:#BDBDB1;fill:color(display-p3 0.7412 0.7412 0.6941);fill-opacity:1;"/>
<path d="M368 60.4941L380.5 57.4941C385.284 56.7347 387.908 56.5333 392.5 56.4941C425.716 156.644 434.248 217.6 447 327.494L439.5 404.494C425.079 406.234 413.501 408.089 390.5 411.994L400.5 321.994C393.84 260.308 389.411 225.827 380.5 164.494V134.494L380 75.4941L367 77.9941L368 60.4941Z" fill="#D2D4C9" style="fill:#D2D4C9;fill:color(display-p3 0.8235 0.8314 0.7882);fill-opacity:1;"/>
<path d="M690 371.994L662.5 363.994L734 362.494L734.5 368.994L690 371.994Z" fill="#040308" style="fill:#040308;fill:color(display-p3 0.0157 0.0118 0.0314);fill-opacity:1;"/>
<path d="M462 404.494H460.5L458.5 403.494L460 370.994L538.5 370.494L536.5 375.994L475 379.994V407.994L470.5 408.494C468.492 406.661 467.392 405.861 465.5 404.994C464.544 404.672 463.753 404.568 462 404.494Z" fill="#191611" style="fill:#191611;fill:color(display-p3 0.0980 0.0863 0.0667);fill-opacity:1;"/>
<path d="M654.5 363.994L682.5 364.494L694.5 330.994L522 337.494L522.5 371.494L654.5 363.994Z" fill="#25251D" style="fill:#25251D;fill:color(display-p3 0.1451 0.1451 0.1137);fill-opacity:1;"/>
<path d="M475.15 380.394L536.575 376.494L539.5 378.444L536.575 380.719L536.25 388.519L538.525 390.144L536.575 392.744L536.25 400.869L538.525 402.819L536.25 405.094L535.925 412.569L538.2 414.844L535.925 416.469L474.5 419.069L475.15 380.394Z" fill="#3C4B52" style="fill:#3C4B52;fill:color(display-p3 0.2353 0.2941 0.3216);fill-opacity:1;"/>
<path d="M539.5 378.444L536.575 376.494L475.15 380.394L474.5 419.069L535.925 416.469L538.2 414.844M539.5 378.444L536.575 380.719M539.5 378.444L475.8 382.019L475.15 383.644L536.575 380.719M536.575 380.719L536.25 388.519L538.525 390.144M538.525 390.144L536.575 392.744M538.525 390.144L476.45 394.369L475.8 396.319L536.575 392.744M536.575 392.744L536.25 400.869L538.525 402.819M538.525 402.819L536.25 405.094M538.525 402.819L476.45 407.044L475.8 408.344L536.25 405.094M536.25 405.094L535.925 412.569M535.925 412.569L538.2 414.844M535.925 412.569L476.45 416.469L475.8 418.094L538.2 414.844" stroke="#2F3C42" style="stroke:#2F3C42;stroke:color(display-p3 0.1845 0.2363 0.2605);stroke-opacity:1;"/>
<path d="M460.5 404.494C452.299 403.997 447.701 403.921 439.5 404.494L447 327.494L754 318.994C751.928 338.37 750.442 349.209 747 368.494L734.5 368.994L734 362.494C714.592 364.117 703.415 364.671 682.5 364.494L694.5 330.994C631.909 337.093 593.739 338.216 522 337.494L522.5 371.494L461.5 372.494C460.906 381.583 460.742 389.515 460.5 404.494Z" fill="#7A7D74" style="fill:#7A7D74;fill:color(display-p3 0.4784 0.4902 0.4549);fill-opacity:1;"/>
<path d="M751.5 332.494C730.1 334.118 717.434 335.01 693.5 336.494L686.5 355.994C711.485 355.672 726.66 356.057 748.5 354.494L751.5 332.494Z" fill="#070E18" style="fill:#070E18;fill:color(display-p3 0.0275 0.0549 0.0941);fill-opacity:1;"/>
<path d="M692.06 372.013L744.98 368.494L747.5 370.254L744.98 372.307L744.7 379.345L746.66 380.812L744.98 383.158L744.7 390.49L746.66 392.249L744.7 394.302L744.42 401.047L746.38 403.1L744.42 404.567L691.5 406.913L692.06 372.013Z" fill="#3C4B52" style="fill:#3C4B52;fill:color(display-p3 0.2353 0.2941 0.3216);fill-opacity:1;"/>
<path d="M747.5 370.254L744.98 368.494L692.06 372.013L691.5 406.913L744.42 404.567L746.38 403.1M747.5 370.254L744.98 372.307M747.5 370.254L692.62 373.48L692.06 374.946L744.98 372.307M744.98 372.307L744.7 379.345L746.66 380.812M746.66 380.812L744.98 383.158M746.66 380.812L693.18 384.624L692.62 386.384L744.98 383.158M744.98 383.158L744.7 390.49L746.66 392.249M746.66 392.249L744.7 394.302M746.66 392.249L693.18 396.062L692.62 397.235L744.7 394.302M744.7 394.302L744.42 401.047M744.42 401.047L746.38 403.1M744.42 401.047L693.18 404.567L692.62 406.033L746.38 403.1" stroke="#2F3C42" style="stroke:#2F3C42;stroke:color(display-p3 0.1845 0.2363 0.2605);stroke-opacity:1;"/>
<path d="M446.5 340.494C476.265 341.461 493.279 342.074 520.5 342.494V364.494C498.101 363.974 477.288 364.272 444.5 364.494L446.5 340.494Z" fill="#060E18" style="fill:#060E18;fill:color(display-p3 0.0235 0.0549 0.0941);fill-opacity:1;"/>
<path d="M400.5 335.494C417.356 338.339 427.531 339.354 446.5 340.494L444.5 364.494C424.063 362.499 413.69 360.731 397 356.494L382.5 353.494V331.494L400.5 335.494Z" fill="#0D1C33" style="fill:#0D1C33;fill:color(display-p3 0.0510 0.1098 0.2000);fill-opacity:1;"/>
<path d="M400.5 335.494C417.356 338.339 427.531 339.354 446.5 340.494L444.5 364.494C424.063 362.499 413.69 360.731 397 356.494L382.5 353.494V331.494L400.5 335.494Z" fill="url(#paint0_linear_427_1973)" style=""/>
<path d="M380.5 57.4946C425.5 -6.0055 598 4.9939 683.5 54.4946C570.568 47.0747 511.071 36.8343 380.5 57.4946Z" fill="#EDEDE9" style="fill:#EDEDE9;fill:color(display-p3 0.9294 0.9294 0.9137);fill-opacity:1;"/>
<path d="M391.717 56.5259C388.33 56.6831 385.178 57.0465 380.5 57.4935C535.476 24.9337 585.824 37.4478 683.5 54.4936C712 124.494 741 229.994 754 318.993C661 335.494 544.5 337.994 447 327.494C432.739 213.532 420.199 153.555 392.717 57.255C392.591 56.8126 392.177 56.5046 391.717 56.5259Z" fill="#DDDDD1" style="fill:#DDDDD1;fill:color(display-p3 0.8667 0.8667 0.8196);fill-opacity:1;"/>
<path d="M728.5 255.494L457.5 262.494L466 318.494C580 321.494 631 324.494 739 309.494L728.5 255.494Z" fill="#008CFE" style="fill:#008CFE;fill:color(display-p3 0.0000 0.5490 0.9961);fill-opacity:1;"/>
<path d="M523.386 284.882L460.23 280.494L466 318.494L530 320.204L525.228 286.596C525.095 285.662 524.327 284.947 523.386 284.882Z" fill="#494F5B" style="fill:#494F5B;fill:color(display-p3 0.2863 0.3098 0.3569);fill-opacity:1;"/>
<path d="M681.372 281.191L732 272.994C734.682 287.256 736.219 295.252 739 309.494C717.791 312.357 705.873 313.83 684.5 315.994C682.217 303.282 681.075 295.832 679.705 283.383C679.589 282.326 680.322 281.361 681.372 281.191Z" fill="#494F5B" style="fill:#494F5B;fill:color(display-p3 0.2863 0.3098 0.3569);fill-opacity:1;"/>
<path d="M732 272.994C708.352 276.651 695.158 278.658 681.276 281.171C680.267 281.353 679.561 282.275 679.647 283.297C680.712 295.955 682.068 303.622 684.5 315.994" stroke="#141821" style="stroke:#141821;stroke:color(display-p3 0.0784 0.0941 0.1294);stroke-opacity:1;"/>
<ellipse cx="696.261" cy="295.94" rx="10.1502" ry="12.159" transform="rotate(-14.1322 696.261 295.94)" fill="#1F1D11" style="fill:#1F1D11;fill:color(display-p3 0.1216 0.1137 0.0667);fill-opacity:1;"/>
<path d="M705.5 291.494C704.5 299.994 698.68 307.994 694.18 307.494C704.18 310.494 712.5 303.494 705.5 291.494Z" fill="#5C6C69" style="fill:#5C6C69;fill:color(display-p3 0.3608 0.4235 0.4118);fill-opacity:1;"/>
<ellipse cx="510.194" cy="301.32" rx="10.8452" ry="12.3277" transform="rotate(-20.8047 510.194 301.32)" fill="#1F1D11" style="fill:#1F1D11;fill:color(display-p3 0.1216 0.1137 0.0667);fill-opacity:1;"/>
<path d="M520.7 298.494C519.7 305.994 512.7 311.994 506.7 312.494C514.5 316.494 524.5 308.994 520.7 298.494Z" fill="#5C6C69" style="fill:#5C6C69;fill:color(display-p3 0.3608 0.4235 0.4118);fill-opacity:1;"/>
<path d="M460.5 280.494C485.097 282.203 499.069 283.181 523.081 284.893C523.927 284.953 524.652 285.54 524.865 286.361C527.134 295.126 528.187 304.298 530 319.994" stroke="#141821" style="stroke:#141821;stroke:color(display-p3 0.0784 0.0941 0.1294);stroke-opacity:1;"/>
<path d="M457.5 262.494C441.457 173.598 432.154 128.047 414.5 61.4936C498 43.4939 589 42.4939 672.5 60.4936C699.489 135.575 710.755 178.479 728.5 255.494C640.971 268.769 581.718 270.407 457.5 262.494Z" fill="#7C8781" style="fill:#7C8781;fill:color(display-p3 0.4863 0.5294 0.5059);fill-opacity:1;"/>
<path d="M456.5 256.494L457.5 262.494C579.5 269.494 631 269.994 728.5 255.494L727.5 250.994L456.5 256.494Z" fill="#889490" style="fill:#889490;fill:color(display-p3 0.5333 0.5804 0.5647);fill-opacity:1;"/>
<path d="M672.5 60.4943C582.5 42.9942 500.5 43.4941 414.5 61.4944L427.5 112.994L689.39 109.494L672.5 60.4943Z" fill="#2A3137" style="fill:#2A3137;fill:color(display-p3 0.1647 0.1922 0.2157);fill-opacity:1;"/>
<path d="M520.5 105.994L510.5 66.4941H643L655 105.494L520.5 105.994Z" fill="#59594D" style="fill:#59594D;fill:color(display-p3 0.3490 0.3490 0.3020);fill-opacity:1;"/>
<path d="M550.5 243.494C539.218 192.939 532.288 165.013 519.5 115.494C583.333 115.066 618.952 114.748 681 113.494C698.096 162.135 706.455 190.109 720.5 240.494C656.151 241.241 619.634 241.753 550.5 243.494Z" fill="#414850" style="fill:#414850;fill:color(display-p3 0.2549 0.2824 0.3137);fill-opacity:1;"/>
<path d="M546 243.494C534.766 193.617 528.074 165.612 514.5 115.494L430 115.994C442.404 166.21 448.029 194.649 457.5 245.494L546 243.494Z" fill="#414850" style="fill:#414850;fill:color(display-p3 0.2549 0.2824 0.3137);fill-opacity:1;"/>
<ellipse cx="720.993" cy="294.041" rx="9.8534" ry="12.1226" transform="rotate(-15.693 720.993 294.041)" fill="url(#paint1_linear_427_1973)" style=""/>
<ellipse cx="481.07" cy="301.076" rx="11.4072" ry="13.909" transform="rotate(-30.7706 481.07 301.076)" fill="#FEFDEF" style="fill:#FEFDEF;fill:color(display-p3 0.9961 0.9922 0.9373);fill-opacity:1;"/>
<ellipse cx="481.07" cy="301.076" rx="11.4072" ry="13.909" transform="rotate(-30.7706 481.07 301.076)" fill="url(#paint2_linear_427_1973)" style=""/>
<path d="M571.5 225.494L574.5 242.994L595 242.494L592 224.994L571.5 225.494Z" fill="#2D3134" style="fill:#2D3134;fill:color(display-p3 0.1779 0.1908 0.2056);fill-opacity:1;"/>
<path d="M592 225.003C591.5 222.494 590.563 219.818 588.651 218.01C586.738 216.202 584.173 215.217 581.522 215.271C578.87 215.326 576.488 216.189 574.5 217.994C572.988 219.367 571 222.994 571.5 225.495L581.724 225.117L592 225.003Z" fill="#2D3134" style="fill:#2D3134;fill:color(display-p3 0.1765 0.1922 0.2039);fill-opacity:1;"/>
<path d="M590.676 223.528C592.362 228.729 589.896 234.188 585.167 235.721C580.439 237.253 575.186 233.695 573.5 228.493C571.814 223.292 574.333 218.419 579.061 216.886C583.79 215.353 588.989 218.326 590.676 223.528Z" fill="#FEFDEF" style="fill:#FEFDEF;fill:color(display-p3 0.9961 0.9922 0.9373);fill-opacity:1;"/>
<ellipse cx="479.5" cy="300.494" rx="10" ry="11" transform="rotate(-17.9625 479.5 300.494)" fill="#FEFDEF" style="fill:#FEFDEF;fill:color(display-p3 0.9961 0.9922 0.9373);fill-opacity:1;"/>
<path d="M541.005 81.6844L538.099 81.6853C537.75 80.8684 537.294 80.1509 536.73 79.5326C536.174 78.9143 535.545 78.3953 534.845 77.9756C534.151 77.5482 533.413 77.2278 532.632 77.0142C531.852 76.8007 531.063 76.694 530.266 76.6943C528.813 76.6947 527.574 77.054 526.55 77.7721C525.534 78.4901 524.83 79.5478 524.438 80.9452C524.053 82.3426 524.082 84.0567 524.522 86.0876C524.963 88.1185 525.679 89.8324 526.669 91.2293C527.668 92.6263 528.831 93.6834 530.158 94.4007C531.494 95.118 532.888 95.4764 534.341 95.476C535.138 95.4757 535.88 95.3686 536.568 95.1546C537.256 94.9406 537.856 94.6235 538.366 94.2034C538.883 93.7757 539.285 93.2525 539.573 92.634C539.866 92.0078 540.011 91.29 540.008 90.4807L542.914 90.4797C542.955 91.6785 542.79 92.7513 542.417 93.6982C542.044 94.6451 541.5 95.4508 540.785 96.1153C540.068 96.7722 539.212 97.2726 538.216 97.6165C537.228 97.9604 536.129 98.1325 534.918 98.1329C532.871 98.1336 530.944 97.6455 529.139 96.6688C527.333 95.692 525.777 94.3029 524.472 92.5013C523.167 90.6998 522.246 88.5622 521.71 86.0885C521.173 83.6148 521.166 81.4769 521.689 79.6748C522.212 77.8727 523.165 76.4828 524.546 75.505C525.928 74.5272 527.642 74.038 529.689 74.0374C530.9 74.037 532.074 74.2084 533.211 74.5516C534.356 74.8949 535.43 75.3984 536.434 76.0624C537.436 76.7187 538.328 77.5202 539.112 78.4667C539.894 79.4056 540.525 80.4782 541.005 81.6844ZM566.906 86.0741C567.443 88.5478 567.45 90.6857 566.926 92.4878C566.403 94.2899 565.451 95.6799 564.069 96.6576C562.688 97.6354 560.973 98.1246 558.926 98.1253C556.88 98.1259 554.953 97.6379 553.147 96.6611C551.342 95.6844 549.786 94.2952 548.481 92.4937C547.176 90.6922 546.255 88.5546 545.718 86.0809C545.182 83.6072 545.175 81.4693 545.698 79.6672C546.221 77.8651 547.174 76.4751 548.555 75.4973C549.937 74.5196 551.651 74.0304 553.698 74.0297C555.745 74.0291 557.671 74.5171 559.477 75.4939C561.283 76.4706 562.838 77.8598 564.143 79.6613C565.448 81.4628 566.369 83.6004 566.906 86.0741ZM564.093 86.075C563.653 84.0442 562.933 82.3302 561.935 80.9333C560.944 79.5363 559.781 78.4792 558.446 77.7619C557.118 77.0446 555.728 76.6862 554.275 76.6866C552.821 76.6871 551.583 77.0464 550.559 77.7644C549.543 78.4825 548.839 79.5402 548.447 80.9376C548.062 82.335 548.09 84.0491 548.531 86.08C548.972 88.1108 549.687 89.8248 550.678 91.2217C551.676 92.6187 552.839 93.6758 554.167 94.3931C555.503 95.1104 556.897 95.4688 558.35 95.4683C559.803 95.4679 561.038 95.1086 562.054 94.3906C563.078 93.6725 563.782 92.6148 564.166 91.2174C564.558 89.82 564.534 88.1059 564.093 86.075ZM588.279 74.3394L593.369 97.7936L590.556 97.7945L573.482 79.3835L573.248 79.3835L577.244 97.7988L574.337 97.7997L569.248 74.3455L572.061 74.3446L589.191 92.8014L589.426 92.8014L585.42 74.3403L588.279 74.3394ZM592.032 74.3382L595.36 74.3372L604.392 85.2834L604.674 85.2833L608.954 74.3328L612.282 74.3318L606.602 88.1231L608.7 97.7888L605.793 97.7897L603.696 88.124L592.032 74.3382Z" fill="#7A7017" style="fill:#7A7017;fill:color(display-p3 0.4787 0.4400 0.0914);fill-opacity:1;"/>
<ellipse cx="720.192" cy="293.854" rx="8.32311" ry="10.1385" transform="rotate(-17.9625 720.192 293.854)" fill="#FEFDEF" style="fill:#FEFDEF;fill:color(display-p3 0.9961 0.9922 0.9373);fill-opacity:1;"/>
<defs>
<linearGradient id="paint0_linear_427_1973" x1="392.5" y1="344.994" x2="382.5" y2="343.994" gradientUnits="userSpaceOnUse">
<stop stop-color="#0D1C33" stop-opacity="0" style="stop-color:none;stop-opacity:0;"/>
<stop offset="1" stop-color="#11213A" style="stop-color:#11213A;stop-color:color(display-p3 0.0667 0.1294 0.2275);stop-opacity:1;"/>
</linearGradient>
<linearGradient id="paint1_linear_427_1973" x1="720.993" y1="281.918" x2="720.993" y2="306.163" gradientUnits="userSpaceOnUse">
<stop stop-color="#121015" style="stop-color:#121015;stop-color:color(display-p3 0.0706 0.0627 0.0824);stop-opacity:1;"/>
<stop offset="1" stop-color="#717B70" style="stop-color:#717B70;stop-color:color(display-p3 0.4431 0.4824 0.4392);stop-opacity:1;"/>
</linearGradient>
<linearGradient id="paint2_linear_427_1973" x1="481.07" y1="287.167" x2="481.07" y2="314.985" gradientUnits="userSpaceOnUse">
<stop stop-color="#121015" style="stop-color:#121015;stop-color:color(display-p3 0.0706 0.0627 0.0824);stop-opacity:1;"/>
<stop offset="1" stop-color="#717B70" style="stop-color:#717B70;stop-color:color(display-p3 0.4431 0.4824 0.4392);stop-opacity:1;"/>
</linearGradient>
</defs>
</svg>
