<svg width="889" height="478" viewBox="0 0 889 478" fill="none" xmlns="http://www.w3.org/2000/svg">
<path d="M35.5 93.7539L512.5 35.7314L522.5 30.2314L557 1.73145L46 78.7539C42.2427 80.3749 38.8333 87.4589 35.5 93.7539Z" fill="#708EA6" style="fill:#708EA6;fill:color(display-p3 0.4392 0.5569 0.6510);fill-opacity:1;"/>
<path d="M35.5 93.7539L512.5 35.7314L522.5 30.2314L557 1.73145L46 78.7539C42.2427 80.3749 38.8333 87.4589 35.5 93.7539Z" fill="url(#paint0_linear_427_1414)" fill-opacity="0.2" style=""/>
<path d="M512.5 35.7314L491 126.732L19.4999 143.802C18.4999 131.254 21.9999 106.754 32.9999 94.2539L512.5 35.7314Z" fill="url(#paint1_linear_427_1414)" style=""/>
<path d="M521.5 30.2319C517.523 31.3881 515.506 32.4794 512.5 35.7319L522 41.7319L530.5 41.2319L770 35.7319C758.215 22.8496 750.358 14.9064 744.5 13.7319C702.944 5.40035 671.5 1.11836 643.5 0.731956C571 -0.268554 534.354 -1.31822 521 15.7319C519.434 17.7314 520.155 21.9147 521.5 30.2319Z" fill="#6988A1" style="fill:#6988A1;fill:color(display-p3 0.4118 0.5333 0.6314);fill-opacity:1;"/>
<path d="M521.5 30.2319C517.523 31.3881 515.506 32.4794 512.5 35.7319L522 41.7319L530.5 41.2319L770 35.7319C758.215 22.8496 750.358 14.9064 744.5 13.7319C702.944 5.40035 671.5 1.11836 643.5 0.731956C571 -0.268554 534.354 -1.31822 521 15.7319C519.434 17.7314 520.155 21.9147 521.5 30.2319Z" fill="url(#paint2_linear_427_1414)" fill-opacity="0.2" style=""/>
<path d="M334.522 116.732C333.522 97.2314 343.001 60.2314 351 54.7314L380.082 50.7314C369.464 67.89 366.251 86.1101 363.009 115.732L334.522 116.732Z" fill="#A2352D" style="fill:#A2352D;fill:color(display-p3 0.6353 0.2078 0.1765);fill-opacity:1;"/>
<path d="M309.999 117.732C309 98.2314 318.5 63.2314 326.499 57.7314L350.999 54.7314C340.381 71.89 337.741 87.1101 334.499 116.732L309.999 117.732Z" fill="#A2352D" style="fill:#A2352D;fill:color(display-p3 0.6353 0.2078 0.1765);fill-opacity:1;"/>
<path d="M121 127.731C122.093 107.947 123.828 97.2395 133 81.7531L146.5 80.1133C135.835 99.1105 134.408 110.214 133.5 127.231L121 127.731Z" fill="#A2352D" style="fill:#A2352D;fill:color(display-p3 0.6353 0.2078 0.1765);fill-opacity:1;"/>
<path d="M133.5 127.232C134.359 107.73 136.191 97.1466 145.5 80.2539L164 78.0039C154.541 94.0984 151.55 105.045 150 126.774L133.5 127.232Z" fill="#A2352D" style="fill:#A2352D;fill:color(display-p3 0.6353 0.2078 0.1765);fill-opacity:1;"/>
<path d="M512.5 35.7314L522 41.7314L505 123.732H491C493.202 70.9665 497.153 47.6674 512.5 35.7314Z" fill="#CBD5DD" style="fill:#CBD5DD;fill:color(display-p3 0.7961 0.8353 0.8667);fill-opacity:1;"/>
<path d="M499.5 294.232L505 123.732H491C485.586 182.719 484.651 222.856 483.008 293.367L483 293.732L499.5 294.232Z" fill="#24335E" style="fill:#24335E;fill:color(display-p3 0.1418 0.2003 0.3679);fill-opacity:1;"/>
<path d="M483 293.732V307.232L19.45 241.118V233.663L483 293.732Z" fill="#D9E3EC" style="fill:#D9E3EC;fill:color(display-p3 0.8510 0.8902 0.9255);fill-opacity:1;"/>
<path d="M505 123.732L542.5 123.232L544 62.7314L560 34.7314L682 27.2314C620.5 27.2314 545.5 25.2313 522 41.7314C509.5 50.7314 506.377 90.6039 505 123.732Z" fill="#E2EBF0" style="fill:#E2EBF0;fill:color(display-p3 0.8863 0.9216 0.9412);fill-opacity:1;"/>
<path d="M579 409.732L584 400.732L559 395.232C559.186 410.061 559.184 418.266 559 432.732L560 436.232C560.316 448.255 559.931 454.363 558.5 464.232C556.994 471.969 554.299 473.806 548.5 473.732C552.067 475.424 554.503 476.141 560 476.732C564.967 477.42 567.14 477.178 571 476.732C579.003 464.981 581.876 455.935 584 435.232V434.232L580 432.732V411.732L579 409.732Z" fill="#61615F" style="fill:#61615F;fill:color(display-p3 0.3804 0.3804 0.3725);fill-opacity:1;"/>
<path d="M499.5 374.732V383.732L558.863 397.699L561 398.232L558.5 387.732L499.5 374.732Z" fill="#D9E3EC" style="fill:#D9E3EC;fill:color(display-p3 0.8510 0.8902 0.9255);fill-opacity:1;"/>
<path d="M364 360.732V350.732C341 345.732 211.487 317.655 149 304.732V313.232L364 360.732Z" fill="#D9E3EC" style="fill:#D9E3EC;fill:color(display-p3 0.8510 0.8902 0.9255);fill-opacity:1;"/>
<path d="M149 304.732V313.232L19.45 284.105V276.909L149 304.732Z" fill="#D9E3EC" style="fill:#D9E3EC;fill:color(display-p3 0.8510 0.8902 0.9255);fill-opacity:1;"/>
<path d="M488 386.232L483 384.732C298.087 345.114 175.911 319.26 19.5 284.01V299.254L18 301.363V322.254L494 461.232L488 386.232Z" fill="#4D4D4B" style="fill:#4D4D4B;fill:color(display-p3 0.3020 0.3020 0.2941);fill-opacity:1;"/>
<path d="M487 417.232L482.5 420.732L18 301.581L19.5 299.127L487 417.232Z" fill="#6A6A6A" style="fill:#6A6A6A;fill:color(display-p3 0.4155 0.4155 0.4155);fill-opacity:1;"/>
<path d="M483 384.732L499.5 383.732L501 385.732L506 412.232L504.5 459.732C505.254 460.26 503.596 460.784 500.5 461.732C490.5 461.732 487 459.732 485.5 449.732L482.5 420.732L487 417.232V387.35C487 386.971 486.786 386.625 486.447 386.455L483 384.732Z" fill="#61615F" style="fill:#61615F;fill:color(display-p3 0.3818 0.3818 0.3718);fill-opacity:1;"/>
<path d="M499.5 417.232H487L482.5 420.732H498.5L499.5 417.232Z" fill="#757575" style="fill:#757575;fill:color(display-p3 0.4588 0.4588 0.4588);fill-opacity:1;"/>
<path d="M504.5 460.232L548.5 473.732L552 474.732L558.5 472.232L563.5 457.232V435.732L559.5 397.732L499.5 383.732V417.232L498.5 420.732L500 448.732C500.376 455.535 501.377 457.96 504.5 460.232Z" fill="#4D4D4B" style="fill:#4D4D4B;fill:color(display-p3 0.3020 0.3020 0.2941);fill-opacity:1;"/>
<path d="M498.5 420.732L563.5 435L563 433L499.5 417.232L498.5 420.732Z" fill="#6A6A6A" style="fill:#6A6A6A;fill:color(display-p3 0.4155 0.4155 0.4155);fill-opacity:1;"/>
<path d="M580.64 433H563L563.5 435L585 434.5L580.64 433Z" fill="#757575" style="fill:#757575;fill:color(display-p3 0.4588 0.4588 0.4588);fill-opacity:1;"/>
<path d="M483 376.732V307.232L19.4541 241.119V276.932L483 376.732Z" fill="#D9E3EC" style="fill:#D9E3EC;fill:color(display-p3 0.8510 0.8902 0.9255);fill-opacity:1;"/>
<path d="M499.5 307.732V374.732L558.5 387.732L551 314.732L499.5 307.732Z" fill="#D9E3EC" style="fill:#D9E3EC;fill:color(display-p3 0.8510 0.8902 0.9255);fill-opacity:1;"/>
<path d="M483 375.732L499.5 374.732V307.732L483 307.232V375.732Z" fill="#CBD5DD" style="fill:#CBD5DD;fill:color(display-p3 0.7945 0.8335 0.8685);fill-opacity:1;"/>
<path d="M551 314.732L550 300.732L499.5 294.232V307.732L551 314.732Z" fill="#D9E3EC" style="fill:#D9E3EC;fill:color(display-p3 0.8510 0.8902 0.9255);fill-opacity:1;"/>
<path d="M499.5 294.232L550 300.732L546 122.732L505 123.732C500.986 188.231 500.248 226.367 499.5 294.232Z" fill="url(#paint3_linear_427_1414)" style=""/>
<path d="M483 293.732L499.5 294.232V307.732L483 307.232V293.732Z" fill="#CBD5DD" style="fill:#CBD5DD;fill:color(display-p3 0.7945 0.8335 0.8685);fill-opacity:1;"/>
<path d="M483 375.732L499.5 374.732V383.732L483 384.732V375.732Z" fill="#CBD5DD" style="fill:#CBD5DD;fill:color(display-p3 0.7945 0.8335 0.8685);fill-opacity:1;"/>
<path d="M364 350.732L483 375.732V384.732L364 359.232V350.732Z" fill="#D9E3EC" style="fill:#D9E3EC;fill:color(display-p3 0.8510 0.8902 0.9255);fill-opacity:1;"/>
<path d="M483 293.732L491 123.732L19.4531 143.08V233.664L483 293.732Z" fill="#293863" style="fill:#293863;fill:color(display-p3 0.1608 0.2196 0.3882);fill-opacity:1;"/>
<path d="M364 278.971V269.46L369 270.232V279.732L364 278.971Z" fill="#2F393A" style="fill:#2F393A;fill:color(display-p3 0.1843 0.2235 0.2275);fill-opacity:1;"/>
<path d="M369 279.732L364 278.971V291.232L369 291.732V279.732Z" fill="#EEF0EB" style="fill:#EEF0EB;fill:color(display-p3 0.9333 0.9412 0.9216);fill-opacity:1;"/>
<path d="M317 133.232H306H305.5L307.5 124.732L311.5 119.732L318.5 118.732L317 133.232Z" fill="#EEF0EB" style="fill:#EEF0EB;fill:color(display-p3 0.9333 0.9412 0.9216);fill-opacity:1;"/>
<path d="M309.5 117.732L365.5 115.232C370.5 115.232 371 117.232 371 122.732C339.225 119.897 317.925 123.431 318 119.232C317.749 119.274 317.506 119.311 317.272 119.344C315.956 119.606 314.694 119.9 313.5 120.232C305.51 123.605 305.707 134.911 305.502 139.733C304.502 163.232 302.783 199.194 302 270.232L293.502 269.732C294.827 199.662 294.763 210.288 297.002 139.733C297.502 126.232 300.5 117.732 309.5 117.732Z" fill="#172244" style="fill:#172244;fill:color(display-p3 0.0895 0.1352 0.2663);fill-opacity:1;"/>
<path d="M302 270.232L313 271.732V262.232C310 261.232 310 258.732 310 253.732C310.639 212.618 311.367 188.987 313 145.732C313.227 139.732 313 138.232 317 137.732V132.732H306C305.684 135.883 305.5 137.732 305.5 140.732C305 144.732 302.141 219.841 302 270.232Z" fill="#293863" style="fill:#293863;fill:color(display-p3 0.1608 0.2196 0.3882);fill-opacity:1;"/>
<path d="M317 132.732L318 119.232L344.5 118.232L338.5 342.232L313 337.232V262.732L317 137.732V132.732Z" fill="#A2352D" style="fill:#A2352D;fill:color(display-p3 0.6353 0.2078 0.1765);fill-opacity:1;"/>
<path d="M367 348.232L365 291.232L369 291.732L367 348.232Z" fill="#D9E3EC" style="fill:#D9E3EC;fill:color(display-p3 0.8510 0.8902 0.9255);fill-opacity:1;"/>
<path d="M334.008 142.238C334.008 134.731 333.508 134.731 329.008 134.738H319.008C313.008 134.732 313.492 134.725 313 140.732C310.992 162.224 310.009 210.231 310.008 251.738C309.499 258.731 310.224 261.534 313.008 262.239L325.008 263.738C328.508 264.231 330.508 262.231 330.508 258.231C332.368 212.837 333.725 187.326 334.008 142.238Z" fill="#404040" style="fill:#404040;fill:color(display-p3 0.2526 0.2526 0.2526);fill-opacity:1;"/>
<path d="M344.5 118.232L338.5 342.231L367 348.231V268.731L371 133.732V119.732C370.121 117.915 368.5 117.732 363 117.732L344.5 118.232Z" fill="#A2352D" style="fill:#A2352D;fill:color(display-p3 0.6353 0.2078 0.1765);fill-opacity:1;"/>
<path d="M302 270.232L293.5 269.232V270.232V280.232L302 280.732V270.232Z" fill="#46474B" style="fill:#46474B;fill:color(display-p3 0.2745 0.2784 0.2941);fill-opacity:1;"/>
<path d="M302.001 280.732L293.501 280.232V318.732C293.501 329.232 296 334.232 299.501 334.232L313 336.232C308.999 335.232 302.001 331.232 302.001 321.732V280.732Z" fill="#383E3E" style="fill:#383E3E;fill:color(display-p3 0.2196 0.2431 0.2431);fill-opacity:1;"/>
<path d="M313 282.732L302 280.732V270.232L313 271.732V282.732Z" fill="#EEF0EB" style="fill:#EEF0EB;fill:color(display-p3 0.9333 0.9412 0.9216);fill-opacity:1;"/>
<path d="M313.006 282.732L302.006 280.732V323.732C301.88 331.151 302.5 334.232 307.006 335.232L313.006 336.232V282.732Z" fill="#D9E3EC" style="fill:#D9E3EC;fill:color(display-p3 0.8510 0.8902 0.9255);fill-opacity:1;"/>
<path d="M359.007 133.729L372 133.731L369.039 270.223L352.5 268.231C347.5 267.231 347.494 266.226 347.5 258.225L349.5 146.731C349.5 136.232 352.007 133.729 359.007 133.729Z" fill="#404040" style="fill:#404040;fill:color(display-p3 0.2526 0.2526 0.2526);fill-opacity:1;"/>
<path d="M411.418 128.514C411.464 126.945 412.712 125.676 414.281 125.605L430.262 124.879C432.008 124.799 433.452 126.224 433.397 127.971L428.606 278.394C428.55 280.177 426.96 281.517 425.193 281.27L409.663 279.103C408.148 278.892 407.034 277.573 407.079 276.044L411.418 128.514Z" fill="#3B4443" style="fill:#3B4443;fill:color(display-p3 0.2314 0.2667 0.2627);fill-opacity:1;"/>
<path d="M223.5 134.254C223.514 132.948 225.41 131.808 227.849 131.641L252.711 130.631C255.426 130.445 257.725 131.529 257.703 132.984L255.38 258.128C255.358 259.612 252.759 261.837 250 261.754L226.188 258.983C223.822 258.912 222.04 257.893 222.054 256.621L223.5 134.254Z" fill="#3B4443" style="fill:#3B4443;fill:color(display-p3 0.2314 0.2667 0.2627);fill-opacity:1;"/>
<path d="M177.669 136.053C177.665 134.826 179.544 133.718 181.98 133.512L206.583 132.647C209.294 132.417 211.608 133.388 211.606 134.754L211.606 251.148C211.605 252.542 208.759 256.777 206 256.754L182.189 253.52C179.5 253.255 178.004 250.95 178 249.754L177.669 136.053Z" fill="#3B4443" style="fill:#3B4443;fill:color(display-p3 0.2314 0.2667 0.2627);fill-opacity:1;"/>
<path d="M69.0647 139.4C69.076 138.353 70.5956 137.439 72.551 137.306L92.4827 136.496C94.6586 136.347 96.5019 137.216 96.4846 138.382L94.6221 238.706C94.6047 239.896 92.5207 241.68 90.3091 241.613L71.2192 239.392C69.323 239.335 67.8944 238.518 67.9056 237.498L69.0647 139.4Z" fill="#3B4443" style="fill:#3B4443;fill:color(display-p3 0.2314 0.2667 0.2627);fill-opacity:1;"/>
<path d="M37.7779 140.777C37.7748 139.811 39.2544 138.938 41.1725 138.776L60.545 138.095C62.6794 137.914 64.5011 138.679 64.5 139.754L63.586 233.313C63.585 234.411 61.3442 237.746 59.1717 237.728L40.4229 235.181C38.3055 234.972 37.1273 233.157 37.1244 232.216L37.7779 140.777Z" fill="#3B4443" style="fill:#3B4443;fill:color(display-p3 0.2314 0.2667 0.2627);fill-opacity:1;"/>
<path d="M450.773 123.011C450.893 117.852 455.11 113.732 460.271 113.732H476.395C478.917 113.732 480.947 115.804 480.894 118.325L475.575 374.617C475.542 376.179 474.101 377.329 472.57 377.013L446.235 371.579C445.525 371.433 445.022 370.8 445.039 370.075L450.773 123.011Z" stroke="#6E777C" style="stroke:#6E777C;stroke:color(display-p3 0.4314 0.4667 0.4863);stroke-opacity:1;"/>
<path d="M454.439 136.628C454.495 133.355 457.165 130.732 460.438 130.732H472.848C475.668 130.732 477.93 133.062 477.846 135.881L473.6 277.888C473.547 279.673 471.955 281.016 470.187 280.769L459.015 279.21C455.01 278.652 452.052 275.192 452.122 271.149L454.439 136.628Z" fill="#404040" style="fill:#404040;fill:color(display-p3 0.2526 0.2526 0.2526);fill-opacity:1;"/>
<path d="M122 241.232L125 139.732H118L117 147.732L115.5 189.232L113 226.732V271.072V293.732L117 296.732L122.5 297.232L122 241.232Z" fill="#2F393A" style="fill:#2F393A;fill:color(display-p3 0.1843 0.2235 0.2275);fill-opacity:1;"/>
<path d="M118.572 139.732C118.07 133.689 119.453 129.732 125.5 129.732L125 139.732H118.572Z" fill="#D9D9D9" style="fill:#D9D9D9;fill:color(display-p3 0.8510 0.8510 0.8510);fill-opacity:1;"/>
<path d="M151 129.233L155 131.733C154.257 128.349 153.5 126.732 151.5 126.732L133.5 127.232L135 128.232L140.5 129.232L151 129.233Z" fill="#822A24" style="fill:#822A24;fill:color(display-p3 0.5096 0.1646 0.1393);fill-opacity:1;"/>
<path d="M139 143.232L139.5 129.232L151.874 128.856C153.579 128.804 154.984 130.182 154.965 131.888L153.074 300.595C153.053 302.49 151.302 303.891 149.448 303.496L136.5 300.732L136 244.232L137.5 194.732L139 143.232Z" fill="#A2352D" style="fill:#A2352D;fill:color(display-p3 0.6353 0.2078 0.1765);fill-opacity:1;"/>
<path d="M135.012 128.232L133.5 127.232L121.012 127.732C120.5 127.732 118.979 128.746 119 130.232L125.512 129.732L140.512 129.232L135.012 128.232Z" fill="#822A24" style="fill:#822A24;fill:color(display-p3 0.5098 0.1647 0.1412);fill-opacity:1;"/>
<path d="M112.5 133.732C116.323 131.101 118.593 129.888 125 129.732L121 127.732C118 127.732 113.702 129.961 112.5 133.732Z" fill="url(#paint4_linear_427_1414)" style=""/>
<path d="M111.5 143.232C112 129.732 112.5 129.732 125.5 129.732C120.262 129.783 118.501 133.732 118.501 139.733C118.501 143.232 114.494 224.646 114.501 287.734C114.223 293.561 114.85 295.367 117.001 296.734H112.501C110.001 296.734 108.501 294.232 108.501 287.734C109.5 195.232 111.074 154.724 111.5 143.232Z" fill="#172244" style="fill:#172244;fill:color(display-p3 0.0902 0.1333 0.2667);fill-opacity:1;"/>
<path d="M125 139.732L125.5 129.732L140.5 129.232L139.5 147.732L138.5 172.232L137.5 195.232L137 300.732L122.5 297.232L122 240.732L123.5 191.232L125 139.732Z" fill="#A2352D" style="fill:#A2352D;fill:color(display-p3 0.6353 0.2078 0.1765);fill-opacity:1;"/>
<path d="M123.276 145.619C123.329 143.994 124.67 142.707 126.297 142.719L133.8 142.775C134.932 142.783 135.831 143.728 135.784 144.859L133.72 240.564C133.67 241.742 132.616 242.622 131.448 242.46L121.922 241.422C120.908 241.281 120.164 240.398 120.197 239.375L123.276 145.619Z" fill="#404040" style="fill:#404040;fill:color(display-p3 0.2526 0.2526 0.2526);fill-opacity:1;"/>
<path d="M145.383 144.319C145.448 143.286 146.292 142.461 147.327 142.433L155 142.232L153.703 244.749L144.171 243.921C143.132 243.831 142.337 242.944 142.345 241.9C142.643 204.492 142.934 183.113 145.383 144.319Z" fill="#404040" style="fill:#404040;fill:color(display-p3 0.2526 0.2526 0.2526);fill-opacity:1;"/>
<path d="M781.5 412.732L794 415.732L792 389.732L777.5 377.732L716.5 378.232L642 384.732L584 400.732L579 409.732L580 411.732V432.732L584 434.232V435.232H603.5L664 389.232L668.5 385.732L666 396.732V419.232V444.732H674H697H702L706 442.232L712.5 448.732L717 444.732V440.732L725 442.232L781 437.732L781.5 412.732Z" fill="#3E4241" style="fill:#3E4241;fill:color(display-p3 0.2431 0.2588 0.2549);fill-opacity:1;"/>
<path d="M648.5 357.232V385.732L666.5 386.732L777.5 379.732L791 349.732L648.5 357.232Z" fill="#182120" style="fill:#182120;fill:color(display-p3 0.0941 0.1294 0.1255);fill-opacity:1;"/>
<path d="M648.5 357.232V385.732L666.5 386.732L777.5 379.732L791 349.732L648.5 357.232Z" fill="url(#paint5_linear_427_1414)" fill-opacity="0.5" style=""/>
<path fill-rule="evenodd" clip-rule="evenodd" d="M794 415.729C797.851 401.163 799.019 392.685 800.04 377.232L799.062 350.093C799.103 349.973 799.145 349.852 799.187 349.731H799.049L799.031 349.232L798.873 349.675C798.866 349.694 798.86 349.712 798.853 349.731H791L777.5 379.731L780.628 390.529C780.586 390.595 780.543 390.662 780.5 390.729C776.381 391.745 774.394 392.584 771.215 393.927C770.983 394.025 770.746 394.126 770.5 394.229L780.5 394.23L781.5 412.73C786.613 413.81 789.427 414.433 794 415.729Z" fill="#3E4241" style="fill:#3E4241;fill:color(display-p3 0.2431 0.2588 0.2549);fill-opacity:1;"/>
<path fill-rule="evenodd" clip-rule="evenodd" d="M794 415.729C797.851 401.163 799.019 392.685 800.04 377.232L799.062 350.093C799.103 349.973 799.145 349.852 799.187 349.731H799.049L799.031 349.232L798.873 349.675C798.866 349.694 798.86 349.712 798.853 349.731H791L777.5 379.731L780.628 390.529C780.586 390.595 780.543 390.662 780.5 390.729C776.381 391.745 774.394 392.584 771.215 393.927C770.983 394.025 770.746 394.126 770.5 394.229L780.5 394.23L781.5 412.73C786.613 413.81 789.427 414.433 794 415.729Z" fill="url(#paint6_linear_427_1414)" fill-opacity="0.5" style=""/>
<path d="M648.5 357.232V385.732L590.5 400.732H584L580.5 359.732L648.5 357.232Z" fill="#61615F" style="fill:#61615F;fill:color(display-p3 0.3804 0.3804 0.3725);fill-opacity:1;"/>
<path d="M795 411.732L800 377.232L826.5 376.232L822.5 383.232C822.5 383.232 803.137 388.167 805.5 398.732C806.135 401.569 810.5 403.232 817 402.732C817.5 406.232 817 411.732 817 411.732H795Z" fill="#050704" style="fill:#050704;fill:color(display-p3 0.0196 0.0275 0.0157);fill-opacity:1;"/>
<path d="M805.5 398.732C803.887 391.522 812.393 386.235 817.957 383.605L818 382.732L822.5 381.732C822.5 381.732 820.547 382.381 817.957 383.605L817 403.232H816C809.5 403.732 806.135 401.569 805.5 398.732Z" fill="url(#paint7_linear_427_1414)" style=""/>
<path d="M829 375.732C818.5 376.232 817 377.732 817 387.232V418.732C817 423.732 818 424.732 823.5 424.732L865.5 422.732C898 422.232 892 374.232 871.5 374.232L829 375.732Z" fill="#2A2A2A" style="fill:#2A2A2A;fill:color(display-p3 0.1647 0.1647 0.1647);fill-opacity:1;"/>
<path d="M654.541 437.128C667.193 436.593 669.501 435.39 669.5 425.232L670 394.732C670 384.732 667 384.732 657 384.732L610.562 386.87C571.403 387.405 578.799 439.732 603.5 439.732L654.541 437.128Z" fill="#2A2A2A" style="fill:#2A2A2A;fill:color(display-p3 0.1655 0.1655 0.1655);fill-opacity:1;"/>
<path d="M799.031 349.233L855.5 346.734L854.5 375.732L800.04 377.234L799.031 349.233Z" fill="#61615F" style="fill:#61615F;fill:color(display-p3 0.3804 0.3804 0.3725);fill-opacity:1;"/>
<path d="M565.5 400.73C561.364 400.918 559.622 400.126 559 394.73C546 267.232 538.001 192.732 544 61.2301C545.095 37.2319 558.5 32.0442 584.5 30.2301C665.641 24.5685 710.892 25.3906 791 38.7301C812.512 41.9783 820.898 47.8676 826.5 68.7301C846.764 140.649 856.223 215.179 871.5 374.73L854 375.232V348.23C819.008 348.599 766.412 350.913 591 360.23C584.57 360.151 582.598 360.917 582 363.73L584 400.73H565.5Z" fill="#F4F9FF" style="fill:#F4F9FF;fill:color(display-p3 0.9569 0.9765 1.0000);fill-opacity:1;"/>
<path fill-rule="evenodd" clip-rule="evenodd" d="M558.878 270C554.156 211.708 552.85 165.96 552 93.2322C551.999 54.7308 558.002 52.4617 587.5 50.731C674.708 45.615 719.52 47.8521 796.5 58.7309C818 62.2309 821 63.7322 826 92.2322C829.533 115.002 832.859 135.375 835.984 154.521C842.398 193.814 847.968 223.937 852.755 263L558.878 270Z" fill="#DEE2E7" style="fill:#DEE2E7;fill:color(display-p3 0.8706 0.8863 0.9052);fill-opacity:1;"/>
<path d="M565.999 346.736C670.999 345.236 840.5 336.732 859.5 332.232C857.451 308.289 855.206 282.997 852.755 263L558.878 270C560.692 292.39 563.01 320.04 565.999 346.736Z" fill="#C04D45" style="fill:#C04D45;fill:color(display-p3 0.7531 0.3036 0.2706);fill-opacity:1;"/>
<path d="M587.5 50.3492C558.002 52.0798 551.999 54.349 552 92.8504C552.169 81.4257 552.583 75.0883 555.5 64.2314C558.162 59.0437 564.5 57.8939 570.5 57.2314C648.727 48.5949 699.647 50.9101 799 63.7314C809.5 65.0864 813.066 70.2314 816.5 84.7314C834.35 160.101 839.5 223.232 854.5 333.232L859.5 332.232C851.5 238.73 840.496 185.276 826 91.8504C821 63.3504 818 61.8491 796.5 58.3491C719.52 47.4703 674.708 45.2331 587.5 50.3492Z" fill="#DFE6E5" style="fill:#DFE6E5;fill:color(display-p3 0.8745 0.9020 0.8980);fill-opacity:1;"/>
<path d="M637.778 68.4999C636.5 57.4748 633.245 49.186 620.5 49.9994C596.5 51.5311 583.08 52.1685 568.955 54.09C560.089 55.2962 555.25 62.4997 554.764 73.5249C551.86 139.5 556.107 185.104 557.981 251.412C559.225 262.734 561.067 267.827 572.389 267.949C598.549 268.056 613.077 267.045 637.778 266.398C647.752 266.136 654.58 264.193 653.861 254.27C648.583 181.501 646.007 139.5 637.778 68.4999Z" fill="#404040" style="fill:#404040;fill:color(display-p3 0.2526 0.2526 0.2526);fill-opacity:1;"/>
<path d="M819.727 82.0452C817.104 68.393 813.17 63.2742 796.779 61.5679C759.624 57.7002 694.521 46.4972 651.356 51.2273C638.789 52.6044 641.509 55.8791 642.057 68.393C647 137 651.999 181.777 656.356 250.64C657.583 262.323 664.553 265.998 678.758 265.998C704.552 266.108 804.976 262.784 829.017 262.784C838.852 262.513 846.665 257.665 845.955 247.426C837 171.5 824.425 106.5 819.727 82.0452Z" fill="#404040" style="fill:#404040;fill:color(display-p3 0.2526 0.2526 0.2526);fill-opacity:1;"/>
<path d="M611.5 338.73C623.926 338.73 634 327.761 634 314.23C634 300.699 623.926 289.73 611.5 289.73C599.074 289.73 589 300.699 589 314.23C589 327.761 599.074 338.73 611.5 338.73Z" fill="#515151" style="fill:#515151;fill:color(display-p3 0.3187 0.3187 0.3187);fill-opacity:1;"/>
<path d="M610 335.73C621.046 335.73 630 325.657 630 313.23C630 300.804 621.046 290.73 610 290.73C598.954 290.73 590 300.804 590 313.23C590 325.657 598.954 335.73 610 335.73Z" fill="#F5FCD3" style="fill:#F5FCD3;fill:color(display-p3 0.9608 0.9882 0.8275);fill-opacity:1;"/>
<path d="M820.613 329.451C830.388 328.499 837.31 317.431 836.074 304.73C834.837 292.028 825.91 282.503 816.135 283.455C806.36 284.406 799.438 295.474 800.674 308.176C801.911 320.877 810.837 330.402 820.613 329.451Z" fill="#515151" style="fill:#515151;fill:color(display-p3 0.3187 0.3187 0.3187);fill-opacity:1;"/>
<path d="M819.912 326.248C828.671 325.08 834.529 314.813 832.996 303.317C831.463 291.821 823.119 283.448 814.36 284.616C805.601 285.785 799.743 296.051 801.276 307.547C802.81 319.043 811.153 327.416 819.912 326.248Z" fill="#F5FCD3" style="fill:#F5FCD3;fill:color(display-p3 0.9608 0.9882 0.8275);fill-opacity:1;"/>
<path d="M662.462 330.262C671.643 329.277 678.227 320.466 677.168 310.582C676.108 300.697 667.806 293.482 658.624 294.467C649.443 295.451 642.859 304.262 643.919 314.146C644.978 324.031 653.28 331.246 662.462 330.262Z" fill="#515151" style="fill:#515151;fill:color(display-p3 0.3187 0.3187 0.3187);fill-opacity:1;"/>
<path d="M659 328.732C666.732 328.732 673 321.569 673 312.732C673 303.896 666.732 296.732 659 296.732C651.268 296.732 645 303.896 645 312.732C645 321.569 651.268 328.732 659 328.732Z" fill="#363636" style="fill:#363636;fill:color(display-p3 0.2103 0.2103 0.2103);fill-opacity:1;"/>
<path d="M779.98 325.59C787.58 324.775 792.922 316.474 791.911 307.05C790.901 297.625 783.921 290.645 776.321 291.46C768.72 292.275 763.378 300.576 764.389 310C765.399 319.425 772.379 326.405 779.98 325.59Z" fill="#515151" style="fill:#515151;fill:color(display-p3 0.3187 0.3187 0.3187);fill-opacity:1;"/>
<path d="M777.822 322.708C784.439 322.332 789.435 315.546 788.981 307.551C788.526 299.556 782.794 293.379 776.177 293.755C769.561 294.131 764.565 300.917 765.019 308.912C765.473 316.907 771.206 323.084 777.822 322.708Z" fill="#363636" style="fill:#363636;fill:color(display-p3 0.2103 0.2103 0.2103);fill-opacity:1;"/>
<path d="M341.5 118.232L335.5 342.231" stroke="#652521" style="stroke:#652521;stroke:color(display-p3 0.3950 0.1459 0.1276);stroke-opacity:1;"/>
<defs>
<linearGradient id="paint0_linear_427_1414" x1="119" y1="90.2315" x2="114" y2="57.7315" gradientUnits="userSpaceOnUse">
<stop stop-color="white" stop-opacity="0" style="stop-color:none;stop-opacity:0;"/>
<stop offset="1" stop-color="white" style="stop-color:white;stop-opacity:1;"/>
</linearGradient>
<linearGradient id="paint1_linear_427_1414" x1="247.511" y1="128.091" x2="239.884" y2="75.6301" gradientUnits="userSpaceOnUse">
<stop stop-color="#D9E3EC" style="stop-color:#D9E3EC;stop-color:color(display-p3 0.8510 0.8902 0.9255);stop-opacity:1;"/>
<stop offset="1" stop-color="#F3FCFB" style="stop-color:#F3FCFB;stop-color:color(display-p3 0.9529 0.9882 0.9843);stop-opacity:1;"/>
</linearGradient>
<linearGradient id="paint2_linear_427_1414" x1="641" y1="29.7314" x2="633.5" y2="-11.2686" gradientUnits="userSpaceOnUse">
<stop stop-color="white" stop-opacity="0" style="stop-color:none;stop-opacity:0;"/>
<stop offset="1" stop-color="white" style="stop-color:white;stop-opacity:1;"/>
</linearGradient>
<linearGradient id="paint3_linear_427_1414" x1="524.75" y1="122.732" x2="524.75" y2="300.732" gradientUnits="userSpaceOnUse">
<stop stop-color="#E2EBF0" style="stop-color:#E2EBF0;stop-color:color(display-p3 0.8863 0.9216 0.9412);stop-opacity:1;"/>
<stop offset="1" stop-color="#D9E3EC" style="stop-color:#D9E3EC;stop-color:color(display-p3 0.8510 0.8902 0.9255);stop-opacity:1;"/>
</linearGradient>
<linearGradient id="paint4_linear_427_1414" x1="116.5" y1="128.732" x2="117" y2="131.232" gradientUnits="userSpaceOnUse">
<stop stop-color="#373449" style="stop-color:#373449;stop-color:color(display-p3 0.2157 0.2039 0.2863);stop-opacity:1;"/>
<stop offset="0.665" stop-color="#22272B" style="stop-color:#22272B;stop-color:color(display-p3 0.1333 0.1529 0.1686);stop-opacity:1;"/>
</linearGradient>
<linearGradient id="paint5_linear_427_1414" x1="710" y1="388.732" x2="697.775" y2="354.339" gradientUnits="userSpaceOnUse">
<stop stop-opacity="0" style="stop-color:none;stop-opacity:0;"/>
<stop offset="1" style="stop-color:black;stop-opacity:1;"/>
</linearGradient>
<linearGradient id="paint6_linear_427_1414" x1="792.5" y1="383.23" x2="801.5" y2="347.23" gradientUnits="userSpaceOnUse">
<stop stop-opacity="0" style="stop-color:none;stop-opacity:0;"/>
<stop offset="1" style="stop-color:black;stop-opacity:1;"/>
</linearGradient>
<linearGradient id="paint7_linear_427_1414" x1="813.9" y1="376.732" x2="813.9" y2="403.304" gradientUnits="userSpaceOnUse">
<stop stop-color="#898C8B" style="stop-color:#898C8B;stop-color:color(display-p3 0.5373 0.5490 0.5451);stop-opacity:1;"/>
<stop offset="1" stop-color="#3B3C3C" style="stop-color:#3B3C3C;stop-color:color(display-p3 0.2314 0.2353 0.2353);stop-opacity:1;"/>
</linearGradient>
</defs>
</svg>
