<svg width="889" height="477" viewBox="0 0 889 477" fill="none" xmlns="http://www.w3.org/2000/svg">
<path d="M35.5 93.5L512.5 35.4775L522.5 29.9775L557 1.47754L46 78.5C42.2427 80.121 38.8333 87.205 35.5 93.5Z" fill="#708EA6" style="fill:#708EA6;fill:color(display-p3 0.4392 0.5569 0.6510);fill-opacity:1;"/>
<path d="M35.5 93.5L512.5 35.4775L522.5 29.9775L557 1.47754L46 78.5C42.2427 80.121 38.8333 87.205 35.5 93.5Z" fill="url(#paint0_linear_841_2)" fill-opacity="0.2" style=""/>
<path d="M512.5 35.4775L491 126.478L21.4999 143.548C21.5 131.746 23.9999 106.5 34.9999 94L512.5 35.4775Z" fill="url(#paint1_linear_841_2)" style=""/>
<path d="M521.5 29.978C517.523 31.1342 515.506 32.2255 512.5 35.478L522 41.478L530.5 40.978L770 35.478C758.215 22.5957 750.358 14.6525 744.5 13.478C702.944 5.14644 671.5 0.864453 643.5 0.47805C571 -0.52246 534.354 -1.57213 521 15.478C519.434 17.4775 520.155 21.6608 521.5 29.978Z" fill="#6988A1" style="fill:#6988A1;fill:color(display-p3 0.4118 0.5333 0.6314);fill-opacity:1;"/>
<path d="M521.5 29.978C517.523 31.1342 515.506 32.2255 512.5 35.478L522 41.478L530.5 40.978L770 35.478C758.215 22.5957 750.358 14.6525 744.5 13.478C702.944 5.14644 671.5 0.864453 643.5 0.47805C571 -0.52246 534.354 -1.57213 521 15.478C519.434 17.4775 520.155 21.6608 521.5 29.978Z" fill="url(#paint2_linear_841_2)" fill-opacity="0.2" style=""/>
<path d="M334.522 116.478C333.522 96.9775 343.001 59.9775 351 54.4775L380.082 50.4775C369.464 67.6361 366.251 85.8562 363.009 115.478L334.522 116.478Z" fill="#00AA91" style="fill:#00AA91;fill:color(display-p3 0.0000 0.6667 0.5686);fill-opacity:1;"/>
<path d="M309.999 117.478C309 97.9775 318.5 62.9775 326.499 57.4775L350.999 54.4775C340.381 71.6361 337.741 86.8562 334.499 116.478L309.999 117.478Z" fill="url(#paint3_linear_841_2)" style=""/>
<path d="M121 127.477C122.093 107.693 123.828 97.0864 133 81.6L146.5 80C137.392 98.998 135.537 109.958 133.5 126.977L121 127.477Z" fill="url(#paint4_linear_841_2)" style=""/>
<path d="M133.5 126.978C134.359 107.476 137.191 96.8927 146.5 80L164 77.8994C154.541 93.9939 151.55 104.791 150 126.52L133.5 126.978Z" fill="#00AA91" style="fill:#00AA91;fill:color(display-p3 0.0000 0.6667 0.5686);fill-opacity:1;"/>
<path d="M512.5 35.4775L522 41.4775L505 123.478H491C493.202 70.7126 497.153 47.4135 512.5 35.4775Z" fill="#F8FEFE" style="fill:#F8FEFE;fill:color(display-p3 0.9725 0.9961 0.9961);fill-opacity:1;"/>
<path d="M499.5 293.979L505 123.479H491C485.586 182.466 484.651 222.603 483.008 293.114L483 293.479L499.5 293.979Z" fill="#24335E" style="fill:#24335E;fill:color(display-p3 0.1412 0.2000 0.3686);fill-opacity:1;"/>
<path d="M483 293.478V306.978L19.45 240.865V233.409L483 293.478Z" fill="#D9E3EC" style="fill:#D9E3EC;fill:color(display-p3 0.8510 0.8902 0.9255);fill-opacity:1;"/>
<path d="M505 123.478L542.5 122.978L544 62.4775L560 34.4775L682 26.9775C620.5 26.9775 545.5 24.9774 522 41.4775C509.5 50.4775 506.377 90.35 505 123.478Z" fill="#E2EBF0" style="fill:#E2EBF0;fill:color(display-p3 0.8863 0.9216 0.9412);fill-opacity:1;"/>
<path d="M579 409.479L584 400.479L559 394.979C559.186 409.808 559.184 418.013 559 432.479L560 435.979C560.316 448.002 559.931 454.11 558.5 463.979C556.994 471.716 554.299 473.553 548.5 473.479C552.067 475.171 554.503 475.888 560 476.479C564.967 477.167 567.14 476.925 571 476.479C579.003 464.728 581.876 455.682 584 434.979V433.979L580 432.479V411.479L579 409.479Z" fill="#3C4C4B" style="fill:#3C4C4B;fill:color(display-p3 0.2353 0.2980 0.2941);fill-opacity:1;"/>
<path d="M499.5 374.479V383.479L558.863 397.446L561 397.979L558.5 387.479L499.5 374.479Z" fill="#D9E3EC" style="fill:#D9E3EC;fill:color(display-p3 0.8510 0.8902 0.9255);fill-opacity:1;"/>
<path d="M364 360.479V350.479C341 345.479 211.487 317.402 149 304.479V312.979L364 360.479Z" fill="#D9E3EC" style="fill:#D9E3EC;fill:color(display-p3 0.8510 0.8902 0.9255);fill-opacity:1;"/>
<path d="M149 304.478V312.978L19.45 283.851V276.655L149 304.478Z" fill="#D9E3EC" style="fill:#D9E3EC;fill:color(display-p3 0.8510 0.8902 0.9255);fill-opacity:1;"/>
<path d="M488 385.978L483 384.478C298.087 344.86 175.911 319.006 19.5 283.756V299L18 301.11V322L494 460.978L488 385.978Z" fill="#3C535A" style="fill:#3C535A;fill:color(display-p3 0.2353 0.3255 0.3529);fill-opacity:1;"/>
<path d="M487 416.978L482.5 420.478L18 301.327L19.5 298.873L487 416.978Z" fill="#647D82" style="fill:#647D82;fill:color(display-p3 0.3922 0.4902 0.5098);fill-opacity:1;"/>
<path d="M483 384.479L499.5 383.479L501 385.479L506 411.979L504.5 459.479C505.254 460.007 503.596 460.531 500.5 461.479C490.5 461.479 487 459.479 485.5 449.479L482.5 420.479L487 416.979V387.097C487 386.718 486.786 386.372 486.447 386.202L483 384.479Z" fill="#516B6A" style="fill:#516B6A;fill:color(display-p3 0.3176 0.4196 0.4157);fill-opacity:1;"/>
<path d="M499.5 416.979H487L482.5 420.479H498.5L499.5 416.979Z" fill="#6B878A" style="fill:#6B878A;fill:color(display-p3 0.4196 0.5294 0.5412);fill-opacity:1;"/>
<path d="M504.5 459.979L548.5 473.479L552 474.479L558.5 471.979L563.5 456.979V435.479L559.5 397.479L499.5 383.479V416.979L498.5 420.479L500 448.479C500.376 455.282 501.377 457.707 504.5 459.979Z" fill="#3C585C" style="fill:#3C585C;fill:color(display-p3 0.2353 0.3451 0.3608);fill-opacity:1;"/>
<path d="M498.5 420.479L560 435.979L559 432.479L499.5 416.979L498.5 420.479Z" fill="#658489" style="fill:#658489;fill:color(display-p3 0.3961 0.5176 0.5373);fill-opacity:1;"/>
<path d="M580 432.479H559L560 435.979L584 434.979L580 432.479Z" fill="#687F77" style="fill:#687F77;fill:color(display-p3 0.4078 0.4980 0.4667);fill-opacity:1;"/>
<path d="M483 376.478V306.978L19.4541 240.865V276.678L483 376.478Z" fill="#D9E3EC" style="fill:#D9E3EC;fill:color(display-p3 0.8510 0.8902 0.9255);fill-opacity:1;"/>
<path d="M499.5 307.479V374.479L558.5 387.479L551 314.479L499.5 307.479Z" fill="#D9E3EC" style="fill:#D9E3EC;fill:color(display-p3 0.8510 0.8902 0.9255);fill-opacity:1;"/>
<path d="M483 375.479L499.5 374.479V307.479L483 306.979V375.479Z" fill="#CBD5DD" style="fill:#CBD5DD;fill:color(display-p3 0.7961 0.8353 0.8667);fill-opacity:1;"/>
<path d="M551 314.479L550 300.479L499.5 293.979V307.479L551 314.479Z" fill="#D9E3EC" style="fill:#D9E3EC;fill:color(display-p3 0.8510 0.8902 0.9255);fill-opacity:1;"/>
<path d="M499.5 293.979L550 300.479L546 122.479L505 123.479C500.986 187.978 500.248 226.114 499.5 293.979Z" fill="#263560" style="fill:#263560;fill:color(display-p3 0.1490 0.2078 0.3765);fill-opacity:1;"/>
<path d="M483 293.479L499.5 293.979V307.479L483 306.979V293.479Z" fill="#CBD5DD" style="fill:#CBD5DD;fill:color(display-p3 0.7961 0.8353 0.8667);fill-opacity:1;"/>
<path d="M483 375.479L499.5 374.479V383.479L483 384.479V375.479Z" fill="#CBD5DD" style="fill:#CBD5DD;fill:color(display-p3 0.7961 0.8353 0.8667);fill-opacity:1;"/>
<path d="M364 350.479L483 375.479V384.479L364 358.979V350.479Z" fill="#D9E3EC" style="fill:#D9E3EC;fill:color(display-p3 0.8510 0.8902 0.9255);fill-opacity:1;"/>
<path d="M483 293.479L491 123.479L21.4531 142.826L19.4531 233.41L483 293.479Z" fill="#293863" style="fill:#293863;fill:color(display-p3 0.1608 0.2196 0.3882);fill-opacity:1;"/>
<path d="M364 278.717V269.206L369 269.978V279.478L364 278.717Z" fill="#2F393A" style="fill:#2F393A;fill:color(display-p3 0.1843 0.2235 0.2275);fill-opacity:1;"/>
<path d="M369 279.478L364 278.717V290.978L369 291.478V279.478Z" fill="#D2DDE6" style="fill:#D2DDE6;fill:color(display-p3 0.8235 0.8667 0.9020);fill-opacity:1;"/>
<path d="M317 132.979H306H305.5L307.5 124.479L311.5 119.479L318.5 118.479L317 132.979Z" fill="#EDF6F8" style="fill:#EDF6F8;fill:color(display-p3 0.9294 0.9647 0.9725);fill-opacity:1;"/>
<path d="M302 269.979C302.783 198.941 304.502 162.979 305.502 139.48C305.575 137.756 305.597 135.203 305.96 132.481L297.714 131.443C297.336 133.864 297.11 136.554 297.002 139.48C294.763 210.035 294.827 199.409 293.502 269.479L302 269.979Z" fill="#0E1425" style="fill:#0E1425;fill:color(display-p3 0.0549 0.0784 0.1451);fill-opacity:1;"/>
<path d="M318 118.979C317.959 121.272 324.293 121.258 335.226 121.236C343.996 121.218 355.726 121.193 369.5 122.349L334.5 116.362L310 117.456L318 118.979Z" fill="#A01B38" style="fill:#A01B38;fill:color(display-p3 0.6292 0.1049 0.2177);fill-opacity:1;"/>
<path fill-rule="evenodd" clip-rule="evenodd" d="M365.5 114.979L334.5 116.362L369.5 122.349C369.997 122.39 370.497 122.434 371 122.479C371 116.979 370.5 114.979 365.5 114.979Z" fill="#04937E" style="fill:#04937E;fill:color(display-p3 0.0150 0.5751 0.4928);fill-opacity:1;"/>
<path d="M317.272 119.091C317.506 119.058 317.749 119.021 318 118.979L310 117.456L309.5 117.479C302.45 117.479 299.083 122.694 297.714 131.443L305.96 132.481C306.612 127.588 308.366 122.146 313.5 119.979C314.694 119.647 315.956 119.353 317.272 119.091Z" fill="#BBC4CB" style="fill:#BBC4CB;fill:color(display-p3 0.7333 0.7686 0.7961);fill-opacity:1;"/>
<path d="M302 269.979L313 271.479V261.979C310 260.979 310 258.479 310 253.479C310.639 212.365 311.367 188.734 313 145.479C313.227 139.479 313 137.979 317 137.479V132.479H306C305.684 135.63 305.5 137.479 305.5 140.479C305 144.479 302.141 219.588 302 269.979Z" fill="#293863" style="fill:#293863;fill:color(display-p3 0.1608 0.2196 0.3882);fill-opacity:1;"/>
<path d="M317 132.479L318 118.979L344.5 117.979L338.5 341.979L313 336.979V262.479L317 137.479V132.479Z" fill="url(#paint5_linear_841_2)" style=""/>
<path d="M367 347.979L365 290.979L369 291.479L367 347.979Z" fill="#D2DDE6" style="fill:#D2DDE6;fill:color(display-p3 0.8235 0.8667 0.9020);fill-opacity:1;"/>
<path d="M334.008 141.984C334.008 134.477 333.508 134.477 329.008 134.484H319.008C313.008 134.478 313.492 134.471 313 140.478C310.992 161.97 310.009 209.977 310.008 251.484C309.499 258.477 310.224 261.28 313.008 261.985L325.008 263.484C328.508 263.977 330.508 261.977 330.508 257.977C332.368 212.583 333.725 187.072 334.008 141.984Z" fill="#404040" style="fill:#404040;fill:color(display-p3 0.2526 0.2526 0.2526);fill-opacity:1;"/>
<path d="M344.5 117.979L338.5 341.978L367 347.978V268.478L371 133.479V119.479C370.121 117.662 368.5 117.479 363 117.479L344.5 117.979Z" fill="#00AA91" style="fill:#00AA91;fill:color(display-p3 0.0000 0.6667 0.5686);fill-opacity:1;"/>
<path d="M302 269.979L293.5 268.979V269.979V279.979L302 280.479V269.979Z" fill="#BBC4CB" style="fill:#BBC4CB;fill:color(display-p3 0.7346 0.7674 0.7968);fill-opacity:1;"/>
<path d="M302.001 280.479L293.501 279.979V317.479C293.501 327.979 296 333.979 299.501 333.979L313 336.979C308.999 335.979 302.001 329.979 302.001 320.479V280.479Z" fill="#BBC4CB" style="fill:#BBC4CB;fill:color(display-p3 0.7346 0.7674 0.7968);fill-opacity:1;"/>
<path d="M313 282.479L302 280.479V269.979L313 271.479V282.479Z" fill="#D2DDE6" style="fill:#D2DDE6;fill:color(display-p3 0.8251 0.8654 0.9018);fill-opacity:1;"/>
<path d="M313.006 282.479L302.006 280.479V323.479C301.88 330.898 302.5 333.979 307.006 334.979L313.006 335.979V282.479Z" fill="#D2DDE6" style="fill:#D2DDE6;fill:color(display-p3 0.8251 0.8654 0.9018);fill-opacity:1;"/>
<path d="M359.007 133.476L372 133.478L369.039 269.97L352.5 267.978C347.5 266.978 347.494 265.973 347.5 257.972L349.5 146.478C349.5 135.979 352.007 133.476 359.007 133.476Z" fill="#404040" style="fill:#404040;fill:color(display-p3 0.2526 0.2526 0.2526);fill-opacity:1;"/>
<path d="M411.418 128.26C411.464 126.691 412.712 125.422 414.281 125.351L430.262 124.625C432.008 124.545 433.452 125.97 433.397 127.717L428.606 278.14C428.55 279.923 426.96 281.263 425.193 281.016L409.663 278.849C408.148 278.638 407.034 277.319 407.079 275.79L411.418 128.26Z" fill="#3B4443" style="fill:#3B4443;fill:color(display-p3 0.2314 0.2667 0.2627);fill-opacity:1;"/>
<path d="M223.5 134C223.514 132.694 225.41 131.554 227.849 131.387L252.711 130.378C255.426 130.191 257.725 131.275 257.703 132.73L255.38 257.874C255.358 259.358 252.759 261.583 250 261.5L226.188 258.729C223.822 258.658 222.04 257.639 222.054 256.367L223.5 134Z" fill="#3B4443" style="fill:#3B4443;fill:color(display-p3 0.2314 0.2667 0.2627);fill-opacity:1;"/>
<path d="M177.669 135.799C177.665 134.572 179.544 133.464 181.98 133.258L206.583 132.393C209.294 132.163 211.608 133.134 211.606 134.5L211.606 250.894C211.605 252.288 208.759 256.523 206 256.501L182.189 253.266C179.5 253.001 178.004 250.696 178 249.501L177.669 135.799Z" fill="#3B4443" style="fill:#3B4443;fill:color(display-p3 0.2314 0.2667 0.2627);fill-opacity:1;"/>
<path d="M69.0647 139.146C69.076 138.099 70.5956 137.185 72.551 137.052L92.4827 136.242C94.6586 136.093 96.5019 136.962 96.4846 138.128L94.6221 238.452C94.6047 239.642 92.5207 241.426 90.3091 241.359L71.2192 239.138C69.323 239.081 67.8944 238.264 67.9056 237.244L69.0647 139.146Z" fill="#3B4443" style="fill:#3B4443;fill:color(display-p3 0.2314 0.2667 0.2627);fill-opacity:1;"/>
<path d="M37.7779 140.523C37.7748 139.557 39.2544 138.684 41.1725 138.522L60.545 137.841C62.6794 137.66 64.5011 138.425 64.5 139.5L63.586 233.06C63.585 234.157 61.3442 237.492 59.1717 237.474L40.4229 234.927C38.3055 234.718 37.1273 232.903 37.1244 231.962L37.7779 140.523Z" fill="#3B4443" style="fill:#3B4443;fill:color(display-p3 0.2314 0.2667 0.2627);fill-opacity:1;"/>
<path d="M450.773 122.758C450.893 117.599 455.11 113.479 460.271 113.479H476.395C478.917 113.479 480.947 115.551 480.894 118.072L475.575 374.364C475.542 375.926 474.101 377.076 472.57 376.76L446.235 371.326C445.525 371.18 445.022 370.547 445.039 369.822L450.773 122.758Z" stroke="#6E777C" style="stroke:#6E777C;stroke:color(display-p3 0.4314 0.4667 0.4863);stroke-opacity:1;"/>
<path d="M454.439 136.375C454.495 133.102 457.165 130.479 460.438 130.479H472.848C475.668 130.479 477.93 132.809 477.846 135.628L473.6 277.635C473.547 279.42 471.955 280.763 470.187 280.516L459.015 278.957C455.01 278.399 452.052 274.939 452.122 270.896L454.439 136.375Z" fill="#404040" style="fill:#404040;fill:color(display-p3 0.2526 0.2526 0.2526);fill-opacity:1;"/>
<path fill-rule="evenodd" clip-rule="evenodd" d="M122.043 245.3L113 244.246V270.819V293.479L117 296.479L122.5 296.979L122.043 245.3Z" fill="#D9E3EC" style="fill:#D9E3EC;fill:color(display-p3 0.8510 0.8902 0.9255);fill-opacity:1;"/>
<path d="M122 240.979L125 139.479H118L117 147.479L115.5 188.979L113 226.479V244.246L122.043 245.3L122 240.979Z" fill="#293863" style="fill:#293863;fill:color(display-p3 0.1608 0.2196 0.3882);fill-opacity:1;"/>
<path d="M117.572 139.479C117.07 133.436 119.453 129.479 125.5 129.479L125 139.479H117.572Z" fill="#DFE9F0" style="fill:#DFE9F0;fill:color(display-p3 0.8745 0.9137 0.9412);fill-opacity:1;"/>
<path d="M151 128.98L155 131.48C154.257 128.096 153.5 126.479 151.5 126.479L133.5 126.979L135 127.979L140.5 128.979L151 128.98Z" fill="#03484D" style="fill:#03484D;fill:color(display-p3 0.0118 0.2824 0.3020);fill-opacity:1;"/>
<path d="M139 142.978L139.5 128.978L151.874 128.602C153.579 128.55 154.984 129.928 154.965 131.634L153.074 300.341C153.053 302.236 151.302 303.637 149.448 303.242L136.5 300.478L136 243.978L137.5 194.478L139 142.978Z" fill="#00AA91" style="fill:#00AA91;fill:color(display-p3 0.0000 0.6667 0.5686);fill-opacity:1;"/>
<path d="M135.012 127.979L133.5 126.979L121.012 127.479C120.5 127.479 118.979 128.493 119 129.979L125.512 129.479L140.512 128.979L135.012 127.979Z" fill="#852A3B" style="fill:#852A3B;fill:color(display-p3 0.5216 0.1647 0.2314);fill-opacity:1;"/>
<path d="M112.5 133.479C116.323 130.848 118.593 129.635 125 129.479L121 127.479C118 127.479 113.702 129.708 112.5 133.479Z" fill="#BBC4CB" style="fill:#BBC4CB;fill:color(display-p3 0.7333 0.7686 0.7961);fill-opacity:1;"/>
<path d="M111.5 142.979C111.146 152.533 109.998 182.147 109.047 245.027L114.988 244.471C116.055 192.512 118.501 142.213 118.501 139.48L111.675 139.105C111.607 140.253 111.553 141.539 111.5 142.979Z" fill="#0E1425" style="fill:#0E1425;fill:color(display-p3 0.0564 0.0788 0.1433);fill-opacity:1;"/>
<path fill-rule="evenodd" clip-rule="evenodd" d="M109.047 245.027L114.988 244.471C114.69 259.013 114.499 273.685 114.501 287.481C114.223 293.308 118.85 296.114 121.001 297.481L112.501 295.481C109.047 294.746 108.501 293.979 108.501 287.481C108.669 271.889 108.854 257.774 109.047 245.027Z" fill="#BBC4CB" style="fill:#BBC4CB;fill:color(display-p3 0.7333 0.7686 0.7961);fill-opacity:1;"/>
<path d="M118.501 139.48C118.501 133.479 120.262 129.53 125.5 129.479C113.886 129.479 112.249 129.479 111.675 139.105L118.501 139.48Z" fill="#BBC4CB" style="fill:#BBC4CB;fill:color(display-p3 0.7333 0.7686 0.7961);fill-opacity:1;"/>
<path d="M125 139.479L125.5 129.479L140.5 128.979L139.5 147.479L138.5 171.979L137.5 194.979L137 300.479L121.5 297.5L122 240.479L123.5 190.979L125 139.479Z" fill="url(#paint6_linear_841_2)" style=""/>
<path d="M122.926 145.402C122.967 143.776 124.298 142.479 125.925 142.479H133.429C134.561 142.479 135.467 143.417 135.428 144.548L132.077 240.281C132.036 241.459 130.989 242.347 129.819 242.194L122.286 241.212C121.271 241.079 120.52 240.201 120.546 239.178L122.926 145.402Z" fill="#404040" style="fill:#404040;fill:color(display-p3 0.2526 0.2526 0.2526);fill-opacity:1;"/>
<path d="M145.383 144.066C145.448 143.033 146.292 142.208 147.327 142.18L155 141.979L153.703 244.496L144.171 243.668C143.132 243.578 142.337 242.691 142.345 241.647C142.643 204.239 142.934 182.86 145.383 144.066Z" fill="#404040" style="fill:#404040;fill:color(display-p3 0.2526 0.2526 0.2526);fill-opacity:1;"/>
<path d="M781.5 412.479L794 415.479L792 389.479L777.5 377.479L716.5 377.979L642 384.479L584 400.479L579 409.479L580 411.479V432.479L584 433.979V434.979H603.5L664 388.979L668.5 385.479L666 396.479V418.979V444.479H674H697H702L706 441.979L712.5 448.479L717 444.479V440.479L725 441.979L781 437.479L781.5 412.479Z" fill="#3E4241" style="fill:#3E4241;fill:color(display-p3 0.2431 0.2588 0.2549);fill-opacity:1;"/>
<path d="M648.5 356.979V385.479L666.5 386.479L777.5 379.479L791 349.479L648.5 356.979Z" fill="#182120" style="fill:#182120;fill:color(display-p3 0.0941 0.1294 0.1255);fill-opacity:1;"/>
<path d="M648.5 356.979V385.479L666.5 386.479L777.5 379.479L791 349.479L648.5 356.979Z" fill="url(#paint7_linear_841_2)" fill-opacity="0.5" style=""/>
<path fill-rule="evenodd" clip-rule="evenodd" d="M794 415.476C797.851 400.91 799.019 392.432 800.04 376.979L799.062 349.84C799.103 349.72 799.145 349.599 799.187 349.478H799.049L799.031 348.979L798.873 349.422C798.866 349.441 798.86 349.459 798.853 349.478H791L777.5 379.478L780.628 390.276C780.586 390.342 780.543 390.409 780.5 390.476C776.381 391.492 774.394 392.331 771.215 393.674C770.983 393.772 770.746 393.873 770.5 393.976L780.5 393.977L781.5 412.477C786.613 413.557 789.427 414.18 794 415.476Z" fill="#3E4241" style="fill:#3E4241;fill:color(display-p3 0.2431 0.2588 0.2549);fill-opacity:1;"/>
<path fill-rule="evenodd" clip-rule="evenodd" d="M794 415.476C797.851 400.91 799.019 392.432 800.04 376.979L799.062 349.84C799.103 349.72 799.145 349.599 799.187 349.478H799.049L799.031 348.979L798.873 349.422C798.866 349.441 798.86 349.459 798.853 349.478H791L777.5 379.478L780.628 390.276C780.586 390.342 780.543 390.409 780.5 390.476C776.381 391.492 774.394 392.331 771.215 393.674C770.983 393.772 770.746 393.873 770.5 393.976L780.5 393.977L781.5 412.477C786.613 413.557 789.427 414.18 794 415.476Z" fill="url(#paint8_linear_841_2)" fill-opacity="0.5" style=""/>
<path d="M648.5 356.979V385.479L590.5 400.479H584L580.5 359.479L648.5 356.979Z" fill="#61777C" style="fill:#61777C;fill:color(display-p3 0.3804 0.4667 0.4863);fill-opacity:1;"/>
<path d="M795 411.479L800 376.979L826.5 375.979L822.5 382.979C822.5 382.979 803.137 387.914 805.5 398.479C806.135 401.316 810.5 402.979 817 402.479C817.5 405.979 817 411.479 817 411.479H795Z" fill="#050704" style="fill:#050704;fill:color(display-p3 0.0196 0.0275 0.0157);fill-opacity:1;"/>
<path d="M805.5 398.479C803.887 391.269 812.393 385.982 817.957 383.352L818 382.479L822.5 381.479C822.5 381.479 820.547 382.128 817.957 383.352L817 402.979H816C809.5 403.479 806.135 401.316 805.5 398.479Z" fill="url(#paint9_linear_841_2)" style=""/>
<path d="M829 375.479C818.5 375.979 817 377.479 817 386.979V418.479C817 423.479 818 424.479 823.5 424.479L865.5 422.479C898 421.979 892 373.979 871.5 373.979L829 375.479Z" fill="#4A5D57" style="fill:#4A5D57;fill:color(display-p3 0.2902 0.3647 0.3412);fill-opacity:1;"/>
<path d="M654.541 436.875C667.193 436.34 669.501 435.137 669.5 424.979L670 394.479C670 384.479 667 384.479 657 384.479L610.562 386.617C571.403 387.152 578.799 439.479 603.5 439.479L654.541 436.875Z" fill="#4A5D57" style="fill:#4A5D57;fill:color(display-p3 0.2902 0.3647 0.3412);fill-opacity:1;"/>
<path d="M799.031 348.979L855.5 346.48L854.5 375.478L800.04 376.98L799.031 348.979Z" fill="#61777C" style="fill:#61777C;fill:color(display-p3 0.3804 0.4667 0.4863);fill-opacity:1;"/>
<path d="M565.5 400.477C561.364 400.665 559.622 399.873 559 394.477C546 266.979 538.001 192.478 544 60.9762C545.095 36.978 558.5 31.7903 584.5 29.9762C665.641 24.3146 710.892 25.1367 791 38.4762C812.512 41.7244 820.898 47.6137 826.5 68.4762C846.764 140.395 856.223 214.926 871.5 374.477L854 374.978V347.977C819.008 348.346 766.412 350.66 591 359.977C584.57 359.898 582.598 360.664 582 363.477L584 400.477H565.5Z" fill="#F4F9FF" style="fill:#F4F9FF;fill:color(display-p3 0.9569 0.9765 1.0000);fill-opacity:1;"/>
<path d="M552 92.9783C553.177 193.64 555.227 250.281 565.999 346.483C670.999 344.983 840.5 336.479 859.5 331.979C851.5 238.477 840.496 185.403 826 91.9783C821 63.4783 818 61.977 796.5 58.477C719.52 47.5982 674.708 45.3611 587.5 50.4771C558.002 52.2078 551.999 54.4769 552 92.9783Z" fill="#343B43" style="fill:#343B43;fill:color(display-p3 0.2039 0.2314 0.2627);fill-opacity:1;"/>
<path d="M587.5 50.0953C558.002 51.8259 551.999 54.0951 552 92.5965C552.169 81.1718 552.583 74.8344 555.5 63.9775C558.162 58.7898 564.5 57.64 570.5 56.9775C648.727 48.341 699.647 50.6562 799 63.4775C809.5 64.8325 813.066 69.9775 816.5 84.4775C834.35 159.847 839.5 222.978 854.5 332.978L859.5 331.978C851.5 238.476 840.496 185.022 826 91.5965C821 63.0965 818 61.5952 796.5 58.0952C719.52 47.2164 674.708 44.9792 587.5 50.0953Z" fill="#DFE6E5" style="fill:#DFE6E5;fill:color(display-p3 0.8745 0.9020 0.8980);fill-opacity:1;"/>
<path d="M625 69.4777C623.847 59.4775 618.5 58.7399 607 59.4777C589.423 60.6055 579.744 61.2348 567 62.9777C559 64.0718 556.438 66.9775 556 76.9777C553.344 137.51 554.012 171.445 558 231.978C559.123 242.248 560.785 246.867 571 246.978C594.604 247.075 607.713 247.065 630 246.478C639 246.241 640.649 244.478 640 235.478C635.238 169.474 632.344 133.163 625 69.4777Z" fill="#717287" style="fill:#717287;fill:color(display-p3 0.4431 0.4471 0.5294);fill-opacity:1;"/>
<path d="M812.499 85.688C810.499 75.688 806.499 69.1876 791.499 67.6877C757.499 64.2878 702.5 55.319 663 59.4769C651.5 60.6874 648.499 62.687 649 73.6872C651.756 134.216 659.013 172.444 663 232.977C664.123 243.247 670.501 246.477 683.5 246.477C707.104 246.574 799 245.478 821 245.478C830 245.24 837.15 240.978 836.5 231.978C831.738 165.975 825.072 148.551 812.499 85.688Z" fill="#717287" style="fill:#717287;fill:color(display-p3 0.4431 0.4471 0.5294);fill-opacity:1;"/>
<path d="M611.5 338.477C623.926 338.477 634 327.508 634 313.977C634 300.446 623.926 289.477 611.5 289.477C599.074 289.477 589 300.446 589 313.977C589 327.508 599.074 338.477 611.5 338.477Z" fill="#515151" style="fill:#515151;fill:color(display-p3 0.3187 0.3187 0.3187);fill-opacity:1;"/>
<path d="M610 335.477C621.046 335.477 630 325.403 630 312.977C630 300.55 621.046 290.477 610 290.477C598.954 290.477 590 300.55 590 312.977C590 325.403 598.954 335.477 610 335.477Z" fill="#F5FCD3" style="fill:#F5FCD3;fill:color(display-p3 0.9608 0.9882 0.8275);fill-opacity:1;"/>
<path d="M820.613 329.197C830.388 328.245 837.31 317.177 836.074 304.476C834.837 291.774 825.91 282.249 816.135 283.201C806.36 284.152 799.438 295.22 800.674 307.922C801.911 320.623 810.837 330.149 820.613 329.197Z" fill="#515151" style="fill:#515151;fill:color(display-p3 0.3187 0.3187 0.3187);fill-opacity:1;"/>
<path d="M819.912 325.994C828.671 324.826 834.529 314.559 832.996 303.063C831.463 291.567 823.119 283.194 814.36 284.362C805.601 285.531 799.743 295.797 801.276 307.293C802.81 318.789 811.153 327.162 819.912 325.994Z" fill="#F5FCD3" style="fill:#F5FCD3;fill:color(display-p3 0.9608 0.9882 0.8275);fill-opacity:1;"/>
<path d="M662.462 330.008C671.643 329.023 678.227 320.212 677.168 310.328C676.108 300.443 667.806 293.228 658.624 294.213C649.443 295.197 642.859 304.008 643.919 313.893C644.978 323.777 653.28 330.992 662.462 330.008Z" fill="#515151" style="fill:#515151;fill:color(display-p3 0.3187 0.3187 0.3187);fill-opacity:1;"/>
<path d="M659 328.479C666.732 328.479 673 321.315 673 312.479C673 303.642 666.732 296.479 659 296.479C651.268 296.479 645 303.642 645 312.479C645 321.315 651.268 328.479 659 328.479Z" fill="#363636" style="fill:#363636;fill:color(display-p3 0.2103 0.2103 0.2103);fill-opacity:1;"/>
<path d="M779.98 325.336C787.58 324.521 792.922 316.221 791.911 306.796C790.901 297.371 783.921 290.391 776.321 291.206C768.72 292.021 763.378 300.322 764.389 309.747C765.399 319.171 772.379 326.151 779.98 325.336Z" fill="#515151" style="fill:#515151;fill:color(display-p3 0.3187 0.3187 0.3187);fill-opacity:1;"/>
<path d="M777.822 322.454C784.439 322.078 789.435 315.292 788.981 307.297C788.526 299.302 782.794 293.125 776.177 293.501C769.561 293.877 764.565 300.663 765.019 308.658C765.473 316.654 771.206 322.83 777.822 322.454Z" fill="#363636" style="fill:#363636;fill:color(display-p3 0.2103 0.2103 0.2103);fill-opacity:1;"/>
<defs>
<linearGradient id="paint0_linear_841_2" x1="119" y1="89.9776" x2="114" y2="57.4776" gradientUnits="userSpaceOnUse">
<stop stop-color="white" stop-opacity="0" style="stop-color:none;stop-opacity:0;"/>
<stop offset="1" stop-color="white" style="stop-color:white;stop-opacity:1;"/>
</linearGradient>
<linearGradient id="paint1_linear_841_2" x1="247.511" y1="127.837" x2="239.884" y2="75.3762" gradientUnits="userSpaceOnUse">
<stop stop-color="#D9E3EC" style="stop-color:#D9E3EC;stop-color:color(display-p3 0.8510 0.8902 0.9255);stop-opacity:1;"/>
<stop offset="1" stop-color="#F3FCFB" style="stop-color:#F3FCFB;stop-color:color(display-p3 0.9529 0.9882 0.9843);stop-opacity:1;"/>
</linearGradient>
<linearGradient id="paint2_linear_841_2" x1="641" y1="29.4775" x2="633.5" y2="-11.5225" gradientUnits="userSpaceOnUse">
<stop stop-color="white" stop-opacity="0" style="stop-color:none;stop-opacity:0;"/>
<stop offset="1" stop-color="white" style="stop-color:white;stop-opacity:1;"/>
</linearGradient>
<linearGradient id="paint3_linear_841_2" x1="337" y1="39.4775" x2="426.196" y2="301.497" gradientUnits="userSpaceOnUse">
<stop stop-color="#7D2270" style="stop-color:#7D2270;stop-color:color(display-p3 0.4902 0.1333 0.4392);stop-opacity:1;"/>
<stop offset="0.402986" stop-color="#E41D25" style="stop-color:#E41D25;stop-color:color(display-p3 0.8941 0.1137 0.1451);stop-opacity:1;"/>
<stop offset="1" stop-color="#7D2270" style="stop-color:#7D2270;stop-color:color(display-p3 0.4902 0.1333 0.4392);stop-opacity:1;"/>
</linearGradient>
<linearGradient id="paint4_linear_841_2" x1="137.468" y1="69.2866" x2="211.808" y2="258.151" gradientUnits="userSpaceOnUse">
<stop stop-color="#7D2270" style="stop-color:#7D2270;stop-color:color(display-p3 0.4902 0.1333 0.4392);stop-opacity:1;"/>
<stop offset="0.402986" stop-color="#E41D25" style="stop-color:#E41D25;stop-color:color(display-p3 0.8941 0.1137 0.1451);stop-opacity:1;"/>
<stop offset="1" stop-color="#7D2270" style="stop-color:#7D2270;stop-color:color(display-p3 0.4902 0.1333 0.4392);stop-opacity:1;"/>
</linearGradient>
<linearGradient id="paint5_linear_841_2" x1="334" y1="56.478" x2="467.551" y2="164.35" gradientUnits="userSpaceOnUse">
<stop stop-color="#7D2270" style="stop-color:#7D2270;stop-color:color(display-p3 0.4902 0.1333 0.4392);stop-opacity:1;"/>
<stop offset="0.402986" stop-color="#E41D25" style="stop-color:#E41D25;stop-color:color(display-p3 0.8941 0.1137 0.1451);stop-opacity:1;"/>
<stop offset="1" stop-color="#7D2270" style="stop-color:#7D2270;stop-color:color(display-p3 0.4902 0.1333 0.4392);stop-opacity:1;"/>
</linearGradient>
<linearGradient id="paint6_linear_841_2" x1="134.333" y1="81.8921" x2="227.986" y2="139.919" gradientUnits="userSpaceOnUse">
<stop stop-color="#7D2270" style="stop-color:#7D2270;stop-color:color(display-p3 0.4902 0.1333 0.4392);stop-opacity:1;"/>
<stop offset="0.402986" stop-color="#E41D25" style="stop-color:#E41D25;stop-color:color(display-p3 0.8941 0.1137 0.1451);stop-opacity:1;"/>
<stop offset="1" stop-color="#7D2270" style="stop-color:#7D2270;stop-color:color(display-p3 0.4902 0.1333 0.4392);stop-opacity:1;"/>
</linearGradient>
<linearGradient id="paint7_linear_841_2" x1="710" y1="388.479" x2="697.775" y2="354.086" gradientUnits="userSpaceOnUse">
<stop stop-opacity="0" style="stop-color:none;stop-opacity:0;"/>
<stop offset="1" style="stop-color:black;stop-opacity:1;"/>
</linearGradient>
<linearGradient id="paint8_linear_841_2" x1="792.5" y1="382.977" x2="801.5" y2="346.977" gradientUnits="userSpaceOnUse">
<stop stop-opacity="0" style="stop-color:none;stop-opacity:0;"/>
<stop offset="1" style="stop-color:black;stop-opacity:1;"/>
</linearGradient>
<linearGradient id="paint9_linear_841_2" x1="813.9" y1="376.479" x2="813.9" y2="403.051" gradientUnits="userSpaceOnUse">
<stop stop-color="#898C8B" style="stop-color:#898C8B;stop-color:color(display-p3 0.5373 0.5490 0.5451);stop-opacity:1;"/>
<stop offset="1" stop-color="#3B3C3C" style="stop-color:#3B3C3C;stop-color:color(display-p3 0.2314 0.2353 0.2353);stop-opacity:1;"/>
</linearGradient>
</defs>
</svg>
