<svg width="81" height="72" viewBox="0 0 81 72" fill="none" xmlns="http://www.w3.org/2000/svg">
<path d="M40.5527 2.5C41.1238 2.50001 41.6228 2.67265 41.9004 2.90039L77.7812 34.4268L77.7852 34.4297C78.4986 35.0537 78.5181 35.4311 78.4941 35.6465L78.4785 35.7842V35.9229C78.4784 37.0315 77.5297 37.9355 76.4775 37.9355H72.9805C71.1022 37.9357 69.5705 39.4153 69.4844 41.2705L69.4805 41.4512L69.5752 62.9707C69.5747 63.2263 69.5548 63.5051 69.5195 63.8223L69.5049 63.96V66.376C69.5049 68.2304 69.1395 68.7853 68.9648 68.96C68.7899 69.1348 68.2339 69.5 66.3779 69.5H64.1279C63.9546 69.5 63.9128 69.4982 63.8896 69.4961L63.6875 69.4775L63.4854 69.4922C63.3922 69.4988 63.2845 69.499 63.0732 69.499L58.5088 69.4863H55.125C53.2692 69.4863 52.713 69.1211 52.5381 68.9463C52.3634 68.7717 51.9991 68.2166 51.999 66.3623V53.9893L51.9863 53.3027C51.9251 51.6789 51.601 49.9392 50.3242 48.6631C48.8657 47.2055 46.8025 46.9903 44.998 46.9902H35.9951C34.1907 46.9902 32.1275 47.2055 30.6689 48.6631C29.21 50.1213 28.9942 52.1848 28.9941 53.9893V66.3623C28.9941 68.2168 28.6287 68.7718 28.4541 68.9463C28.2789 69.1212 27.7223 69.4863 25.8672 69.4863H18.0049C17.891 69.4863 17.763 69.4779 17.5381 69.4629L17.3506 69.4512L17.1641 69.4668C16.9777 69.4823 16.9126 69.4863 16.8652 69.4863H14.6143C12.7597 69.4863 12.2036 69.1213 12.0283 68.9463C11.8537 68.7718 11.4883 68.2168 11.4883 66.3623V50.5352C11.4884 50.5128 11.4889 50.4964 11.4893 50.4844C11.4893 50.4827 11.4892 50.4809 11.4893 50.4795L11.502 50.3604V41.4219C11.502 39.4889 9.93495 37.9219 8.00195 37.9219H4.50098C3.35392 37.9218 2.5 37.0763 2.5 35.9082C2.50008 35.2966 2.66821 34.8243 3.13965 34.3389L39.1006 3.00977L39.165 2.95312L39.2256 2.89258C39.403 2.7153 39.5612 2.63661 39.7236 2.58789C39.9163 2.53015 40.1677 2.5 40.5527 2.5Z" fill="#E3E7F2" stroke="#202124" style="fill:#E3E7F2;fill:color(display-p3 0.8902 0.9059 0.9490);fill-opacity:1;stroke:#202124;stroke:color(display-p3 0.1255 0.1294 0.1412);stroke-opacity:1;" stroke-width="5"/>
</svg>
