<svg width="2793" height="1489" viewBox="0 0 2793 1489" fill="none" xmlns="http://www.w3.org/2000/svg">
<path d="M14.5 938.253L137 973.253L129.5 942.753L123.5 920.753L120 915.753L117.5 914.253L116.5 913.753L115.5 914.253L106.5 916.253L100 913.753L101.5 910.253L22.5 894.253V900.753L13.5 899.253L14.5 938.253Z" fill="#333538" style="fill:#333538;fill:color(display-p3 0.2000 0.2078 0.2196);fill-opacity:1;"/>
<g filter="url(#filter0_i_427_1686)">
<path d="M1537.5 1371.25L923 1192.25L970.5 1102.25L971.5 1100.25L973.5 1099.25H975.5L977.5 1099.75L979 1100.25L980 1100.75V1102.75L1017.5 1111.25L1036.5 1109.25V1104.25L1435 1186.25L1537.5 1371.25Z" fill="#333538" style="fill:#333538;fill:color(display-p3 0.2000 0.2078 0.2196);fill-opacity:1;"/>
</g>
<path d="M1717 62.7534C1054.21 276.199 682.475 395.406 11.5 579.753C23.5 563.753 48 546.48 101.5 528.753C521 389.753 1064.5 201.253 1213 162.753C1253.5 152.253 1308 138.751 1369 119.753C1524.2 71.4166 1611.1 44.8314 1765.5 0.253418L1717 62.7534Z" fill="#A19D9A" style="fill:#A19D9A;fill:color(display-p3 0.6314 0.6157 0.6039);fill-opacity:1;"/>
<path d="M625 396.253L232 514.753L221 649.253L599.5 594.253C617.038 543.195 613.978 512.891 604 458.253L625 396.253Z" fill="#2C50C5" style="fill:#2C50C5;fill:color(display-p3 0.1737 0.3151 0.7729);fill-opacity:1;"/>
<path d="M923 1192.25L950.5 1140.25L129.5 942.753L137 973.253L892.5 1185.75L923 1192.25Z" fill="#606060" style="fill:#606060;fill:color(display-p3 0.3765 0.3765 0.3765);fill-opacity:1;"/>
<path d="M531.7 441.599C531.88 438.685 533.851 436.189 536.643 435.336L607.627 413.673C608.293 413.469 608.957 413.992 608.917 414.687L599.279 580.949C599.116 583.756 597.025 586.074 594.25 586.525L525.707 597.652C523.808 597.96 522.113 596.426 522.232 594.505L531.7 441.599Z" fill="#8C959C" style="fill:#8C959C;fill:color(display-p3 0.5490 0.5843 0.6118);fill-opacity:1;"/>
<g filter="url(#filter1_f_427_1686)">
<path d="M626 400.753L604 458.253L607 543.253V591.753" stroke="black" style="stroke:black;stroke-opacity:1;"/>
</g>
<path d="M604 458.253L1305 277.753L1308 541.253L1305 541.753L1305.5 613.253L1296 614.253L1295 542.253L998 528.253C862.422 552.734 785.678 564.787 649 586.753L599.5 593.753L607 543.253L604 458.253Z" fill="#0A30A8" style="fill:#0A30A8;fill:color(display-p3 0.0392 0.1882 0.6588);fill-opacity:1;"/>
<path d="M54 773.253C579.905 783.404 925.303 804.118 1435 805.253C1420.98 628.312 1362.35 515.358 1305 541.753L998 528.253L4.5 693.753L8 771.254L54 773.253Z" fill="#0A30A8" style="fill:#0A30A8;fill:color(display-p3 0.0392 0.1882 0.6588);fill-opacity:1;"/>
<path d="M11.5 579.753L232 514.753L216 556.253L0 611.253L11.5 579.753Z" fill="#1D43BD" style="fill:#1D43BD;fill:color(display-p3 0.1137 0.2627 0.7412);fill-opacity:1;"/>
<path d="M221 648.753L216 556.253L0 611.253L4 677.253L221 648.753Z" fill="#0A30A8" style="fill:#0A30A8;fill:color(display-p3 0.0392 0.1882 0.6588);fill-opacity:1;"/>
<path d="M1435 1186.25L1805 1266.75L1834 1174.25L1694.5 172.753L1305 277.753L1308 541.253C1342.5 535.253 1351.5 557.753 1357.5 582.253L1435 1186.25Z" fill="#0A30A8" style="fill:#0A30A8;fill:color(display-p3 0.0392 0.1882 0.6588);fill-opacity:1;"/>
<path d="M1435 1186.25V805.253L8 771.253L13.5 899.253L22.5 900.753V894.253L101.5 910.253L100 913.753L106.5 916.253L116 914.253C119 913.753 122.5 918.253 123.5 922.753L129.5 942.753L950.5 1140.25L971.5 1100.75C973 1098.75 976.519 1099.23 980 1100.75V1102.75L1017.5 1111.25L1036.5 1109.25V1104.25L1435 1186.25Z" fill="#0A30A8" style="fill:#0A30A8;fill:color(display-p3 0.0392 0.1882 0.6588);fill-opacity:1;"/>
<path d="M1435 1186.25V1159.25L13 884.253L13.5 899.253L22.5 900.753V894.253L101.5 910.253L100 913.753L106.5 916.253L116 914.253C119 913.753 122.5 918.253 123.5 922.753L129.5 942.753L950.5 1140.25L971.5 1100.75C973 1098.75 976.519 1099.23 980 1100.75V1102.75L1017.5 1111.25L1036.5 1109.25V1104.25L1435 1186.25Z" fill="#0A30A8" style="fill:#0A30A8;fill:color(display-p3 0.0392 0.1882 0.6588);fill-opacity:1;"/>
<path d="M670.5 779.754C673.605 661.816 666.713 702.192 662.5 584.254L4 677.252L7.50005 759.751L670.5 779.754Z" fill="#E9ECE5" style="fill:#E9ECE5;fill:color(display-p3 0.9137 0.9255 0.8980);fill-opacity:1;"/>
<path d="M155.5 619.753C147.5 621.253 146.5 622.253 147 635.753L159.5 926.753L207 937.753C208.479 937.053 208.814 936.605 209 935.753L196.5 623.753C196 614.753 196 612.753 190.5 613.753L155.5 619.753Z" fill="#BEBFBC" style="fill:#BEBFBC;fill:color(display-p3 0.7451 0.7490 0.7373);fill-opacity:1;"/>
<path d="M604 458.253L1305 277.753L1338 178.253L625 396.253L604 458.253Z" fill="#1D43BD" style="fill:#1D43BD;fill:color(display-p3 0.1137 0.2627 0.7412);fill-opacity:1;"/>
<path d="M1296.5 626.753L1293 365.753L997 430.753L999 653.253L1296.5 626.753Z" fill="#66676B" style="fill:#66676B;fill:color(display-p3 0.4000 0.4039 0.4196);fill-opacity:1;"/>
<path d="M1435 1186.25L1797.5 1265.25L1838.5 1353.75L1842 1461.25L1537.5 1371.25L1435 1186.25Z" fill="#5C5D62" style="fill:#5C5D62;fill:color(display-p3 0.3608 0.3647 0.3843);fill-opacity:1;"/>
<path d="M1797.5 1265.25L1838.5 1353.75L1846.5 1351.25L1805 1266.75L1797.5 1265.25Z" fill="#575E70" style="fill:#575E70;fill:color(display-p3 0.3412 0.3686 0.4392);fill-opacity:1;"/>
<path d="M1572.5 858.253C1557.45 586.753 1438.5 529.753 1376 306.253C1403.43 592.153 1412.37 1021.08 1519 987.753C1557.31 975.78 1577.71 952.185 1572.5 858.253Z" fill="#28D644" style="fill:#28D644;fill:color(display-p3 0.1569 0.8392 0.2667);fill-opacity:1;"/>
<path d="M1533 1149.75V971.453L1517 968.253V1147.45L1533 1149.75Z" fill="#28D644" style="fill:#28D644;fill:color(display-p3 0.1569 0.8392 0.2667);fill-opacity:1;"/>
<g filter="url(#filter2_i_427_1686)">
<path d="M2545.5 1323.25L2139.5 1388.75L2133 1346.75L2160.5 1335.75V1323.25L2265.5 1303.25L2269.5 1222.25H2271V1213.75L2276 1215.75V1197.25L2283.5 1200.25C2285.24 1175.71 2288.74 1166.05 2306 1166.75V1179.25H2345V1190.75L2354 1196.25L2341 1298.25H2319.5L2323 1315.25L2338 1321.25L2340 1324.75L2332.5 1331.25L2357.5 1332.25L2380.5 1299.75L2389 1309.25L2411 1329.25L2463.5 1320.25L2511.5 1314.75L2545.5 1323.25Z" fill="#02152A" style="fill:#02152A;fill:color(display-p3 0.0078 0.0824 0.1647);fill-opacity:1;"/>
</g>
<path d="M2323 1133.75L2268 1165.75L2167 1163.75L2167.5 1153.25L2199.5 1149.75L2200.5 1137.25L2269.5 1131.75V1125.75L2344 1118.75V1132.25L2323 1133.75Z" fill="#031121" style="fill:#031121;fill:color(display-p3 0.0118 0.0667 0.1294);fill-opacity:1;"/>
<path d="M216 556.253L232 514.753L221 648.753L216 556.253Z" fill="#022389" style="fill:#022389;fill:color(display-p3 0.0077 0.1354 0.5385);fill-opacity:1;"/>
<path d="M2286.5 1149.75C2277.91 1154.69 2273.91 1158.25 2268 1165.75L2269.5 1222.25H2271V1213.75L2276 1215.75V1197.25L2283.5 1200.25L2285.5 1189.25C2289.4 1173.52 2297.5 1166.75 2306 1166.75V1179.25H2345V1190.75L2354 1196.25C2319.5 1196.25 2312.91 1212.75 2308 1236.75C2303.5 1258.75 2335.5 1281.75 2341 1298.25H2317.5C2311 1298.25 2310 1306.25 2312.5 1308.25L2323 1315.25C2322 1324.75 2330.5 1329.25 2338 1321.25L2340 1324.75L2332.5 1331.25L2357.5 1332.25L2380.5 1299.75L2389 1309.25C2384.23 1314.75 2384 1322.16 2388 1323.75C2398.56 1327.96 2403.28 1328.76 2411 1329.25L2467 1319.75C2471 1319.25 2472.81 1319.75 2473 1320.75C2475.46 1333.65 2484 1343.25 2488.5 1342.75C2494.72 1342.06 2497.15 1339.18 2499 1333.38L2535 1345.25L2631.5 1399.25C2641 1405.25 2650.5 1394.25 2640.5 1388.75L2538.5 1328.75L2508 1319.25L2511.5 1314.75L2518 1315.75L2531.5 1317.75L2537 1311.75H2547L2551.5 1308.25L2555 1201.75C2558.5 1195.25 2559.74 1187.76 2563 1174.25C2559.18 1154.13 2556.97 1152.3 2553 1151.75L2540 1149.25L2531 1126.25L2523.5 1123.75C2504.81 1116.69 2494.22 1114.97 2475 1118.75L2364.5 1131.75L2344 1132.25L2323 1133.75C2314.54 1136.84 2309.39 1138.79 2286.5 1149.75Z" fill="#344152" style="fill:#344152;fill:color(display-p3 0.2039 0.2549 0.3216);fill-opacity:1;"/>
<g filter="url(#filter3_i_427_1686)">
<path d="M1965 1270.25L2037.5 1096.25L2687.5 1032.25L2651 1107.75L2693.5 1248.25L2689.5 1335.25C2712.02 1339.75 2724.56 1342.33 2744 1349.25C2746 1350.05 2746.21 1351.85 2744.67 1357.63C2744.57 1358.01 2744.24 1358.29 2743.85 1358.35C2718.81 1362.14 2705.28 1363.57 2687 1360.25L2511.5 1314.75L2531.5 1315.25L2535 1309.25L2548 1308.75L2549.5 1194.75C2559.53 1189.18 2559 1183.25 2559 1168.75C2559 1151.25 2552.78 1151.92 2538.5 1150.25C2537.58 1144.21 2535.68 1143.1 2532.5 1140.75C2531.6 1132.75 2531.14 1127.92 2529.5 1126.25H2524C2524 1124.75 2523 1123.75 2519.5 1123.25L2501 1120.75C2490.51 1119.25 2484.04 1119.25 2472.54 1119.25H2472.5L2360.5 1132.25H2344V1118.75L2269.5 1125.75V1131.75L2200.5 1137.25L2199.5 1149.75L2167.5 1153.25L2161.5 1320.75L2160.5 1335.75L2133 1347.25L2139.5 1388.75L2043 1403.25L2030.5 1404.25L2025 1406.25L2023.17 1398.04C2023.07 1397.58 2022.67 1397.25 2022.2 1397.25H2021.76C2021.31 1397.25 2020.91 1397.56 2020.8 1397.99C2015.27 1418.11 2015.18 1431.34 2016 1455.25C2012.44 1465.07 2010.56 1470.43 2011 1475.25C1999.6 1479.79 1993.5 1481.75 1978.5 1486.25C1973.35 1488.97 1970.22 1489.17 1964.5 1488.75L1857.5 1461.75L1853.85 1459.32C1853.5 1459.09 1853.58 1458.56 1853.97 1458.43L1856 1457.75V1449.25L1849.5 1440.75L1846.5 1351.25L1805 1266.75L1965 1270.25Z" fill="#333538" style="fill:#333538;fill:color(display-p3 0.2000 0.2078 0.2196);fill-opacity:1;"/>
</g>
<path d="M1570.16 384.071L1571.32 390.449L1570.16 384.071L1445.17 406.708C1441.58 407.357 1438.98 410.493 1439.01 414.139L1441.49 779.305C1441.52 783.426 1444.87 786.753 1448.99 786.753H1571.5C1575.64 786.753 1579 783.396 1579 779.253V391.451C1579 386.773 1574.77 383.237 1570.16 384.071Z" fill="#182E43" stroke="#AEAFB1" style="fill:#182E43;fill:color(display-p3 0.0941 0.1804 0.2627);fill-opacity:1;stroke:#AEAFB1;stroke:color(display-p3 0.6824 0.6863 0.6941);stroke-opacity:1;" stroke-width="13"/>
<path d="M1572.5 590.253L1446.5 602.253V617.253L1572.5 607.253V590.253Z" fill="#AEAFB1" style="fill:#AEAFB1;fill:color(display-p3 0.6824 0.6863 0.6941);fill-opacity:1;"/>
<g filter="url(#filter4_df_427_1686)">
<path d="M2626.71 1128.76C2626.26 1112.27 2629.25 1111.69 2649.7 1109.64L2750.8 1099.13C2752.55 1098.94 2754.35 1098.97 2755.99 1099.64C2787.76 1112.62 2798.24 1238.31 2723.35 1244.71L2664.51 1251.29C2631.11 1255.69 2626.09 1254.83 2625.35 1227.34L2626.71 1128.76Z" fill="#23334A" style="fill:#23334A;fill:color(display-p3 0.1373 0.2000 0.2902);fill-opacity:1;"/>
<path d="M2624.85 1227.33L2624.85 1227.34L2624.85 1227.35C2625.04 1234.22 2625.49 1239.49 2626.6 1243.43C2627.72 1247.39 2629.53 1250.07 2632.44 1251.71C2635.32 1253.33 2639.21 1253.88 2644.42 1253.77C2649.63 1253.66 2656.23 1252.89 2664.57 1251.79C2664.57 1251.79 2664.57 1251.79 2664.57 1251.79L2723.4 1245.21C2723.4 1245.21 2723.4 1245.21 2723.4 1245.21C2742.28 1243.59 2755.79 1234.45 2764.92 1221.46C2774.04 1208.48 2778.78 1191.66 2780.17 1174.68C2781.56 1157.7 2779.6 1140.51 2775.3 1126.73C2773.15 1119.85 2770.41 1113.8 2767.19 1109.05C2763.98 1104.32 2760.27 1100.85 2756.18 1099.17C2754.43 1098.46 2752.53 1098.44 2750.74 1098.63L2649.65 1109.14C2649.65 1109.14 2649.65 1109.14 2649.65 1109.14C2644.54 1109.65 2640.5 1110.08 2637.32 1110.68C2634.15 1111.29 2631.78 1112.08 2630.07 1113.39C2628.33 1114.71 2627.3 1116.5 2626.75 1119C2626.2 1121.47 2626.1 1124.64 2626.21 1128.77L2624.85 1227.33Z" stroke="url(#paint0_radial_427_1686)" style=""/>
</g>
<g filter="url(#filter5_df_427_1686)">
<path d="M2250.49 1153.25L2234 1155.25C2183.5 1161.25 2155.5 1164.75 2105.5 1170.75C2015.5 1181.55 2016 1341.25 2116.5 1329.75L2232.5 1314.25C2253 1311.25 2269.5 1308.25 2269.5 1292.75L2267.3 1167.88C2267.14 1158.99 2259.32 1152.18 2250.49 1153.25Z" fill="#23334A" style="fill:#23334A;fill:color(display-p3 0.1373 0.2000 0.2902);fill-opacity:1;"/>
<path d="M2116.56 1330.25L2116.57 1330.25L2232.57 1314.75L2232.57 1314.75C2242.81 1313.25 2252.13 1311.74 2258.9 1308.65C2262.29 1307.09 2265.07 1305.12 2267 1302.53C2268.94 1299.93 2270 1296.72 2270 1292.75L2270 1292.74L2267.8 1167.87C2267.63 1158.68 2259.56 1151.65 2250.43 1152.76L2233.94 1154.76C2233.94 1154.76 2233.94 1154.76 2233.94 1154.76C2204.9 1158.21 2183.3 1160.83 2160.68 1163.58C2143.96 1165.61 2126.69 1167.71 2105.44 1170.26C2060.09 1175.7 2037.62 1218.64 2039.06 1258.63C2039.79 1278.64 2046.49 1297.99 2059.36 1311.62C2072.25 1325.27 2091.29 1333.14 2116.56 1330.25Z" stroke="url(#paint1_radial_427_1686)" style=""/>
</g>
<path d="M2037.5 1096.25L2050 1045.25L2700.5 989.253L2703.5 999.253V1002.25L2687.5 1032.25L2037.5 1096.25Z" fill="#0F2A83" style="fill:#0F2A83;fill:color(display-p3 0.0581 0.1661 0.5156);fill-opacity:1;"/>
<path d="M2037.5 1096.25L2050 1045.25L2700.5 989.253L2703.5 999.253V1002.25L2687.5 1032.25L2037.5 1096.25Z" fill="url(#paint2_linear_427_1686)" style=""/>
<path d="M2648.5 1106.25V1107.25C2648.5 1107.81 2648.95 1108.25 2649.5 1108.25H2650.7C2650.89 1108.25 2651.05 1108.15 2651.14 1107.99L2708 1003.75C2709.5 1000.75 2709.5 1001.75 2708.5 996.253L2560.5 152.253C2560 149.753 2555.5 144.753 2552.32 142.253L2554.5 150.253L2700.5 989.253C2703 1001.25 2704 999.753 2702 1004.25L2648.5 1106.25Z" fill="#0E34AF" style="fill:#0E34AF;fill:color(display-p3 0.0549 0.2039 0.6863);fill-opacity:1;"/>
<path d="M2398.5 77.7534L1765.5 0.253418L1903.5 77.2534L2560.5 152.253C2556 133.753 2477.5 106.753 2398.5 77.7534Z" fill="#2C50C5" style="fill:#2C50C5;fill:color(display-p3 0.1737 0.3151 0.7729);fill-opacity:1;"/>
<path d="M2040 1090.25C2045 1078.25 2051 1062.25 2051 1053.75L1948.5 1052.75L1834 1174.25L1805 1266.75L1965 1270.25L2040 1090.25Z" fill="#143294" style="fill:#143294;fill:color(display-p3 0.0784 0.1969 0.5805);fill-opacity:1;"/>
<path d="M1834 1174.25L1694.5 172.753L1808.5 109.253L1948.5 1052.75L1834 1174.25Z" fill="#0E34AF" style="fill:#0E34AF;fill:color(display-p3 0.0549 0.2039 0.6863);fill-opacity:1;"/>
<path d="M1338 178.253L1305 277.753L1694.5 172.753L1717 62.7534L1338 178.253Z" fill="#1D43BD" style="fill:#1D43BD;fill:color(display-p3 0.1130 0.2612 0.7409);fill-opacity:1;"/>
<path d="M1694.5 172.753L1808.5 109.253C1775.31 88.6374 1755.21 78.4898 1717 62.7534C1706.61 104.559 1701.47 128.496 1694.5 172.753Z" fill="#1B40B6" style="fill:#1B40B6;fill:color(display-p3 0.1053 0.2491 0.7145);fill-opacity:1;"/>
<path d="M1717 62.7534C1753.91 80.453 1774.7 90.341 1808.5 109.253L1897 69.7534C1872.5 51.7534 1808.5 17.2534 1765.5 0.253418L1753.5 12.7534L1717 62.7534Z" fill="#2248C4" style="fill:#2248C4;fill:color(display-p3 0.1327 0.2831 0.7701);fill-opacity:1;"/>
<path d="M1897.55 70.0382C1900.1 71.9974 1901.63 73.6203 1903.5 77.2532C1968.48 457.069 2009.87 668.985 2051 1053.75L1948.5 1052.75L1808.5 109.253L1880.5 73.7532C1886.14 70.935 1888.68 69.4407 1895.19 69.2697C1896.04 69.2474 1896.87 69.5202 1897.55 70.0382Z" fill="#0A30A8" style="fill:#0A30A8;fill:color(display-p3 0.0408 0.1870 0.6603);fill-opacity:1;"/>
<path d="M2008 765.253L1903.5 77.2534L2554.5 150.253L2660.5 750.253L2008 765.253Z" fill="#092B99" style="fill:#092B99;fill:color(display-p3 0.0355 0.1685 0.5989);fill-opacity:1;"/>
<path d="M2050 1045.25L2008 765.253L2660.5 750.253L2700.5 989.253L2050 1045.25Z" fill="#092B99" style="fill:#092B99;fill:color(display-p3 0.0355 0.1685 0.5989);fill-opacity:1;"/>
<path d="M2230 858.253L2023.5 868.253L2050 1045.25L2258.5 1027.25L2230 858.253Z" fill="#092B99" style="fill:#092B99;fill:color(display-p3 0.0355 0.1685 0.5989);fill-opacity:1;"/>
<path d="M2674.5 835.253L2507.5 843.753L2534.5 1003.25L2700.5 989.253L2674.5 835.253Z" fill="#092B99" style="fill:#092B99;fill:color(display-p3 0.0355 0.1685 0.5989);fill-opacity:1;"/>
<g filter="url(#filter6_i_427_1686)">
<path d="M1939 304.253L1929 244.753L1928.5 240.753L2579.5 292.253L2589 346.753L1939 304.253Z" fill="#202833" style="fill:#202833;fill:color(display-p3 0.1255 0.1569 0.2000);fill-opacity:1;"/>
</g>
<g filter="url(#filter7_f_427_1686)">
<path d="M2582.98 312.583L1933.03 263.422L1934.51 279.923L2584.47 326.585L2582.98 312.583Z" fill="#AAAFB5" style="fill:#AAAFB5;fill:color(display-p3 0.6667 0.6863 0.7098);fill-opacity:1;"/>
<path d="M2582.98 312.583L1933.03 263.422L1934.51 279.923L2584.47 326.585L2582.98 312.583Z" stroke="black" style="stroke:black;stroke-opacity:1;" stroke-width="2"/>
</g>
<path d="M2571.91 366.172L2302.25 352.317C2301.61 352.285 2301.1 352.852 2301.21 353.483L2364.57 727.189C2364.81 728.661 2366.11 729.725 2367.6 729.687L2635.17 722.813C2636.4 722.782 2637.3 721.666 2637.09 720.461L2573.78 367.816C2573.62 366.901 2572.84 366.22 2571.91 366.172Z" fill="#53687B" style="fill:#53687B;fill:color(display-p3 0.3255 0.4078 0.4824);fill-opacity:1;"/>
<path d="M2018.97 732.783L1957.76 334.665C1957.37 332.141 1959.41 329.905 1961.96 330.065L2264.32 349.053C2266.18 349.17 2267.71 350.56 2268.01 352.402L2329.31 728.119C2329.41 728.718 2328.96 729.266 2328.35 729.279L2023.01 736.174C2021 736.22 2019.27 734.768 2018.97 732.783Z" fill="#53687B" style="fill:#53687B;fill:color(display-p3 0.3255 0.4078 0.4824);fill-opacity:1;"/>
<path d="M1938.5 221.253L1922.5 107.753L2538.5 173.253L2557 273.753L1938.5 221.253Z" fill="#3B5E7E" style="fill:#3B5E7E;fill:color(display-p3 0.2314 0.3686 0.4941);fill-opacity:1;"/>
<path d="M2065 1011.25C2089.58 1011.25 2109.5 981.928 2109.5 945.753C2109.5 909.579 2089.58 880.253 2065 880.253C2049.6 880.253 2037.49 890.762 2029.5 908.253L2043.73 1003.3C2050.05 1008.37 2057.3 1011.25 2065 1011.25Z" fill="#092B99" style="fill:#092B99;fill:color(display-p3 0.0355 0.1685 0.5989);fill-opacity:1;"/>
<ellipse cx="2068.5" cy="945.253" rx="28" ry="41" fill="url(#paint3_radial_427_1686)" style=""/>
<ellipse cx="2604.13" cy="906.006" rx="33.4144" ry="50.9297" transform="rotate(175.124 2604.13 906.006)" fill="#092B99" style="fill:#092B99;fill:color(display-p3 0.0355 0.1685 0.5989);fill-opacity:1;"/>
<ellipse cx="2604.69" cy="905.877" rx="22" ry="34.5" transform="rotate(174.448 2604.69 905.877)" fill="url(#paint4_radial_427_1686)" style=""/>
<ellipse cx="2149.5" cy="939.753" rx="36" ry="46.5" transform="rotate(-4.63413 2149.5 939.753)" fill="#4B4B53" style="fill:#4B4B53;fill:color(display-p3 0.2941 0.2941 0.3255);fill-opacity:1;"/>
<ellipse cx="2149.58" cy="940.75" rx="27" ry="38.5" transform="rotate(-4.63413 2149.58 940.75)" fill="#72848E" style="fill:#72848E;fill:color(display-p3 0.4471 0.5176 0.5569);fill-opacity:1;"/>
<path d="M2568.75 911.94C2570.7 936.036 2559.88 956.575 2544.57 957.816C2537.22 958.412 2530.17 954.444 2524.61 947.488C2521.58 931.451 2519.35 915.151 2515.5 894.753C2519.02 880.516 2526.85 871.421 2537.5 870.558C2552.8 869.317 2566.79 887.845 2568.75 911.94Z" fill="#4B4B53" style="fill:#4B4B53;fill:color(display-p3 0.2941 0.2941 0.3255);fill-opacity:1;"/>
<ellipse cx="2541.11" cy="915.125" rx="20.8522" ry="36.2414" transform="rotate(-4.63413 2541.11 915.125)" fill="#72848E" style="fill:#72848E;fill:color(display-p3 0.4471 0.5176 0.5569);fill-opacity:1;"/>
<path d="M2230 858.253L2023.5 868.253L2050 1045.25L2258.5 1027.25L2230 858.253Z" fill="url(#paint5_linear_427_1686)" fill-opacity="0.3" style=""/>
<path d="M2674.5 835.253L2507.5 843.753L2534.5 1003.25L2700.5 989.253L2674.5 835.253Z" fill="url(#paint6_linear_427_1686)" fill-opacity="0.3" style=""/>
<path d="M1842 1461.25L1854 1459.25L1856 1457.75V1449.25L1849.5 1440.75L1846.5 1351.25L1838.5 1353.75L1842 1461.25Z" fill="#272E40" style="fill:#272E40;fill:color(display-p3 0.1529 0.1804 0.2510);fill-opacity:1;"/>
<path d="M235.205 525.168C235.383 523.11 236.807 521.373 238.791 520.797L274.314 510.47C276.333 509.883 278.314 511.502 278.141 513.598L268.193 633.916C268.08 635.29 267.045 636.409 265.685 636.63L227.535 642.841C226.249 643.05 225.109 641.993 225.221 640.695L235.205 525.168Z" fill="#8C959C" style="fill:#8C959C;fill:color(display-p3 0.5490 0.5843 0.6118);fill-opacity:1;"/>
<path d="M294.146 510.027C294.359 507.149 296.318 504.697 299.077 503.852L342.075 490.69C342.755 490.482 343.429 491.029 343.364 491.737L331.43 621.577C331.177 624.324 329.085 626.545 326.358 626.96L288.722 632.687C286.817 632.977 285.136 631.421 285.279 629.499L294.146 510.027Z" fill="#8C959C" style="fill:#8C959C;fill:color(display-p3 0.5490 0.5843 0.6118);fill-opacity:1;"/>
<path d="M361.645 490.146C361.858 487.209 363.887 484.719 366.72 483.917L417.132 469.641C417.798 469.452 418.45 469.981 418.403 470.671L408.83 609.948C408.637 612.755 406.52 615.051 403.737 615.47L355.71 622.695C353.808 622.981 352.132 621.43 352.271 619.512L361.645 490.146Z" fill="#8C959C" style="fill:#8C959C;fill:color(display-p3 0.5490 0.5843 0.6118);fill-opacity:1;"/>
<path d="M221.5 863.253C238.201 817.598 224.053 635.447 186.254 585.64C177.753 574.438 162.457 577.765 157.025 590.736C135.739 641.556 119.98 785.737 120.494 863.164C120.638 884.738 130.099 907.472 150.843 913.402C184.531 923.031 210.458 893.44 221.5 863.253Z" fill="#E9ECE5" style="fill:#E9ECE5;fill:color(display-p3 0.9137 0.9255 0.8980);fill-opacity:1;"/>
<path d="M823 1102.25L810.5 1102.75V1074.75L821.5 1061.75L823 1102.25Z" fill="#232C3D" style="fill:#232C3D;fill:color(display-p3 0.1373 0.1725 0.2392);fill-opacity:1;"/>
<path d="M440.217 468.158C440.387 465.215 442.383 462.693 445.208 461.852L504.616 444.165C505.286 443.966 505.948 444.497 505.899 445.194L495.333 595.995C495.138 598.781 493.047 601.063 490.289 601.501L435.68 610.169C433.789 610.47 432.104 608.945 432.214 607.034L440.217 468.158Z" fill="#8C959C" style="fill:#8C959C;fill:color(display-p3 0.5490 0.5843 0.6118);fill-opacity:1;"/>
<path d="M904.811 510.244C904.644 503.275 909.63 497.246 916.506 496.1L952.22 490.147C957.644 489.243 962.604 493.373 962.698 498.871L970.841 976.411C970.914 980.711 967.128 984.06 962.869 983.462L928.586 978.65C921.314 977.63 915.851 971.495 915.675 964.155L904.811 510.244Z" fill="#0A30A8" stroke="#00165C" style="fill:#0A30A8;fill:color(display-p3 0.0392 0.1882 0.6588);fill-opacity:1;stroke:#00165C;stroke:color(display-p3 0.0000 0.0867 0.3606);stroke-opacity:1;" stroke-width="2"/>
<path d="M672 1069.25L671.5 1044.25L810.5 1074.75V1102.75C754.376 1092.13 717.5 1083.75 672 1069.25Z" fill="#B9B8B4" style="fill:#B9B8B4;fill:color(display-p3 0.7255 0.7216 0.7059);fill-opacity:1;"/>
<path d="M672 1069.25L671.5 1044.25L810.5 1074.75V1102.75C754.376 1092.13 717.5 1083.75 672 1069.25Z" fill="#1A42C0" style="fill:#1A42C0;fill:color(display-p3 0.1037 0.2596 0.7521);fill-opacity:1;"/>
<path d="M671.5 1044.25L677.5 1034.75L678.5 1035.75L816 1066.75L820 1065.25L810.5 1074.75C754.862 1070.81 724.335 1064.26 671.5 1044.25Z" fill="#D6D8D7" style="fill:#D6D8D7;fill:color(display-p3 0.8392 0.8471 0.8431);fill-opacity:1;"/>
<path d="M671.5 1044.25L677.5 1034.75L678.5 1035.75L816 1066.75L820 1065.25L810.5 1074.75C754.862 1070.81 724.335 1064.26 671.5 1044.25Z" fill="#1135A7" style="fill:#1135A7;fill:color(display-p3 0.0684 0.2092 0.6539);fill-opacity:1;"/>
<path d="M679.253 521.804C662.495 525.253 662 525.355 662 546.253L677 1027.75C677.2 1036.75 677.5 1036.25 678.5 1036.75L812 1066.75C818 1068.25 820 1065.75 820 1063.25L804.5 522.253C804.5 510.253 803 499.253 797.5 500.253L679.5 521.753L679.253 521.804Z" fill="#BEBFBC" stroke="#262F4A" style="fill:#BEBFBC;fill:color(display-p3 0.7450 0.7497 0.7388);fill-opacity:1;stroke:#262F4A;stroke:color(display-p3 0.1490 0.1843 0.2902);stroke-opacity:1;" stroke-width="3"/>
<path d="M857.057 885.455C900.031 767.973 858.951 482.511 753.083 431.887C740.397 425.821 725.277 428.308 715.936 438.819C654.05 508.455 606.617 775.269 615.929 931.981C617.209 953.518 627.452 973.923 645.452 985.817C746.53 1052.61 826.128 970.005 857.057 885.455Z" fill="#E9ECE5" style="fill:#E9ECE5;fill:color(display-p3 0.9137 0.9255 0.8980);fill-opacity:1;"/>
<path d="M838.999 847.254C885.509 747.863 828.729 515.387 746.542 451.548C737.263 444.341 724.857 448.439 720.809 459.469C689.224 545.545 625.297 842.39 626.079 929.046C626.178 940.07 635.547 947.315 646.567 946.979C736.429 944.235 804.817 920.302 838.999 847.254Z" fill="#E83250" style="fill:#E83250;fill:color(display-p3 0.9098 0.1961 0.3137);fill-opacity:1;"/>
<path d="M214.714 818.418C228.908 765.853 213.278 648.662 184.076 598.94C177.004 586.898 162.903 591.024 160 604.684C147.424 663.878 128.972 799.705 127.616 854.306C127.325 866.01 136.857 874.522 148.512 873.418C181.043 870.337 204.114 857.677 214.714 818.418Z" fill="#91C120" style="fill:#91C120;fill:color(display-p3 0.5686 0.7569 0.1255);fill-opacity:1;"/>
<path d="M679.253 521.804C662.495 525.253 662 525.355 662 546.253L677 1027.75C677.2 1036.75 677.5 1036.25 678.5 1036.75L812 1066.75C818 1068.25 820 1065.75 820 1063.25L804.5 522.253C804.5 510.253 803 499.253 797.5 500.253L679.5 521.753L679.253 521.804Z" stroke="#262F4A" style="stroke:#262F4A;stroke:color(display-p3 0.1490 0.1843 0.2902);stroke-opacity:1;" stroke-width="3"/>
<path d="M674.414 602.064C674.14 594.259 679.9 587.55 687.656 586.64L701.357 585.032C709.503 584.075 716.723 590.295 716.982 598.493L723.658 809.434C723.842 815.265 719.015 820.016 713.187 819.739L692.115 818.735C686.398 818.463 681.846 813.853 681.645 808.133L674.414 602.064Z" fill="#262E41" style="fill:#262E41;fill:color(display-p3 0.1490 0.1804 0.2549);fill-opacity:1;"/>
<path d="M729 512.253L744 1050.55L736 1064.75V1086.75" stroke="#262F4A" style="stroke:#262F4A;stroke:color(display-p3 0.1490 0.1843 0.2902);stroke-opacity:1;" stroke-width="3"/>
<path d="M152.69 664.461C152.583 661.817 154.555 659.548 157.188 659.285L162.217 658.782C165.082 658.495 167.596 660.681 167.711 663.558L172.787 791.38C172.903 794.283 170.528 796.673 167.625 796.576L161.715 796.379C159.621 796.309 157.936 794.635 157.851 792.542L152.69 664.461Z" fill="#262E41" style="fill:#262E41;fill:color(display-p3 0.1490 0.1804 0.2549);fill-opacity:1;"/>
<path d="M178.661 660.803C178.57 658.224 180.456 656 183.015 655.667L188.079 655.01C191.002 654.631 193.617 656.849 193.719 659.795L198.297 791.905C198.398 794.798 196.027 797.172 193.134 797.075L187.215 796.878C185.113 796.808 183.425 795.123 183.35 793.022L178.661 660.803Z" fill="#262E41" style="fill:#262E41;fill:color(display-p3 0.1490 0.1804 0.2549);fill-opacity:1;"/>
<path d="M746.983 592.54C746.71 584.746 752.454 578.043 760.198 577.12L777.631 575.041C785.838 574.062 793.102 580.369 793.285 588.632L798.26 812.927C798.389 818.762 793.515 823.467 787.689 823.132L765.011 821.829C759.339 821.503 754.848 816.91 754.649 811.232L746.983 592.54Z" fill="#262E41" style="fill:#262E41;fill:color(display-p3 0.1490 0.1804 0.2549);fill-opacity:1;"/>
<path d="M230.821 778.899C230.75 776.015 233.127 773.669 236.01 773.779L270.583 775.095C274.282 775.236 277.232 778.232 277.315 781.932L280.172 908.43C280.258 912.271 276.764 915.203 272.997 914.449L244.177 908.687C238.219 907.496 233.881 902.336 233.73 896.261L230.821 778.899Z" fill="#182E43" style="fill:#182E43;fill:color(display-p3 0.0941 0.1804 0.2627);fill-opacity:1;"/>
<path d="M80.665 674.791C80.5714 672.217 82.4481 669.994 85.0009 669.653L107.206 666.693C108.968 666.458 110.547 667.798 110.601 669.575L113.805 774.858C113.911 778.321 111.068 781.154 107.605 781.037L90.0895 780.443C86.941 780.336 84.4112 777.813 84.2968 774.664L80.665 674.791Z" fill="#182E43" style="fill:#182E43;fill:color(display-p3 0.0941 0.1804 0.2627);fill-opacity:1;"/>
<path d="M119.653 669.239C119.566 666.687 121.416 664.48 123.943 664.119L133.744 662.719C135.492 662.469 137.076 663.775 137.164 665.539L142.677 775.79C142.851 779.278 140.022 782.177 136.531 782.088L129.15 781.898C125.976 781.817 123.415 779.278 123.307 776.105L119.653 669.239Z" fill="#182E43" style="fill:#182E43;fill:color(display-p3 0.0941 0.1804 0.2627);fill-opacity:1;"/>
<path d="M288.274 781.319C288.21 778.447 290.574 776.112 293.446 776.211L336.061 777.685C340.308 777.831 343.699 781.273 343.783 785.521L346.485 921.569C346.561 925.397 343.081 928.316 339.325 927.575L301.555 920.122C295.569 918.941 291.21 913.756 291.074 907.656L288.274 781.319Z" fill="#182E43" style="fill:#182E43;fill:color(display-p3 0.0941 0.1804 0.2627);fill-opacity:1;"/>
<path d="M354.272 784.463C354.196 781.019 357.029 778.218 360.472 778.333L410.975 780.03C414.693 780.155 417.663 783.166 417.738 786.885L420.676 932.675C420.791 938.385 415.628 942.757 410.015 941.702L368.697 933.935C362.193 932.712 357.434 927.102 357.287 920.486L354.272 784.463Z" fill="#182E43" style="fill:#182E43;fill:color(display-p3 0.0941 0.1804 0.2627);fill-opacity:1;"/>
<path d="M431.307 790.44C431.193 785.262 435.462 781.056 440.638 781.247L495.123 783.262C500.42 783.457 504.644 787.753 504.751 793.053L507.907 949.602C508.022 955.318 502.848 959.692 497.231 958.626L451.476 949.945C441.737 948.097 434.616 939.689 434.396 929.778L431.307 790.44Z" fill="#182E43" style="fill:#182E43;fill:color(display-p3 0.0941 0.1804 0.2627);fill-opacity:1;"/>
<path d="M74.5 751.253L39.5 752.253L35 635.253L70 628.253L74.5 751.253Z" fill="#605E63" style="fill:#605E63;fill:color(display-p3 0.3765 0.3686 0.3882);fill-opacity:1;"/>
<path d="M522.247 792.408C522.145 787.796 525.953 784.054 530.561 784.236L597.716 786.893C604.061 787.144 609.113 792.295 609.239 798.644L612.583 966.107C612.736 973.735 605.824 979.567 598.33 978.132L542.727 967.488C533.004 965.626 525.901 957.226 525.681 947.328L522.247 792.408Z" fill="#182E43" style="fill:#182E43;fill:color(display-p3 0.0941 0.1804 0.2627);fill-opacity:1;"/>
<path d="M155.5 619.753C147.5 621.253 146.5 622.253 147 635.753L159.5 926.753L207 937.753C208.479 937.053 208.814 936.605 209 935.753L196.5 623.753C196 614.753 196 612.753 190.5 613.753L155.5 619.753Z" stroke="black" style="stroke:black;stroke-opacity:1;"/>
<path d="M170.5 617.253L184 932.253" stroke="black" style="stroke:black;stroke-opacity:1;"/>
<defs>
<filter id="filter0_i_427_1686" x="923" y="1099.25" width="627.5" height="279" filterUnits="userSpaceOnUse" color-interpolation-filters="sRGB">
<feFlood flood-opacity="0" result="BackgroundImageFix"/>
<feBlend mode="normal" in="SourceGraphic" in2="BackgroundImageFix" result="shape"/>
<feColorMatrix in="SourceAlpha" type="matrix" values="0 0 0 0 0 0 0 0 0 0 0 0 0 0 0 0 0 0 127 0" result="hardAlpha"/>
<feOffset dx="13" dy="7"/>
<feGaussianBlur stdDeviation="13"/>
<feComposite in2="hardAlpha" operator="arithmetic" k2="-1" k3="1"/>
<feColorMatrix type="matrix" values="0 0 0 0 0 0 0 0 0 0 0 0 0 0 0 0 0 0 0.25 0"/>
<feBlend mode="normal" in2="shape" result="effect1_innerShadow_427_1686"/>
</filter>
<filter id="filter1_f_427_1686" x="596.297" y="393.375" width="37.3702" height="205.579" filterUnits="userSpaceOnUse" color-interpolation-filters="sRGB">
<feFlood flood-opacity="0" result="BackgroundImageFix"/>
<feBlend mode="normal" in="SourceGraphic" in2="BackgroundImageFix" result="shape"/>
<feGaussianBlur stdDeviation="3.6" result="effect1_foregroundBlur_427_1686"/>
</filter>
<filter id="filter2_i_427_1686" x="2133" y="1166.72" width="425.5" height="229.035" filterUnits="userSpaceOnUse" color-interpolation-filters="sRGB">
<feFlood flood-opacity="0" result="BackgroundImageFix"/>
<feBlend mode="normal" in="SourceGraphic" in2="BackgroundImageFix" result="shape"/>
<feColorMatrix in="SourceAlpha" type="matrix" values="0 0 0 0 0 0 0 0 0 0 0 0 0 0 0 0 0 0 127 0" result="hardAlpha"/>
<feOffset dx="13" dy="7"/>
<feGaussianBlur stdDeviation="13"/>
<feComposite in2="hardAlpha" operator="arithmetic" k2="-1" k3="1"/>
<feColorMatrix type="matrix" values="0 0 0 0 0 0 0 0 0 0 0 0 0 0 0 0 0 0 0.25 0"/>
<feBlend mode="normal" in2="shape" result="effect1_innerShadow_427_1686"/>
</filter>
<filter id="filter3_i_427_1686" x="1805" y="1032.25" width="953.685" height="463.665" filterUnits="userSpaceOnUse" color-interpolation-filters="sRGB">
<feFlood flood-opacity="0" result="BackgroundImageFix"/>
<feBlend mode="normal" in="SourceGraphic" in2="BackgroundImageFix" result="shape"/>
<feColorMatrix in="SourceAlpha" type="matrix" values="0 0 0 0 0 0 0 0 0 0 0 0 0 0 0 0 0 0 127 0" result="hardAlpha"/>
<feOffset dx="13" dy="7"/>
<feGaussianBlur stdDeviation="13"/>
<feComposite in2="hardAlpha" operator="arithmetic" k2="-1" k3="1"/>
<feColorMatrix type="matrix" values="0 0 0 0 0 0 0 0 0 0 0 0 0 0 0 0 0 0 0.25 0"/>
<feBlend mode="normal" in2="shape" result="effect1_innerShadow_427_1686"/>
</filter>
<filter id="filter4_df_427_1686" x="2602.75" y="1078.43" width="189.958" height="189.455" filterUnits="userSpaceOnUse" color-interpolation-filters="sRGB">
<feFlood flood-opacity="0" result="BackgroundImageFix"/>
<feColorMatrix in="SourceAlpha" type="matrix" values="0 0 0 0 0 0 0 0 0 0 0 0 0 0 0 0 0 0 127 0" result="hardAlpha"/>
<feOffset dx="-5" dy="-3"/>
<feGaussianBlur stdDeviation="8.3"/>
<feComposite in2="hardAlpha" operator="out"/>
<feColorMatrix type="matrix" values="0 0 0 0 0 0 0 0 0 0 0 0 0 0 0 0 0 0 0.31 0"/>
<feBlend mode="normal" in2="BackgroundImageFix" result="effect1_dropShadow_427_1686"/>
<feBlend mode="normal" in="SourceGraphic" in2="effect1_dropShadow_427_1686" result="shape"/>
<feGaussianBlur stdDeviation="0.25" result="effect2_foregroundBlur_427_1686"/>
</filter>
<filter id="filter5_df_427_1686" x="2016.9" y="1132.54" width="265.203" height="212.402" filterUnits="userSpaceOnUse" color-interpolation-filters="sRGB">
<feFlood flood-opacity="0" result="BackgroundImageFix"/>
<feColorMatrix in="SourceAlpha" type="matrix" values="0 0 0 0 0 0 0 0 0 0 0 0 0 0 0 0 0 0 127 0" result="hardAlpha"/>
<feOffset dx="-5" dy="-3"/>
<feGaussianBlur stdDeviation="8.3"/>
<feComposite in2="hardAlpha" operator="out"/>
<feColorMatrix type="matrix" values="0 0 0 0 0 0 0 0 0 0 0 0 0 0 0 0 0 0 0.31 0"/>
<feBlend mode="normal" in2="BackgroundImageFix" result="effect1_dropShadow_427_1686"/>
<feBlend mode="normal" in="SourceGraphic" in2="effect1_dropShadow_427_1686" result="shape"/>
<feGaussianBlur stdDeviation="0.25" result="effect2_foregroundBlur_427_1686"/>
</filter>
<filter id="filter6_i_427_1686" x="1928.5" y="240.753" width="660.5" height="106" filterUnits="userSpaceOnUse" color-interpolation-filters="sRGB">
<feFlood flood-opacity="0" result="BackgroundImageFix"/>
<feBlend mode="normal" in="SourceGraphic" in2="BackgroundImageFix" result="shape"/>
<feColorMatrix in="SourceAlpha" type="matrix" values="0 0 0 0 0 0 0 0 0 0 0 0 0 0 0 0 0 0 127 0" result="hardAlpha"/>
<feOffset/>
<feGaussianBlur stdDeviation="4.65"/>
<feComposite in2="hardAlpha" operator="arithmetic" k2="-1" k3="1"/>
<feColorMatrix type="matrix" values="0 0 0 0 0 0 0 0 0 0 0 0 0 0 0 0 0 0 1 0"/>
<feBlend mode="normal" in2="shape" result="effect1_innerShadow_427_1686"/>
</filter>
<filter id="filter7_f_427_1686" x="1927.93" y="258.336" width="661.658" height="73.3322" filterUnits="userSpaceOnUse" color-interpolation-filters="sRGB">
<feFlood flood-opacity="0" result="BackgroundImageFix"/>
<feBlend mode="normal" in="SourceGraphic" in2="BackgroundImageFix" result="shape"/>
<feGaussianBlur stdDeviation="2" result="effect1_foregroundBlur_427_1686"/>
</filter>
<radialGradient id="paint0_radial_427_1686" cx="0" cy="0" r="1" gradientUnits="userSpaceOnUse" gradientTransform="translate(2779.94 1155.66) rotate(161.106) scale(62.3603 96.4295)">
<stop stop-color="#23334A" style="stop-color:#23334A;stop-color:color(display-p3 0.1373 0.2000 0.2902);stop-opacity:1;"/>
<stop offset="1" stop-color="#405067" style="stop-color:#405067;stop-color:color(display-p3 0.2497 0.3128 0.4035);stop-opacity:1;"/>
</radialGradient>
<radialGradient id="paint1_radial_427_1686" cx="0" cy="0" r="1" gradientUnits="userSpaceOnUse" gradientTransform="translate(2269.5 1219.25) rotate(165.887) scale(90.2233 115.872)">
<stop stop-color="#23334A" style="stop-color:#23334A;stop-color:color(display-p3 0.1373 0.2000 0.2902);stop-opacity:1;"/>
<stop offset="1" stop-color="#405067" style="stop-color:#405067;stop-color:color(display-p3 0.2497 0.3128 0.4035);stop-opacity:1;"/>
</radialGradient>
<linearGradient id="paint2_linear_427_1686" x1="2425" y1="1046.75" x2="2421.5" y2="1013.25" gradientUnits="userSpaceOnUse">
<stop stop-color="#0F2A83" stop-opacity="0" style="stop-color:none;stop-opacity:0;"/>
<stop offset="1" stop-color="#092B99" style="stop-color:#092B99;stop-color:color(display-p3 0.0353 0.1686 0.6000);stop-opacity:1;"/>
</linearGradient>
<radialGradient id="paint3_radial_427_1686" cx="0" cy="0" r="1" gradientUnits="userSpaceOnUse" gradientTransform="translate(2054 945.253) rotate(23.3852) scale(40.3113 27.5297)">
<stop offset="0.26" stop-color="#EEC432" style="stop-color:#EEC432;stop-color:color(display-p3 0.9321 0.7702 0.1961);stop-opacity:1;"/>
<stop offset="1" stop-color="#EAE799" style="stop-color:#EAE799;stop-color:color(display-p3 0.9191 0.9063 0.5988);stop-opacity:1;"/>
</radialGradient>
<radialGradient id="paint4_radial_427_1686" cx="0" cy="0" r="1" gradientUnits="userSpaceOnUse" gradientTransform="translate(2604.7 904.377) rotate(90.3231) scale(36 25.7341)">
<stop offset="0.26" stop-color="#EEC432" style="stop-color:#EEC432;stop-color:color(display-p3 0.9321 0.7702 0.1961);stop-opacity:1;"/>
<stop offset="1" stop-color="#EAE799" style="stop-color:#EAE799;stop-color:color(display-p3 0.9191 0.9063 0.5988);stop-opacity:1;"/>
</radialGradient>
<linearGradient id="paint5_linear_427_1686" x1="2229.5" y1="858.253" x2="2076.5" y2="1034.25" gradientUnits="userSpaceOnUse">
<stop stop-color="white" style="stop-color:white;stop-opacity:1;"/>
<stop offset="1" stop-color="#323232" style="stop-color:#323232;stop-color:color(display-p3 0.1979 0.1979 0.1979);stop-opacity:1;"/>
</linearGradient>
<linearGradient id="paint6_linear_427_1686" x1="2631" y1="835.253" x2="2562.53" y2="986.659" gradientUnits="userSpaceOnUse">
<stop stop-color="white" style="stop-color:white;stop-opacity:1;"/>
<stop offset="1" stop-color="#323232" style="stop-color:#323232;stop-color:color(display-p3 0.1979 0.1979 0.1979);stop-opacity:1;"/>
</linearGradient>
</defs>
</svg>
