<svg width="1618" height="1044" viewBox="0 0 1618 1044" fill="none" xmlns="http://www.w3.org/2000/svg">
<path d="M160.5 313.253L26 337.253C8.31953 430.259 2.6031 481.768 1 572.253L135 585.253H148.5L174.5 588.253L202 310.753L176.5 316.253L160.5 313.253Z" fill="black" style="fill:black;fill-opacity:1;"/>
<path d="M1093.5 818.753L1119.5 682.253L1388 715.753L1574.5 681.753L1584.5 723.753L1574.5 817.253L1569.5 843.253L1467.5 845.253L1490.5 933.753L1520 966.753L1299 1011.75L1158.5 962.253L1095 876.253L1093.5 818.753Z" fill="#333538" style="fill:#333538;fill:color(display-p3 0.2006 0.2081 0.2181);fill-opacity:1;"/>
<path d="M166 294.253L167 288.753L369 246.253V251.253L367.5 251.753L366 259.753L329 267.753L308 269.253L206 290.253L204 294.253L181 299.253L166 294.253Z" fill="#1D1D1D" stroke="#1D1D1D" style="fill:#1D1D1D;fill:color(display-p3 0.1127 0.1127 0.1127);fill-opacity:1;stroke:#1D1D1D;stroke:color(display-p3 0.1127 0.1127 0.1127);stroke-opacity:1;"/>
<path d="M329 267.753L325 287.253L362 280.753L363.5 274.253C434.5 259.753 479.186 254.009 549 238.253C543.647 219.909 539.73 213.843 529.5 217.753L367.5 251.753L366 259.753L329 267.753Z" fill="#64B5E5" style="fill:#64B5E5;fill:color(display-p3 0.3922 0.7098 0.8980);fill-opacity:1;"/>
<path d="M329 267.753L325 287.253L362 280.753L363.5 274.253C434.5 259.753 479.186 254.009 549 238.253C543.647 219.909 539.73 213.843 529.5 217.753L367.5 251.753L366 259.753L329 267.753Z" fill="url(#paint0_linear_427_2190)" style=""/>
<path d="M188 197.253C138.645 216.56 114.081 227.403 77.5 246.753L733 60.2534C832.828 15.6543 910.821 16.4512 1043 9.75345C972.715 -2.2874 927.875 -2.8645 836.5 8.75345C696.526 31.9162 470.411 110.656 188 197.253Z" fill="#333538" style="fill:#333538;fill:color(display-p3 0.2000 0.2078 0.2196);fill-opacity:1;"/>
<path d="M1573 685.253C1447.91 729.114 1349.64 733.352 1123 694.253L1085.5 527.253C1285 564.753 1425.68 565.972 1535.5 521.253C1561.43 585.223 1566.03 620.819 1573 685.253Z" fill="black" stroke="black" style="fill:black;fill-opacity:1;stroke:black;stroke-opacity:1;"/>
<path d="M1136.23 577.591C1147.37 571.64 1160.86 572.522 1173.7 578.844C1186.53 585.166 1198.67 596.913 1207.05 612.603C1215.43 628.292 1218.45 644.917 1216.56 659.1C1214.68 673.284 1207.91 684.985 1196.77 690.936C1185.63 696.887 1172.14 696.005 1159.3 689.683C1146.47 683.361 1134.33 671.613 1125.95 655.923C1117.57 640.234 1114.55 623.609 1116.44 609.427C1118.32 595.243 1125.09 583.542 1136.23 577.591Z" fill="#DDDDDD" stroke="white" style="fill:#DDDDDD;fill:color(display-p3 0.8676 0.8676 0.8676);fill-opacity:1;stroke:white;stroke-opacity:1;"/>
<path d="M1136.56 668.926C1121.6 645.433 1128.77 618.476 1150.68 609.225L1150.7 609.216L1150.72 609.205C1169.44 599.207 1194.6 609.474 1206.85 632.414C1219.1 655.346 1213.65 681.958 1194.95 691.965C1185.81 695.985 1174.47 695.665 1163.82 691.676C1153.5 687.812 1143.86 680.52 1137.53 670.477L1136.93 669.497L1136.92 669.488L1136.92 669.48L1136.56 668.926Z" fill="#F7AE23" stroke="#F7AE23" style="fill:#F7AE23;fill:color(display-p3 0.9686 0.6824 0.1373);fill-opacity:1;stroke:#F7AE23;stroke:color(display-p3 0.9686 0.6824 0.1373);stroke-opacity:1;"/>
<path d="M1520 572.986C1512.29 573.587 1505.66 580.252 1501.24 590.829C1496.83 601.377 1494.7 615.678 1495.91 631.224C1497.11 646.725 1503.2 660.056 1510.96 669.35C1518.74 678.666 1528.12 683.839 1535.88 683.235C1539.79 682.93 1543.11 681.754 1545.84 679.701C1548.58 677.647 1550.77 674.693 1552.4 670.789C1555.68 662.963 1556.71 651.376 1555.5 635.792C1554.29 620.255 1549.3 604.198 1542.63 592.191C1539.29 586.187 1535.55 581.219 1531.67 577.836C1527.78 574.448 1523.81 572.69 1520 572.986Z" fill="#DDDDDD" stroke="white" style="fill:#DDDDDD;fill:color(display-p3 0.8676 0.8676 0.8676);fill-opacity:1;stroke:white;stroke-opacity:1;"/>
<path d="M1542.59 618.79C1535.72 607.51 1526.16 600.577 1517.88 599.795L1517.48 599.762C1515.05 599.589 1511.47 600.24 1507.92 603.468C1504.36 606.701 1500.8 612.55 1498.5 622.837C1494.54 649.091 1508.39 670.384 1527.71 680.299C1532.25 682.296 1535.93 682.269 1538.91 681.158C1541.91 680.042 1544.25 677.806 1546.06 675.281C1547.86 672.756 1549.1 669.972 1549.89 667.81C1550.29 666.731 1550.57 665.811 1550.75 665.162C1550.84 664.838 1550.91 664.582 1550.95 664.408C1550.97 664.321 1550.99 664.254 1551 664.21L1551.01 664.161C1553.74 646.037 1549.57 630.22 1542.59 618.79Z" fill="#F7AE23" stroke="#F7AE23" style="fill:#F7AE23;fill:color(display-p3 0.9686 0.6824 0.1373);fill-opacity:1;stroke:#F7AE23;stroke:color(display-p3 0.9686 0.6824 0.1373);stroke-opacity:1;"/>
<path d="M8 675.253L7 668.753L142.5 697.753L178.5 710.753L8 675.253Z" fill="#E8E8E8" style="fill:#E8E8E8;fill:color(display-p3 0.9118 0.9118 0.9118);fill-opacity:1;"/>
<path d="M1535 521.754C1418.5 566.254 1291 564.754 1087.5 528.752C1014.5 265.754 899 -21.7463 756.5 44.2537C889.501 -38.245 1147 22.7538 1254 59.2522C1372.82 133.253 1474.59 326.035 1535 521.754Z" fill="black" stroke="black" style="fill:black;fill-opacity:1;stroke:black;stroke-opacity:1;"/>
<ellipse cx="1090.21" cy="88.3493" rx="49.0005" ry="18.7705" transform="rotate(26.6589 1090.21 88.3493)" fill="#F7AE23" style="fill:#F7AE23;fill:color(display-p3 0.9686 0.6824 0.1373);fill-opacity:1;"/>
<path d="M26 337.253L29 322.253L166 294.253L181 299.253L205 294.253L201 311.253L176.5 316.253L160.5 313.253L26 337.253Z" fill="#64B5E5" style="fill:#64B5E5;fill:color(display-p3 0.3922 0.7098 0.8980);fill-opacity:1;"/>
<path d="M26 337.253L29 322.253L166 294.253L181 299.253L205 294.253L201 311.253L176.5 316.253L160.5 313.253L26 337.253Z" fill="url(#paint1_linear_427_2190)" style=""/>
<path d="M1337.5 158.753L954.5 150.253C1016.1 257.842 1042.01 325.263 1082.5 450.253L1489 448.753C1442.77 329.607 1411.87 265.077 1337.5 158.753Z" fill="#404040" style="fill:#404040;fill:color(display-p3 0.2526 0.2526 0.2526);fill-opacity:1;"/>
<path d="M342 744.753L178.5 709.253V789.253L1016.5 1029.75C1262.72 1052.05 1371.5 1049.68 1496.5 1009.75C1583.41 972.132 1607.59 935.328 1597 835.253L1568.5 841.253C1524.33 842.414 1501.8 842.965 1466 843.753C1474.11 919.936 1483.29 946.972 1510.5 958.753C1404.74 983.753 1338.11 986.368 1204.5 968.253C1171.63 947.305 1164.8 918.852 1165 850.253L1098.5 862.253L955 854.753L629 792.253L627 789.253L603.5 784.753L333 729.753L342 744.753Z" fill="#6D7074" style="fill:#6D7074;fill:color(display-p3 0.4275 0.4392 0.4549);fill-opacity:1;"/>
<path d="M769.5 51.7535L733 60.2535C766.487 36.0213 787.335 29.0948 828.5 39.7536C987 79.7536 1155.5 695.753 1118.5 760.753C1099 799.753 1091.77 820.738 1098.5 862.253C1043.21 863.771 1012 862.924 955.5 854.753C874 841.253 846.722 677.253 843 577.253C835.5 375.753 836.167 99.2536 818.5 77.2535C800.191 54.4533 790.465 49.1728 769.5 51.7535Z" fill="#64B5E5" style="fill:#64B5E5;fill:color(display-p3 0.3922 0.7098 0.8980);fill-opacity:1;"/>
<path d="M769.5 51.7535L733 60.2535C766.487 36.0213 787.335 29.0948 828.5 39.7536C987 79.7536 1155.5 695.753 1118.5 760.753C1099 799.753 1091.77 820.738 1098.5 862.253C1043.21 863.771 1012 862.924 955.5 854.753C874 841.253 846.722 677.253 843 577.253C835.5 375.753 836.167 99.2536 818.5 77.2535C800.191 54.4533 790.465 49.1728 769.5 51.7535Z" fill="url(#paint2_linear_427_2190)" style=""/>
<path d="M333 601.753L300 599.253L297.5 615.253L309 726.253L284.5 732.253L343 745.753L337.551 724.253L572.5 769.753V642.253L333 615.253V601.753Z" fill="#655951" style="fill:#655951;fill:color(display-p3 0.3979 0.3489 0.3175);fill-opacity:1;"/>
<path d="M769.5 51.7534L733 60.2534L77.5 246.753C52.3747 264.79 42.2509 276.538 34.5 301.753C31.8922 307.715 30.6747 312.144 29 322.253L166 294.253L167 288.753L369 246.253V251.253L530 217.753C537.518 217.09 541.669 222.419 549 238.253C559.298 304.212 557.911 369.876 558 476.753C576.816 695.565 594.668 739.87 629 792.253C697.5 817.253 827.795 840.626 955.5 854.753C874 841.253 846.722 677.253 843 577.253C835.5 375.753 836.167 99.2534 818.5 77.2534C800.191 54.4532 790.465 49.1727 769.5 51.7534Z" fill="#E8E8E8" style="fill:#E8E8E8;fill:color(display-p3 0.9118 0.9118 0.9118);fill-opacity:1;"/>
<path d="M178.5 709.753C168.054 544.958 176 408.253 205.5 290.753L308 269.753C271.5 442.253 267.5 545.753 280 731.753L178.5 709.753Z" fill="#D9D9D9" style="fill:#D9D9D9;fill:color(display-p3 0.8510 0.8510 0.8510);fill-opacity:1;"/>
<path d="M328.999 268.253L308 269.753C269.148 447.949 267.978 550.068 280 731.253C302.001 737.253 304.5 726.753 309.499 727.253C290.126 533.253 296.844 432.8 328.999 268.253Z" fill="#1D1D1D" style="fill:#1D1D1D;fill:color(display-p3 0.1127 0.1127 0.1127);fill-opacity:1;"/>
<path d="M205 715.753C191.775 530.691 209.253 389.44 231.5 285.753L277.5 276.253C239.217 439.364 230.066 532.761 250 725.253L205 715.753Z" fill="#64B5E5" style="fill:#64B5E5;fill:color(display-p3 0.3922 0.7098 0.8980);fill-opacity:1;"/>
<path d="M205 715.753C191.775 530.691 209.253 389.44 231.5 285.753L277.5 276.253C239.217 439.364 230.066 532.761 250 725.253L205 715.753Z" fill="url(#paint3_linear_427_2190)" style=""/>
<path d="M230.5 332.753L206.5 336.253C189.618 417.968 186.758 469.967 186.5 567.253L210 568.253C212.066 460.451 217 407.253 230.5 332.753Z" fill="#404040" style="fill:#404040;fill:color(display-p3 0.2526 0.2526 0.2526);fill-opacity:1;"/>
<path d="M363.5 274.253C434.5 259.753 630.186 223.51 700 207.753C708.985 269.389 601.5 348.753 601.5 630.253L333 604.253V601.753L300 599.253C287.3 475.732 293.021 407.39 325 287.254L362 280.753L363.5 274.253Z" fill="black" style="fill:black;fill-opacity:1;"/>
<path d="M283 325.253L257.364 328.924C239.331 414.629 236.275 469.167 236 571.205L261.102 572.253C263.309 459.187 268.58 403.391 283 325.253Z" fill="#404040" style="fill:#404040;fill:color(display-p3 0.2526 0.2526 0.2526);fill-opacity:1;"/>
<path d="M764.5 55.2534L733.5 62.2533C742.699 68.3876 750.968 63.2126 766 62.2533C781.032 61.294 784.5 62.7534 804 84.7534C822.716 105.868 805.5 401.351 813 602.851C816.722 702.851 864.5 839.753 946 853.253C864.5 839.753 841.722 680.351 838 580.351C830.5 378.851 831.167 102.351 813.5 80.3514C795.191 57.5512 785.465 52.6726 764.5 55.2534Z" fill="#909090" style="fill:#909090;fill:color(display-p3 0.5636 0.5636 0.5636);fill-opacity:1;"/>
<path d="M8 675.253L178.5 710.753V788.753L12.5 741.753L8 675.253Z" fill="#6D7074" style="fill:#6D7074;fill:color(display-p3 0.4275 0.4392 0.4549);fill-opacity:1;"/>
<path d="M1.00002 586.253C0.739131 580.932 0.884711 577.785 1.00002 572.253L135 585.253V598.753L1.00002 586.253Z" fill="#E8E8E8" style="fill:#E8E8E8;fill:color(display-p3 0.9118 0.9118 0.9118);fill-opacity:1;"/>
<path d="M148 585.253L174.5 588.253L178.5 710.753C138.5 702.753 142.5 704.253 142.5 697.753L7 668.753C1.50726 636.277 1.66063 617.216 1 583.753L136 597.253C135.01 590.82 134.5 587.753 135.5 586.253C137 585.753 140.675 585.253 148 585.253Z" fill="#655951" style="fill:#655951;fill:color(display-p3 0.3961 0.3490 0.3176);fill-opacity:1;"/>
<path d="M342 735.253L660 802.253L581 628.253L333.5 604.253V615.574L572.5 642.253V769.753L337.5 724.253L340 734.753L342 735.253Z" fill="#E8E8E8" style="fill:#E8E8E8;fill:color(display-p3 0.9118 0.9118 0.9118);fill-opacity:1;"/>
<path d="M572.309 599.958C564.117 409.115 690.466 266.39 700 207.753C734.91 351.261 727.571 460.909 709 544.253C695.759 603.68 656.176 629.109 602.781 629.919C586.157 630.17 573.022 616.569 572.309 599.958Z" fill="#49AC42" style="fill:#49AC42;fill:color(display-p3 0.2863 0.6745 0.2588);fill-opacity:1;"/>
<path d="M148.5 585.753H135C139.093 666.713 140.51 684.104 142.5 697.753L142.932 702.51C142.972 702.951 143.298 703.313 143.732 703.4L178 710.253V700.753L155.5 695.753C151.361 655.253 149.514 631.716 148.5 585.753Z" stroke="#57473C" style="stroke:#57473C;stroke:color(display-p3 0.3412 0.2784 0.2353);stroke-opacity:1;"/>
<path d="M340 734.253L343 745.253" stroke="#57473C" style="stroke:#57473C;stroke:color(display-p3 0.3412 0.2784 0.2353);stroke-opacity:1;"/>
<path d="M340 734.253C333 706.753 333.142 668.924 333 601.753" stroke="#57473C" style="stroke:#57473C;stroke:color(display-p3 0.3412 0.2784 0.2353);stroke-opacity:1;"/>
<path d="M309 727.253L340 734.753" stroke="#57473C" style="stroke:#57473C;stroke:color(display-p3 0.3412 0.2784 0.2353);stroke-opacity:1;"/>
<path d="M515 290.253L540 286.253C524 376.253 520.501 462.823 519.5 593.753L492 592.253C493.259 433.784 498.582 369.234 515 290.253Z" fill="#404040" style="fill:#404040;fill:color(display-p3 0.2526 0.2526 0.2526);fill-opacity:1;"/>
<path d="M123.375 344.998L139 342.253C129 404.01 126.813 463.412 126.188 553.253L109 552.224C109.787 443.486 113.114 399.193 123.375 344.998Z" fill="#404040" style="fill:#404040;fill:color(display-p3 0.2526 0.2526 0.2526);fill-opacity:1;"/>
<path d="M405.999 306.753L488.999 293.753C474.378 365.511 458 515.253 464.999 589.753C403 585.253 457 589.753 384.999 583.753C385.706 470.811 387.086 408.114 405.999 306.753Z" fill="#404040" style="fill:#404040;fill:color(display-p3 0.2526 0.2526 0.2526);fill-opacity:1;"/>
<path d="M319.5 577.753C317.567 467.216 321.668 411.16 339 319.253L354 317.253C337.655 415.721 333.553 474.059 332 578.753L319.5 577.753Z" fill="#404040" style="fill:#404040;fill:color(display-p3 0.2526 0.2526 0.2526);fill-opacity:1;"/>
<path d="M156.262 567.253C156.341 474.115 159.971 424.972 173.636 341.996L187 340.253C172.437 426.058 168.384 477.023 167 568.253L156.262 567.253Z" fill="#404040" style="fill:#404040;fill:color(display-p3 0.2526 0.2526 0.2526);fill-opacity:1;"/>
<path d="M342.731 583.253C338.069 475.896 344.78 417.934 366.876 311.372L383.999 309.253C365.341 413.58 362.773 472.83 361 583.753L342.731 583.253Z" fill="#404040" style="fill:#404040;fill:color(display-p3 0.2526 0.2526 0.2526);fill-opacity:1;"/>
<path d="M55 352.753L109 345.753C99.4402 395.45 88.7317 499.657 93.3077 551.253L40.5 548.253C40.9624 470.033 42.6339 422.952 55 352.753Z" fill="#404040" style="fill:#404040;fill:color(display-p3 0.2526 0.2526 0.2526);fill-opacity:1;"/>
<path d="M11.9845 546.902C8.70705 471.419 13.4255 430.666 28.9608 355.743L41 354.253C27.8814 427.605 26.0762 469.264 24.8295 547.253L11.9845 546.902Z" fill="#404040" style="fill:#404040;fill:color(display-p3 0.2526 0.2526 0.2526);fill-opacity:1;"/>
<line x1="166.24" y1="294.323" x2="160.7" y2="313.326" stroke="url(#paint4_radial_427_2190)" stroke-opacity="0.05" style="" stroke-width="0.5"/>
<path d="M1254.5 59.2534C1262.41 63.4889 1270.51 68.9252 1278.77 75.4417C1474.48 215.016 1594.72 521.505 1600 638.253C1611 681.753 1608 738.253 1596.5 791.253C1596.51 809.913 1596.64 819.414 1597 835.253C1589.45 839.442 1583.21 840.699 1569 841.253C1570.77 824.638 1571.55 814.991 1572 796.253C1583 741.753 1583.55 700.168 1572 688.253C1558.41 511.113 1402.07 172.778 1278.77 75.4417C1270.8 69.7611 1262.71 64.357 1254.5 59.2534Z" fill="#64B5E5" style="fill:#64B5E5;fill:color(display-p3 0.3922 0.7098 0.8980);fill-opacity:1;"/>
<path d="M1254.5 59.2534C1262.41 63.4889 1270.51 68.9252 1278.77 75.4417C1474.48 215.016 1594.72 521.505 1600 638.253C1611 681.753 1608 738.253 1596.5 791.253C1596.51 809.913 1596.64 819.414 1597 835.253C1589.45 839.442 1583.21 840.699 1569 841.253C1570.77 824.638 1571.55 814.991 1572 796.253C1583 741.753 1583.55 700.168 1572 688.253C1558.41 511.113 1402.07 172.778 1278.77 75.4417C1270.8 69.7611 1262.71 64.357 1254.5 59.2534Z" fill="url(#paint5_linear_427_2190)" style=""/>
<path d="M597.203 754.477L619.561 605.789L634.5 605.79L613.428 756.352L597.203 754.477Z" fill="#49AC42" style="fill:#49AC42;fill:color(display-p3 0.2863 0.6745 0.2588);fill-opacity:1;"/>
<defs>
<linearGradient id="paint0_linear_427_2190" x1="334.174" y1="215.541" x2="341.614" y2="304.275" gradientUnits="userSpaceOnUse">
<stop stop-color="#7D2270" style="stop-color:#7D2270;stop-color:color(display-p3 0.4902 0.1333 0.4392);stop-opacity:1;"/>
<stop offset="0.185" stop-color="#E41D25" style="stop-color:#E41D25;stop-color:color(display-p3 0.8941 0.1137 0.1451);stop-opacity:1;"/>
<stop offset="1" stop-color="#7D2270" style="stop-color:#7D2270;stop-color:color(display-p3 0.4902 0.1333 0.4392);stop-opacity:1;"/>
</linearGradient>
<linearGradient id="paint1_linear_427_2190" x1="33.3311" y1="293.597" x2="36.7916" y2="347.774" gradientUnits="userSpaceOnUse">
<stop stop-color="#7D2270" style="stop-color:#7D2270;stop-color:color(display-p3 0.4902 0.1333 0.4392);stop-opacity:1;"/>
<stop offset="0.185" stop-color="#E41D25" style="stop-color:#E41D25;stop-color:color(display-p3 0.8941 0.1137 0.1451);stop-opacity:1;"/>
<stop offset="1" stop-color="#7D2270" style="stop-color:#7D2270;stop-color:color(display-p3 0.4902 0.1333 0.4392);stop-opacity:1;"/>
</linearGradient>
<linearGradient id="paint2_linear_427_2190" x1="749" y1="22.2534" x2="1197" y2="817.253" gradientUnits="userSpaceOnUse">
<stop stop-color="#7D2270" style="stop-color:#7D2270;stop-color:color(display-p3 0.4902 0.1333 0.4392);stop-opacity:1;"/>
<stop offset="0.185" stop-color="#E41D25" style="stop-color:#E41D25;stop-color:color(display-p3 0.8941 0.1137 0.1451);stop-opacity:1;"/>
<stop offset="1" stop-color="#7D2270" style="stop-color:#7D2270;stop-color:color(display-p3 0.4902 0.1333 0.4392);stop-opacity:1;"/>
</linearGradient>
<linearGradient id="paint3_linear_427_2190" x1="203.17" y1="269.418" x2="462.079" y2="438.063" gradientUnits="userSpaceOnUse">
<stop stop-color="#7D2270" style="stop-color:#7D2270;stop-color:color(display-p3 0.4902 0.1333 0.4392);stop-opacity:1;"/>
<stop offset="0.185" stop-color="#E41D25" style="stop-color:#E41D25;stop-color:color(display-p3 0.8941 0.1137 0.1451);stop-opacity:1;"/>
<stop offset="1" stop-color="#7D2270" style="stop-color:#7D2270;stop-color:color(display-p3 0.4902 0.1333 0.4392);stop-opacity:1;"/>
</linearGradient>
<radialGradient id="paint4_radial_427_2190" cx="0" cy="0" r="1" gradientUnits="userSpaceOnUse" gradientTransform="translate(162.75 303.615) rotate(106.255) scale(9.89675 0.5)">
<stop style="stop-color:black;stop-opacity:1;"/>
<stop offset="1" stop-color="#666666" style="stop-color:#666666;stop-color:color(display-p3 0.4000 0.4000 0.4000);stop-opacity:1;"/>
</radialGradient>
<linearGradient id="paint5_linear_427_2190" x1="1268.93" y1="47.3086" x2="1701.93" y2="781.098" gradientUnits="userSpaceOnUse">
<stop stop-color="#7D2270" style="stop-color:#7D2270;stop-color:color(display-p3 0.4902 0.1333 0.4392);stop-opacity:1;"/>
<stop offset="0.185" stop-color="#E41D25" style="stop-color:#E41D25;stop-color:color(display-p3 0.8941 0.1137 0.1451);stop-opacity:1;"/>
<stop offset="1" stop-color="#7D2270" style="stop-color:#7D2270;stop-color:color(display-p3 0.4902 0.1333 0.4392);stop-opacity:1;"/>
</linearGradient>
</defs>
</svg>
