<svg width="1617" height="1044" viewBox="0 0 1617 1044" fill="none" xmlns="http://www.w3.org/2000/svg">
<path d="M159.5 313.253L25 337.253C7.31953 430.259 1.6031 481.768 0 572.253L134 585.253H147.5L173.5 588.253L201 310.753L175.5 316.253L159.5 313.253Z" fill="black" style="fill:black;fill-opacity:1;"/>
<path d="M124.375 343.998L140 341.253C130 403.01 127.813 462.412 127.188 552.253L110 551.224C110.787 442.486 114.114 398.193 124.375 343.998Z" fill="#404040" style="fill:#404040;fill:color(display-p3 0.2526 0.2526 0.2526);fill-opacity:1;"/>
<path d="M56 351.753L110 344.753C100.44 394.45 89.7317 498.657 94.3077 550.253L41.5 547.253C41.9624 469.033 43.6339 421.952 56 351.753Z" fill="#404040" style="fill:#404040;fill:color(display-p3 0.2526 0.2526 0.2526);fill-opacity:1;"/>
<path d="M12.9845 545.902C9.70705 470.419 14.4255 429.666 29.9608 354.743L42 353.253C28.8814 426.605 27.0762 468.264 25.8295 546.253L12.9845 545.902Z" fill="#404040" style="fill:#404040;fill:color(display-p3 0.2526 0.2526 0.2526);fill-opacity:1;"/>
<path d="M1092.5 818.753L1118.5 682.253L1387 715.753L1573.5 681.753L1583.5 723.753L1573.5 817.253L1568.5 843.253L1466.5 845.253L1489.5 933.753L1519 966.753L1298 1011.75L1157.5 962.253L1094 876.253L1092.5 818.753Z" fill="#333538" style="fill:#333538;fill:color(display-p3 0.2006 0.2081 0.2181);fill-opacity:1;"/>
<path d="M341 744.753L177.5 711.753V789.253L1015.5 1029.75C1261.72 1052.05 1370.5 1049.68 1495.5 1009.75C1582.41 972.132 1606.59 935.328 1596 835.253L1567.5 841.253C1523.33 842.414 1500.8 842.965 1465 843.753C1473.11 919.936 1482.29 946.972 1509.5 958.753C1403.74 983.753 1337.11 986.368 1203.5 968.253C1170.63 947.305 1163.8 918.852 1164 850.253L1097.5 862.253L954 854.753L628 792.253L626 789.253L629 799.753L342 740.253L341 744.753Z" fill="#6D7074" style="fill:#6D7074;fill:color(display-p3 0.4275 0.4392 0.4549);fill-opacity:1;"/>
<path d="M165 294.253L166 288.753L368 246.253V251.253L366.5 251.753L365 259.753L328 267.753L307 269.253L205 290.253L203 294.253L180 299.253L165 294.253Z" fill="#1D1D1D" stroke="#1D1D1D" style="fill:#1D1D1D;fill:color(display-p3 0.1127 0.1127 0.1127);fill-opacity:1;stroke:#1D1D1D;stroke:color(display-p3 0.1127 0.1127 0.1127);stroke-opacity:1;"/>
<path d="M328 267.753L324 287.253L361 280.753L362.5 274.253C433.5 259.753 478.186 254.009 548 238.253C542.647 219.909 538.73 213.843 528.5 217.753L366.5 251.753L365 259.753L328 267.753Z" fill="#64B5E5" style="fill:#64B5E5;fill:color(display-p3 0.3922 0.7098 0.8980);fill-opacity:1;"/>
<path d="M187 197.253C137.645 216.56 113.081 227.403 76.5 246.753L732 60.2534C831.828 15.6543 909.821 16.4512 1042 9.75345C971.715 -2.2874 926.875 -2.8645 835.5 8.75345C695.526 31.9162 469.411 110.656 187 197.253Z" fill="#333538" style="fill:#333538;fill:color(display-p3 0.2000 0.2078 0.2196);fill-opacity:1;"/>
<path d="M1572 685.253C1446.91 729.114 1348.64 733.352 1122 694.253L1084.5 527.253C1284 564.753 1424.68 565.972 1534.5 521.253C1560.43 585.223 1565.03 620.819 1572 685.253Z" fill="black" stroke="black" style="fill:black;fill-opacity:1;stroke:black;stroke-opacity:1;"/>
<path d="M1206.05 612.603C1214.43 628.293 1217.45 644.917 1215.56 659.1C1213.68 673.284 1206.91 684.985 1195.77 690.936C1184.63 696.887 1171.14 696.005 1158.3 689.683C1145.47 683.361 1133.33 671.613 1124.95 655.924C1116.57 640.234 1113.55 623.61 1115.44 609.427C1117.32 595.243 1124.09 583.542 1135.23 577.591C1146.37 571.64 1159.86 572.522 1172.7 578.844C1185.53 585.166 1197.67 596.913 1206.05 612.603Z" fill="#DDDDDD" stroke="white" style="fill:#DDDDDD;fill:color(display-p3 0.8685 0.8685 0.8685);fill-opacity:1;stroke:white;stroke-opacity:1;"/>
<path d="M1135.93 669.497L1135.92 669.488L1135.92 669.48C1120.49 645.858 1127.6 618.549 1149.68 609.225L1149.7 609.216L1149.72 609.205C1168.44 599.207 1193.6 609.474 1205.85 632.414C1218.1 655.348 1212.65 681.963 1193.94 691.968C1184.8 695.986 1173.47 695.664 1162.82 691.676C1152.17 687.687 1142.24 680.046 1135.93 669.497Z" fill="#F7AE23" stroke="#F7AE23" style="fill:#F7AE23;fill:color(display-p3 0.9686 0.6824 0.1373);fill-opacity:1;stroke:#F7AE23;stroke:color(display-p3 0.9686 0.6824 0.1373);stroke-opacity:1;"/>
<path d="M1494.91 631.223C1496.11 646.725 1502.2 660.056 1509.96 669.35C1517.74 678.666 1527.12 683.839 1534.88 683.235C1538.79 682.93 1542.11 681.754 1544.84 679.701C1547.58 677.647 1549.77 674.693 1551.4 670.789C1554.68 662.963 1555.71 651.376 1554.5 635.792C1553.29 620.255 1548.3 604.197 1541.63 592.191C1538.29 586.187 1534.55 581.219 1530.67 577.835C1526.78 574.448 1522.81 572.69 1519 572.986C1511.29 573.587 1504.66 580.253 1500.24 590.829C1495.83 601.378 1493.7 615.678 1494.91 631.223Z" fill="#DDDDDD" stroke="white" style="fill:#DDDDDD;fill:color(display-p3 0.8685 0.8685 0.8685);fill-opacity:1;stroke:white;stroke-opacity:1;"/>
<path d="M1550.01 664.161C1552.74 646.037 1548.57 630.22 1541.59 618.79C1534.61 607.33 1524.86 600.358 1516.48 599.762C1514.05 599.589 1510.47 600.24 1506.92 603.468C1503.36 606.702 1499.8 612.553 1497.49 622.845C1493.54 649.097 1507.4 670.388 1526.72 680.301C1531.25 682.296 1534.93 682.268 1537.91 681.158C1540.91 680.041 1543.25 677.806 1545.06 675.28C1546.86 672.756 1548.1 669.972 1548.89 667.81C1549.29 666.731 1549.57 665.811 1549.75 665.163C1549.84 664.838 1549.91 664.582 1549.95 664.408C1549.97 664.321 1549.99 664.254 1550 664.21L1550.01 664.161Z" fill="#F7AE23" stroke="#F7AE23" style="fill:#F7AE23;fill:color(display-p3 0.9686 0.6824 0.1373);fill-opacity:1;stroke:#F7AE23;stroke:color(display-p3 0.9686 0.6824 0.1373);stroke-opacity:1;"/>
<path d="M147 585.253L173.5 588.253L178 726.753L9 689.253L0 572.253L134 585.253H147Z" fill="#655951" style="fill:#655951;fill:color(display-p3 0.3961 0.3490 0.3176);fill-opacity:1;"/>
<path d="M1534 521.754C1417.5 566.254 1290 564.754 1086.5 528.752C1013.5 265.754 898 -21.7463 755.5 44.2537C888.501 -38.245 1146 22.7538 1253 59.2522C1371.82 133.253 1473.59 326.035 1534 521.754Z" fill="black" stroke="black" style="fill:black;fill-opacity:1;stroke:black;stroke-opacity:1;"/>
<path d="M8 676.253L177.5 711.753V789.253L15.5 742.753C11.2385 711.55 9.66112 697.241 8 676.253Z" fill="#6D7074" style="fill:#6D7074;fill:color(display-p3 0.4275 0.4392 0.4549);fill-opacity:1;"/>
<ellipse cx="1089.21" cy="88.3493" rx="49.0005" ry="18.7705" transform="rotate(26.6589 1089.21 88.3493)" fill="#F7AE23" style="fill:#F7AE23;fill:color(display-p3 0.9686 0.6824 0.1373);fill-opacity:1;"/>
<path d="M25 337.253L28 322.253L165 294.253L180 299.253L204 294.253L200 311.253L175.5 316.253L159.5 313.253L25 337.253Z" fill="#64B5E5" style="fill:#64B5E5;fill:color(display-p3 0.3922 0.7098 0.8980);fill-opacity:1;"/>
<path d="M1336.5 158.753L953.5 150.253C1015.1 257.842 1041.01 325.263 1081.5 450.253L1488 448.753C1441.77 329.607 1410.87 265.077 1336.5 158.753Z" fill="#404040" style="fill:#404040;fill:color(display-p3 0.2526 0.2526 0.2526);fill-opacity:1;"/>
<path d="M768.5 51.7535L732 60.2535C765.487 36.0213 786.335 29.0948 827.5 39.7536C986 79.7536 1154.5 695.753 1117.5 760.753C1098 799.753 1090.77 820.738 1097.5 862.253C1042.21 863.771 1011 862.924 954.5 854.753C873 841.253 845.722 677.253 842 577.253C834.5 375.753 835.167 99.2536 817.5 77.2535C799.191 54.4533 789.465 49.1728 768.5 51.7535Z" fill="#64B5E5" style="fill:#64B5E5;fill:color(display-p3 0.3922 0.7098 0.8980);fill-opacity:1;"/>
<path d="M362.5 274.253C433.5 259.754 478.186 254.009 548 238.253C556.985 299.888 557.738 359.118 557 476.754L574.5 627.754L332 604.254V601.754L299 599.254C286.3 475.733 292.021 407.39 324 287.254L361 280.753L362.5 274.253Z" fill="black" style="fill:black;fill-opacity:1;"/>
<path d="M332 601.753L299 599.253L296.5 615.253L308 726.253L279 732.253L342 745.753V740.253L629.5 800.253L574.5 627.753L332 604.253V601.753Z" fill="#655951" style="fill:#655951;fill:color(display-p3 0.3979 0.3489 0.3175);fill-opacity:1;"/>
<path d="M768.5 51.7534L732 60.2534L76.5 246.753C51.3747 264.79 41.2509 276.538 33.5 301.753C30.8922 307.715 29.6747 312.144 28 322.253L165 294.253L166 288.753L368 246.253V251.253L529 217.753C536.518 217.09 540.669 222.419 548 238.253C558.298 304.212 556.911 369.876 557 476.753C557 608.753 595.168 747.87 629.5 800.253C698 825.253 826.795 840.626 954.5 854.753C873 841.253 845.722 677.253 842 577.253C834.5 375.753 835.167 99.2534 817.5 77.2534C799.191 54.4532 789.465 49.1727 768.5 51.7534Z" fill="#E8E8E8" style="fill:#E8E8E8;fill:color(display-p3 0.9118 0.9118 0.9118);fill-opacity:1;"/>
<path d="M177.5 711.753C167.054 546.958 175 408.253 204.5 290.753L307 269.753C270.5 442.253 266.5 546.253 279 732.253L177.5 711.753Z" fill="#D9D9D9" style="fill:#D9D9D9;fill:color(display-p3 0.8510 0.8510 0.8510);fill-opacity:1;"/>
<path d="M327.999 268.253L307 269.753C268.148 447.949 266.978 551.068 279 732.253C301.001 738.253 303.5 726.753 308.499 727.253C289.126 533.253 295.844 432.8 327.999 268.253Z" fill="#1D1D1D" style="fill:#1D1D1D;fill:color(display-p3 0.1127 0.1127 0.1127);fill-opacity:1;"/>
<path d="M203.5 717.053C190.275 531.991 208.253 389.44 230.5 285.753L276.5 276.253C238.217 439.364 229.066 533.761 249 726.253L203.5 717.053Z" fill="#64B5E5" style="fill:#64B5E5;fill:color(display-p3 0.3922 0.7098 0.8980);fill-opacity:1;"/>
<path d="M229.5 332.753L205.5 336.253C188.618 417.968 185.758 469.967 185.5 567.253L209 568.253C211.066 460.451 216 407.253 229.5 332.753Z" fill="#404040" style="fill:#404040;fill:color(display-p3 0.2526 0.2526 0.2526);fill-opacity:1;"/>
<path d="M282 325.253L256.364 328.924C238.331 414.629 235.275 469.167 235 571.205L260.102 572.253C262.309 459.187 267.58 403.391 282 325.253Z" fill="#404040" style="fill:#404040;fill:color(display-p3 0.2526 0.2526 0.2526);fill-opacity:1;"/>
<path d="M147.5 585.753H134C138.093 666.713 139.51 684.104 141.5 697.753L147.5 702.753L177 709.753V700.753L154.5 695.753C150.361 655.253 148.514 631.716 147.5 585.753Z" stroke="#57473C" style="stroke:#57473C;stroke:color(display-p3 0.3412 0.2784 0.2353);stroke-opacity:1;"/>
<path d="M341 735.253V744.753" stroke="#57473C" style="stroke:#57473C;stroke:color(display-p3 0.3412 0.2784 0.2353);stroke-opacity:1;"/>
<path d="M341 735.253C335.5 707.253 332.142 668.924 332 601.753" stroke="#57473C" style="stroke:#57473C;stroke:color(display-p3 0.3412 0.2784 0.2353);stroke-opacity:1;"/>
<path d="M308 727.253L341 735.253" stroke="#57473C" style="stroke:#57473C;stroke:color(display-p3 0.3412 0.2784 0.2353);stroke-opacity:1;"/>
<path d="M514 290.253L539 286.253C523 376.253 519.501 462.823 518.5 593.753L491 592.253C492.259 433.784 497.582 369.234 514 290.253Z" fill="#404040" style="fill:#404040;fill:color(display-p3 0.2526 0.2526 0.2526);fill-opacity:1;"/>
<path d="M404.999 306.753L487.999 293.753C473.378 365.511 457 515.253 463.999 589.753C402 585.253 456 589.753 383.999 583.753C384.706 470.811 386.086 408.114 404.999 306.753Z" fill="#404040" style="fill:#404040;fill:color(display-p3 0.2526 0.2526 0.2526);fill-opacity:1;"/>
<path d="M318.5 577.753C314.417 476.425 318.644 419.831 338 319.253L353 317.253C336.655 415.721 332.553 473.059 331 577.753H318.5Z" fill="#404040" style="fill:#404040;fill:color(display-p3 0.2526 0.2526 0.2526);fill-opacity:1;"/>
<path d="M341.731 583.253C337.069 475.896 343.78 417.934 365.876 311.372L382.999 309.253C364.341 413.58 361.773 472.83 360 583.753L341.731 583.253Z" fill="#404040" style="fill:#404040;fill:color(display-p3 0.2526 0.2526 0.2526);fill-opacity:1;"/>
<line x1="165.24" y1="294.323" x2="159.7" y2="313.326" stroke="url(#paint0_radial_427_2147)" stroke-opacity="0.05" style="" stroke-width="0.5"/>
<path d="M1253.5 59.2534C1261.41 63.4889 1269.51 68.9252 1277.77 75.4417C1473.48 215.016 1593.72 521.505 1599 638.253C1610 681.753 1607 738.253 1595.5 791.253C1595.51 809.913 1595.64 819.414 1596 835.253C1588.45 839.442 1582.21 840.699 1568 841.253C1569.77 824.638 1570.55 814.991 1571 796.253C1582 741.753 1582.55 700.168 1571 688.253C1557.41 511.113 1401.07 172.778 1277.77 75.4417C1269.8 69.7611 1261.71 64.357 1253.5 59.2534Z" fill="#64B5E5" style="fill:#64B5E5;fill:color(display-p3 0.3922 0.7098 0.8980);fill-opacity:1;"/>
<defs>
<radialGradient id="paint0_radial_427_2147" cx="0" cy="0" r="1" gradientUnits="userSpaceOnUse" gradientTransform="translate(161.75 303.615) rotate(106.255) scale(9.89675 0.5)">
<stop style="stop-color:black;stop-opacity:1;"/>
<stop offset="1" stop-color="#666666" style="stop-color:#666666;stop-color:color(display-p3 0.4000 0.4000 0.4000);stop-opacity:1;"/>
</radialGradient>
</defs>
</svg>
