<svg width="2781" height="1498" viewBox="0 0 2781 1498" fill="none" xmlns="http://www.w3.org/2000/svg">
<path d="M157.58 1029.73L98.0796 986.735L97.5796 986.235L946.58 1178.73L952.58 1128.73L959.58 1117.23L969.58 1112.23L985.58 1111.73L1649.58 1235.23L1863.58 1447.73L730.58 1174.73L157.58 1029.73Z" fill="#29221A" style="fill:#29221A;fill:color(display-p3 0.1608 0.1333 0.1020);fill-opacity:1;"/>
<path d="M157.58 1029.73L98.0796 986.735L97.5796 986.235L946.58 1178.73L952.58 1128.73L959.58 1117.23L969.58 1112.23L985.58 1111.73L1649.58 1235.23L1863.58 1447.73L730.58 1174.73L157.58 1029.73Z" fill="url(#paint0_linear_427_2335)" style=""/>
<path d="M130.58 428.735L1766.08 14.7349C1671.49 39.2047 1607.58 117.235 1570.58 228.735L908.58 351.735C893.005 365.699 883.082 377.235 861.08 411.235L710.58 435.735C707.053 437.252 705.091 437.44 701.58 436.235C696.225 436.846 694.203 435.056 691.58 429.735L688.58 419.735C689.539 375.769 699.222 351.927 731.58 310.735L113.58 454.235C103.542 488.112 93.0278 507.581 59.5796 543.735L3.57959 553.735C23.0796 484.735 96.0796 438.235 130.58 428.735Z" fill="#707B89" style="fill:#707B89;fill:color(display-p3 0.4392 0.4824 0.5373);fill-opacity:1;"/>
<path d="M1323.58 518.235C1426.45 690.282 1481.66 796.077 1592.58 937.735L1606.08 223.735L1570.58 228.735L908.58 351.735C869.08 384.235 871.08 408.735 851.58 412.735L710.58 435.735C691.08 438.735 685.272 420.235 690.58 401.735C701.003 365.4 710.143 345.501 731.58 310.735C731.58 308.735 726.58 308.235 714.58 311.235L113.58 454.235C101.281 474.525 95.8652 485.778 87.5796 505.735C71.3328 518.713 65.5321 527.15 59.5796 543.735L3.57956 553.735C0.334934 572.272 -0.24602 582.802 0.0795583 601.735C1279.58 451.735 1273.72 451.202 1323.58 518.235Z" fill="#D7DFE2" style="fill:#D7DFE2;fill:color(display-p3 0.8431 0.8745 0.8863);fill-opacity:1;"/>
<path d="M1323.58 518.235C1426.45 690.282 1481.66 796.077 1592.58 937.735L1606.08 223.735L1570.58 228.735L908.58 351.735C869.08 384.235 871.08 408.735 851.58 412.735L710.58 435.735C691.08 438.735 685.272 420.235 690.58 401.735C701.003 365.4 710.143 345.501 731.58 310.735C731.58 308.735 726.58 308.235 714.58 311.235L113.58 454.235C101.281 474.525 95.8652 485.778 87.5796 505.735C71.3328 518.713 65.5321 527.15 59.5796 543.735L3.57956 553.735C0.334934 572.272 -0.24602 582.802 0.0795583 601.735C1279.58 451.735 1273.72 451.202 1323.58 518.235Z" fill="url(#paint1_linear_427_2335)" style=""/>
<path d="M1323.58 518.235C1426.45 690.282 1481.66 796.077 1592.58 937.735L1606.08 223.735L1570.58 228.735L908.58 351.735C869.08 384.235 871.08 408.735 851.58 412.735L710.58 435.735C691.08 438.735 685.272 420.235 690.58 401.735C701.003 365.4 710.143 345.501 731.58 310.735C731.58 308.735 726.58 308.235 714.58 311.235L113.58 454.235C101.281 474.525 95.8652 485.778 87.5796 505.735C71.3328 518.713 65.5321 527.15 59.5796 543.735L3.57956 553.735C0.334934 572.272 -0.24602 582.802 0.0795583 601.735C1279.58 451.735 1273.72 451.202 1323.58 518.235Z" fill="#D7DFE2" style="fill:#D7DFE2;fill:color(display-p3 0.8431 0.8745 0.8863);fill-opacity:1;"/>
<path d="M1323.58 518.235C1426.45 690.282 1481.66 796.077 1592.58 937.735L1606.08 223.735L1570.58 228.735L908.58 351.735C869.08 384.235 871.08 408.735 851.58 412.735L710.58 435.735C691.08 438.735 685.272 420.235 690.58 401.735C701.003 365.4 710.143 345.501 731.58 310.735C731.58 308.735 726.58 308.235 714.58 311.235L113.58 454.235C101.281 474.525 95.8652 485.778 87.5796 505.735C71.3328 518.713 65.5321 527.15 59.5796 543.735L3.57956 553.735C0.334934 572.272 -0.24602 582.802 0.0795583 601.735C1279.58 451.735 1273.72 451.202 1323.58 518.235Z" fill="url(#paint2_linear_427_2335)" style=""/>
<path d="M586.58 509.737C593.312 456.467 598.123 426.461 619.58 365.737C622.699 356.909 621.08 348.737 612.58 350.737L529.58 369.737C513.58 373.237 508.292 376.237 500.58 390.737C488.08 414.237 466.58 468.737 466.58 526.737C466.58 533.737 470.08 545.737 474.58 545.737L571.58 534.237C582.58 532.737 584.82 523.662 586.58 509.737Z" fill="#969A99" style="fill:#969A99;fill:color(display-p3 0.5882 0.6039 0.6000);fill-opacity:1;"/>
<path d="M609.08 359.735L523.58 379.235C511.08 382.235 509.097 388.735 504.08 397.735C483.485 434.679 476.423 461.938 471.58 524.735C471.58 532.235 474.08 537.235 477.58 536.735L565.58 525.735C578.58 523.735 580.58 522.235 581.58 514.235C584.925 453.201 597.58 410.735 610.58 375.735C615.08 364.235 615.08 358.235 609.08 359.735Z" fill="#404040" style="fill:#404040;fill:color(display-p3 0.2526 0.2526 0.2526);fill-opacity:1;"/>
<path d="M609.08 359.735L523.58 379.235C511.08 382.235 509.097 388.735 504.08 397.735C483.485 434.679 476.423 461.938 471.58 524.735C471.58 532.235 474.08 537.235 477.58 536.735L565.58 525.735C578.58 523.735 580.58 522.235 581.58 514.235C584.925 453.201 597.58 410.735 610.58 375.735C615.08 364.235 615.08 358.235 609.08 359.735Z" fill="url(#paint3_linear_427_2335)" fill-opacity="0.2" style=""/>
<path d="M609.08 383.235L495.58 407.735L489.58 424.735L602.58 401.735L609.08 383.235Z" fill="#969A99" style="fill:#969A99;fill:color(display-p3 0.5882 0.6039 0.6000);fill-opacity:1;"/>
<path d="M439.58 531.235C445.027 488.129 452.027 446.258 469.39 397.12C471.915 389.976 470.604 383.363 463.726 384.981L396.561 400.356C383.614 403.189 379.335 405.616 373.094 417.35C361.726 436.25 339.385 498.19 340.58 545.235C340.58 550.899 343.412 560.61 347.053 560.61L427.441 551.061C436.343 549.847 438.155 542.504 439.58 531.235Z" fill="#969A99" style="fill:#969A99;fill:color(display-p3 0.5882 0.6039 0.6000);fill-opacity:1;"/>
<path d="M461.08 391.735L391.58 406.705C381.647 409.089 380.071 414.254 376.085 421.405C359.72 450.762 348.428 493.836 344.58 543.735C344.58 549.694 346.566 553.667 349.347 553.27L419.273 544.529C429.603 542.94 431.192 541.748 431.987 535.391C434.645 486.893 451.942 432.26 462.272 404.449C465.847 395.311 465.847 390.543 461.08 391.735Z" fill="#404040" style="fill:#404040;fill:color(display-p3 0.2526 0.2526 0.2526);fill-opacity:1;"/>
<path d="M461.08 391.735L391.58 406.705C381.647 409.089 380.071 414.254 376.085 421.405C359.72 450.762 348.428 493.836 344.58 543.735C344.58 549.694 346.566 553.667 349.347 553.27L419.273 544.529C429.603 542.94 431.192 541.748 431.987 535.391C434.645 486.893 451.942 432.26 462.272 404.449C465.847 395.311 465.847 390.543 461.08 391.735Z" fill="url(#paint4_linear_427_2335)" fill-opacity="0.2" style=""/>
<path d="M318.863 547.462C323.639 509.675 328.08 465.235 347.08 423.735C350.284 416.735 344.599 412.532 338.57 413.951L279.693 427.429C268.343 429.912 264.593 432.04 259.122 442.325C249.157 458.893 231.032 518.495 232.08 559.735C232.08 564.7 234.562 573.213 237.754 573.213L308.223 564.842C316.026 563.778 317.615 557.341 318.863 547.462Z" fill="#969A99" style="fill:#969A99;fill:color(display-p3 0.5882 0.6039 0.6000);fill-opacity:1;"/>
<path d="M335.391 420.71L275.279 433.658C266.688 435.72 265.325 440.188 261.877 446.373C247.722 471.765 238.908 515.575 235.58 558.735C235.58 563.889 237.298 567.326 239.703 566.982L300.184 559.422C309.119 558.048 310.494 557.017 311.181 551.518C313.48 509.57 331.08 446.373 340.58 425.735C343.672 417.831 339.515 419.679 335.391 420.71Z" fill="#404040" style="fill:#404040;fill:color(display-p3 0.2526 0.2526 0.2526);fill-opacity:1;"/>
<path d="M335.391 420.71L275.279 433.658C266.688 435.72 265.325 440.188 261.877 446.373C247.722 471.765 238.908 515.575 235.58 558.735C235.58 563.889 237.298 567.326 239.703 566.982L300.184 559.422C309.119 558.048 310.494 557.017 311.181 551.518C313.48 509.57 331.08 446.373 340.58 425.735C343.672 417.831 339.515 419.679 335.391 420.71Z" fill="url(#paint5_linear_427_2335)" fill-opacity="0.2" style=""/>
<path d="M216.582 548.735C216.582 538.735 225.08 485.735 248.083 441.735C251.08 434.791 247.587 434.425 246.034 434.791L230.862 438.264C227.938 438.903 225.896 440.912 223.582 442.735C207.083 455.735 187.083 522.235 186.582 565.235C186.405 580.235 190.08 579.235 191.082 579.235L211.582 576.735C215.58 576.735 216.582 562.735 216.582 548.735Z" fill="#969A99" style="fill:#969A99;fill:color(display-p3 0.5882 0.6039 0.6000);fill-opacity:1;"/>
<path d="M214.58 545.735C215.319 536.494 223.364 487.048 243.547 446.261C246.177 439.823 243.113 439.485 241.75 439.823L228.438 443.043C225.872 443.636 223.836 445.241 222.05 447.188C210.08 460.235 190.024 520.884 189.585 560.744C189.43 574.649 192.654 573.722 193.533 573.722L210.192 571.691C213.58 571.235 213.58 558.235 214.58 545.735Z" fill="#404040" style="fill:#404040;fill:color(display-p3 0.2526 0.2526 0.2526);fill-opacity:1;"/>
<path d="M214.58 545.735C215.319 536.494 223.364 487.048 243.547 446.261C246.177 439.823 243.113 439.485 241.75 439.823L228.438 443.043C225.872 443.636 223.836 445.241 222.05 447.188C210.08 460.235 190.024 520.884 189.585 560.744C189.43 574.649 192.654 573.722 193.533 573.722L210.192 571.691C213.58 571.235 213.58 558.235 214.58 545.735Z" fill="url(#paint6_linear_427_2335)" fill-opacity="0.2" style=""/>
<path d="M1526.58 1079.73L1513.58 1081.73L1543.58 1086.73L1534.58 1080.73L1526.58 1079.73Z" fill="#717B7D" style="fill:#717B7D;fill:color(display-p3 0.4431 0.4824 0.4902);fill-opacity:1;"/>
<path d="M1569.58 1098.73V1180.73C958.948 1084.67 617.375 1023.46 8.57959 910.235L5.57959 813.735C522.104 851.923 819.225 876.862 1350.58 919.735L1353.58 1055.73C1353.58 1058.73 1354.08 1061.73 1358.58 1061.73L1380.58 1063.73L1380.54 1064.2C1380.06 1070.45 1379.73 1074.76 1385.58 1075.73L1507.58 1093.73C1512.31 1094.43 1513.58 1094.23 1513.58 1092.73V1081.73L1538.58 1085.73C1543.58 1086.23 1543.58 1084.73 1543.58 1081.73L1539.58 936.735L1592.08 940.735L1596.58 1096.73L1569.58 1098.73Z" fill="#151E25" style="fill:#151E25;fill:color(display-p3 0.0824 0.1176 0.1451);fill-opacity:1;"/>
<path d="M1243.58 491.735C1277.89 490.822 1295.37 498.168 1324.58 520.235C1307.08 477.735 1265.58 452.235 1236.58 455.735L0.0795898 601.735L0.57959 617.735L1243.58 491.735Z" fill="#3F77B3" style="fill:#3F77B3;fill:color(display-p3 0.2471 0.4667 0.7020);fill-opacity:1;"/>
<path d="M1539.58 936.735L1592.08 940.735L1592.58 937.735C1533.66 866.05 1427.09 688.034 1326.13 521.866C1322.45 515.819 1317.86 510.317 1311.95 506.429C1291.52 492.999 1269.85 489.108 1243.58 491.735L0.57959 617.735L5.57959 813.735L1350.58 919.735L1353.58 1055.73C1353.58 1058.73 1354.08 1061.73 1358.58 1061.73L1380.58 1063.73L1380.54 1064.2C1380.06 1070.45 1379.73 1074.76 1385.58 1075.73L1507.58 1093.73C1512.31 1094.43 1513.58 1094.23 1513.58 1092.73V1081.73L1538.58 1085.73C1543.58 1086.23 1543.58 1084.73 1543.58 1081.73L1539.58 936.735Z" fill="#676B6A" style="fill:#676B6A;fill:color(display-p3 0.4039 0.4196 0.4157);fill-opacity:1;"/>
<path d="M975.58 571.116C975.58 568.235 976.671 543.41 995.223 541.102L1093.44 533.021C1107.08 531.867 1114.58 543.735 1115.27 559.572L1118.54 671.547C1118.54 674.735 1114.17 700.407 1101.62 700.407L998.497 702.716C979.945 703.293 978.853 675.735 978.853 672.702L975.58 571.116Z" fill="#949899" style="fill:#949899;fill:color(display-p3 0.5804 0.5961 0.6000);fill-opacity:1;"/>
<path d="M981.58 576.735C981.58 560.735 982.58 552.735 999.58 550.735L1089.58 543.735C1102.08 542.735 1109.08 543.735 1109.58 566.735L1112.58 663.735C1113.08 683.735 1108.58 688.735 1097.08 688.735L1002.58 690.735C985.58 691.235 985.08 680.235 984.58 664.735L981.58 576.735Z" fill="#242E30" style="fill:#242E30;fill:color(display-p3 0.1412 0.1804 0.1882);fill-opacity:1;"/>
<path d="M1488.58 905.735C1460.23 903.202 1439.57 902.402 1404.58 900.735L1399.58 904.235V980.735L1400.58 987.735L1403.08 997.235C1403.79 1001.07 1404.75 1002.37 1408.08 1002.23L1498.58 1009.23C1500.27 1010.12 1500.81 1009.45 1501.58 1007.73L1499.58 931.235C1498.58 910.235 1497.58 906.539 1488.58 905.735Z" fill="#5A5954" style="fill:#5A5954;fill:color(display-p3 0.3529 0.3490 0.3294);fill-opacity:1;"/>
<path d="M578.58 782.735L485.08 778.735C479.08 778.735 475.58 785.735 475.58 788.735L480.08 961.735C480.08 970.735 482.58 977.735 493.58 979.735L584.58 993.735C596.58 995.735 600.58 995.235 600.08 973.235L594.08 808.235C594.08 786.235 588.08 782.735 578.58 782.735Z" fill="#969A99" style="fill:#969A99;fill:color(display-p3 0.5882 0.6039 0.6000);fill-opacity:1;"/>
<path d="M582.58 789.735L486.58 785.735C480.58 785.735 478.58 789.735 478.58 795.735L482.08 956.235C482.08 965.235 483.08 974.235 494.08 976.235L583.08 990.235C596.08 992.235 596.08 987.235 596.08 981.235L591.58 816.735C591.08 805.735 591.58 790.235 582.58 789.735Z" fill="#404040" style="fill:#404040;fill:color(display-p3 0.2526 0.2526 0.2526);fill-opacity:1;"/>
<path d="M431.937 776.011L355.36 772.735C350.446 772.735 347.58 778.468 347.58 780.925L354.023 943.493C354.023 950.864 356.071 956.597 365.08 958.235L439.609 969.701C449.437 971.339 452.713 970.929 452.304 952.911L447.08 797.235C447.08 778.735 439.718 776.011 431.937 776.011Z" fill="#969A99" style="fill:#969A99;fill:color(display-p3 0.5882 0.6039 0.6000);fill-opacity:1;"/>
<path d="M435.19 782.989L357.088 779.735C352.207 779.735 350.58 782.989 350.58 787.87L355.91 938.074C355.91 945.396 356.724 952.718 365.673 954.345L438.08 965.735C448.656 967.362 448.656 963.294 448.656 958.413L442.512 804.955C442.105 796.006 442.512 783.396 435.19 782.989Z" fill="#404040" style="fill:#404040;fill:color(display-p3 0.2526 0.2526 0.2526);fill-opacity:1;"/>
<path d="M311.58 772.235L248.041 770.735C243.96 770.735 241.58 775.496 241.58 777.537L246.58 927.235C246.58 933.356 248.28 938.118 255.762 939.478L317.658 949C325.82 950.361 328.541 950.021 328.2 935.057L324.213 791.082C324.213 775.718 318.041 772.235 311.58 772.235Z" fill="#969A99" style="fill:#969A99;fill:color(display-p3 0.5882 0.6039 0.6000);fill-opacity:1;"/>
<path d="M313.08 778.235L249.58 775.735C245.548 775.735 244.58 780.422 244.58 784.454L247.982 922.437C247.982 928.484 248.654 934.532 256.045 935.875L317.08 945.235C325.814 946.579 325.814 943.219 325.814 939.188L320.505 798.564C320.169 791.173 319.127 778.571 313.08 778.235Z" fill="#404040" style="fill:#404040;fill:color(display-p3 0.2526 0.2526 0.2526);fill-opacity:1;"/>
<path d="M320.93 809.735L245.08 805.235V809.235L321.08 813.735L320.93 809.735Z" fill="#969A99" style="fill:#969A99;fill:color(display-p3 0.5882 0.6039 0.6000);fill-opacity:1;"/>
<path d="M210.785 768.068L154.322 766.735C150.695 766.735 148.58 770.966 148.58 772.779L152.548 912.784C152.548 918.224 154.059 922.455 160.707 923.664L215.08 933.235C222.333 934.444 225.382 933.032 225.08 919.735L222.011 784.816C222.011 771.163 216.527 768.068 210.785 768.068Z" fill="#969A99" style="fill:#969A99;fill:color(display-p3 0.5882 0.6039 0.6000);fill-opacity:1;"/>
<path d="M211.449 773.92L155.95 771.735C152.426 771.735 151.58 775.832 151.58 779.355L155.033 908.99C155.033 914.275 155.62 919.56 162.08 920.735L213.58 928.235C221.214 929.409 221.214 926.473 221.214 922.95L217.939 791.688C217.646 785.228 216.735 774.214 211.449 773.92Z" fill="#404040" style="fill:#404040;fill:color(display-p3 0.2526 0.2526 0.2526);fill-opacity:1;"/>
<path d="M1392.08 370.235C1372.08 373.235 1368.08 382.235 1370.58 446.735L1387.08 992.735C1387.08 998.235 1388.58 1006.73 1397.58 1007.73L1486.08 1017.23C1500.58 1018.73 1504.08 1014.73 1504.08 999.235L1489.58 431.735C1489.38 406.733 1489.58 388.235 1490.58 372.735C1490.58 362.735 1489.58 355.735 1475.58 357.735L1392.08 370.235Z" stroke="#252E37" style="stroke:#252E37;stroke:color(display-p3 0.1451 0.1804 0.2157);stroke-opacity:1;"/>
<path d="M1526.58 1079.73L1513.58 1081.73L1500.58 534.735L1520.58 536.735L1526.58 1036.73V1079.73Z" fill="#4B4F52" style="fill:#4B4F52;fill:color(display-p3 0.2941 0.3098 0.3216);fill-opacity:1;"/>
<path d="M1528.58 532.735L1520.58 536.735L1526.08 1006.73L1534.58 1080.73L1543.58 1086.73L1528.58 532.735Z" fill="#797778" style="fill:#797778;fill:color(display-p3 0.4745 0.4667 0.4706);fill-opacity:1;"/>
<path d="M1520.58 536.735L1500.58 534.735L1528.58 532.735L1520.58 536.735Z" fill="#5B5A58" style="fill:#5B5A58;fill:color(display-p3 0.3569 0.3529 0.3451);fill-opacity:1;"/>
<path d="M1362.08 549.735L1343.58 546.235L1353.58 1060.23L1369.58 1053.23L1362.08 549.735Z" fill="#798384" style="fill:#798384;fill:color(display-p3 0.4745 0.5137 0.5176);fill-opacity:1;"/>
<path d="M1366.58 544.735L1362.08 549.735L1369.58 1053.23L1376.58 1059.23L1366.58 544.735Z" fill="#5D5F5E" style="fill:#5D5F5E;fill:color(display-p3 0.3647 0.3725 0.3686);fill-opacity:1;"/>
<path d="M1353.58 1060.23L1368.58 1053.23L1376.58 1059.23L1353.58 1060.23Z" fill="#A1AAAF" style="fill:#A1AAAF;fill:color(display-p3 0.6314 0.6667 0.6863);fill-opacity:1;"/>
<path d="M1371.58 1058.73L1372.58 1015.73L1361.08 985.735L1352.58 591.235L1366.58 569.235" stroke="url(#paint7_linear_427_2335)" style="" stroke-width="8"/>
<path d="M1362.58 584.735L1362.08 551.235V550.735L1366.58 545.735L1367.58 597.735L1362.58 584.735Z" fill="#5D5F5E" style="fill:#5D5F5E;fill:color(display-p3 0.3647 0.3725 0.3686);fill-opacity:1;"/>
<path d="M1362.08 549.735L1343.58 546.235L1366.58 544.735L1362.08 549.735Z" fill="#6E6D6B" style="fill:#6E6D6B;fill:color(display-p3 0.4314 0.4275 0.4196);fill-opacity:1;"/>
<path d="M1534.58 1080.73L1526.58 1079.73L1525.65 1035.06C1525.6 1032.86 1525.19 1030.68 1524.44 1028.61L1517.5 1009.62C1516.56 1007.05 1516.05 1004.34 1515.99 1001.6L1506.69 587.122C1506.62 583.911 1507.32 580.73 1508.74 577.848L1528.58 537.494V557.235L1517.08 585.973C1516.09 588.456 1515.61 591.112 1515.66 593.786L1523.49 1000.5C1523.55 1003.63 1524.2 1006.72 1525.39 1009.61L1533.05 1028.05C1534.06 1030.48 1534.58 1033.09 1534.58 1035.72V1080.73Z" fill="url(#paint8_linear_427_2335)" stroke="url(#paint9_linear_427_2335)" style=""/>
<path d="M1375.58 1059.73V1008.73H1379.58V1059.73H1375.58Z" fill="#676B6A" style="fill:#676B6A;fill:color(display-p3 0.4039 0.4196 0.4157);fill-opacity:1;"/>
<path d="M1592.08 1097.23C1598.08 1098.16 1597.08 1094.23 1596.58 1083.73L1598.58 1098.23L1592.08 1097.23Z" fill="#151E25" stroke="#384148" style="fill:#151E25;fill:color(display-p3 0.0824 0.1176 0.1451);fill-opacity:1;stroke:#384148;stroke:color(display-p3 0.2196 0.2549 0.2824);stroke-opacity:1;"/>
<path d="M1644.58 1191.73V1192.14L1644.98 1192.22C1817.73 1227.26 1913.88 1240.59 2083.54 1254.73L2083.7 1253.75C1955.26 1221.55 1869.65 1183.2 1797.63 1132.54C1725.6 1081.88 1667.13 1018.9 1592.95 937.398L1592.04 936.397L1592.08 937.75L1596.97 1095.25C1597.04 1097.51 1598.77 1099.36 1601.01 1099.59L1636.95 1103.3C1641.29 1103.74 1644.58 1107.39 1644.58 1111.75V1191.73Z" fill="#151E25" stroke="#384148" style="fill:#151E25;fill:color(display-p3 0.0824 0.1176 0.1451);fill-opacity:1;stroke:#384148;stroke:color(display-p3 0.2196 0.2549 0.2824);stroke-opacity:1;"/>
<path d="M9.07959 926.735L8.57959 910.235C621.898 1017.44 977.641 1081.16 1569.58 1180.73C1594.58 1183.73 1620.46 1187.6 1646.58 1191.98L1650.58 1235.73L1010.58 1117.73C948.58 1098.73 952.08 1131.23 946.58 1178.73C619.457 1113.86 435.802 1065.92 110.357 991.288C105.913 990.269 101.631 988.449 97.5039 986.51C89.921 982.947 82.1371 980.94 70.5796 977.735C70.5796 932.735 79.5796 937.735 9.07959 926.735Z" fill="#575B5C" style="fill:#575B5C;fill:color(display-p3 0.3412 0.3569 0.3608);fill-opacity:1;"/>
<path d="M9.07959 926.735L8.57959 910.235C621.898 1017.44 977.641 1081.16 1569.58 1180.73C1594.58 1183.73 1620.46 1187.6 1646.58 1191.98L1650.58 1235.73L1010.58 1117.73C948.58 1098.73 952.08 1131.23 946.58 1178.73C619.457 1113.86 435.802 1065.92 110.357 991.288C105.913 990.269 101.631 988.449 97.5039 986.51C89.921 982.947 82.1371 980.94 70.5796 977.735C70.5796 932.735 79.5796 937.735 9.07959 926.735Z" fill="url(#paint10_linear_427_2335)" style=""/>
<g clip-path="url(#clip0_427_2335)">
<path d="M425.354 601.779L393.26 603.015C386.5 603.276 381.593 618.938 382.299 638L385.712 730.132C386.418 749.195 392.469 764.435 399.23 764.174L431.323 762.938C438.084 762.678 442.991 747.016 442.285 727.953L438.872 635.821C438.166 616.759 432.114 601.519 425.354 601.779Z" fill="#3F77B3" style="fill:#3F77B3;fill:color(display-p3 0.2471 0.4667 0.7020);fill-opacity:1;"/>
<path d="M408.574 652.131C411.105 655.191 414.066 650.613 415.168 641.901C416.271 633.189 415.107 623.632 412.576 620.572C410.044 617.497 407.084 622.075 405.982 630.801C404.879 639.513 406.042 649.056 408.574 652.131Z" fill="#8795A0" style="fill:#8795A0;fill:color(display-p3 0.5294 0.5843 0.6275);fill-opacity:1;"/>
<path d="M395.977 689.978C400.502 682.828 404.589 677.847 410.023 677.237C415.056 676.669 419.115 670.398 423.26 663.852C424.717 661.528 425.94 657.462 426.867 653.608C427.05 652.797 428.313 646.476 426.923 648.683C422.398 655.833 418.336 660.783 412.902 661.394C407.869 661.962 403.786 668.262 399.64 674.809C398.184 677.133 396.96 681.199 396.034 685.053C395.85 685.863 394.588 692.184 395.977 689.978Z" fill="#8795A0" style="fill:#8795A0;fill:color(display-p3 0.5294 0.5843 0.6275);fill-opacity:1;"/>
<path d="M425.317 713.191C422.808 704.403 420.525 695.405 416.935 689.745C412.721 683.032 408.84 696.142 406.505 703.466C402.85 715.004 400.407 730.283 397.641 743.681C396.986 746.893 397.469 747.965 398.494 745.83C399.89 742.963 401.107 738.997 401.959 734.803C402.935 730.071 403.91 725.355 404.886 720.637C405.8 716.182 406.672 708.656 408.151 705.441C413.599 693.519 421.423 736.837 425.089 743.184C427.346 747.087 431.038 746.026 433.452 745.933L434.682 745.886L427.488 721.36C426.686 718.535 425.972 715.491 425.317 713.191Z" fill="#8795A0" style="fill:#8795A0;fill:color(display-p3 0.5294 0.5843 0.6275);fill-opacity:1;"/>
</g>
<path d="M692.58 1121.73L679.58 525.735L892.58 500.735L913.58 1171.73L692.58 1121.73Z" fill="#939B9D" style="fill:#939B9D;fill:color(display-p3 0.5765 0.6078 0.6157);fill-opacity:1;"/>
<path d="M755.58 1135.99L736.58 514.735L823.58 504.735L840.58 1155.23L755.58 1135.99Z" fill="#3F77B3" style="fill:#3F77B3;fill:color(display-p3 0.2471 0.4667 0.7020);fill-opacity:1;"/>
<path d="M706.58 655.735C706.58 634.235 716.08 623.235 727.58 622.735L741.58 622.235C760.58 621.235 763.58 644.235 764.58 659.735L769.58 851.735C769.58 867.235 762.58 879.735 752.58 879.735L733.58 878.735C713.58 878.235 711.08 845.735 710.58 816.735L706.58 655.735Z" fill="#404040" style="fill:#404040;fill:color(display-p3 0.2526 0.2526 0.2526);fill-opacity:1;"/>
<path d="M804.58 650.281C804.58 623.235 814.984 615.829 827.58 615.298L842.913 614.768C863.722 613.708 867.08 638.735 868.103 654.521L873.58 858.053C873.58 874.484 866.58 887.735 854.961 887.735L834.151 886.675C812.246 886.145 809.08 857.235 808.08 820.735L804.58 650.281Z" fill="#404040" style="fill:#404040;fill:color(display-p3 0.2526 0.2526 0.2526);fill-opacity:1;"/>
<path d="M664.58 551.735C664.58 538.235 674.58 523.235 679.58 522.735L892.58 497.735C900.08 497.235 910.58 513.235 911.58 526.735L930.58 1175.73L911.58 1171.28L892.58 500.735L679.58 525.735L692.58 1125.73L679.58 1122.73L664.58 551.735Z" fill="#1B252E" style="fill:#1B252E;fill:color(display-p3 0.1059 0.1451 0.1804);fill-opacity:1;"/>
<path d="M736.58 514.735C736.092 482.713 736.516 464.493 740.58 430.735L829.58 416.235C824.169 448.715 821.745 467.338 823.58 504.735L736.58 514.735Z" fill="#3F77B3" style="fill:#3F77B3;fill:color(display-p3 0.2471 0.4667 0.7020);fill-opacity:1;"/>
<path d="M1645.16 1111.35L1646.07 1191.46L1570.08 1180.3V1098.12C1570.08 1095.98 1571.97 1094.35 1574.08 1094.65L1638.73 1104.01C1642.39 1104.54 1645.12 1107.65 1645.16 1111.35Z" fill="#151E25" stroke="#384148" style="fill:#151E25;fill:color(display-p3 0.0824 0.1176 0.1451);fill-opacity:1;stroke:#384148;stroke:color(display-p3 0.2196 0.2549 0.2824);stroke-opacity:1;"/>
<path d="M1646.58 1192.04C1863.58 1231.04 2029.08 1256.24 2243.58 1263.24C2021.64 1280.35 1892.3 1276.72 1646.58 1229.74V1192.04Z" fill="#525858" style="fill:#525858;fill:color(display-p3 0.3216 0.3451 0.3451);fill-opacity:1;"/>
<path d="M2080.08 1410.23C2147.27 1401.78 1970.96 1365.62 1714.58 1335.73C1765.11 1386.59 1799.94 1408.8 1863.58 1447.73C2073.86 1484.27 2229.08 1503.23 2376.58 1495.73C2412.21 1479.85 2411.63 1467.53 2402.58 1444.23L1992.58 1422.23C2019.08 1410.23 2094.2 1414.03 2080.08 1410.23Z" fill="url(#paint11_linear_427_2335)" style=""/>
<path d="M2080.08 1410.23C2147.27 1401.78 1970.96 1365.62 1714.58 1335.73C1765.11 1386.59 1799.94 1408.8 1863.58 1447.73C2073.86 1484.27 2229.08 1503.23 2376.58 1495.73C2412.21 1479.85 2411.63 1467.53 2402.58 1444.23L1992.58 1422.23C2019.08 1410.23 2094.2 1414.03 2080.08 1410.23Z" fill="url(#paint12_linear_427_2335)" style=""/>
<path d="M2080.08 1410.23C2147.27 1401.78 1970.96 1365.62 1714.58 1335.73C1765.11 1386.59 1799.94 1408.8 1863.58 1447.73C2073.86 1484.27 2229.08 1503.23 2376.58 1495.73C2412.21 1479.85 2411.63 1467.53 2402.58 1444.23L1992.58 1422.23C2019.08 1410.23 2094.2 1414.03 2080.08 1410.23Z" fill="url(#paint13_linear_427_2335)" fill-opacity="0.5" style=""/>
<path d="M1994.58 1423.73C2199.08 1428.33 2383.97 1444.5 2369.58 1406.73C2395.34 1348.32 2397.97 1313.14 2397.08 1249.23C2156.58 1274.23 1971.63 1284.96 1646.58 1229.73C1669.04 1276.35 1683.41 1300.23 1714.58 1335.73C1812.42 1350.76 1875.79 1363.28 1990.08 1386.23C2026.58 1393.57 2045.02 1393.84 2072.58 1404.73C2079.58 1407.5 2081.58 1411.8 2072.58 1411.73C2042.91 1411.51 2021.43 1411.73 1995.58 1419.73C1990.2 1421.4 1987.58 1425.23 1994.58 1423.73Z" fill="url(#paint14_linear_427_2335)" style=""/>
<path d="M2402.58 1444.23C2354.31 1467.87 2030.58 1443.23 1990.58 1423.73C2124.86 1420.07 2198.07 1418.88 2316.58 1421.73C2347.08 1422.47 2361.03 1424.01 2369.58 1406.73C2387.67 1422.03 2405.82 1431.61 2402.58 1444.23Z" fill="url(#paint15_radial_427_2335)" style=""/>
<path d="M2736.58 1361.73C2741.61 1353.55 2739.58 1351.23 2733.08 1346.73L2402.58 1444.23C2403.58 1463.73 2394.72 1475.49 2376.58 1495.73C2670.08 1466.23 2700.58 1420.23 2736.58 1361.73Z" fill="url(#paint16_linear_427_2335)" style=""/>
<path d="M2736.58 1361.73C2741.61 1353.55 2739.58 1351.23 2733.08 1346.73L2402.58 1444.23C2403.58 1463.73 2394.72 1475.49 2376.58 1495.73C2670.08 1466.23 2700.58 1420.23 2736.58 1361.73Z" fill="url(#paint17_linear_427_2335)" style=""/>
<path d="M2715.57 1331.8C2713.87 1329.73 2714.34 1327.87 2715.57 1321.73L2369.57 1406.73C2366.57 1433.23 2402.58 1436.23 2402.59 1444.23C2420.58 1441.23 2428.08 1443.73 2442.08 1447.23C2542.58 1472.36 2530.58 1469.73 2608.57 1450.73C2663.13 1437.45 2699.78 1399.92 2736.64 1353.19C2737.7 1351.85 2737.43 1349.91 2736.05 1348.9C2724.08 1340.19 2719.13 1336.11 2715.57 1331.8Z" fill="#A2A8A8" style="fill:#A2A8A8;fill:color(display-p3 0.6353 0.6588 0.6588);fill-opacity:1;"/>
<path d="M2593.58 990.735C2635.28 983.652 2657.29 977.995 2695.58 966.735C2766.79 1047.22 2780.91 1250.47 2715.64 1322.1C2712.42 1325.63 2709.53 1329.46 2707.48 1333.78C2678.51 1394.76 2662.55 1423.38 2604.58 1441.73C2544.08 1458.23 2504.08 1454.32 2450.58 1429.73C2403.18 1407.95 2390.13 1406.72 2369.58 1406.73C2382.43 1371.21 2397.95 1280.73 2397.08 1249.23C2394.16 1143.94 2398.86 1087.78 2425.08 995.735L2593.58 990.735Z" fill="#525355" style="fill:#525355;fill:color(display-p3 0.3216 0.3255 0.3333);fill-opacity:1;"/>
<g filter="url(#filter0_f_427_2335)">
<path d="M2344.58 1426.73C2356.08 1425.34 2366.56 1418.44 2369.58 1406.73C2387.67 1422.03 2409.32 1431.11 2406.08 1443.73C2361.58 1454.23 2306.12 1454.55 2231.58 1451.23C2271.16 1437.53 2296.38 1432.6 2344.58 1426.73Z" fill="#909694" style="fill:#909694;fill:color(display-p3 0.5647 0.5882 0.5804);fill-opacity:1;"/>
<path d="M2344.58 1426.73C2356.08 1425.34 2366.56 1418.44 2369.58 1406.73C2387.67 1422.03 2409.32 1431.11 2406.08 1443.73C2361.58 1454.23 2306.12 1454.55 2231.58 1451.23C2271.16 1437.53 2296.38 1432.6 2344.58 1426.73Z" fill="url(#paint18_linear_427_2335)" style=""/>
</g>
<path d="M2707.08 730.735C2574.83 436.669 2497.16 301.14 2343.58 184.235C2470.58 251.735 2643.58 466.235 2714.58 712.735C2715.63 722.178 2713.77 725.99 2707.08 730.735Z" fill="#78BCF9" style="fill:#78BCF9;fill:color(display-p3 0.4706 0.7373 0.9765);fill-opacity:1;"/>
<path d="M1737.58 22.7347C1724.11 26.9005 1705.58 36.2347 1685.08 51.2347C1907.58 68.7349 2305.08 779.235 2350.08 774.235C2481.58 983.735 2762.08 998.735 2717.58 767.735C2716.11 752.81 2713.44 744.706 2707.08 730.735C2667.58 573.235 2557.08 330.735 2343.58 184.234C2167.08 120.735 2015.58 -63.2651 1737.58 22.7347Z" fill="#525A60" style="fill:#525A60;fill:color(display-p3 0.3216 0.3529 0.3765);fill-opacity:1;"/>
<path d="M2257.08 644.735L1936.58 157.235C2108.85 184.35 2204.4 199.116 2356.58 217.735C2477.09 393.738 2552.58 500.735 2619.58 646.735L2257.08 644.735Z" fill="#53687B" style="fill:#53687B;fill:color(display-p3 0.3255 0.4078 0.4824);fill-opacity:1;"/>
<path d="M2337.58 762.735L2257.08 645.735H2618.58L2618.58 645.735C2657.53 678.616 2679.36 697.05 2707.08 730.735L2716.58 761.735C2716.58 770.235 2702.58 772.439 2675.58 777.235C2599.58 790.735 2403.08 792.235 2349.58 773.735L2337.58 762.735Z" fill="#697B89" style="fill:#697B89;fill:color(display-p3 0.4118 0.4824 0.5373);fill-opacity:1;"/>
<path d="M2011.08 246.235L1936.58 157.235C2101.86 183.555 2193.93 197.037 2356.58 217.735L2405.58 289.235C2312.58 281.735 2111.08 259.735 2011.08 246.235Z" fill="#435464" style="fill:#435464;fill:color(display-p3 0.2627 0.3294 0.3922);fill-opacity:1;"/>
<path d="M2044.58 239.235C2032.74 218.858 2025.15 206.962 2011.58 185.735C2121.6 200.956 2182.86 209.172 2291.08 223.235C2303.9 243.886 2310.09 253.756 2324.08 272.735C2214.69 260.268 2154.75 253.984 2044.58 239.235Z" fill="#61737F" style="fill:#61737F;fill:color(display-p3 0.3804 0.4510 0.4980);fill-opacity:1;"/>
<path d="M1874.58 105.735C2062.46 130.469 2161.57 145.471 2324.58 174.735" stroke="#2E353D" style="stroke:#2E353D;stroke:color(display-p3 0.1804 0.2078 0.2392);stroke-opacity:1;"/>
<path d="M2731.08 952.735L2695.58 966.735C2744.9 1035.64 2749.68 1085.24 2755.58 1174.73H2757.58C2756.19 1090.28 2746.96 1043.13 2731.08 952.735Z" fill="#E3E5E4" style="fill:#E3E5E4;fill:color(display-p3 0.8902 0.8980 0.8941);fill-opacity:1;"/>
<path d="M2731.08 952.735L2695.58 966.735C2703.18 977.625 2707.21 983.672 2713.53 994.235C2721.58 994.235 2738.08 990.735 2735.14 975.735L2731.08 952.735Z" fill="#909BA1" style="fill:#909BA1;fill:color(display-p3 0.5647 0.6078 0.6314);fill-opacity:1;"/>
<path d="M2776.58 920.735C2750.58 962.735 2577.58 1012.23 2425.08 995.735C2416.08 983.735 2447.58 980.235 2464.08 971.235C2590.73 972.755 2663.04 979.638 2776.58 920.735Z" fill="#85837E" style="fill:#85837E;fill:color(display-p3 0.5216 0.5137 0.4941);fill-opacity:1;"/>
<path d="M2740.58 900.235L2731.58 818.735C2747.44 836.679 2753.99 849.41 2765.58 872.235L2769.08 884.235L2766.58 898.235L2750.58 907.735L2740.58 900.235Z" fill="#AEC5CB" style="fill:#AEC5CB;fill:color(display-p3 0.6824 0.7725 0.7961);fill-opacity:1;"/>
<path d="M2740.58 900.235L2731.58 818.735C2747.44 836.679 2753.99 849.41 2765.58 872.235L2769.08 884.235L2766.58 898.235L2750.58 907.735L2740.58 900.235Z" fill="url(#paint19_linear_427_2335)" style=""/>
<path d="M2714.58 712.735C2738.14 780.688 2749.72 818.824 2775.58 885.735L2765.08 872.735C2743.25 833.5 2739.91 829.973 2731.58 818.735L2730.08 804.235C2722.48 776.559 2719.24 760.856 2708.58 733.735C2707.9 732.475 2707.58 731.735 2708.08 730.735C2714 724.148 2715 720.152 2714.58 712.735Z" fill="#778882" style="fill:#778882;fill:color(display-p3 0.4667 0.5333 0.5098);fill-opacity:1;"/>
<path d="M2747.58 925.735C2737.75 929.955 2737.48 924.722 2736.08 916.735L2717.58 758.735L2730.08 804.235C2733.09 832.699 2737.98 866 2741.08 890.735C2742.64 903.235 2747.58 908.137 2754.58 904.735C2769.48 897.493 2766.82 888.074 2765.08 872.735C2769.19 873.434 2771.49 874.789 2775.58 885.735C2778.58 905.632 2775.06 915.19 2747.58 925.735Z" fill="#22272D" style="fill:#22272D;fill:color(display-p3 0.1333 0.1529 0.1765);fill-opacity:1;"/>
<path d="M2719.58 768.735L2731.58 946.735C2748.08 940.235 2758.58 936.235 2768.58 929.735C2781.66 921.235 2783.58 901.235 2775.58 885.735C2779.08 905.235 2766.58 916.735 2749.58 924.735C2738.95 929.735 2736.96 924.735 2736.58 917.735C2733.36 859.057 2728.13 826.649 2719.58 768.735Z" fill="#F4F8F7" style="fill:#F4F8F7;fill:color(display-p3 0.9569 0.9725 0.9686);fill-opacity:1;"/>
<path d="M2575.58 927.735C2512.08 917.735 2461.58 881.235 2337.58 762.235L2459.58 971.735C2551.58 983.735 2662.58 974.735 2731.58 946.735C2731.58 911.83 2730.58 849.235 2719.08 765.235C2717.58 755.462 2714.42 745.13 2712.58 734.735C2708.58 729.235 2708.62 730.527 2707.08 730.735C2710.8 741.683 2714.4 750.821 2716.58 761.735C2731.58 842.735 2688.08 899.88 2642.58 920.235C2623.58 928.735 2598.58 931.357 2575.58 927.735Z" fill="#F4F8F7" style="fill:#F4F8F7;fill:color(display-p3 0.9569 0.9725 0.9686);fill-opacity:1;"/>
<path d="M1959.08 674.235C2095.95 682.924 2174.28 702.276 2314.58 742.235C2372.81 822.914 2406.68 867.142 2454.08 956.735C2222.93 916.813 2069.58 828.735 1952.58 683.735C1951.61 679.022 1953.19 676.988 1959.08 674.235Z" fill="#121A21" style="fill:#121A21;fill:color(display-p3 0.0706 0.1020 0.1294);fill-opacity:1;"/>
<g clip-path="url(#paint20_diamond_427_2335_clip_path)" data-figma-skip-parse="true"><g transform="matrix(0 0.119677 -0.213838 0 2207.77 815.27)"><rect x="0" y="0" width="1008.36" height="1004.68" fill="url(#paint20_diamond_427_2335)" opacity="1" shape-rendering="crispEdges"/><rect x="0" y="0" width="1008.36" height="1004.68" transform="scale(1 -1)" fill="url(#paint20_diamond_427_2335)" opacity="1" shape-rendering="crispEdges"/><rect x="0" y="0" width="1008.36" height="1004.68" transform="scale(-1 1)" fill="url(#paint20_diamond_427_2335)" opacity="1" shape-rendering="crispEdges"/><rect x="0" y="0" width="1008.36" height="1004.68" transform="scale(-1)" fill="url(#paint20_diamond_427_2335)" opacity="1" shape-rendering="crispEdges"/></g></g><path d="M2319.08 773.735C2311.35 762.735 2305.58 759.622 2282.58 754.235C2171.58 728.235 2088.08 706.235 2002.58 695.735C1993.58 694.63 1991.64 700.181 1996.58 705.735C2117.58 841.735 2336.08 923.235 2412.58 934.735C2422.08 936.163 2424.08 930.235 2418.58 921.735C2381.85 863.688 2359.55 831.343 2319.08 773.735Z" data-figma-gradient-fill="{&#34;type&#34;:&#34;GRADIENT_DIAMOND&#34;,&#34;stops&#34;:[{&#34;color&#34;:{&#34;r&#34;:0.92156863212585449,&#34;g&#34;:0.96862745285034180,&#34;b&#34;:0.96862745285034180,&#34;a&#34;:1.0},&#34;position&#34;:0.0},{&#34;color&#34;:{&#34;r&#34;:0.43529412150382996,&#34;g&#34;:0.50588238239288330,&#34;b&#34;:0.51372551918029785,&#34;a&#34;:1.0},&#34;position&#34;:1.0}],&#34;stopsVar&#34;:[{&#34;color&#34;:{&#34;r&#34;:0.92156863212585449,&#34;g&#34;:0.96862745285034180,&#34;b&#34;:0.96862745285034180,&#34;a&#34;:1.0},&#34;position&#34;:0.0},{&#34;color&#34;:{&#34;r&#34;:0.43529412150382996,&#34;g&#34;:0.50588238239288330,&#34;b&#34;:0.51372551918029785,&#34;a&#34;:1.0},&#34;position&#34;:1.0}],&#34;transform&#34;:{&#34;m00&#34;:2.6187626150702900e-14,&#34;m01&#34;:-427.67636108398438,&#34;m02&#34;:2421.604980468750,&#34;m10&#34;:239.35417175292969,&#34;m11&#34;:1.4656216168538842e-14,&#34;m12&#34;:695.593261718750},&#34;opacity&#34;:1.0,&#34;blendMode&#34;:&#34;NORMAL&#34;,&#34;visible&#34;:true}" style=""/>
<path d="M2427.08 987.235C2427.58 984.735 2456.08 979.735 2464.08 971.235C2226.94 925.996 2108.35 851.833 1911.08 671.235C1893.64 666.431 1884.18 664.225 1873.58 669.735C2002.58 862.735 2163.39 984.145 2424.58 998.735C2425.58 994.735 2424.58 989.735 2427.08 987.235Z" fill="url(#paint21_linear_427_2335)" style=""/>
<path d="M2459.58 971.735C2465.12 972.646 2466.38 970.735 2461.58 962.235C2413.2 876.658 2373.08 815.235 2325.58 744.235L2314.58 742.235C2371.48 823.848 2402.1 869.248 2449.58 948.235C2452.28 952.735 2449.6 955.006 2447.58 954.735C2283.08 932.735 2071.08 830.735 1953.58 683.735C1952.39 682.249 1956.58 674.735 1960.08 674.235C1949.77 664.348 1907.14 662.189 1910.08 670.735C1917.12 691.232 1986.08 755.461 2019.58 779.735C2172.08 890.235 2277.08 941.735 2459.58 971.735Z" fill="url(#paint22_linear_427_2335)" style=""/>
<path d="M1873.58 669.735C1761.29 668.187 1698.17 669.367 1585.58 671.735L1592.58 937.735C1715.58 1107.23 1856.58 1208.73 2023.58 1247.23C2098.08 1256.73 2119.58 1257.73 2216.58 1263.74C2240.58 1265.22 2327.78 1256.72 2397.08 1249.24C2398.13 1140.77 2405.44 1087.33 2424.58 998.735C2159.58 962.735 1983.08 824.235 1873.58 669.735Z" fill="#D7DFE2" style="fill:#D7DFE2;fill:color(display-p3 0.8431 0.8745 0.8863);fill-opacity:1;"/>
<path d="M1873.58 669.735C1761.29 668.187 1698.17 669.367 1585.58 671.735L1592.58 937.735C1715.58 1107.23 1856.58 1208.73 2023.58 1247.23C2098.08 1256.73 2119.58 1257.73 2216.58 1263.74C2240.58 1265.22 2327.78 1256.72 2397.08 1249.24C2398.13 1140.77 2405.44 1087.33 2424.58 998.735C2159.58 962.735 1983.08 824.235 1873.58 669.735Z" fill="url(#paint23_linear_427_2335)" style=""/>
<path d="M1820.58 187.735C1795.08 150.735 1701.82 98.9778 1618.08 119.235C1590.08 154.735 1585.92 186.078 1570.58 228.735L1606.08 223.735C1588.58 281.235 1582.01 299.212 1580.08 382.235C1580.08 470.235 1581.97 546.979 1585.58 671.735C1698.08 669.735 1765.08 669.735 1878.58 669.735C1981.26 674.518 2042.08 680.235 2142.58 701.735L2145.08 696.235C2048.1 492.426 1981.9 381.954 1828.58 196.235L1820.58 187.735Z" fill="#D7DFE2" style="fill:#D7DFE2;fill:color(display-p3 0.8431 0.8745 0.8863);fill-opacity:1;"/>
<path d="M1820.58 187.735C1795.08 150.735 1701.82 98.9778 1618.08 119.235C1590.08 154.735 1585.92 186.078 1570.58 228.735L1606.08 223.735C1588.58 281.235 1582.01 299.212 1580.08 382.235C1580.08 470.235 1581.97 546.979 1585.58 671.735C1698.08 669.735 1765.08 669.735 1878.58 669.735C1981.26 674.518 2042.08 680.235 2142.58 701.735L2145.08 696.235C2048.1 492.426 1981.9 381.954 1828.58 196.235L1820.58 187.735Z" fill="url(#paint24_linear_427_2335)" style=""/>
<path d="M1855.28 555.075C1798.05 514.147 1740.35 502.186 1647.52 504.594C1644.79 504.665 1642.61 506.922 1642.65 509.649L1644.55 648.73C1644.57 649.837 1645.48 650.72 1646.58 650.703L1829.11 647.759C1829.99 647.745 1830.75 647.165 1831 646.328L1856.78 559.442C1857.26 557.819 1856.66 556.059 1855.28 555.075Z" fill="url(#paint25_linear_427_2335)" style=""/>
<path d="M1792.4 163.787C1731.16 127.087 1685.54 107.992 1618.08 119.235C1638.58 92.7349 1664.08 64.7349 1685.08 51.2349C1709.58 41.7349 1753.08 45.8658 1792.58 63.7349C1811.47 72.2793 1844.51 88.5085 1878.98 108.057C1886.73 112.452 1894.06 117.552 1900.79 123.393C2014.03 221.776 2087.34 363.004 2172.42 510.235C2219.58 589.235 2271.08 667.735 2325.58 744.235C2259.58 732.735 2180.19 708.622 2142.58 701.735C2077.86 582.432 1961.59 389.96 1827.77 197.088C1818.44 183.64 1806.44 172.2 1792.4 163.787Z" fill="#6CC2FB" style="fill:#6CC2FB;fill:color(display-p3 0.4235 0.7608 0.9843);fill-opacity:1;"/>
<path d="M2265.58 825.735C2265.58 852.797 2251.08 879.235 2233.58 872.235C2216.58 863.235 2200.08 859.235 2201.58 825.735C2201.58 798.673 2215.91 776.735 2233.58 776.735C2251.25 776.735 2265.58 798.673 2265.58 825.735Z" fill="#708189" style="fill:#708189;fill:color(display-p3 0.4392 0.5059 0.5373);fill-opacity:1;"/>
<ellipse cx="2232.58" cy="826.735" rx="24" ry="38" fill="#F3E4BD" style="fill:#F3E4BD;fill:color(display-p3 0.9529 0.8941 0.7412);fill-opacity:1;"/>
<ellipse cx="2068.7" cy="90.6624" rx="72.6684" ry="16.7181" transform="rotate(31.4317 2068.7 90.6624)" fill="#4C4B49" style="fill:#4C4B49;fill:color(display-p3 0.2970 0.2936 0.2848);fill-opacity:1;"/>
<ellipse cx="2070.8" cy="94.591" rx="55.5743" ry="11.7807" transform="rotate(32.6891 2070.8 94.591)" fill="#F3E4BD" style="fill:#F3E4BD;fill:color(display-p3 0.9529 0.8941 0.7412);fill-opacity:1;"/>
<ellipse cx="2005.71" cy="95.5935" rx="49.6806" ry="13.7814" transform="rotate(31.6173 2005.71 95.5935)" fill="#8A867B" style="fill:#8A867B;fill:color(display-p3 0.5412 0.5255 0.4824);fill-opacity:1;"/>
<ellipse cx="2171.45" cy="123.044" rx="47.1107" ry="8.78135" transform="rotate(34.9187 2171.45 123.044)" fill="#8A867B" style="fill:#8A867B;fill:color(display-p3 0.5412 0.5255 0.4824);fill-opacity:1;"/>
<ellipse cx="1461.08" cy="918.735" rx="6.5" ry="9" fill="#3A332D" style="fill:#3A332D;fill:color(display-p3 0.2275 0.2000 0.1765);fill-opacity:1;"/>
<ellipse cx="1415.08" cy="992.735" rx="6.5" ry="8" fill="#3A332D" style="fill:#3A332D;fill:color(display-p3 0.2275 0.2000 0.1765);fill-opacity:1;"/>
<g filter="url(#filter1_d_427_2335)">
<path d="M1459.58 923.735C1462.58 921.235 1462.58 917.235 1460.08 914.735C1448.08 914.235 1438.58 918.235 1435.08 923.735L1402.08 980.735L1399.58 984.735C1398.62 986.333 1398.13 987.274 1397.58 989.235C1396.75 992.235 1401.62 998.51 1414.58 998.735C1416.08 996.328 1416.27 993.817 1414.58 990.735L1412.54 989.714C1410.42 988.655 1409.68 985.997 1410.95 983.996L1446.58 927.735C1449.08 924.235 1454.08 923.735 1459.58 923.735Z" fill="url(#paint26_linear_427_2335)" style=""/>
</g>
<path d="M1388.58 909.735C1388.58 899.235 1393.58 900.735 1404.58 900.735C1402.58 902.235 1400.08 905.235 1400.08 911.235L1400.58 978.735C1400.58 993.735 1404.58 1002.23 1410.08 1002.23L1499.08 1009.23C1500.08 1009.23 1500.89 1008.61 1501.58 1007.73C1501.27 1011.82 1499.08 1015.73 1495.58 1015.73L1402.58 1005.73C1392.58 1005.23 1390.58 998.735 1390.58 991.735L1388.58 909.735Z" fill="#677077" style="fill:#677077;fill:color(display-p3 0.4039 0.4392 0.4667);fill-opacity:1;"/>
<path d="M776.58 514.235L782.58 513.235L801.58 1146.43L794.58 1144.83L788.58 922.735L785.545 922.988C777.455 923.662 770.489 917.336 770.383 909.219L769.686 855.839C769.627 851.381 773.226 847.735 777.685 847.735H786.58L776.58 514.235Z" fill="#262C2A" style="fill:#262C2A;fill:color(display-p3 0.1490 0.1725 0.1647);fill-opacity:1;"/>
<path d="M1456.58 394.735L1404.58 401.735C1390.08 404.235 1383.58 417.735 1384.58 432.735L1388.58 580.735C1388.58 596.735 1394.08 615.235 1406.58 614.735L1458.58 612.735C1470.58 612.235 1478.58 604.235 1478.58 588.735L1474.58 427.735C1474.58 408.735 1469.08 393.235 1456.58 394.735Z" fill="#404040" style="fill:#404040;fill:color(display-p3 0.2526 0.2526 0.2526);fill-opacity:1;"/>
<g clip-path="url(#clip1_427_2335)">
<path d="M295.682 720.686L295.623 725.051C296.21 722.873 297.128 721.008 298.029 720.391C299.041 719.775 300.04 720.094 300.916 721.348C301.135 721.661 301.461 722.287 301.564 722.911C301.778 723.537 301.877 724.473 301.98 725.097C302.336 723.541 302.911 722.298 303.481 721.366C304.051 720.435 304.725 720.128 305.506 720.134C305.952 720.137 306.509 720.141 306.947 720.768C307.389 721.083 307.715 721.709 308.041 722.335C308.367 722.961 308.578 723.898 308.784 725.146C308.99 726.395 308.973 727.642 308.952 729.201L308.651 751.337L306.867 751.324L307.138 731.371C307.15 730.435 307.163 729.5 307.06 728.876C307.069 728.252 306.97 727.316 306.755 726.691C306.652 726.066 306.437 725.441 306.107 725.127C305.777 724.813 305.446 724.499 305.112 724.496C304.777 724.494 304.331 724.491 303.992 724.8C303.653 725.109 303.31 725.73 302.967 726.352C302.736 726.973 302.5 727.907 302.376 728.842C302.251 729.776 302.127 730.711 302.11 731.958L301.856 750.664L300.071 750.651L300.338 731.01C300.351 730.074 300.364 729.139 300.265 728.203C300.273 727.579 300.175 726.643 299.96 726.018C299.857 725.394 299.638 725.08 299.308 724.766C298.977 724.452 298.647 724.138 298.312 724.135C297.866 724.132 297.416 724.44 296.961 725.061C296.279 725.991 295.808 727.859 295.448 729.727C295.658 730.664 295.65 731.287 295.637 732.223L295.383 750.929L293.598 750.916L294.009 720.674L295.682 720.686Z" fill="#1E2027" style="fill:#1E2027;fill:color(display-p3 0.1176 0.1255 0.1529);fill-opacity:1;"/>
<path d="M311.174 729.841C311.423 727.972 311.779 726.415 312.246 724.86C312.713 723.304 313.284 722.373 313.965 721.442C315.437 719.894 317.11 719.906 318.538 721.476C319.199 722.104 319.74 723.355 320.165 724.917C320.59 726.479 320.903 728.041 321.101 729.913C321.299 731.785 321.38 733.968 321.351 736.151C321.321 738.333 321.184 740.203 320.931 742.384C320.683 744.253 320.327 745.809 319.86 747.365C319.393 748.921 318.822 749.852 318.14 750.782C316.669 752.331 314.996 752.319 313.567 750.749C312.907 750.121 312.366 748.87 311.941 747.308C311.516 745.746 311.202 744.184 311.005 742.312C310.807 740.44 310.725 738.256 310.755 736.074C310.785 733.892 310.926 731.71 311.174 729.841ZM312.811 740.766C312.905 742.014 313.223 743.263 313.433 744.2C313.755 745.138 314.081 745.764 314.519 746.391C314.957 747.018 315.403 747.021 315.849 747.024C316.295 747.027 316.745 746.719 317.196 746.41C317.65 745.79 317.993 745.169 318.341 744.236C318.688 743.303 318.928 742.058 319.057 740.811C319.433 737.696 319.48 734.266 319.188 731.146C319.093 729.898 318.776 728.649 318.569 727.4C318.248 726.462 317.921 725.836 317.484 725.21C317.046 724.583 316.6 724.58 316.154 724.576C315.708 724.573 315.257 724.882 314.807 725.19C314.352 725.811 314.009 726.432 313.662 727.365C313.315 728.297 313.075 729.543 312.942 731.101C312.565 734.216 312.518 737.646 312.811 740.766Z" fill="#1E2027" style="fill:#1E2027;fill:color(display-p3 0.1176 0.1255 0.1529);fill-opacity:1;"/>
<path d="M325.396 709.365L325.184 724.954C325.54 723.397 326.003 722.153 326.685 721.223C327.362 720.604 328.04 719.985 328.821 719.991C329.602 719.997 330.267 720.313 331.035 721.254C331.58 722.194 332.125 723.133 332.55 724.695C332.975 726.257 333.288 727.819 333.374 729.69C333.572 731.562 333.654 733.746 333.628 735.616C333.599 737.799 333.462 739.668 333.213 741.537C332.965 743.407 332.609 744.963 332.253 746.519C331.786 748.075 331.327 749.007 330.645 749.938C329.963 750.868 329.178 751.174 328.509 751.169C328.174 751.167 327.951 751.165 327.621 750.851C327.29 750.537 326.956 750.534 326.625 750.22C326.295 749.906 325.969 749.28 325.754 748.655C325.428 748.029 325.214 747.404 325.115 746.468L325.06 750.521L323.275 750.508L323.83 709.665L325.396 709.365ZM331.453 731.547C331.358 730.299 331.152 729.05 330.946 727.802C330.735 726.865 330.302 725.926 329.976 725.3C329.538 724.673 328.985 724.358 328.539 724.354C328.092 724.351 327.53 724.659 327.076 725.279C326.621 725.899 326.274 726.832 325.922 728.077C325.682 729.322 325.442 730.568 325.314 731.814C325.053 734.619 325.015 737.425 325.199 740.232C325.294 741.48 325.5 742.729 325.706 743.978C325.917 744.914 326.35 745.853 326.676 746.479C327.114 747.106 327.667 747.422 328.225 747.426C328.783 747.43 329.345 747.122 329.799 746.502C330.254 745.881 330.601 744.948 330.837 744.015C331.077 742.769 331.317 741.524 331.445 740.277C331.578 738.719 331.707 737.473 331.728 735.914C331.526 734.354 331.543 733.107 331.453 731.547Z" fill="#1E2027" style="fill:#1E2027;fill:color(display-p3 0.1176 0.1255 0.1529);fill-opacity:1;"/>
<path d="M335.684 715.675L335.764 709.752L337.549 709.765L337.468 715.688L335.684 715.675ZM337.396 720.989L336.985 751.231L335.201 751.218L335.612 720.976L337.396 720.989Z" fill="#1E2027" style="fill:#1E2027;fill:color(display-p3 0.1176 0.1255 0.1529);fill-opacity:1;"/>
<path d="M342.015 709.485L341.447 751.263L339.662 751.25L340.23 709.472L342.015 709.485Z" fill="#1E2027" style="fill:#1E2027;fill:color(display-p3 0.1176 0.1255 0.1529);fill-opacity:1;"/>
<path d="M344.495 715.739L344.576 709.816L346.36 709.829L346.28 715.752L344.495 715.739ZM346.208 721.053L345.797 751.295L344.012 751.282L344.423 721.04L346.208 721.053Z" fill="#1E2027" style="fill:#1E2027;fill:color(display-p3 0.1176 0.1255 0.1529);fill-opacity:1;"/>
<path d="M353.458 721.105L353.398 725.47L351.279 725.455L351.025 744.161C351.016 744.785 351.012 745.097 351.004 745.72C351 746.032 351.107 746.344 351.214 746.657C351.321 746.97 351.433 746.97 351.656 746.972C351.879 746.974 352.102 746.975 352.325 746.977L353.106 746.983L353.047 751.347L351.708 751.338C351.262 751.334 350.927 751.332 350.486 751.017C350.151 751.015 349.932 750.701 349.718 750.076C349.503 749.451 349.4 748.826 349.297 748.202C349.202 746.954 349.215 746.019 349.232 744.772L349.49 725.754L347.706 725.741L347.765 721.376L349.55 721.389L349.677 712.035L351.461 712.048L351.338 721.09L353.458 721.105Z" fill="#1E2027" style="fill:#1E2027;fill:color(display-p3 0.1176 0.1255 0.1529);fill-opacity:1;"/>
<path d="M362.441 749.545C361.523 751.409 360.395 752.336 359.396 752.017C358.615 752.011 357.839 751.694 357.182 750.754C356.521 750.125 356.092 748.875 355.663 747.625C355.238 746.063 354.925 744.501 354.727 742.629C354.533 740.445 354.447 738.574 354.477 736.391C354.507 734.209 354.648 732.027 354.896 730.158C355.145 728.289 355.501 726.733 355.968 725.177C356.431 723.933 357.006 722.69 357.572 722.07C358.254 721.14 358.927 720.833 359.596 720.838C360.377 720.844 361.265 721.162 361.917 722.414C362.574 723.354 362.999 724.916 363.42 726.79C363.729 728.663 364.038 730.536 364.124 732.408C364.21 734.279 364.296 736.15 364.267 738.333L356.236 738.275C356.219 739.522 356.202 740.769 356.408 742.018C356.503 743.266 356.713 744.202 356.924 745.139C357.246 746.077 357.572 746.703 358.009 747.33C358.447 747.957 359 748.272 359.558 748.277C360.227 748.281 360.901 747.974 361.475 746.731C361.939 745.488 362.294 743.931 362.427 742.373L364.212 742.386C363.843 744.878 363.247 747.68 362.441 749.545ZM362.258 730.211C362.056 728.651 361.627 727.401 361.193 726.462C360.648 725.523 360.099 724.895 359.537 725.203C359.091 725.2 358.641 725.508 358.302 725.817C357.963 726.127 357.62 726.748 357.384 727.682C357.148 728.615 356.917 729.237 356.677 730.483C356.552 731.417 356.424 732.664 356.407 733.911L362.653 733.956C362.451 732.395 362.356 731.148 362.258 730.211ZM360.349 706.5L358.214 715.839L359.553 715.849L362.58 706.516L360.349 706.5Z" fill="#1E2027" style="fill:#1E2027;fill:color(display-p3 0.1176 0.1255 0.1529);fill-opacity:1;"/>
<path d="M367.193 744.59C367.296 745.214 367.511 745.84 367.837 746.466C368.167 746.78 368.382 747.405 368.717 747.407C369.047 747.722 369.382 747.724 369.716 747.726C370.051 747.729 370.274 747.73 370.613 747.421C370.947 747.424 371.175 747.113 371.514 746.804C371.741 746.494 371.968 746.184 372.2 745.562C372.431 744.94 372.444 744.004 372.452 743.381C372.461 742.757 372.469 742.134 372.362 741.821C372.259 741.197 372.152 740.884 371.933 740.571C371.495 739.944 371.058 739.317 370.616 739.002C370.062 738.687 369.509 738.371 368.96 737.743C368.406 737.427 367.853 737.111 367.303 736.484C366.866 735.857 366.432 734.919 365.999 733.98C365.681 732.73 365.479 731.17 365.505 729.299C365.522 728.052 365.654 726.494 365.894 725.249C366.13 724.315 366.478 723.382 366.821 722.761C367.275 722.141 367.73 721.52 368.18 721.212C368.631 720.903 369.193 720.596 369.639 720.599C370.196 720.603 370.754 720.607 371.308 720.923C371.749 721.238 372.303 721.553 372.625 722.491C373.062 723.118 373.269 724.367 373.479 725.304C373.681 726.864 373.883 728.425 373.862 729.984L372.077 729.971C372.09 729.035 371.987 728.411 371.888 727.475C371.785 726.85 371.57 726.225 371.351 725.912C371.132 725.598 370.802 725.284 370.583 724.971C370.253 724.657 370.03 724.655 369.695 724.653C369.472 724.651 369.138 724.649 368.91 724.959C368.687 724.957 368.348 725.266 368.121 725.577C367.894 725.887 367.666 726.197 367.546 726.82C367.426 727.442 367.306 728.065 367.298 728.689C367.294 729 367.285 729.624 367.392 729.937C367.5 730.249 367.496 730.561 367.603 730.874C367.817 731.499 368.148 731.813 368.367 732.126C368.697 732.441 369.139 732.756 369.469 733.07L370.683 734.014C371.125 734.329 371.567 734.644 372.009 734.959C372.451 735.274 372.777 735.9 373.103 736.526C373.429 737.152 373.64 738.089 373.85 739.026C374.056 740.275 374.151 741.522 374.134 742.77C374.113 744.328 373.98 745.886 373.624 747.443C373.384 748.688 372.925 749.62 372.471 750.241C372.016 750.861 371.45 751.481 371 751.789C370.438 752.097 369.88 752.093 369.322 752.089C368.765 752.085 368.211 751.769 367.658 751.453C367.104 751.137 366.667 750.511 366.233 749.572C365.8 748.633 365.478 747.696 365.272 746.447C365.07 744.886 364.868 743.326 364.889 741.767L366.674 741.78C366.991 743.03 367.09 743.966 367.193 744.59Z" fill="#1E2027" style="fill:#1E2027;fill:color(display-p3 0.1176 0.1255 0.1529);fill-opacity:1;"/>
<path d="M188.431 637.715L183.747 637.845L187.448 622.46L193.023 622.305L197.574 637.46L192.891 637.591L190.435 629.55L188.431 637.715ZM187.703 643.661L193.948 643.487L195.432 696.778L189.187 696.952L187.703 643.661Z" fill="#3F77B3" style="fill:#3F77B3;fill:color(display-p3 0.2471 0.4667 0.7020);fill-opacity:1;"/>
<path d="M202.75 622.969L196.506 623.143L198.554 696.691L204.799 696.517L202.75 622.969Z" fill="#3F77B3" style="fill:#3F77B3;fill:color(display-p3 0.2471 0.4667 0.7020);fill-opacity:1;"/>
<path d="M212.091 673.858C212.402 681.023 214.102 685.966 216.666 685.894C218.116 685.854 219.625 683.941 220.07 679.874L225.98 679.709C225.212 692.206 221.234 697.619 216.996 697.737C210.752 697.911 206.219 687.433 205.725 669.669C205.273 653.464 209.627 641.491 215.202 641.336C222.004 641.146 225.86 655.386 226.141 673.467L212.091 673.858ZM219.516 663.983C219.239 658.065 217.539 653.122 215.532 653.178C213.302 653.24 211.974 657.644 211.822 664.197L219.516 663.983Z" fill="#3F77B3" style="fill:#3F77B3;fill:color(display-p3 0.2471 0.4667 0.7020);fill-opacity:1;"/>
<path d="M241.931 695.483L239.477 695.551L239.321 689.942L239.21 689.945C238.559 694.641 236.716 696.564 234.597 696.623C230.025 696.75 227.397 686.531 227.067 674.689C226.738 662.846 228.69 652.812 233.262 652.684C234.823 652.641 236.985 654.14 238.239 659.095L238.351 659.092L237.752 637.589L240.205 637.52L241.819 695.486L241.931 695.483ZM234.767 690.692C238.112 690.599 239.122 682.774 238.896 674.671C238.662 666.257 237.115 658.815 233.77 658.908C230.425 659.001 229.535 667.135 229.761 675.237C229.866 683.031 231.533 690.782 234.767 690.692Z" fill="#3F77B3" style="fill:#3F77B3;fill:color(display-p3 0.2471 0.4667 0.7020);fill-opacity:1;"/>
<path d="M256.723 681.66C256.314 691.028 254.111 696.079 250.766 696.172C245.971 696.306 243.48 687.019 242.902 674.248C242.554 661.782 245.305 652.349 249.319 652.237C254.671 652.088 256.614 665.757 256.789 676.044L245.527 676.358C245.615 683.529 247.358 690.03 250.592 689.939C252.599 689.884 253.971 687.038 254.269 681.728L256.723 681.66ZM253.948 670.197C253.861 667.081 253.329 663.977 252.376 661.82C251.535 659.661 250.385 658.445 249.27 658.476C246.705 658.547 245.291 663.889 245.362 670.436L253.948 670.197Z" fill="#3F77B3" style="fill:#3F77B3;fill:color(display-p3 0.2471 0.4667 0.7020);fill-opacity:1;"/>
<path d="M256.832 621.463L276.234 620.923L276.659 636.193L264.059 636.544L264.476 651.503L275.292 651.202L275.708 666.161L264.892 666.462L265.682 694.821L258.88 695.011L256.832 621.463Z" fill="#3F77B3" style="fill:#3F77B3;fill:color(display-p3 0.2471 0.4667 0.7020);fill-opacity:1;"/>
<path d="M278.025 641.146L284.046 640.978L284.307 650.327L284.418 650.324C285.119 643.443 287.142 639.956 289.93 639.878C290.376 639.866 290.934 639.85 291.388 640.15L291.831 656.043C291.033 655.442 290.244 655.152 289.352 655.177C286.23 655.264 284.833 661.228 285.024 668.085L285.762 694.574L279.517 694.748L278.025 641.146Z" fill="#3F77B3" style="fill:#3F77B3;fill:color(display-p3 0.2471 0.4667 0.7020);fill-opacity:1;"/>
<path d="M291.857 656.978C291.779 654.173 291.924 651.362 292.403 648.542C292.891 646.033 293.5 643.833 294.468 642.559C296.072 640.019 298.267 638.71 300.386 638.651C304.958 638.524 309.385 641.208 309.801 656.167L310.452 679.54C310.582 684.214 310.712 688.889 311.614 693.23L305.37 693.404C305.104 691.852 304.94 689.985 304.897 688.427C303.466 693.145 301.065 695.083 298.834 695.146C295.155 695.248 292.228 690.339 291.916 679.12C291.43 661.668 298.275 663.037 302.554 660.423C303.652 659.769 304.184 658.818 304.088 655.39C303.975 651.339 302.259 649.827 300.921 649.864C299.137 649.914 298.194 652.123 297.981 656.496L291.857 656.978ZM300.658 684.491C303.669 684.407 304.542 679.704 304.007 668.491C303.158 670.074 301.606 670.43 300.182 671.405C298.87 672.377 297.687 673.969 297.808 678.332C298.041 682.692 299.32 684.528 300.658 684.491Z" fill="#3F77B3" style="fill:#3F77B3;fill:color(display-p3 0.2471 0.4667 0.7020);fill-opacity:1;"/>
<path d="M311.589 640.211L317.61 640.043L317.81 647.211L317.921 647.208C318.88 641.567 321.358 638.379 323.7 638.314C330.056 638.137 330.978 651.211 331.186 658.69L332.141 692.971L325.896 693.144L325.176 667.278C324.976 660.11 325.102 652.622 321.646 652.718C319.304 652.783 318.457 658.421 318.622 664.342L319.429 693.325L313.184 693.498L311.7 640.208L311.589 640.211Z" fill="#3F77B3" style="fill:#3F77B3;fill:color(display-p3 0.2471 0.4667 0.7020);fill-opacity:1;"/>
<path d="M346.025 658.589C345.964 656.407 345.466 654.55 344.865 653.007C344.264 651.464 343.467 650.863 342.686 650.885C339.229 650.981 338.906 659.411 339.114 666.89C339.305 673.746 340.62 680.883 343.185 680.812C345.303 680.753 346.323 677.294 346.501 671.675L352.523 671.507C352.364 685.858 348.576 694.073 343.558 694.212C337.871 694.371 333.218 683.584 332.758 667.067C332.29 650.239 335.854 637.976 341.987 637.805C346.782 637.671 351.21 644.41 352.055 658.733L346.025 658.589Z" fill="#3F77B3" style="fill:#3F77B3;fill:color(display-p3 0.2471 0.4667 0.7020);fill-opacity:1;"/>
<path d="M359.17 669.762C359.481 676.927 361.181 681.87 363.746 681.798C365.195 681.758 366.704 679.845 367.149 675.778L373.059 675.613C372.291 688.11 368.313 693.523 364.075 693.641C357.831 693.815 353.298 683.337 352.804 665.573C352.353 649.368 356.706 637.395 362.281 637.24C369.083 637.05 372.939 651.29 373.22 669.371L359.17 669.762ZM366.706 659.884C366.43 653.966 364.73 649.023 362.723 649.079C360.493 649.141 359.164 653.544 359.012 660.098L366.706 659.884Z" fill="#3F77B3" style="fill:#3F77B3;fill:color(display-p3 0.2471 0.4667 0.7020);fill-opacity:1;"/>
</g>
<defs>
<filter id="filter0_f_427_2335" x="2227.58" y="1402.73" width="182.824" height="54.3682" filterUnits="userSpaceOnUse" color-interpolation-filters="sRGB">
<feFlood flood-opacity="0" result="BackgroundImageFix"/>
<feBlend mode="normal" in="SourceGraphic" in2="BackgroundImageFix" result="shape"/>
<feGaussianBlur stdDeviation="2" result="effect1_foregroundBlur_427_2335"/>
</filter>
<clipPath id="paint20_diamond_427_2335_clip_path"><path d="M2319.08 773.735C2311.35 762.735 2305.58 759.622 2282.58 754.235C2171.58 728.235 2088.08 706.235 2002.58 695.735C1993.58 694.63 1991.64 700.181 1996.58 705.735C2117.58 841.735 2336.08 923.235 2412.58 934.735C2422.08 936.163 2424.08 930.235 2418.58 921.735C2381.85 863.688 2359.55 831.343 2319.08 773.735Z"/></clipPath><filter id="filter1_d_427_2335" x="1397.49" y="913.493" width="98.6072" height="102.442" filterUnits="userSpaceOnUse" color-interpolation-filters="sRGB">
<feFlood flood-opacity="0" result="BackgroundImageFix"/>
<feColorMatrix in="SourceAlpha" type="matrix" values="0 0 0 0 0 0 0 0 0 0 0 0 0 0 0 0 0 0 127 0" result="hardAlpha"/>
<feOffset dx="25" dy="8"/>
<feGaussianBlur stdDeviation="4.6"/>
<feComposite in2="hardAlpha" operator="out"/>
<feColorMatrix type="matrix" values="0 0 0 0 0 0 0 0 0 0 0 0 0 0 0 0 0 0 0.25 0"/>
<feBlend mode="normal" in2="BackgroundImageFix" result="effect1_dropShadow_427_2335"/>
<feBlend mode="normal" in="SourceGraphic" in2="effect1_dropShadow_427_2335" result="shape"/>
</filter>
<linearGradient id="paint0_linear_427_2335" x1="1282.58" y1="1304.73" x2="1313.08" y2="1166.23" gradientUnits="userSpaceOnUse">
<stop stop-color="#29221A" style="stop-color:#29221A;stop-color:color(display-p3 0.1608 0.1333 0.1020);stop-opacity:1;"/>
<stop offset="1" stop-color="#575B5C" style="stop-color:#575B5C;stop-color:color(display-p3 0.3412 0.3569 0.3608);stop-opacity:1;"/>
</linearGradient>
<linearGradient id="paint1_linear_427_2335" x1="1545.58" y1="114.235" x2="1715.27" y2="416.167" gradientUnits="userSpaceOnUse">
<stop stop-color="#D7DFE2" stop-opacity="0" style="stop-color:none;stop-opacity:0;"/>
<stop offset="1" stop-color="#9FA4A7" style="stop-color:#9FA4A7;stop-color:color(display-p3 0.6235 0.6431 0.6549);stop-opacity:1;"/>
</linearGradient>
<linearGradient id="paint2_linear_427_2335" x1="1679.58" y1="1390.23" x2="1521.82" y2="-81.6616" gradientUnits="userSpaceOnUse">
<stop stop-color="#D7DFE2" stop-opacity="0" style="stop-color:none;stop-opacity:0;"/>
<stop offset="0.487923" stop-color="#9FA4A7" style="stop-color:#9FA4A7;stop-color:color(display-p3 0.6235 0.6431 0.6549);stop-opacity:1;"/>
<stop offset="1" stop-color="#D7DFE2" stop-opacity="0" style="stop-color:none;stop-opacity:0;"/>
</linearGradient>
<linearGradient id="paint3_linear_427_2335" x1="542.58" y1="459.235" x2="542.58" y2="393.235" gradientUnits="userSpaceOnUse">
<stop stop-color="white" stop-opacity="0" style="stop-color:none;stop-opacity:0;"/>
<stop offset="1" stop-color="white" style="stop-color:white;stop-opacity:1;"/>
</linearGradient>
<linearGradient id="paint4_linear_427_2335" x1="406.997" y1="473.055" x2="406.997" y2="420.611" gradientUnits="userSpaceOnUse">
<stop stop-color="white" stop-opacity="0" style="stop-color:none;stop-opacity:0;"/>
<stop offset="1" stop-color="white" style="stop-color:white;stop-opacity:1;"/>
</linearGradient>
<linearGradient id="paint5_linear_427_2335" x1="288.613" y1="491.047" x2="288.613" y2="445.686" gradientUnits="userSpaceOnUse">
<stop stop-color="white" stop-opacity="0" style="stop-color:none;stop-opacity:0;"/>
<stop offset="1" stop-color="white" style="stop-color:white;stop-opacity:1;"/>
</linearGradient>
<linearGradient id="paint6_linear_427_2335" x1="217.885" y1="504.234" x2="217.885" y2="462.73" gradientUnits="userSpaceOnUse">
<stop stop-color="white" stop-opacity="0" style="stop-color:none;stop-opacity:0;"/>
<stop offset="1" stop-color="white" style="stop-color:white;stop-opacity:1;"/>
</linearGradient>
<linearGradient id="paint7_linear_427_2335" x1="1373.58" y1="760.735" x2="1347.08" y2="761.735" gradientUnits="userSpaceOnUse">
<stop stop-color="#B3B3B1" style="stop-color:#B3B3B1;stop-color:color(display-p3 0.7020 0.7020 0.6941);stop-opacity:1;"/>
<stop offset="0.733758" stop-color="#565853" style="stop-color:#565853;stop-color:color(display-p3 0.3373 0.3451 0.3255);stop-opacity:1;"/>
<stop offset="1" stop-color="#8B8C87" style="stop-color:#8B8C87;stop-color:color(display-p3 0.5451 0.5490 0.5294);stop-opacity:1;"/>
</linearGradient>
<linearGradient id="paint8_linear_427_2335" x1="1535.98" y1="750.019" x2="1498.91" y2="751.783" gradientUnits="userSpaceOnUse">
<stop stop-color="#B3B3B1" style="stop-color:#B3B3B1;stop-color:color(display-p3 0.7020 0.7020 0.6941);stop-opacity:1;"/>
<stop offset="0.733758" stop-color="#565853" style="stop-color:#565853;stop-color:color(display-p3 0.3373 0.3451 0.3255);stop-opacity:1;"/>
<stop offset="1" stop-color="#8B8C87" style="stop-color:#8B8C87;stop-color:color(display-p3 0.5451 0.5490 0.5294);stop-opacity:1;"/>
</linearGradient>
<linearGradient id="paint9_linear_427_2335" x1="1535.98" y1="750.019" x2="1498.91" y2="751.783" gradientUnits="userSpaceOnUse">
<stop stop-color="#B3B3B1" style="stop-color:#B3B3B1;stop-color:color(display-p3 0.7020 0.7020 0.6941);stop-opacity:1;"/>
<stop offset="0.733758" stop-color="#565853" style="stop-color:#565853;stop-color:color(display-p3 0.3373 0.3451 0.3255);stop-opacity:1;"/>
<stop offset="1" stop-color="#8B8C87" style="stop-color:#8B8C87;stop-color:color(display-p3 0.5451 0.5490 0.5294);stop-opacity:1;"/>
</linearGradient>
<linearGradient id="paint10_linear_427_2335" x1="1119.08" y1="1116.73" x2="1646.58" y2="1210.23" gradientUnits="userSpaceOnUse">
<stop stop-color="#575B5C" stop-opacity="0" style="stop-color:none;stop-opacity:0;"/>
<stop offset="1" stop-color="#525858" style="stop-color:#525858;stop-color:color(display-p3 0.3216 0.3451 0.3451);stop-opacity:1;"/>
</linearGradient>
<linearGradient id="paint11_linear_427_2335" x1="2090.01" y1="1395.94" x2="2078.48" y2="1505.62" gradientUnits="userSpaceOnUse">
<stop stop-color="#888C8C" style="stop-color:#888C8C;stop-color:color(display-p3 0.5333 0.5490 0.5490);stop-opacity:1;"/>
<stop offset="1" stop-color="#292313" style="stop-color:#292313;stop-color:color(display-p3 0.1608 0.1373 0.0745);stop-opacity:1;"/>
</linearGradient>
<linearGradient id="paint12_linear_427_2335" x1="2264.58" y1="1483.23" x2="2394.58" y2="1476.23" gradientUnits="userSpaceOnUse">
<stop stop-color="#525048" style="stop-color:#525048;stop-color:color(display-p3 0.3216 0.3137 0.2824);stop-opacity:1;"/>
<stop offset="1" stop-color="#6F706C" style="stop-color:#6F706C;stop-color:color(display-p3 0.4353 0.4392 0.4235);stop-opacity:1;"/>
</linearGradient>
<linearGradient id="paint13_linear_427_2335" x1="2217.08" y1="1460.23" x2="2403.08" y2="1449.73" gradientUnits="userSpaceOnUse">
<stop stop-color="#525048" style="stop-color:#525048;stop-color:color(display-p3 0.3216 0.3137 0.2824);stop-opacity:1;"/>
<stop offset="1" stop-color="#828685" style="stop-color:#828685;stop-color:color(display-p3 0.5098 0.5255 0.5216);stop-opacity:1;"/>
</linearGradient>
<linearGradient id="paint14_linear_427_2335" x1="2136.58" y1="1257.73" x2="2135.08" y2="1419.73" gradientUnits="userSpaceOnUse">
<stop stop-color="#535959" style="stop-color:#535959;stop-color:color(display-p3 0.3255 0.3490 0.3490);stop-opacity:1;"/>
<stop offset="1" stop-color="#474842" style="stop-color:#474842;stop-color:color(display-p3 0.2784 0.2824 0.2588);stop-opacity:1;"/>
</linearGradient>
<radialGradient id="paint15_radial_427_2335" cx="0" cy="0" r="1" gradientUnits="userSpaceOnUse" gradientTransform="translate(2019.08 1437.23) rotate(-1.02303) scale(364.058 41.6567)">
<stop stop-color="#5D5E59" style="stop-color:#5D5E59;stop-color:color(display-p3 0.3647 0.3686 0.3490);stop-opacity:1;"/>
<stop offset="1" stop-color="#5C656A" style="stop-color:#5C656A;stop-color:color(display-p3 0.3608 0.3961 0.4157);stop-opacity:1;"/>
</radialGradient>
<linearGradient id="paint16_linear_427_2335" x1="2573.08" y1="1402.23" x2="2600.08" y2="1515.23" gradientUnits="userSpaceOnUse">
<stop stop-color="#888C8C" style="stop-color:#888C8C;stop-color:color(display-p3 0.5333 0.5490 0.5490);stop-opacity:1;"/>
<stop offset="1" stop-color="#292313" style="stop-color:#292313;stop-color:color(display-p3 0.1608 0.1373 0.0745);stop-opacity:1;"/>
</linearGradient>
<linearGradient id="paint17_linear_427_2335" x1="2369.08" y1="1484.73" x2="2600.08" y2="1515.23" gradientUnits="userSpaceOnUse">
<stop stop-color="#767976" style="stop-color:#767976;stop-color:color(display-p3 0.4627 0.4745 0.4627);stop-opacity:1;"/>
<stop offset="1" stop-color="#888C8C" style="stop-color:#888C8C;stop-color:color(display-p3 0.5333 0.5490 0.5490);stop-opacity:1;"/>
</linearGradient>
<linearGradient id="paint18_linear_427_2335" x1="2359.58" y1="1440.23" x2="2382.58" y2="1428.23" gradientUnits="userSpaceOnUse">
<stop stop-color="#909694" stop-opacity="0" style="stop-color:none;stop-opacity:0;"/>
<stop offset="1" stop-color="#A2A8A8" style="stop-color:#A2A8A8;stop-color:color(display-p3 0.6353 0.6588 0.6588);stop-opacity:1;"/>
</linearGradient>
<linearGradient id="paint19_linear_427_2335" x1="2751.58" y1="848.735" x2="2739.58" y2="865.235" gradientUnits="userSpaceOnUse">
<stop stop-color="#778882" style="stop-color:#778882;stop-color:color(display-p3 0.4667 0.5333 0.5098);stop-opacity:1;"/>
<stop offset="0.830169" stop-color="#AEC5CB" style="stop-color:#AEC5CB;stop-color:color(display-p3 0.6824 0.7725 0.7961);stop-opacity:1;"/>
</linearGradient>
<linearGradient id="paint20_diamond_427_2335" x1="0" y1="0" x2="500" y2="500" gradientUnits="userSpaceOnUse">
<stop stop-color="#EBF7F7" style="stop-color:#EBF7F7;stop-color:color(display-p3 0.9216 0.9686 0.9686);stop-opacity:1;"/>
<stop offset="1" stop-color="#6F8183" style="stop-color:#6F8183;stop-color:color(display-p3 0.4353 0.5059 0.5137);stop-opacity:1;"/>
</linearGradient>
<linearGradient id="paint21_linear_427_2335" x1="2360.58" y1="965.235" x2="1904.58" y2="674.735" gradientUnits="userSpaceOnUse">
<stop stop-color="#85837E" style="stop-color:#85837E;stop-color:color(display-p3 0.5216 0.5137 0.4941);stop-opacity:1;"/>
<stop offset="1" stop-color="#B3B9BC" style="stop-color:#B3B9BC;stop-color:color(display-p3 0.7020 0.7255 0.7373);stop-opacity:1;"/>
</linearGradient>
<linearGradient id="paint22_linear_427_2335" x1="1947.58" y1="668.735" x2="2464.58" y2="971.735" gradientUnits="userSpaceOnUse">
<stop offset="0.00687057" stop-color="#B4BABD" style="stop-color:#B4BABD;stop-color:color(display-p3 0.7059 0.7294 0.7412);stop-opacity:1;"/>
<stop offset="1" stop-color="#F8FCFB" style="stop-color:#F8FCFB;stop-color:color(display-p3 0.9725 0.9882 0.9843);stop-opacity:1;"/>
</linearGradient>
<linearGradient id="paint23_linear_427_2335" x1="1887.08" y1="1282.73" x2="1626.81" y2="661.32" gradientUnits="userSpaceOnUse">
<stop stop-color="#D7DFE2" stop-opacity="0" style="stop-color:none;stop-opacity:0;"/>
<stop offset="1" stop-color="#9FA4A7" style="stop-color:#9FA4A7;stop-color:color(display-p3 0.6235 0.6431 0.6549);stop-opacity:1;"/>
</linearGradient>
<linearGradient id="paint24_linear_427_2335" x1="1857.83" y1="114.683" x2="1600.08" y2="660.735" gradientUnits="userSpaceOnUse">
<stop stop-color="#D7DFE2" stop-opacity="0" style="stop-color:none;stop-opacity:0;"/>
<stop offset="1" stop-color="#9FA4A7" style="stop-color:#9FA4A7;stop-color:color(display-p3 0.6235 0.6431 0.6549);stop-opacity:1;"/>
</linearGradient>
<linearGradient id="paint25_linear_427_2335" x1="1644.08" y1="570.735" x2="1855.58" y2="562.235" gradientUnits="userSpaceOnUse">
<stop stop-color="#540C3E" style="stop-color:#540C3E;stop-color:color(display-p3 0.3294 0.0471 0.2431);stop-opacity:1;"/>
<stop offset="0.996119" stop-color="#7C152A" style="stop-color:#7C152A;stop-color:color(display-p3 0.4863 0.0824 0.1647);stop-opacity:1;"/>
</linearGradient>
<linearGradient id="paint26_linear_427_2335" x1="1428.58" y1="997.735" x2="1376.79" y2="968.236" gradientUnits="userSpaceOnUse">
<stop offset="0.215" stop-color="#B3B3B1" style="stop-color:#B3B3B1;stop-color:color(display-p3 0.7020 0.7020 0.6941);stop-opacity:1;"/>
<stop offset="0.425" stop-color="#565853" style="stop-color:#565853;stop-color:color(display-p3 0.3373 0.3451 0.3255);stop-opacity:1;"/>
<stop offset="0.64" stop-color="#8B8C87" style="stop-color:#8B8C87;stop-color:color(display-p3 0.5451 0.5490 0.5294);stop-opacity:1;"/>
</linearGradient>
<clipPath id="clip0_427_2335">
<rect width="56.6152" height="161.763" fill="white" style="fill:white;fill-opacity:1;" transform="matrix(0.999259 -0.0384894 0.0370164 0.999315 381.02 603.487)"/>
</clipPath>
<clipPath id="clip1_427_2335">
<rect width="242.847" height="133.435" fill="white" style="fill:white;fill-opacity:1;" transform="translate(183.322 622.575) rotate(-1.59516)"/>
</clipPath>
</defs>
</svg>
