<svg width="1805" height="1117" viewBox="0 0 1805 1117" fill="none" xmlns="http://www.w3.org/2000/svg">
<path d="M7 502.546L5.5 759.546L54.5 761.546L56 490.046L34.5 495.546L7 502.546Z" fill="#546874" style="fill:#546874;fill:color(display-p3 0.3294 0.4078 0.4549);fill-opacity:1;"/>
<path d="M28 660.946L28.5405 678.546H46.4615L48 524.546L47.4595 513.546L30.3077 519.703L29.6216 535.546L28 546.546V660.946Z" fill="#232928" style="fill:#232928;fill:color(display-p3 0.1373 0.1608 0.1569);fill-opacity:1;"/>
<path d="M5.5 759.546V847.046L51 852.046L142.5 862.046V764.546L5.5 759.546Z" fill="#242628" style="fill:#242628;fill:color(display-p3 0.1412 0.1490 0.1569);fill-opacity:1;"/>
<path d="M44 874.546V857.046L54 850.546L56.5 488.546L94 479.478L133 470.046L130 860.546L120 866.546V886.546L81.5 880.467L44 874.546Z" fill="#B6BABB" style="fill:#B6BABB;fill:color(display-p3 0.7137 0.7294 0.7333);fill-opacity:1;"/>
<path d="M94 479.478L56.5 488.546L54 850.546L44 857.046V874.546L81.5 880.467M94 479.478L133 470.046L130 860.546L120 866.546V886.546L81.5 880.467M94 479.478L91.5 855.046L81.5 861.546V880.467" stroke="#B6BABB" style="stroke:#B6BABB;stroke:color(display-p3 0.7137 0.7294 0.7333);stroke-opacity:1;"/>
<path d="M94 479.478L56.5 488.546L54 850.546L44 857.046V874.546L81.5 880.467M94 479.478L133 470.046L130 860.546L120 866.546V886.546L81.5 880.467M94 479.478L91.5 855.046L81.5 861.546V880.467" stroke="black" stroke-opacity="0.6" style="stroke:black;stroke-opacity:0.6;"/>
<path d="M66 859.546V878.046L98 882.819V863.046L108 857.546L110 475.046L77.5 483.046L75 853.546L66 859.546Z" fill="#469DC8" style="fill:#469DC8;fill:color(display-p3 0.2745 0.6157 0.7843);fill-opacity:1;"/>
<path d="M94 479.478L56.5 488.546L54 850.546L44 857.046V874.546L81.5 880.467M94 479.478L133 470.046L130 860.546L120 866.546V886.546L81.5 880.467M94 479.478L91.5 855.046L81.5 861.546V880.467" stroke="black" stroke-opacity="0.6" style="stroke:black;stroke-opacity:0.6;"/>
<path d="M5.5 847.046L3 849.546L46.5 855.046L51 852.046L5.5 847.046Z" fill="#748A8B" style="fill:#748A8B;fill:color(display-p3 0.4549 0.5412 0.5451);fill-opacity:1;"/>
<path d="M3 877.046L14.5 879.046L25.5 877.546L39.5 863.046L44 856.546L46.5 855.046L3 849.546V877.046Z" fill="#1D2226" style="fill:#1D2226;fill:color(display-p3 0.1137 0.1333 0.1490);fill-opacity:1;"/>
<path d="M3 877.046L14.5 879.046L25.5 877.546L39.5 863.046L44 856.546L46.5 855.046L3 849.546V877.046Z" fill="url(#paint0_linear_427_2457)" fill-opacity="0.2" style=""/>
<path d="M3 877.046L14.5 879.046L25.5 877.546L39.5 863.046L44 856.546L46.5 855.046L3 849.546V877.046Z" fill="url(#paint1_linear_427_2457)" style=""/>
<path d="M44 866.546V871.046L14.5 866.546L19 879.046H14.5V866.546L14.9906 865.892C16.5361 863.832 19.0885 862.786 21.6354 863.171L44 866.546Z" fill="#88A2B4" style="fill:#88A2B4;fill:color(display-p3 0.5333 0.6353 0.7059);fill-opacity:1;"/>
<path d="M122 886.546V882.046L165.5 888.546L165 905.546L14.5 880.546V866.546L44 871.046V874.546L122 886.546Z" fill="#161F24" style="fill:#161F24;fill:color(display-p3 0.0863 0.1216 0.1412);fill-opacity:1;"/>
<path d="M166 889.046L135 884.046L135 881.546L149.5 880.546L166 884.046L166 889.046Z" fill="#88A2B4" style="fill:#88A2B4;fill:color(display-p3 0.5333 0.6353 0.7059);fill-opacity:1;"/>
<path d="M143 467.546L170 460.546L169 870.546L141.5 866.046L143 467.546Z" fill="#394956" style="fill:#394956;fill:color(display-p3 0.2235 0.2863 0.3373);fill-opacity:1;"/>
<path d="M143 467.546L170 460.546L169 870.546L141.5 866.046L143 467.546Z" fill="url(#paint2_linear_427_2457)" style=""/>
<path d="M34.5 495.546L7 502.546C7.62048 489.751 7.80442 482.811 10 473.546L23 470.046L22 495.546H34.5Z" fill="#369AC6" style="fill:#369AC6;fill:color(display-p3 0.2127 0.6055 0.7766);fill-opacity:1;"/>
<path d="M0 471.046L10 473.546L23 470.046V464.546L0 471.046Z" fill="#ACAAA5" style="fill:#ACAAA5;fill:color(display-p3 0.6745 0.6667 0.6471);fill-opacity:1;"/>
<path d="M169 765.546L142 764.546V864.046L135.5 866.546L149.5 867.546V882.046L166 884.546V873.546L169 871.046V765.546Z" fill="#272A2C" style="fill:#272A2C;fill:color(display-p3 0.1529 0.1647 0.1725);fill-opacity:1;"/>
<path d="M169 765.546L142 764.546V864.046L135.5 866.546L149.5 867.546V882.046L166 884.546V873.546L169 871.046V765.546Z" fill="url(#paint3_linear_427_2457)" style=""/>
<path d="M120 886.206L122 886.546V874.178C122 873.792 122.222 873.441 122.571 873.275L142 864.046L143 467.546L133 470.046L130 860.546L120 866.546V886.206Z" fill="#313036" style="fill:#313036;fill:color(display-p3 0.1922 0.1882 0.2118);fill-opacity:1;"/>
<path d="M135.5 876.546H134V878.046H135.5V876.546Z" fill="url(#paint4_radial_427_2457)" style=""/>
<path d="M135.5 876.546H134V878.046H135.5V876.546Z" fill="url(#paint5_radial_427_2457)" style=""/>
<path d="M135 884.046L122 882.046V874.546L135 877.046V884.046Z" fill="#575856" style="fill:#575856;fill:color(display-p3 0.3408 0.3451 0.3373);fill-opacity:1;"/>
<path d="M149.5 867.546L135 877.046V884.046L149.5 882.046V867.546Z" fill="#6A787D" style="fill:#6A787D;fill:color(display-p3 0.4157 0.4706 0.4902);fill-opacity:1;"/>
<path d="M122 873.546L136.5 866.546L149.5 867.546L135 877.046L122 874.546V873.546Z" fill="#7A909E" style="fill:#7A909E;fill:color(display-p3 0.4784 0.5647 0.6196);fill-opacity:1;"/>
<path d="M133 468.546V470.046L170 460.546L167 460.046L133 468.546Z" fill="#191A21" style="fill:#191A21;fill:color(display-p3 0.0980 0.1020 0.1294);fill-opacity:1;"/>
<path d="M34.5 495.546H22L49 489.046V487.546C80.1844 478.941 97.4883 471.073 129 468.046L133 468.546V470.046L56.5 488.546V490.046L34.5 495.546Z" fill="#191A21" style="fill:#191A21;fill:color(display-p3 0.0980 0.1020 0.1294);fill-opacity:1;"/>
<path d="M129 468.046L104 474.046V448.046L129 441.046V468.046Z" fill="#17222E" style="fill:#17222E;fill:color(display-p3 0.0902 0.1333 0.1804);fill-opacity:1;"/>
<path d="M71 482.111L104 474.046V448.046L109 441.256L74.5 451.546L71 457.446V482.111Z" fill="#38A4D7" style="fill:#38A4D7;fill:color(display-p3 0.2196 0.6431 0.8431);fill-opacity:1;"/>
<path d="M49 487.546L71 482.117V457.456L49 463.946V487.546Z" fill="#17222E" style="fill:#17222E;fill:color(display-p3 0.0902 0.1333 0.1804);fill-opacity:1;"/>
<path d="M75 451.046L71 457.446L104 448.046L109 441.256L75 451.046Z" fill="#69B9E9" style="fill:#69B9E9;fill:color(display-p3 0.4118 0.7255 0.9137);fill-opacity:1;"/>
<path d="M108 441.546L104 448.046L129 441.046L134 434.046L108 441.546Z" fill="#3C4F6C" style="fill:#3C4F6C;fill:color(display-p3 0.2353 0.3098 0.4235);fill-opacity:1;"/>
<path d="M71 457.446L49 463.946L53.5 457.046L75 451.046L71 457.446Z" fill="#3C4F6C" style="fill:#3C4F6C;fill:color(display-p3 0.2353 0.3098 0.4235);fill-opacity:1;"/>
<path d="M129 468.046L133 468.546L134 434.046L129 441.046V468.046Z" fill="#9F9E99" style="fill:#9F9E99;fill:color(display-p3 0.6235 0.6196 0.6000);fill-opacity:1;"/>
<path d="M167 460.046L168 425.046V424.546L134 434.046L133 468.546L167 460.046Z" fill="#3CA1CD" style="fill:#3CA1CD;fill:color(display-p3 0.2353 0.6314 0.8039);fill-opacity:1;"/>
<path d="M167 460.046L170 460.546C171.723 445.708 172.673 437.89 173.5 423.046L168 424.546L167 460.046Z" fill="#8F99A2" style="fill:#8F99A2;fill:color(display-p3 0.5608 0.6000 0.6353);fill-opacity:1;"/>
<path d="M53.5 457.046L23 465.546L22 495.546L49 489.046V464.046L53.5 457.046Z" fill="#3CA1CD" style="fill:#3CA1CD;fill:color(display-p3 0.2353 0.6314 0.8039);fill-opacity:1;"/>
<path d="M173.5 423.046C114.743 439.883 81.8014 449.294 23 465.546L23.5 457.046L175.5 413.546L173.5 423.046Z" fill="#69737E" style="fill:#69737E;fill:color(display-p3 0.4118 0.4510 0.4941);fill-opacity:1;"/>
<path d="M165.5 889.546L166 873.546L358.5 898.046L358 937.546L165 905.546L165.5 889.546Z" fill="#161F24" style="fill:#161F24;fill:color(display-p3 0.0863 0.1216 0.1412);fill-opacity:1;"/>
<path d="M166 873.546L169 871.046L358.5 895.046V898.046L166 873.546Z" fill="#748A8B" style="fill:#748A8B;fill:color(display-p3 0.4549 0.5412 0.5451);fill-opacity:1;"/>
<path d="M360.5 773.546L361 412.546L170 460.546L169 766.546L360.5 773.546Z" fill="#546874" style="fill:#546874;fill:color(display-p3 0.3294 0.4078 0.4549);fill-opacity:1;"/>
<path d="M169 871.046V766.546L360.5 773.546L358.5 895.046L169 871.046Z" fill="#161F24" style="fill:#161F24;fill:color(display-p3 0.0863 0.1216 0.1412);fill-opacity:1;"/>
<path d="M357 414.046V373.546L173.5 423.046L170 460.546L357 414.046Z" fill="#38A4D7" style="fill:#38A4D7;fill:color(display-p3 0.2196 0.6431 0.8431);fill-opacity:1;"/>
<path d="M357 414.046V373.546L173.5 423.046L170 460.546L357 414.046Z" fill="url(#paint6_linear_427_2457)" fill-opacity="0.2" style=""/>
<path d="M80 441.046L113 431.546L134 384.546L100 395.546C89.2344 413.626 83.6715 422.777 80 441.046Z" fill="#38A4D7" style="fill:#38A4D7;fill:color(display-p3 0.2196 0.6431 0.8431);fill-opacity:1;"/>
<path d="M100 395.546L80 441.046L29 455.546C26 456.546 23 459.546 23 464.546L0 471.046C6 451.046 12 432.546 19 421.546L100 395.546Z" fill="#CBCCC9" style="fill:#CBCCC9;fill:color(display-p3 0.7961 0.8000 0.7882);fill-opacity:1;"/>
<path d="M400 774.546H378.5L377.5 915.046L399.5 918.546L400 774.546Z" fill="#242C36" style="fill:#242C36;fill:color(display-p3 0.1412 0.1725 0.2118);fill-opacity:1;"/>
<path d="M377.5 915.046L378.5 774.546L360.5 773.546L358 916.546L377.5 915.046Z" fill="#121A26" style="fill:#121A26;fill:color(display-p3 0.0706 0.1020 0.1490);fill-opacity:1;"/>
<path d="M358.33 898.046V895.046L377.65 896.046L399.5 898.046V901.046L377.65 898.546L358.33 898.046Z" fill="#5F7077" style="fill:#5F7077;fill:color(display-p3 0.3725 0.4392 0.4667);fill-opacity:1;"/>
<path d="M598.999 353.546L601.999 352.546C642.499 404.046 935 595.244 961.999 793.546C825.408 793.23 746.355 790.681 599.499 780.546C592.736 615.245 593.385 521.585 598.999 353.546Z" fill="#424F58" style="fill:#424F58;fill:color(display-p3 0.2588 0.3098 0.3451);fill-opacity:1;"/>
<path d="M597 927.546L599 925.546V780.215L751 786.546V1001.05L358 937.046V916.546L589 951.546L597 946.546V927.546Z" fill="#161F24" style="fill:#161F24;fill:color(display-p3 0.0863 0.1216 0.1412);fill-opacity:1;"/>
<path d="M590.5 952.046C595 952.546 597 951.046 597 946.546C512.1 926.949 465.441 922.956 377.5 915.046L357.5 916.546L590.5 952.046Z" fill="#5B7582" style="fill:#5B7582;fill:color(display-p3 0.3569 0.4588 0.5098);fill-opacity:1;"/>
<path d="M811 53.0464L714.5 131.546L44 372.546C59 350.546 77 334.546 95.5 327.546L801.5 53.5464C818.5 47.0464 843.554 36.6253 856.5 32.5464L811 53.0464Z" fill="#677283" style="fill:#677283;fill:color(display-p3 0.4039 0.4471 0.5137);fill-opacity:1;"/>
<path d="M514 934.546V916.046L597 927.546V946.546L514 934.546Z" fill="#1C2023" style="fill:#1C2023;fill:color(display-p3 0.1098 0.1255 0.1373);fill-opacity:1;"/>
<path d="M513 916.046C513.71 913.373 515.09 912.446 518 911.046L599 922.046V925.546L597 927.546L513 916.046Z" fill="#5F7077" style="fill:#5F7077;fill:color(display-p3 0.3725 0.4392 0.4667);fill-opacity:1;"/>
<path d="M518 910.942V779.046L599.5 781.546L599 922.046L518 910.942Z" fill="#1C2023" style="fill:#1C2023;fill:color(display-p3 0.1105 0.1261 0.1386);fill-opacity:1;"/>
<path d="M518 779.046L518.5 373.546L530 381.046L598.5 365.046L599.5 781.546L518 779.046Z" fill="#5D656F" style="fill:#5D656F;fill:color(display-p3 0.3647 0.3961 0.4353);fill-opacity:1;"/>
<path d="M581 470.546L544 478.546L541.5 649.046L545 653.546L570.5 653.046L580.5 651.046L581 470.546Z" fill="#232928" style="fill:#232928;fill:color(display-p3 0.1373 0.1608 0.1569);fill-opacity:1;"/>
<path d="M745 1043.55C748 1044.55 751 1050.05 751 1053.55V1001.05L14.5 880.546V879.046L3 877.046V900.546L13.5 902.046V903.546L745 1043.55Z" fill="#0A0F15" style="fill:#0A0F15;fill:color(display-p3 0.0392 0.0588 0.0824);fill-opacity:1;"/>
<path d="M37 860.546V865.546L44 866.546V856.546L37 860.546Z" fill="#A5BBC1" style="fill:#A5BBC1;fill:color(display-p3 0.6471 0.7333 0.7569);fill-opacity:1;"/>
<path d="M544 463.546L545 471.546L580 463.546L581 401.546L580 396.546L552 403.546L547 406.546L544 411.546V463.546Z" fill="#232928" style="fill:#232928;fill:color(display-p3 0.1373 0.1608 0.1569);fill-opacity:1;"/>
<path d="M584.364 465.037V465.039L584.052 643.162C584.041 649.734 578.941 655.175 572.384 655.612L548.521 657.203C544.192 657.492 540.523 654.059 540.522 649.721L540.487 477.049L540.487 477.045L540.517 414.085C540.52 407.001 545.326 400.821 552.191 399.072L572.643 393.863C578.657 392.331 584.501 396.882 584.488 403.088L584.364 465.037Z" stroke="#6B8190" style="stroke:#6B8190;stroke:color(display-p3 0.4196 0.5059 0.5647);stroke-opacity:1;" stroke-width="9"/>
<path d="M49.7411 554.911L49.7406 554.934L49.7404 554.957L48.5769 676.899C48.5595 678.724 47.1432 680.229 45.3231 680.357L28.37 681.552C28.0792 681.573 27.8326 681.341 27.8349 681.049L28.7674 562.794L28.7674 562.794L29.1242 518.518C29.1296 517.845 29.5829 517.258 30.2328 517.082L49.9472 511.755C50.2689 511.668 50.5841 511.914 50.5775 512.248L49.7411 554.911Z" stroke="#6B8190" style="stroke:#6B8190;stroke:color(display-p3 0.4196 0.5059 0.5647);stroke-opacity:1;" stroke-width="9"/>
<path d="M242.593 433.866L276.182 425.957C278.383 425.439 280.49 427.112 280.485 429.373L280.399 464.557C280.388 469.058 277.219 472.934 272.81 473.839L237.503 481.09C235.952 481.409 234.5 480.224 234.5 478.641V444.087C234.5 439.215 237.851 434.983 242.593 433.866Z" fill="#272F34" stroke="#6B8190" style="fill:#272F34;fill:color(display-p3 0.1529 0.1843 0.2039);fill-opacity:1;stroke:#6B8190;stroke:color(display-p3 0.4196 0.5059 0.5647);stroke-opacity:1;" stroke-width="3"/>
<path d="M304 593.546L305.135 601.546L344.865 593.546L346 531.546L344.865 526.546L313.081 533.546L307.405 536.546L304 541.546V593.546Z" fill="#232928" style="fill:#232928;fill:color(display-p3 0.1373 0.1608 0.1569);fill-opacity:1;"/>
<path d="M237 603.546L238.135 611.546L277.865 603.546L279 541.546L277.865 536.546L246.081 543.546L240.405 546.546L237 551.546V603.546Z" fill="#232928" style="fill:#232928;fill:color(display-p3 0.1373 0.1608 0.1569);fill-opacity:1;"/>
<path d="M176 727.106L177.054 748.546H212L215 560.946L213.946 547.546L180.5 555.046L179.162 574.346L176 587.746V727.106Z" fill="#232928" style="fill:#232928;fill:color(display-p3 0.1373 0.1608 0.1569);fill-opacity:1;"/>
<path d="M237 668.546L238.135 676.546L277.865 668.546L279 606.546L277.865 601.546L246.081 608.546L240.405 611.546L237 616.546V668.546Z" fill="#232928" style="fill:#232928;fill:color(display-p3 0.1373 0.1608 0.1569);fill-opacity:1;"/>
<path d="M238 728.546L239.5 749.046L274 747.546L280 666.546L278.865 661.546L247.081 668.546L241.405 671.546L238 676.546V728.546Z" fill="#232928" style="fill:#232928;fill:color(display-p3 0.1373 0.1608 0.1569);fill-opacity:1;"/>
<path d="M346.014 598.677L344.89 582.56L305.149 598.65L303.93 723.548L305.149 749.046L345.944 749.046L344.89 713.046L345.944 703.431L346.014 598.677Z" fill="#232928" style="fill:#232928;fill:color(display-p3 0.1373 0.1608 0.1569);fill-opacity:1;"/>
<path d="M302.5 597.148L302.5 597.135L302.5 597.122L302.533 540.257C302.535 536.587 305.192 533.458 308.813 532.861L339.614 527.786C344.181 527.033 348.333 530.557 348.333 535.186V592.028V592.046L347.089 744.599C347.06 748.168 344.159 751.046 340.589 751.046H309.076C304.915 751.046 301.55 747.66 301.576 743.499L302.5 597.148Z" stroke="#6B8190" style="stroke:#6B8190;stroke:color(display-p3 0.4196 0.5059 0.5647);stroke-opacity:1;" stroke-width="9"/>
<path d="M238.395 602.579L238.396 602.558V602.538V550.75C238.396 547.073 241.061 543.938 244.69 543.347L269.794 539.257C274.357 538.514 278.5 542.036 278.5 546.66V597.649V597.67L277.141 740.646C277.087 746.406 272.402 751.046 266.642 751.046H244.61C240.441 751.046 237.072 747.647 237.11 743.478L238.395 602.579Z" stroke="#6B8190" style="stroke:#6B8190;stroke:color(display-p3 0.4196 0.5059 0.5647);stroke-opacity:1;" stroke-width="9"/>
<path d="M179.771 608.065L179.771 608.046V608.027V558.367C179.771 554.717 182.399 551.597 185.997 550.976L206.635 547.418C211.238 546.624 215.439 550.185 215.409 554.856L214.228 740.613C214.192 746.386 209.502 751.046 203.729 751.046H186.104C181.936 751.046 178.568 747.649 178.604 743.482L179.771 608.065Z" stroke="#6B8190" style="stroke:#6B8190;stroke:color(display-p3 0.4196 0.5059 0.5647);stroke-opacity:1;" stroke-width="9"/>
<path d="M241 438.546L277 430.546" stroke="#6B8190" style="stroke:#6B8190;stroke:color(display-p3 0.4196 0.5059 0.5647);stroke-opacity:1;" stroke-width="7" stroke-linecap="square"/>
<path d="M235.5 443.546L239 442.646L237.5 439.046C236.301 440.547 235.985 441.605 235.5 443.546Z" fill="#6B8190" style="fill:#6B8190;fill:color(display-p3 0.4196 0.5059 0.5647);fill-opacity:1;"/>
<path d="M275 468.546L239 476.546" stroke="#6B8190" style="stroke:#6B8190;stroke:color(display-p3 0.4196 0.5059 0.5647);stroke-opacity:1;" stroke-width="7" stroke-linecap="square"/>
<path d="M280.5 463.546L277 464.446L278.5 468.046C279.699 466.546 280.015 465.488 280.5 463.546Z" fill="#6B8190" style="fill:#6B8190;fill:color(display-p3 0.4196 0.5059 0.5647);fill-opacity:1;"/>
<path d="M530.089 381.046L518.5 373.546L599 353.546L598.589 365.046L530.089 381.046Z" fill="#111113" style="fill:#111113;fill:color(display-p3 0.0667 0.0667 0.0745);fill-opacity:1;"/>
<path d="M400 918.046L402 406.546L404 405.546L451 393.013L501.5 379.546L498.5 932.546L447.5 925.039L400 918.046Z" fill="#B6BABB" style="fill:#B6BABB;fill:color(display-p3 0.7137 0.7294 0.7333);fill-opacity:1;"/>
<path d="M447.5 925.039L498.5 932.546L501.5 379.546L451 393.013M447.5 925.039L400 918.046L402 406.546L404 405.546L451 393.013M447.5 925.039L451 393.013" stroke="black" style="stroke:black;stroke-opacity:1;"/>
<path d="M478 929.546L481 385.546L451 393.046L447.5 925.046L478 929.546Z" fill="#469DC8" style="fill:#469DC8;fill:color(display-p3 0.2745 0.6157 0.7843);fill-opacity:1;"/>
<path d="M422 433.546V400.546L451.5 392.546L447.5 925.046L419 921.046L421 671.546L422 433.546Z" fill="#469DC8" style="fill:#469DC8;fill:color(display-p3 0.2745 0.6157 0.7843);fill-opacity:1;"/>
<path d="M413.5 453.046C413 440.546 417 434.546 420.5 433.467L433.5 430.546C438 429.546 441.5 446.546 441.5 452.546L440.5 649.546C440.5 654.046 438 669.546 431.5 669.824L420 670.546C416 670.546 412 659.546 412 648.046L413.5 453.046Z" fill="#232928" style="fill:#232928;fill:color(display-p3 0.1373 0.1608 0.1569);fill-opacity:1;"/>
<path d="M68.9661 523.356C68.644 514.035 71.2203 509.561 73.4745 508.756L81.8474 506.578C84.7457 505.832 87 518.509 87 522.983L86.3559 669.887C86.3559 674.11 85.5 685.008 80.5593 685.008L73.1525 685.546C70.5762 685.546 68 680.077 68 668.768L68.9661 523.356Z" fill="#232928" style="fill:#232928;fill:color(display-p3 0.1373 0.1608 0.1569);fill-opacity:1;"/>
<path d="M100.967 515.826C100.645 506.244 103.221 501.645 105.475 500.818L113.848 498.579C116.746 497.812 119.001 510.843 119.001 515.442L118.297 667.003C118.297 671.344 117.441 682.796 112.5 682.796L105.093 683.1C102.517 683.1 99.9409 677.478 99.9409 665.853L100.967 515.826Z" fill="#232928" style="fill:#232928;fill:color(display-p3 0.1373 0.1608 0.1569);fill-opacity:1;"/>
<path d="M460 443.548C459.5 431.048 465 423.627 468.5 422.548L481 419.546C485.5 418.546 489 435.546 489 441.546V646.546C489 651.046 486.5 666.546 480 666.824L468 667.591C464 667.591 460 656.591 460 645.091L460 443.548Z" fill="#232928" style="fill:#232928;fill:color(display-p3 0.1373 0.1608 0.1569);fill-opacity:1;"/>
<path d="M507.001 376.546L501.501 379.546L498.501 928.046C498.5 930.046 497 933.046 500.5 933.546L514.001 934.546L514.001 914.808C514.001 914.358 514.305 913.974 514.728 913.822C515.651 913.488 516.425 912.951 517.776 911.321C517.922 911.145 518.001 910.922 518.001 910.693L518.501 373.546L507.001 376.546Z" fill="#2B2A30" style="fill:#2B2A30;fill:color(display-p3 0.1686 0.1647 0.1882);fill-opacity:1;"/>
<path d="M447.5 925.039L498.5 932.546L501.5 379.546L451 393.013M447.5 925.039L400 918.046L402 406.546L404 405.546L451 393.013M447.5 925.039L451 393.013" stroke="black" style="stroke:black;stroke-opacity:1;"/>
<path d="M391 404.046L390 406.046L402 406.546L404 405.546L501.5 379.546L507 376.546L500 375.546L391 404.046Z" fill="#292E2D" style="fill:#292E2D;fill:color(display-p3 0.1608 0.1804 0.1765);fill-opacity:1;"/>
<path d="M380.5 416.046L361 412.546L390.5 406.046L402 406.546V411.046L380.5 416.046Z" fill="#111113" style="fill:#111113;fill:color(display-p3 0.0667 0.0667 0.0745);fill-opacity:1;"/>
<path d="M402 411.046L380.5 416.046L378.5 774.546H400L402 411.046Z" fill="#4E5661" style="fill:#4E5661;fill:color(display-p3 0.3059 0.3373 0.3804);fill-opacity:1;"/>
<path d="M380.5 416.046L361 412.546L360.5 773.546L378.5 774.546L380.5 416.046Z" fill="#919FAA" style="fill:#919FAA;fill:color(display-p3 0.5686 0.6235 0.6667);fill-opacity:1;"/>
<path d="M357 414.398L390.5 406.046V370.546L395.5 360.546L357.737 370.845C357.302 370.964 357 371.359 357 371.81V414.398Z" fill="#38A4D7" style="fill:#38A4D7;fill:color(display-p3 0.2196 0.6431 0.8431);fill-opacity:1;"/>
<path d="M357 414.398L390.5 406.046V370.546L395.5 360.546L357.737 370.845C357.302 370.964 357 371.359 357 371.81V414.398Z" fill="url(#paint7_linear_427_2457)" fill-opacity="0.2" style=""/>
<path d="M391 370.046L414 364.046L413.5 398.546L391 404.277V370.046Z" fill="#0A1511" style="fill:#0A1511;fill:color(display-p3 0.0392 0.0824 0.0667);fill-opacity:1;"/>
<path d="M414 364.046L419.5 354.046L395.5 360.546L391 370.046L414 364.046Z" fill="#0C1E35" style="fill:#0C1E35;fill:color(display-p3 0.0471 0.1176 0.2078);fill-opacity:1;"/>
<path d="M419.5 353.546L414 364.046L474 347.546L480 337.046L419.5 353.546Z" fill="#62B5E3" style="fill:#62B5E3;fill:color(display-p3 0.3843 0.7098 0.8902);fill-opacity:1;"/>
<path d="M474 382.546V347.546L414 364.046L413.5 398.546L474 382.546Z" fill="#38A4D7" style="fill:#38A4D7;fill:color(display-p3 0.2196 0.6431 0.8431);fill-opacity:1;"/>
<path d="M474 382.546L500 375.546L499 340.546L474 347.546V382.546Z" fill="#0A1511" style="fill:#0A1511;fill:color(display-p3 0.0392 0.0824 0.0667);fill-opacity:1;"/>
<path d="M480 337.046L474 347.546L499 340.546L502 331.046L480 337.046Z" fill="#0C1E35" style="fill:#0C1E35;fill:color(display-p3 0.0471 0.1176 0.2078);fill-opacity:1;"/>
<path d="M500 375.546L499 340.546L502 331.046L507 329.546V376.546L500 375.546Z" fill="#A19A8F" style="fill:#A19A8F;fill:color(display-p3 0.6314 0.6039 0.5608);fill-opacity:1;"/>
<path d="M599 353.546L602 352.546L607.5 301.546L599 304.046V353.546Z" fill="#9B918B" style="fill:#9B918B;fill:color(display-p3 0.6078 0.5686 0.5451);fill-opacity:1;"/>
<path d="M599 353.546V304.046L507 329.546V376.546L599 353.546Z" fill="#38A4D7" style="fill:#38A4D7;fill:color(display-p3 0.2196 0.6431 0.8431);fill-opacity:1;"/>
<path d="M365 361.546L368 358.546C463.111 328.339 515.938 312.647 611 288.546L609 301.546L359 370.546V367.546L361 365.046L365 361.546Z" fill="#5D646E" style="fill:#5D646E;fill:color(display-p3 0.3647 0.3922 0.4314);fill-opacity:1;"/>
<path d="M429.501 341.046C428.574 319.495 434.064 306.866 454.516 281.546L516.016 261.546L489.764 323.546L429.501 341.046Z" fill="#38A4D7" style="fill:#38A4D7;fill:color(display-p3 0.2196 0.6431 0.8431);fill-opacity:1;"/>
<path d="M840 39.5463C864.5 32.3145 878.408 31.8667 896.5 35.0463L752 559.046C695 507.546 656.266 439.78 602 352.546C604.704 322.039 605.582 311.294 609.5 289.046C562.819 302.674 537.865 309.276 489.75 323.546C494.16 301.521 502.023 287.592 516 261.546L667.5 213.046L706 133.546C719.359 128.084 725.5 122.046 749 98.5463C776 73.0464 794.948 52.8444 840 39.5463Z" fill="#CCCCCA" style="fill:#CCCCCA;fill:color(display-p3 0.8000 0.8000 0.7922);fill-opacity:1;"/>
<path d="M840 39.5463C864.5 32.3145 878.408 31.8667 896.5 35.0463L752 559.046C695 507.546 656.266 439.78 602 352.546C604.704 322.039 605.582 311.294 609.5 289.046C562.819 302.674 537.865 309.276 489.75 323.546C494.16 301.521 502.023 287.592 516 261.546L667.5 213.046L706 133.546C719.359 128.084 725.5 122.046 749 98.5463C776 73.0464 794.948 52.8444 840 39.5463Z" fill="url(#paint8_linear_427_2457)" style=""/>
<path d="M728 284.547C744.5 279.547 744.5 281.547 744.5 287.547L738.533 892.66C738.516 894.46 736.927 895.84 735.142 895.605L703.122 891.392C701.624 891.194 700.506 889.913 700.514 888.402L703.5 304.047C704 293.546 705 291.046 711.5 289.047L728 284.547Z" fill="url(#paint9_linear_427_2457)" style=""/>
<path d="M728 284.547C744.5 279.547 744.5 281.547 744.5 287.547L738.533 892.66C738.516 894.46 736.927 895.84 735.142 895.605L703.122 891.392C701.624 891.194 700.506 889.913 700.514 888.402L703.5 304.047C704 293.546 705 291.046 711.5 289.047L728 284.547Z" fill="url(#paint10_linear_427_2457)" style=""/>
<path d="M391 404.296L390.5 406.046V370.546L395.5 360.546L391 370.046V404.296Z" fill="#8AC7DD" style="fill:#8AC7DD;fill:color(display-p3 0.5424 0.7791 0.8661);fill-opacity:1;"/>
<path d="M712.5 866.046L739 867.046L738.558 892.675C738.527 894.47 736.937 895.836 735.158 895.597L712.5 892.546V866.046Z" fill="#71787E" style="fill:#71787E;fill:color(display-p3 0.4431 0.4706 0.4941);fill-opacity:1;"/>
<path d="M720 866.546L712.5 866.046L712 856.046C713.131 861.437 715.098 864.27 720 866.546Z" fill="#71787E" style="fill:#71787E;fill:color(display-p3 0.4431 0.4706 0.4941);fill-opacity:1;"/>
<path d="M19 421.546L667.5 213.046L706 133.546L44 372.546L19 421.546Z" fill="#C3CCD1" style="fill:#C3CCD1;fill:color(display-p3 0.7647 0.8000 0.8196);fill-opacity:1;"/>
<path d="M725.121 293.531L725.129 293.53L725.136 293.528L743.994 288.209L738.505 867.031L722.515 866.547L722.508 866.546H722.5C718.685 866.546 716.206 864.77 714.663 862.514C713.104 860.236 712.5 857.464 712.5 855.548C712.5 855.547 712.5 855.547 712.5 855.546L715.5 309.049V309.046C715.5 300.69 719.418 294.957 725.121 293.531Z" fill="#C8CCCB" stroke="#111518" style="fill:#C8CCCB;fill:color(display-p3 0.7843 0.8000 0.7961);fill-opacity:1;stroke:#111518;stroke:color(display-p3 0.0667 0.0824 0.0941);stroke-opacity:1;"/>
<path d="M739.5 340.046L719 345.546L719.5 732.546H737.5L739.5 340.046Z" fill="#232928" style="fill:#232928;fill:color(display-p3 0.1373 0.1608 0.1569);fill-opacity:1;"/>
<path d="M597.48 224.483L508 253.081L511.259 245.183L601.755 216.118L597.48 224.483Z" fill="#0E020D" style="fill:#0E020D;fill:color(display-p3 0.0549 0.0078 0.0510);fill-opacity:1;"/>
<path d="M606.269 203.634L517.379 234.014L520.479 226.053L610.376 195.185L606.269 203.634Z" fill="#0E020D" style="fill:#0E020D;fill:color(display-p3 0.0549 0.0078 0.0510);fill-opacity:1;"/>
<path d="M615.114 184.051L526.65 215.653L529.641 207.65L619.104 175.546L615.114 184.051Z" fill="#0E020D" style="fill:#0E020D;fill:color(display-p3 0.0549 0.0078 0.0510);fill-opacity:1;"/>
<rect x="589.386" y="177.895" width="10.1795" height="67.897" transform="rotate(27.012 589.386 177.895)" fill="#C3CCD1" style="fill:#C3CCD1;fill:color(display-p3 0.7647 0.8000 0.8196);fill-opacity:1;"/>
<rect x="556.05" y="189.609" width="10.1795" height="65.7598" transform="rotate(27.012 556.05 189.609)" fill="#C3CCD1" style="fill:#C3CCD1;fill:color(display-p3 0.7647 0.8000 0.8196);fill-opacity:1;"/>
<path d="M342.199 308.051L262.028 335.261L264.982 327.572L346.095 299.899L342.199 308.051Z" fill="#0E020D" style="fill:#0E020D;fill:color(display-p3 0.0549 0.0078 0.0510);fill-opacity:1;"/>
<path d="M349.84 289.777L267.212 320.175L270.017 312.427L353.578 281.545L349.84 289.777Z" fill="#0E020D" style="fill:#0E020D;fill:color(display-p3 0.0549 0.0078 0.0510);fill-opacity:1;"/>
<path d="M358.246 272.125L276.031 303.704L278.733 295.916L361.875 263.841L358.246 272.125Z" fill="#0E020D" style="fill:#0E020D;fill:color(display-p3 0.0549 0.0078 0.0510);fill-opacity:1;"/>
<path d="M330.042 275.083C332.318 270.308 337.976 268.399 342.68 270.819L314.575 329.771L306.058 325.388L330.042 275.083Z" fill="#C3CCD1" style="fill:#C3CCD1;fill:color(display-p3 0.7647 0.8000 0.8196);fill-opacity:1;"/>
<path d="M299.058 286.794C301.334 282.019 306.992 280.111 311.696 282.531L284.475 339.626L275.959 335.244L299.058 286.794Z" fill="#C3CCD1" style="fill:#C3CCD1;fill:color(display-p3 0.7647 0.8000 0.8196);fill-opacity:1;"/>
<path d="M478.75 262.442L394.47 291.202L397.563 283.244L482.834 254.003L478.75 262.442Z" fill="#0E020D" style="fill:#0E020D;fill:color(display-p3 0.0549 0.0078 0.0510);fill-opacity:1;"/>
<path d="M487.737 243.513L400.872 275.138L403.808 267.119L491.655 234.993L487.737 243.513Z" fill="#0E020D" style="fill:#0E020D;fill:color(display-p3 0.0549 0.0078 0.0510);fill-opacity:1;"/>
<path d="M495.566 225.255L409.137 258.098L411.965 250.039L499.368 216.679L495.566 225.255Z" fill="#0E020D" style="fill:#0E020D;fill:color(display-p3 0.0549 0.0078 0.0510);fill-opacity:1;"/>
<path d="M465.764 228.661C468.174 223.668 474.143 221.641 479.095 224.133L449.731 284.965L440.764 280.453L465.764 228.661Z" fill="#C3CCD1" style="fill:#C3CCD1;fill:color(display-p3 0.7647 0.8000 0.8196);fill-opacity:1;"/>
<path d="M432.122 240.603C434.532 235.61 440.501 233.583 445.453 236.075L416.924 295.18L407.956 290.667L432.122 240.603Z" fill="#C3CCD1" style="fill:#C3CCD1;fill:color(display-p3 0.7647 0.8000 0.8196);fill-opacity:1;"/>
<path d="M429.5 341.046C433.335 323.283 440.795 309.076 454.5 281.546L134 384.546C122 405.405 115.863 416.709 113 431.546L175.5 413.546L173.5 423.046L357 373.546V371.827C357 371.368 357.312 370.968 357.757 370.857L359 370.546C359 363.609 365.846 363.089 366.872 360.279C367.024 359.863 367.291 359.46 367.716 359.334L429.5 341.046Z" fill="#CCCCCA" style="fill:#CCCCCA;fill:color(display-p3 0.8000 0.8000 0.7922);fill-opacity:1;"/>
<path d="M429.5 341.046C433.335 323.283 440.795 309.076 454.5 281.546L134 384.546C122 405.405 115.863 416.709 113 431.546L175.5 413.546L173.5 423.046L357 373.546V371.827C357 371.368 357.312 370.968 357.757 370.857L359 370.546C359 363.609 365.846 363.089 366.872 360.279C367.024 359.863 367.291 359.46 367.716 359.334L429.5 341.046Z" fill="url(#paint11_linear_427_2457)" style=""/>
<path d="M785.5 1085.05C759 1080.57 754.5 1081.55 751 1060.05L988.5 1052.55L1048.5 1103.55C999 1106.55 965 1108.46 907.5 1102.05C860.073 1096.76 833.389 1093.13 785.5 1085.05Z" fill="#161F24" style="fill:#161F24;fill:color(display-p3 0.0863 0.1216 0.1412);fill-opacity:1;"/>
<path d="M785.5 1085.05C759 1080.57 754.5 1081.55 751 1060.05L988.5 1052.55L1048.5 1103.55C999 1106.55 965 1108.46 907.5 1102.05C860.073 1096.76 833.389 1093.13 785.5 1085.05Z" fill="url(#paint12_linear_427_2457)" style=""/>
<path d="M785.5 1085.05C759 1080.57 754.5 1081.55 751 1060.05L988.5 1052.55L1048.5 1103.55C999 1106.55 965 1108.46 907.5 1102.05C860.073 1096.76 833.389 1093.13 785.5 1085.05Z" fill="url(#paint13_linear_427_2457)" style=""/>
<path d="M751.001 1060.05C750.255 953.237 750.274 893.356 751.001 786.546L962.001 793.546C981.123 892.658 983.552 950.929 989.001 1052.55C899.001 1078.05 838.001 1075.05 751.001 1060.05Z" fill="#161F24" style="fill:#161F24;fill:color(display-p3 0.0863 0.1216 0.1412);fill-opacity:1;"/>
<path d="M751 786.546L752 559.046C899.408 675.72 967.802 734.753 962 793.546C880.229 792.528 833.668 790.01 751 786.546Z" fill="#424F58" style="fill:#424F58;fill:color(display-p3 0.2588 0.3098 0.3451);fill-opacity:1;"/>
<path d="M760 733.546V653.546C782 653.546 798.5 658.546 815 684.546L810 734.046L760 733.546Z" fill="url(#paint14_linear_427_2457)" style=""/>
<path d="M1607.5 828.546H1238L1155 1115.55C1238 1120.05 1601.5 1107.55 1658 1102.55L1652.5 1099.05L1601.5 907.546L1607.5 828.546Z" fill="#232526" style="fill:#232526;fill:color(display-p3 0.1373 0.1451 0.1490);fill-opacity:1;"/>
<path d="M1607.5 828.546H1238L1155 1115.55C1238 1120.05 1601.5 1107.55 1658 1102.55L1652.5 1099.05L1601.5 907.546L1607.5 828.546Z" fill="url(#paint15_linear_427_2457)" style=""/>
<path d="M1765 717.046L1757 716.546L1712.5 738.046L1694.5 749.046L1675 779.546L1667 796.046L1669.5 830.046L1680 845.546L1695.5 856.046L1707 857.546L1728 850.046L1741.5 834.546L1767.5 770.546L1779 749.046L1779.5 739.546L1765 717.046Z" fill="url(#paint16_linear_427_2457)" style=""/>
<path d="M1721 807.546C1721 826.324 1710.31 845.546 1696.5 845.546C1673.5 844.046 1670.51 838.046 1668 809.546C1666.5 792.546 1688.19 773.546 1702 773.546C1715.81 773.546 1721 788.769 1721 807.546Z" fill="#455F6D" style="fill:#455F6D;fill:color(display-p3 0.2706 0.3725 0.4275);fill-opacity:1;"/>
<circle cx="1697" cy="793.546" r="5" fill="#FFF9DD" style="fill:#FFF9DD;fill:color(display-p3 1.0000 0.9765 0.8667);fill-opacity:1;"/>
<circle cx="1709" cy="798.546" r="5" fill="#FFF9DD" style="fill:#FFF9DD;fill:color(display-p3 1.0000 0.9765 0.8667);fill-opacity:1;"/>
<circle cx="1706" cy="812.546" r="5" fill="#FFF9DD" style="fill:#FFF9DD;fill:color(display-p3 1.0000 0.9765 0.8667);fill-opacity:1;"/>
<ellipse cx="1685.5" cy="838.546" rx="5.5" ry="4" fill="#FFF9DD" style="fill:#FFF9DD;fill:color(display-p3 1.0000 0.9765 0.8667);fill-opacity:1;"/>
<ellipse cx="1677.5" cy="829.546" rx="4.5" ry="4" fill="#FFF9DD" style="fill:#FFF9DD;fill:color(display-p3 1.0000 0.9765 0.8667);fill-opacity:1;"/>
<circle cx="1667.5" cy="813.046" r="2.5" fill="#FFF9DD" style="fill:#FFF9DD;fill:color(display-p3 1.0000 0.9765 0.8667);fill-opacity:1;"/>
<ellipse cx="1686.5" cy="785.546" rx="5.5" ry="5" fill="#FFF9DD" style="fill:#FFF9DD;fill:color(display-p3 1.0000 0.9765 0.8667);fill-opacity:1;"/>
<ellipse cx="1676.5" cy="794.546" rx="4.5" ry="4" fill="#FFF9DD" style="fill:#FFF9DD;fill:color(display-p3 1.0000 0.9765 0.8667);fill-opacity:1;"/>
<ellipse cx="1708" cy="825.546" rx="6" ry="5" fill="#FFF9DD" style="fill:#FFF9DD;fill:color(display-p3 1.0000 0.9765 0.8667);fill-opacity:1;"/>
<ellipse cx="1696" cy="830.046" rx="5" ry="4.5" fill="#FFF9DD" style="fill:#FFF9DD;fill:color(display-p3 1.0000 0.9765 0.8667);fill-opacity:1;"/>
<path d="M1673 792.546C1723 735.047 1743 870.047 1677 840.546C1752.5 889.047 1734.5 710.047 1673 792.546Z" fill="url(#paint17_radial_427_2457)" style=""/>
<path d="M1707.49 855.546C1647.5 850.546 1664 776.046 1709.99 744.546L1712.49 739.046C1650 771.546 1656 863.546 1709.49 859.046L1707.49 855.546Z" fill="#255A81" style="fill:#255A81;fill:color(display-p3 0.1451 0.3529 0.5059);fill-opacity:1;"/>
<path d="M1707.49 855.546C1647.5 850.546 1664 776.046 1709.99 744.546L1712.49 739.046C1650 771.546 1656 863.546 1709.49 859.046L1707.49 855.546Z" fill="url(#paint18_linear_427_2457)" style=""/>
<path d="M1710 744.546L1712.5 739.046C1720.5 728.546 1764.5 704.546 1768 706.046C1773.56 705.083 1775.74 707.865 1779 715.046L1787 733.546C1790.35 739.077 1790.88 742.806 1783 753.546L1753 822.546C1754.5 844.546 1712 864.046 1709.5 859.046L1707.5 855.546C1718 855.546 1735.84 846.546 1745.5 821.046C1756.26 792.644 1762.2 776.5 1775 753.046C1778.26 745.062 1779 741.046 1775 734.546L1763.91 718.76C1762.8 717.186 1760.72 716.625 1758.98 717.428C1738.15 726.991 1727.12 733.229 1710 744.546Z" fill="#E5E9E8" style="fill:#E5E9E8;fill:color(display-p3 0.8980 0.9137 0.9098);fill-opacity:1;"/>
<path d="M1710 744.546L1712.5 739.046C1720.5 728.546 1764.5 704.546 1768 706.046C1773.56 705.083 1775.74 707.865 1779 715.046L1787 733.546C1790.35 739.077 1790.88 742.806 1783 753.546L1753 822.546C1754.5 844.546 1712 864.046 1709.5 859.046L1707.5 855.546C1718 855.546 1735.84 846.546 1745.5 821.046C1756.26 792.644 1762.2 776.5 1775 753.046C1778.26 745.062 1779 741.046 1775 734.546L1763.91 718.76C1762.8 717.186 1760.72 716.625 1758.98 717.428C1738.15 726.991 1727.12 733.229 1710 744.546Z" fill="url(#paint19_linear_427_2457)" style=""/>
<path d="M1712.5 739.046C1728.13 696.27 1743.98 673.618 1774 633.546C1774 689.046 1784 720.546 1793 748.546C1805.5 812.546 1806 890.546 1802 1000.05C1800.54 1040.05 1785 1063.05 1764 1072.55L1709.5 859.046C1729 857.546 1743.5 842.546 1751 827.546C1767 787.546 1776.21 767.647 1786.5 746.046C1789.5 739.046 1788.72 738.172 1787.5 735.046C1784 726.046 1781.77 721.046 1779 715.046C1774.85 706.046 1769.5 703.546 1761.5 708.546C1746.5 717.921 1728 727.046 1712.5 739.046Z" fill="#BBBAB5" style="fill:#BBBAB5;fill:color(display-p3 0.7333 0.7294 0.7098);fill-opacity:1;"/>
<path d="M1036.5 723.546L1045 721.046L1075 722.546L1152.5 750.046L1189 783.546L1200.5 807.046V824.546L1196 839.046L1190.5 846.046L1176 859.546L1146 863.046L1122.5 857.546L1094 836.046L1081.5 819.046L1042.5 773.546L1011.5 750.046V743.046L1036.5 723.546Z" fill="url(#paint20_linear_427_2457)" style=""/>
<path d="M1179 813.559C1179 832.889 1162.21 848.559 1141.5 848.559C1118.5 846.547 1105 832.547 1104 813.559C1104 794.229 1121 781.047 1141 778.047C1166.35 774.245 1179 794.229 1179 813.559Z" fill="#455F6D" style="fill:#455F6D;fill:color(display-p3 0.2706 0.3725 0.4275);fill-opacity:1;"/>
<circle cx="1111" cy="815.546" r="5" fill="#FFF9DD" style="fill:#FFF9DD;fill:color(display-p3 1.0000 0.9765 0.8667);fill-opacity:1;"/>
<path d="M1114 828.546C1114 831.308 1112 832.546 1111 833.046C1109 830.546 1108 828.046 1106.5 825.546C1106.5 822.785 1106.24 823.546 1109 823.546C1111.76 823.546 1114 825.785 1114 828.546Z" fill="#FFF9DD" style="fill:#FFF9DD;fill:color(display-p3 1.0000 0.9765 0.8667);fill-opacity:1;"/>
<circle cx="1121" cy="835.546" r="5" fill="#FFF9DD" style="fill:#FFF9DD;fill:color(display-p3 1.0000 0.9765 0.8667);fill-opacity:1;"/>
<path d="M1136 843.546C1136 846.308 1134.26 847.046 1131.5 847.046C1128.74 847.046 1126 846.308 1126 843.546C1126 840.785 1128.24 838.546 1131 838.546C1133.76 838.546 1136 840.785 1136 843.546Z" fill="#FFF9DD" style="fill:#FFF9DD;fill:color(display-p3 1.0000 0.9765 0.8667);fill-opacity:1;"/>
<circle cx="1121" cy="796.546" r="5" fill="#FFF9DD" style="fill:#FFF9DD;fill:color(display-p3 1.0000 0.9765 0.8667);fill-opacity:1;"/>
<circle cx="1132" cy="787.546" r="5" fill="#FFF9DD" style="fill:#FFF9DD;fill:color(display-p3 1.0000 0.9765 0.8667);fill-opacity:1;"/>
<circle cx="1142" cy="796.546" r="5" fill="#FFF9DD" style="fill:#FFF9DD;fill:color(display-p3 1.0000 0.9765 0.8667);fill-opacity:1;"/>
<circle cx="1155" cy="800.546" r="5" fill="#FFF9DD" style="fill:#FFF9DD;fill:color(display-p3 1.0000 0.9765 0.8667);fill-opacity:1;"/>
<circle cx="1152" cy="815.546" r="5" fill="#FFF9DD" style="fill:#FFF9DD;fill:color(display-p3 1.0000 0.9765 0.8667);fill-opacity:1;"/>
<circle cx="1141" cy="834.546" r="5" fill="#FFF9DD" style="fill:#FFF9DD;fill:color(display-p3 1.0000 0.9765 0.8667);fill-opacity:1;"/>
<path d="M1160.5 828.546C1160.5 831.308 1158 834.546 1154 833.546C1151.24 833.546 1149 831.308 1149 828.546C1149 825.785 1151.24 823.546 1154 823.546C1156.76 823.546 1160.5 825.785 1160.5 828.546Z" fill="#FFF9DD" style="fill:#FFF9DD;fill:color(display-p3 1.0000 0.9765 0.8667);fill-opacity:1;"/>
<path d="M1115 801.546C1115 804.308 1112.76 806.546 1110 806.546C1107.24 806.546 1105.2 804.046 1107 801.046C1108.5 798.546 1108.5 798.046 1110 796.546C1112.76 796.546 1115 798.785 1115 801.546Z" fill="#FFF9DD" style="fill:#FFF9DD;fill:color(display-p3 1.0000 0.9765 0.8667);fill-opacity:1;"/>
<path d="M1163.5 782.046C1188.5 825.546 1139 858.354 1115 838.046C1167 882.046 1208.5 813.546 1163.5 782.046Z" fill="#343C46" style="fill:#343C46;fill:color(display-p3 0.2039 0.2353 0.2745);fill-opacity:1;"/>
<path d="M1163.5 782.046C1188.5 825.546 1139 858.354 1115 838.046C1167 882.046 1208.5 813.546 1163.5 782.046Z" fill="url(#paint21_linear_427_2457)" style=""/>
<path d="M1059.5 794.546C1061.5 804.046 1109.5 886.546 1152 867.046V861.546C1112 865.046 1077.5 811.046 1060 788.546C1030.82 785.546 1064.5 791.546 1059.5 794.546Z" fill="#DBDDDC" style="fill:#DBDDDC;fill:color(display-p3 0.8588 0.8667 0.8627);fill-opacity:1;"/>
<path d="M986 737.546L1013 748.046C1012.46 744.83 1013.03 743.472 1015 741.546C1024.91 733.362 1028.57 730.563 1033 727.546C1041.08 722.046 1045.95 721.418 1059 724.546C1090.49 731.77 1109 738.014 1143 751.546L1140 744.046C1103.22 725.883 1082.07 718.01 1043 710.046C1029.03 706.227 1021.48 707.993 1008.5 717.046C998.733 724.064 993.863 728.615 986 737.546Z" fill="#CACCC9" style="fill:#CACCC9;fill:color(display-p3 0.7922 0.8000 0.7882);fill-opacity:1;"/>
<path d="M986 737.546L1013 748.046C1012.46 744.83 1013.03 743.472 1015 741.546C1024.91 733.362 1028.57 730.563 1033 727.546C1041.08 722.046 1045.95 721.418 1059 724.546C1090.49 731.77 1109 738.014 1143 751.546L1140 744.046C1103.22 725.883 1082.07 718.01 1043 710.046C1029.03 706.227 1021.48 707.993 1008.5 717.046C998.733 724.064 993.863 728.615 986 737.546Z" fill="url(#paint22_linear_427_2457)" style=""/>
<path d="M986 737.546L1013 748.046C1012.46 744.83 1013.03 743.472 1015 741.546C1024.91 733.362 1028.57 730.563 1033 727.546C1041.08 722.046 1045.95 721.418 1059 724.546C1090.49 731.77 1109 738.014 1143 751.546L1140 744.046C1103.22 725.883 1082.07 718.01 1043 710.046C1029.03 706.227 1021.48 707.993 1008.5 717.046C998.733 724.064 993.863 728.615 986 737.546Z" fill="url(#paint23_linear_427_2457)" style=""/>
<path d="M986 737.546L1013 748.046C1012.46 744.83 1013.03 743.472 1015 741.546C1024.91 733.362 1028.57 730.563 1033 727.546C1041.08 722.046 1045.95 721.418 1059 724.546C1090.49 731.77 1109 738.014 1143 751.546L1140 744.046C1103.22 725.883 1082.07 718.01 1043 710.046C1029.03 706.227 1021.48 707.993 1008.5 717.046C998.733 724.064 993.863 728.615 986 737.546Z" fill="url(#paint24_linear_427_2457)" style=""/>
<path d="M1152 861.546C1217 856.546 1213 782.046 1143 751.546L1140 744.046C1207.5 766.546 1244 875.546 1152 867.046V861.546Z" fill="url(#paint25_linear_427_2457)" style=""/>
<path d="M751.998 361.046V484.546L925.998 532.546L847.998 245.546L896.498 35.0464C853.781 51.7867 831.709 84.9019 793.998 173.046C778.169 210.046 751.998 223.046 751.998 361.046Z" fill="#CCCCCA" style="fill:#CCCCCA;fill:color(display-p3 0.8000 0.8000 0.7922);fill-opacity:1;"/>
<path d="M751.998 361.046V484.546L925.998 532.546L847.998 245.546L896.498 35.0464C853.781 51.7867 831.709 84.9019 793.998 173.046C778.169 210.046 751.998 223.046 751.998 361.046Z" fill="url(#paint26_linear_427_2457)" style=""/>
<path d="M1091 1056.55L971 860.046C965.31 816.11 962.186 791.129 954.5 758.046C926 691.546 857 653.046 752 559.046V484.546C826.179 497.427 865.133 507.137 926 532.546L1048 649.046C1093.75 681.352 1114.63 701.799 1140 744.046C1106 728.046 1084 719.213 1040.5 709.546C1031.5 707.546 1024.9 708.046 1018 711.546C1007.66 716.792 1000.99 721.739 986 737.546C995.869 740.593 1005.5 742.747 1014 748.546C1042.76 768.169 1060.3 786.046 1068.5 801.046C1097.5 854.063 1131.5 867.046 1152 867.046L1091 1056.55Z" fill="#D5D7D6" style="fill:#D5D7D6;fill:color(display-p3 0.8353 0.8431 0.8392);fill-opacity:1;"/>
<path d="M1091 1056.55L971 860.046C965.31 816.11 962.186 791.129 954.5 758.046C926 691.546 857 653.046 752 559.046V484.546C826.179 497.427 865.133 507.137 926 532.546L1048 649.046C1093.75 681.352 1114.63 701.799 1140 744.046C1106 728.046 1084 719.213 1040.5 709.546C1031.5 707.546 1024.9 708.046 1018 711.546C1007.66 716.792 1000.99 721.739 986 737.546C995.869 740.593 1005.5 742.747 1014 748.546C1042.76 768.169 1060.3 786.046 1068.5 801.046C1097.5 854.063 1131.5 867.046 1152 867.046L1091 1056.55Z" fill="url(#paint27_linear_427_2457)" fill-opacity="0.4" style=""/>
<path d="M1091 1056.55L971 860.046C965.31 816.11 962.186 791.129 954.5 758.046C926 691.546 857 653.046 752 559.046V484.546C826.179 497.427 865.133 507.137 926 532.546L1048 649.046C1093.75 681.352 1114.63 701.799 1140 744.046C1106 728.046 1084 719.213 1040.5 709.546C1031.5 707.546 1024.9 708.046 1018 711.546C1007.66 716.792 1000.99 721.739 986 737.546C995.869 740.593 1005.5 742.747 1014 748.546C1042.76 768.169 1060.3 786.046 1068.5 801.046C1097.5 854.063 1131.5 867.046 1152 867.046L1091 1056.55Z" fill="url(#paint28_linear_427_2457)" style=""/>
<path d="M1091 1056.55L971 860.046C965.31 816.11 962.186 791.129 954.5 758.046C926 691.546 857 653.046 752 559.046V484.546C826.179 497.427 865.133 507.137 926 532.546L1048 649.046C1093.75 681.352 1114.63 701.799 1140 744.046C1106 728.046 1084 719.213 1040.5 709.546C1031.5 707.546 1024.9 708.046 1018 711.546C1007.66 716.792 1000.99 721.739 986 737.546C995.869 740.593 1005.5 742.747 1014 748.546C1042.76 768.169 1060.3 786.046 1068.5 801.046C1097.5 854.063 1131.5 867.046 1152 867.046L1091 1056.55Z" fill="url(#paint29_linear_427_2457)" style=""/>
<path d="M987 1043.05C988.024 1072.22 1011.5 1096.55 1078 1112.05V1095.55C1037 1084.05 1020.42 1072.95 987 1043.05Z" fill="#929393" style="fill:#929393;fill:color(display-p3 0.5725 0.5765 0.5765);fill-opacity:1;"/>
<path d="M987 1043.05C988.024 1072.22 1011.5 1096.55 1078 1112.05V1095.55C1037 1084.05 1020.42 1072.95 987 1043.05Z" fill="url(#paint30_linear_427_2457)" fill-opacity="0.2" style=""/>
<path d="M971 860.046L976.5 930.546L1078 1095.55L1091 1056.55C1049.16 960.006 1024.41 910.996 971 860.046Z" fill="#B0B2B1" style="fill:#B0B2B1;fill:color(display-p3 0.6902 0.6980 0.6941);fill-opacity:1;"/>
<path d="M971 860.046L976.5 930.546L1078 1095.55L1091 1056.55C1049.16 960.006 1024.41 910.996 971 860.046Z" fill="url(#paint31_linear_427_2457)" fill-opacity="0.2" style=""/>
<path d="M1078 1095.55C1036.32 1003.33 1013.52 959.365 976.5 930.546C980.014 975.391 982.446 999.82 987 1043.05C1017.52 1070.98 1035.39 1085.52 1078 1095.55Z" fill="#C3C5C3" style="fill:#C3C5C3;fill:color(display-p3 0.7647 0.7725 0.7647);fill-opacity:1;"/>
<path d="M1078 1095.55C1036.32 1003.33 1013.52 959.365 976.5 930.546C980.014 975.391 982.446 999.82 987 1043.05C1017.52 1070.98 1035.39 1085.52 1078 1095.55Z" fill="url(#paint32_linear_427_2457)" fill-opacity="0.2" style=""/>
<path d="M1078 1095.55C1036.32 1003.33 1013.52 959.365 976.5 930.546C980.014 975.391 982.446 999.82 987 1043.05C1017.52 1070.98 1035.39 1085.52 1078 1095.55Z" fill="url(#paint33_linear_427_2457)" style=""/>
<path d="M1075 1107.55C1076.47 1104.23 1077.22 1102.04 1078 1095.55L1154 1102.55L1237.5 828.546H1238C1239 869.046 1199.57 993.867 1165 1103.05C1162.5 1113.05 1161.5 1115.95 1151.5 1115.55C1124 1114.43 1108.57 1113.81 1080 1112.55C1075.14 1111.95 1073.42 1111.15 1075 1107.55Z" fill="#113E5B" style="fill:#113E5B;fill:color(display-p3 0.0667 0.2431 0.3569);fill-opacity:1;"/>
<path d="M1660.5 1102.55C1656 1102.9 1655.47 1101.8 1652.5 1099.05L1700 1088.55L1764 1072.55C1766.5 1079.55 1765 1084.05 1760.5 1085.55C1729 1096.05 1702.97 1099.21 1660.5 1102.55Z" fill="#15405B" style="fill:#15405B;fill:color(display-p3 0.0824 0.2510 0.3569);fill-opacity:1;"/>
<path d="M1237.5 828.546L1129.5 620.546L1128 619.546L1693.5 620.546L1711 622.546L1710.5 625.046L1671 676.046L1634.5 734.046L1617.5 778.046L1607.5 828.546H1237.5Z" fill="#121A24" style="fill:#121A24;fill:color(display-p3 0.0706 0.1020 0.1412);fill-opacity:1;"/>
<path d="M1237.5 828.546L1129.5 620.546L1128 619.546L1693.5 620.546L1711 622.546L1710.5 625.046L1671 676.046L1634.5 734.046L1617.5 778.046L1607.5 828.546H1237.5Z" fill="url(#paint34_linear_427_2457)" style=""/>
<path d="M1105 512.547C1047.21 364.372 1014.46 281.231 963 130.547C1195 125.693 1324.06 127.654 1547 147.547C1598.62 234.993 1618.47 334.264 1653.55 509.777L1655 517.047C1434.87 532.677 1314.88 530.27 1105 512.547Z" fill="#404040" style="fill:#404040;fill:color(display-p3 0.2526 0.2526 0.2526);fill-opacity:1;"/>
<path d="M1004 261.546L940 118.046L1550.5 123.546L1597.5 275.046L1004 261.546Z" fill="#0F1C2E" style="fill:#0F1C2E;fill:color(display-p3 0.0588 0.1098 0.1804);fill-opacity:1;"/>
<path d="M1420 240.046L1405 178.546C1289.15 176.096 1224.18 174.71 1106.5 170.546L1122 234.546C1241.56 238.133 1301.37 240.147 1420 240.046Z" fill="#275262" style="fill:#275262;fill:color(display-p3 0.1529 0.3216 0.3843);fill-opacity:1;"/>
<path d="M1207.59 182.587L1215.82 225.439L1210.71 225.319L1180.47 191.116L1180.05 191.106L1186.51 224.751L1181.23 224.628L1172.99 181.776L1178.11 181.896L1208.45 216.184L1208.87 216.194L1202.39 182.465L1207.59 182.587ZM1259.08 205.124C1259.95 209.644 1259.87 213.53 1258.84 216.783C1257.82 220.036 1256.02 222.521 1253.47 224.239C1250.92 225.956 1247.78 226.772 1244.06 226.684C1240.34 226.597 1236.86 225.627 1233.62 223.773C1230.38 221.92 1227.61 219.328 1225.32 215.997C1223.02 212.666 1221.44 208.74 1220.57 204.221C1219.7 199.701 1219.78 195.815 1220.81 192.562C1221.84 189.309 1223.63 186.824 1226.19 185.106C1228.74 183.389 1231.88 182.573 1235.6 182.661C1239.32 182.748 1242.8 183.718 1246.04 185.572C1249.28 187.425 1252.05 190.017 1254.34 193.348C1256.63 196.679 1258.22 200.605 1259.08 205.124ZM1253.97 205.004C1253.26 201.294 1252.02 198.147 1250.27 195.565C1248.53 192.983 1246.46 191.011 1244.06 189.65C1241.68 188.289 1239.17 187.577 1236.53 187.515C1233.89 187.453 1231.62 188.053 1229.73 189.313C1227.85 190.575 1226.53 192.467 1225.75 194.99C1224.99 197.513 1224.97 200.63 1225.68 204.341C1226.4 208.051 1227.62 211.198 1229.36 213.78C1231.12 216.362 1233.19 218.334 1235.57 219.695C1237.97 221.056 1240.48 221.768 1243.13 221.83C1245.77 221.892 1248.03 221.292 1249.9 220.031C1251.8 218.77 1253.12 216.878 1253.88 214.355C1254.65 211.831 1254.68 208.715 1253.97 205.004ZM1263.59 183.9L1283.47 220.277L1283.98 220.289L1290 184.52L1295.54 184.65L1287.76 227.126L1282.3 226.998L1258.05 183.77L1263.59 183.9ZM1298.58 184.721L1304.63 184.863L1320.58 205.15L1321.09 205.162L1329.34 185.443L1335.39 185.584L1324.47 210.407L1327.87 228.067L1322.58 227.943L1319.19 210.283L1298.58 184.721Z" fill="#7A7017" style="fill:#7A7017;fill:color(display-p3 0.4787 0.4400 0.0914);fill-opacity:1;"/>
<path d="M1098.5 599.546L1105 512.546C1321.68 525.899 1442.39 528.68 1655 517.046C1666.81 518.438 1671.57 523.07 1678 535.546L1726 606.546L1708 624.546C1497.1 646.614 1336.5 644.046 1151.5 623.046L1129 620.546L1098.5 599.546Z" fill="#2B3C4D" style="fill:#2B3C4D;fill:color(display-p3 0.1686 0.2353 0.3020);fill-opacity:1;"/>
<path d="M1098.5 599.546L1105 512.546C1321.68 525.899 1442.39 528.68 1655 517.046C1666.81 518.438 1671.57 523.07 1678 535.546L1726 606.546L1708 624.546C1497.1 646.614 1336.5 644.046 1151.5 623.046L1129 620.546L1098.5 599.546Z" fill="url(#paint35_linear_427_2457)" style=""/>
<path d="M1595.84 570.708C1593.39 570.743 1591.05 570.23 1588.8 569.171C1586.56 568.111 1584.51 566.555 1582.65 564.503C1580.79 562.45 1579.23 559.97 1577.95 557.061C1576.66 554.162 1576.03 551.682 1576.06 549.623C1576.1 547.563 1576.76 545.986 1578.04 544.89C1579.33 543.786 1581.19 543.212 1583.62 543.169C1586.05 543.127 1588.38 543.626 1590.61 544.669C1592.85 545.711 1594.89 547.245 1596.75 549.271C1598.6 551.289 1600.16 553.748 1601.44 556.648C1602.73 559.565 1603.36 562.066 1603.33 564.151C1603.31 566.237 1602.67 567.84 1601.4 568.962C1600.14 570.083 1598.28 570.665 1595.84 570.708ZM1593.77 566.047C1595.44 566.018 1596.43 565.228 1596.74 563.679C1597.06 562.129 1596.53 559.822 1595.16 556.758C1594.26 554.741 1593.29 553.066 1592.24 551.732C1591.2 550.399 1590.12 549.401 1589 548.741C1587.88 548.08 1586.77 547.759 1585.66 547.779C1584.01 547.808 1583.02 548.589 1582.7 550.121C1582.37 551.653 1582.88 553.93 1584.21 556.951C1585.12 558.994 1586.09 560.695 1587.15 562.055C1588.2 563.406 1589.3 564.416 1590.42 565.085C1591.55 565.746 1592.66 566.067 1593.77 566.047ZM1623.37 570.223C1620.93 570.258 1618.58 569.745 1616.34 568.685C1614.1 567.626 1612.05 566.07 1610.18 564.018C1608.33 561.965 1606.76 559.485 1605.48 556.576C1604.19 553.677 1603.57 551.197 1603.6 549.138C1603.64 547.078 1604.3 545.501 1605.58 544.405C1606.86 543.301 1608.72 542.727 1611.15 542.684C1613.59 542.641 1615.92 543.141 1618.15 544.184C1620.38 545.226 1622.43 546.76 1624.28 548.786C1626.13 550.804 1627.69 553.263 1628.97 556.162C1630.27 559.08 1630.9 561.581 1630.87 563.666C1630.85 565.752 1630.21 567.355 1628.94 568.476C1627.67 569.598 1625.82 570.18 1623.37 570.223ZM1621.3 565.562C1622.97 565.533 1623.96 564.743 1624.28 563.194C1624.59 561.644 1624.06 559.337 1622.69 556.273C1621.8 554.256 1620.83 552.581 1619.78 551.247C1618.74 549.913 1617.65 548.916 1616.53 548.256C1615.42 547.595 1614.31 547.274 1613.2 547.294C1611.54 547.323 1610.55 548.104 1610.23 549.636C1609.91 551.168 1610.41 553.445 1611.74 556.466C1612.65 558.509 1613.63 560.21 1614.68 561.57C1615.74 562.921 1616.83 563.931 1617.96 564.6C1619.08 565.261 1620.2 565.582 1621.3 565.562ZM1640.1 542.541L1651.9 569.132L1645.75 569.24L1636.32 547.985L1636.15 547.988L1631.18 551.923L1628.97 546.937L1634.32 542.643L1640.1 542.541ZM1658.98 569.007L1647.18 542.416L1653.33 542.308L1658.54 554.032L1658.92 554.025L1664.18 542.116L1671.55 541.987L1666.04 554.083L1683.48 568.575L1676.12 568.705L1663.31 557.913L1661.78 561.342L1665.13 568.899L1658.98 569.007Z" fill="#D3DDDE" style="fill:#D3DDDE;fill:color(display-p3 0.8275 0.8667 0.8706);fill-opacity:1;"/>
<path d="M1547 147.546C1531.08 116.334 1521.04 98.4629 1503 66.5464C1592.5 107.046 1690.22 221.261 1761.5 476.046C1791.71 551.735 1774.57 575.053 1726 606.546C1706.44 587.091 1696.42 574.485 1682.5 545.046C1673.75 526.546 1667.5 520.546 1655 517.046C1620.09 371.24 1575 211.546 1547 147.546Z" fill="#2A3749" style="fill:#2A3749;fill:color(display-p3 0.1647 0.2157 0.2863);fill-opacity:1;"/>
<path d="M1547 147.546C1531.08 116.334 1521.04 98.4629 1503 66.5464C1592.5 107.046 1690.22 221.261 1761.5 476.046C1791.71 551.735 1774.57 575.053 1726 606.546C1706.44 587.091 1696.42 574.485 1682.5 545.046C1673.75 526.546 1667.5 520.546 1655 517.046C1620.09 371.24 1575 211.546 1547 147.546Z" fill="url(#paint36_linear_427_2457)" fill-opacity="0.2" style=""/>
<path d="M916.5 53.5464L924 48.5464C945.5 63.0464 1024.17 304.391 1089 469.046L1089.66 470.705C1104.37 507.728 1119.02 544.605 1113 569.546C1109.5 584.046 1110.4 584.526 1099 600.046L982.5 535.546L949 441.046L913 307.546L893 205.546L895 107.546L906 67.0464L916.5 53.5464Z" fill="#2D3A4A" style="fill:#2D3A4A;fill:color(display-p3 0.1765 0.2275 0.2902);fill-opacity:1;"/>
<path d="M962 130.325L923 48.3255C1001 3.3255 1389 9.32644 1502 66.3255C1516.5 79.8264 1532.74 113.499 1547 147.046C1350.5 138.546 962 130.325 962 130.325Z" fill="#2C394B" style="fill:#2C394B;fill:color(display-p3 0.1725 0.2235 0.2941);fill-opacity:1;"/>
<path d="M1092 80.0469C1086 43.0469 1106.5 44.047 1138.5 40.547C1184 35.5702 1264 41.8802 1291 45.547C1331.5 51.0469 1349.5 50.0466 1378.5 91.047C1382.39 96.5466 1382.5 99.0474 1377.5 102.047C1372.5 105.047 1346.5 115.047 1324.5 117.547C1272 123.514 1208 118.059 1170 111.047C1146.3 106.674 1133.29 103.829 1112 96.0469C1102.5 92.5744 1093.22 87.5469 1092 80.0469Z" fill="#435063" style="fill:#435063;fill:color(display-p3 0.2627 0.3137 0.3882);fill-opacity:1;"/>
<path d="M1761.5 1085.05L1764 1072.55C1791.02 1054.82 1797.26 1037.14 1802 1000.05C1801.5 1029.55 1802.57 1068.66 1761.5 1085.05Z" fill="#9499A5" style="fill:#9499A5;fill:color(display-p3 0.5804 0.6000 0.6471);fill-opacity:1;"/>
<path d="M1138 40.0464L1170.5 111.546" stroke="#2C394B" style="stroke:#2C394B;stroke:color(display-p3 0.1725 0.2235 0.2941);stroke-opacity:1;"/>
<path d="M1291 45.5464L1323.5 117.046" stroke="#2C394B" style="stroke:#2C394B;stroke:color(display-p3 0.1725 0.2235 0.2941);stroke-opacity:1;"/>
<circle cx="1211.5" cy="82.0464" r="26.5" fill="url(#paint37_radial_427_2457)" style=""/>
<path d="M1205.99 61.9902C1205.85 67.8866 1204.26 68.4224 1197.69 66.7281C1197.28 66.6214 1196.84 66.7844 1196.61 67.1454C1195.1 69.524 1194.36 71.551 1193.28 74.72C1193.12 75.193 1193.34 75.7123 1193.78 75.9536C1199.54 79.131 1198.42 82.2924 1193.42 85.0636C1192.92 85.3379 1192.72 85.9593 1192.99 86.4574C1194.39 89.0482 1195.31 90.8177 1197.03 93.3537C1197.3 93.7558 1197.82 93.8953 1198.27 93.7036C1203.93 91.2687 1206.69 92.2353 1206.55 98.4923C1206.54 99.0639 1206.98 99.5555 1207.55 99.5609C1210.32 99.5869 1212.23 99.5018 1215.06 99.1642C1215.59 99.1011 1215.96 98.6272 1215.95 98.0953C1215.77 92.7099 1218.01 91.274 1222.68 92.3397C1223.15 92.4486 1223.65 92.2218 1223.85 91.7783L1226.02 87.0766C1226.28 86.53 1225.98 85.8888 1225.43 85.6543C1219.33 83.0761 1221.99 77.5166 1227.16 74.9291C1227.63 74.6968 1227.88 74.165 1227.7 73.6795C1226.77 71.2421 1225.62 70.1152 1223.85 68.387C1223.63 68.1726 1223.32 68.0716 1223.02 68.1054C1217.4 68.7286 1215.93 66.8179 1215.12 61.8676C1215.05 61.3935 1214.65 61.0296 1214.17 61.0084C1211.07 60.8709 1209.25 60.8689 1206.94 60.9919C1206.41 61.02 1206 61.4625 1205.99 61.9902Z" fill="#FBBA29" style="fill:#FBBA29;fill:color(display-p3 0.9843 0.7294 0.1608);fill-opacity:1;"/>
<path d="M1774 633.546C1777 595.046 1789 564.046 1788 562.546L1748.5 617.546C1751.47 630.998 1754.47 639.464 1760.5 655.046C1766.62 647.622 1769.78 643.141 1774 633.546Z" fill="#00476F" style="fill:#00476F;fill:color(display-p3 0.0000 0.2784 0.4353);fill-opacity:1;"/>
<path d="M1684 270.546C1650.6 201.046 1553.5 90.5464 1502 66.0464L1500.5 59.0464C1519.5 68.0464 1531 75.0464 1545 86.0464C1613 150.15 1648.12 188.297 1689.5 267.046C1722.87 330.546 1758.5 437.546 1783 536.046C1789.72 563.046 1793.5 564.546 1770.5 593.046C1762.43 603.046 1755.5 611.546 1748.5 617.546L1730.5 601.546C1771.5 560.546 1772.5 547.546 1774.5 537.046C1761 463.546 1721 347.546 1684 270.546Z" fill="#53B7DD" style="fill:#53B7DD;fill:color(display-p3 0.3255 0.7176 0.8667);fill-opacity:1;"/>
<path d="M1684 270.546C1650.6 201.046 1553.5 90.5464 1502 66.0464L1500.5 59.0464C1519.5 68.0464 1531 75.0464 1545 86.0464C1613 150.15 1648.12 188.297 1689.5 267.046C1722.87 330.546 1758.5 437.546 1783 536.046C1789.72 563.046 1793.5 564.546 1770.5 593.046C1762.43 603.046 1755.5 611.546 1748.5 617.546L1730.5 601.546C1771.5 560.546 1772.5 547.546 1774.5 537.046C1761 463.546 1721 347.546 1684 270.546Z" fill="url(#paint38_linear_427_2457)" style=""/>
<path d="M896.5 35.0437C890.219 33.6454 872.199 33.9024 840 39.5437C991 -33.4536 1397.5 9.04633 1493.5 56.0437C1500.5 59.4706 1501.99 57.2061 1502 66.0464C1365.5 7.54639 975.5 6.4115 921 51.5437C921.606 42.753 915.568 39.2962 896.5 35.0437Z" fill="#5ABEE9" style="fill:#5ABEE9;fill:color(display-p3 0.3529 0.7451 0.9137);fill-opacity:1;"/>
<path d="M848 164.046C854.975 83.9198 864.602 53.1898 896.5 35.0464C914.512 37.2086 921.835 40.9254 921 51.5464C893.5 70.0464 886.5 186.546 906 268.546C929.986 358.344 943.979 406.452 969.5 490.046C981.312 524.369 993.806 536.918 1018.5 551.546C1060.94 576.169 1077.45 586.709 1101.5 601.046C1208 669.546 1232 739.046 1237.5 777.546L1090.5 615.546C1035.5 581.758 998.536 563.727 926 532.546C908 492.046 897.756 455.377 883 401.546C851.133 295.886 842.035 242.858 848 164.046Z" fill="#4CBCE8" style="fill:#4CBCE8;fill:color(display-p3 0.2980 0.7373 0.9098);fill-opacity:1;"/>
<path d="M848 164.046C854.975 83.9198 864.602 53.1898 896.5 35.0464C914.512 37.2086 921.835 40.9254 921 51.5464C893.5 70.0464 886.5 186.546 906 268.546C929.986 358.344 943.979 406.452 969.5 490.046C981.312 524.369 993.806 536.918 1018.5 551.546C1060.94 576.169 1077.45 586.709 1101.5 601.046C1208 669.546 1232 739.046 1237.5 777.546L1090.5 615.546C1035.5 581.758 998.536 563.727 926 532.546C908 492.046 897.756 455.377 883 401.546C851.133 295.886 842.035 242.858 848 164.046Z" fill="url(#paint39_linear_427_2457)" style=""/>
<path fill-rule="evenodd" clip-rule="evenodd" d="M926 532.546C998.535 563.727 1035.5 581.758 1090.5 615.546C1159.52 661.176 1196.5 701.046 1234 769.546C1246.59 792.546 1238.81 841.626 1217.5 911.546C1213.08 926.039 1208.27 942.181 1203.32 958.771C1183 1026.89 1160.43 1102.55 1154 1102.55C1118.32 1101.33 1099.3 1100.4 1078 1095.55L1091.5 1055.05L1152 867.046C1230.5 857.546 1211 772.546 1140 744.046C1121.97 712.176 1073.5 665.046 1051.5 651.046C1001.5 624.046 949 582.046 926 532.546Z" fill="#0495C1" style="fill:#0495C1;fill:color(display-p3 0.0157 0.5843 0.7569);fill-opacity:1;"/>
<path d="M1116 838.846C1080 803.044 1137 763.795 1165 783.046C1133 761.046 1079.5 802.546 1116 838.846Z" fill="#1A1F23" style="fill:#1A1F23;fill:color(display-p3 0.1020 0.1216 0.1373);fill-opacity:1;"/>
<path d="M1629 734.546C1662.46 672.698 1686.44 646.397 1730.5 601.546L1748.5 617.546C1713.66 651.54 1696.16 673.42 1663.5 716.546C1639 760.546 1635.97 816.046 1647.5 870.546C1663.54 946.356 1676.34 996.802 1700 1088.55C1700 1092.55 1693.5 1095.55 1682 1096.55L1652.5 1099.05L1601.5 907.546C1603 830.046 1616.29 758.046 1629 734.546Z" fill="#26A5D3" style="fill:#26A5D3;fill:color(display-p3 0.1490 0.6471 0.8275);fill-opacity:1;"/>
<path d="M1629 734.546C1662.46 672.698 1686.44 646.397 1730.5 601.546L1748.5 617.546C1713.66 651.54 1696.16 673.42 1663.5 716.546C1639 760.546 1635.97 816.046 1647.5 870.546C1663.54 946.356 1676.34 996.802 1700 1088.55C1700 1092.55 1693.5 1095.55 1682 1096.55L1652.5 1099.05L1601.5 907.546C1603 830.046 1616.29 758.046 1629 734.546Z" fill="url(#paint40_linear_427_2457)" style=""/>
<path d="M1764 1072.55C1744.1 1081.73 1729.2 1084.72 1700 1088.55C1680.87 1014.92 1670.15 973.299 1652.5 894.046C1641.13 844.548 1638.01 818.37 1643.5 777.046C1649.73 716.947 1679.73 681.582 1748.5 617.546L1760.5 655.046C1738.07 689.178 1726.64 707.904 1712.5 739.046C1642.31 787.046 1667.5 859.046 1709.5 859.046L1764 1072.55Z" fill="#1E8CB9" style="fill:#1E8CB9;fill:color(display-p3 0.1176 0.5490 0.7255);fill-opacity:1;"/>
<path d="M1764 1072.55C1744.1 1081.73 1729.2 1084.72 1700 1088.55C1680.87 1014.92 1670.15 973.299 1652.5 894.046C1641.13 844.548 1638.01 818.37 1643.5 777.046C1649.73 716.947 1679.73 681.582 1748.5 617.546L1760.5 655.046C1738.07 689.178 1726.64 707.904 1712.5 739.046C1642.31 787.046 1667.5 859.046 1709.5 859.046L1764 1072.55Z" fill="url(#paint41_linear_427_2457)" style=""/>
<defs>
<linearGradient id="paint0_linear_427_2457" x1="-3.5" y1="865.546" x2="14" y2="879.046" gradientUnits="userSpaceOnUse">
<stop stop-opacity="0" style="stop-color:none;stop-opacity:0;"/>
<stop offset="1" stop-color="white" style="stop-color:white;stop-opacity:1;"/>
</linearGradient>
<linearGradient id="paint1_linear_427_2457" x1="31" y1="878.046" x2="35" y2="862.546" gradientUnits="userSpaceOnUse">
<stop stop-opacity="0" style="stop-color:none;stop-opacity:0;"/>
<stop offset="1" stop-color="#23282B" style="stop-color:#23282B;stop-color:color(display-p3 0.1373 0.1569 0.1686);stop-opacity:1;"/>
</linearGradient>
<linearGradient id="paint2_linear_427_2457" x1="143" y1="553.046" x2="274" y2="549.546" gradientUnits="userSpaceOnUse">
<stop stop-opacity="0" style="stop-color:none;stop-opacity:0;"/>
<stop offset="1" stop-opacity="0.5" style="stop-color:black;stop-opacity:0.5;"/>
</linearGradient>
<linearGradient id="paint3_linear_427_2457" x1="137.263" y1="791.62" x2="289.602" y2="775.274" gradientUnits="userSpaceOnUse">
<stop stop-opacity="0" style="stop-color:none;stop-opacity:0;"/>
<stop offset="1" stop-opacity="0.9" style="stop-color:black;stop-opacity:0.9;"/>
</linearGradient>
<radialGradient id="paint4_radial_427_2457" cx="0" cy="0" r="1" gradientUnits="userSpaceOnUse" gradientTransform="translate(134.5 877.046) rotate(45) scale(0.707107 0.0994368)">
<stop stop-color="#D9D9D9" style="stop-color:#D9D9D9;stop-color:color(display-p3 0.8510 0.8510 0.8510);stop-opacity:1;"/>
<stop offset="1" stop-color="#6A787D" style="stop-color:#6A787D;stop-color:color(display-p3 0.4157 0.4706 0.4902);stop-opacity:1;"/>
</radialGradient>
<radialGradient id="paint5_radial_427_2457" cx="0" cy="0" r="1" gradientUnits="userSpaceOnUse" gradientTransform="translate(135 877.046) rotate(135) scale(0.707107 0.0994368)">
<stop stop-color="#D9D9D9" style="stop-color:#D9D9D9;stop-color:color(display-p3 0.8510 0.8510 0.8510);stop-opacity:1;"/>
<stop offset="1" stop-color="#575856" style="stop-color:#575856;stop-color:color(display-p3 0.3412 0.3451 0.3373);stop-opacity:1;"/>
</radialGradient>
<linearGradient id="paint6_linear_427_2457" x1="340" y1="395.546" x2="381.5" y2="385.046" gradientUnits="userSpaceOnUse">
<stop stop-opacity="0" style="stop-color:none;stop-opacity:0;"/>
<stop offset="1" style="stop-color:black;stop-opacity:1;"/>
</linearGradient>
<linearGradient id="paint7_linear_427_2457" x1="363" y1="381.546" x2="417.044" y2="385.409" gradientUnits="userSpaceOnUse">
<stop stop-opacity="0" style="stop-color:none;stop-opacity:0;"/>
<stop offset="1" style="stop-color:black;stop-opacity:1;"/>
</linearGradient>
<linearGradient id="paint8_linear_427_2457" x1="758.33" y1="57.4781" x2="728.713" y2="262.892" gradientUnits="userSpaceOnUse">
<stop stop-color="#E3E7EA" style="stop-color:#E3E7EA;stop-color:color(display-p3 0.8902 0.9059 0.9176);stop-opacity:1;"/>
<stop offset="1" stop-color="#CCCCCA" stop-opacity="0" style="stop-color:none;stop-opacity:0;"/>
</linearGradient>
<linearGradient id="paint9_linear_427_2457" x1="707.5" y1="296.047" x2="713.25" y2="896.047" gradientUnits="userSpaceOnUse">
<stop stop-color="#D1DAD7" style="stop-color:#D1DAD7;stop-color:color(display-p3 0.8196 0.8549 0.8431);stop-opacity:1;"/>
<stop offset="1" stop-color="#DADDDA" style="stop-color:#DADDDA;stop-color:color(display-p3 0.8549 0.8667 0.8549);stop-opacity:1;"/>
</linearGradient>
<linearGradient id="paint10_linear_427_2457" x1="706.5" y1="293.547" x2="705" y2="366.547" gradientUnits="userSpaceOnUse">
<stop stop-color="#3E3D3B" style="stop-color:#3E3D3B;stop-color:color(display-p3 0.2431 0.2392 0.2314);stop-opacity:1;"/>
<stop offset="1" stop-color="#D1DAD7" stop-opacity="0" style="stop-color:none;stop-opacity:0;"/>
</linearGradient>
<linearGradient id="paint11_linear_427_2457" x1="320" y1="326.546" x2="333.658" y2="367.884" gradientUnits="userSpaceOnUse">
<stop stop-color="#CCCCCA" stop-opacity="0" style="stop-color:none;stop-opacity:0;"/>
<stop offset="1" stop-color="#C0C2BF" style="stop-color:#C0C2BF;stop-color:color(display-p3 0.7529 0.7608 0.7490);stop-opacity:1;"/>
</linearGradient>
<linearGradient id="paint12_linear_427_2457" x1="939.5" y1="1115.05" x2="938" y2="1063.55" gradientUnits="userSpaceOnUse">
<stop stop-color="#6A6055" style="stop-color:#6A6055;stop-color:color(display-p3 0.4157 0.3765 0.3333);stop-opacity:1;"/>
<stop offset="1" stop-color="#161F24" stop-opacity="0" style="stop-color:none;stop-opacity:0;"/>
</linearGradient>
<linearGradient id="paint13_linear_427_2457" x1="814.5" y1="1091.55" x2="816.5" y2="1075.55" gradientUnits="userSpaceOnUse">
<stop stop-color="#6A6055" style="stop-color:#6A6055;stop-color:color(display-p3 0.4157 0.3765 0.3333);stop-opacity:1;"/>
<stop offset="1" stop-color="#161F24" stop-opacity="0" style="stop-color:none;stop-opacity:0;"/>
</linearGradient>
<linearGradient id="paint14_linear_427_2457" x1="760" y1="697.046" x2="815" y2="696.546" gradientUnits="userSpaceOnUse">
<stop stop-color="#752678" style="stop-color:#752678;stop-color:color(display-p3 0.4574 0.1499 0.4697);stop-opacity:1;"/>
<stop offset="1" stop-color="#D2081A" style="stop-color:#D2081A;stop-color:color(display-p3 0.8235 0.0314 0.1020);stop-opacity:1;"/>
</linearGradient>
<linearGradient id="paint15_linear_427_2457" x1="1406.5" y1="828.546" x2="1402.5" y2="908.046" gradientUnits="userSpaceOnUse">
<stop stop-color="#0D1116" style="stop-color:#0D1116;stop-color:color(display-p3 0.0498 0.0659 0.0859);stop-opacity:1;"/>
<stop offset="1" stop-color="#232526" style="stop-color:#232526;stop-color:color(display-p3 0.1373 0.1451 0.1490);stop-opacity:1;"/>
</linearGradient>
<linearGradient id="paint16_linear_427_2457" x1="1762" y1="734.046" x2="1691.5" y2="847.546" gradientUnits="userSpaceOnUse">
<stop stop-color="#121818" style="stop-color:#121818;stop-color:color(display-p3 0.0706 0.0941 0.0941);stop-opacity:1;"/>
<stop offset="1" stop-color="#353442" style="stop-color:#353442;stop-color:color(display-p3 0.2078 0.2039 0.2588);stop-opacity:1;"/>
</linearGradient>
<radialGradient id="paint17_radial_427_2457" cx="0" cy="0" r="1" gradientUnits="userSpaceOnUse" gradientTransform="translate(1699.85 809.756) rotate(90) scale(39.2711 26.8515)">
<stop stop-color="#020305" style="stop-color:#020305;stop-color:color(display-p3 0.0078 0.0118 0.0196);stop-opacity:1;"/>
<stop offset="1" stop-color="#435968" style="stop-color:#435968;stop-color:color(display-p3 0.2627 0.3490 0.4078);stop-opacity:1;"/>
</radialGradient>
<linearGradient id="paint18_linear_427_2457" x1="1668" y1="814.546" x2="1704.5" y2="858.046" gradientUnits="userSpaceOnUse">
<stop stop-color="#26567B" stop-opacity="0" style="stop-color:none;stop-opacity:0;"/>
<stop offset="1" stop-color="#46B4EA" style="stop-color:#46B4EA;stop-color:color(display-p3 0.2745 0.7059 0.9176);stop-opacity:1;"/>
</linearGradient>
<linearGradient id="paint19_linear_427_2457" x1="1770.5" y1="705.546" x2="1782.5" y2="738.546" gradientUnits="userSpaceOnUse">
<stop stop-color="#57677E" style="stop-color:#57677E;stop-color:color(display-p3 0.3412 0.4039 0.4941);stop-opacity:1;"/>
<stop offset="1" stop-color="#A4B5C9" stop-opacity="0" style="stop-color:none;stop-opacity:0;"/>
</linearGradient>
<linearGradient id="paint20_linear_427_2457" x1="1186.5" y1="837.046" x2="1027" y2="735.546" gradientUnits="userSpaceOnUse">
<stop stop-color="#111923" style="stop-color:#111923;stop-color:color(display-p3 0.0667 0.0980 0.1373);stop-opacity:1;"/>
<stop offset="1" stop-color="#2E3B4B" style="stop-color:#2E3B4B;stop-color:color(display-p3 0.1804 0.2314 0.2941);stop-opacity:1;"/>
</linearGradient>
<linearGradient id="paint21_linear_427_2457" x1="1171" y1="793.046" x2="1156.5" y2="847.546" gradientUnits="userSpaceOnUse">
<stop stop-color="#101417" style="stop-color:#101417;stop-color:color(display-p3 0.0627 0.0784 0.0902);stop-opacity:1;"/>
<stop offset="1" stop-color="#343C46" stop-opacity="0" style="stop-color:none;stop-opacity:0;"/>
</linearGradient>
<linearGradient id="paint22_linear_427_2457" x1="1020.5" y1="722.046" x2="1131.5" y2="743.546" gradientUnits="userSpaceOnUse">
<stop stop-color="#CACCC9" stop-opacity="0" style="stop-color:none;stop-opacity:0;"/>
<stop offset="1" stop-color="#534D4D" style="stop-color:#534D4D;stop-color:color(display-p3 0.3255 0.3020 0.3020);stop-opacity:1;"/>
</linearGradient>
<linearGradient id="paint23_linear_427_2457" x1="1011" y1="731.546" x2="1004.5" y2="742.046" gradientUnits="userSpaceOnUse">
<stop stop-color="#CACCC9" stop-opacity="0" style="stop-color:none;stop-opacity:0;"/>
<stop offset="1" stop-color="#D5D7D6" style="stop-color:#D5D7D6;stop-color:color(display-p3 0.8353 0.8431 0.8392);stop-opacity:1;"/>
</linearGradient>
<linearGradient id="paint24_linear_427_2457" x1="1030.5" y1="726.046" x2="1001.5" y2="714.546" gradientUnits="userSpaceOnUse">
<stop stop-color="#CACCC9" stop-opacity="0" style="stop-color:none;stop-opacity:0;"/>
<stop offset="1" stop-color="#D5D7D6" style="stop-color:#D5D7D6;stop-color:color(display-p3 0.8353 0.8431 0.8392);stop-opacity:1;"/>
</linearGradient>
<linearGradient id="paint25_linear_427_2457" x1="1147" y1="750.546" x2="1154" y2="864.046" gradientUnits="userSpaceOnUse">
<stop stop-color="#004667" style="stop-color:#004667;stop-color:color(display-p3 0.0000 0.2745 0.4039);stop-opacity:1;"/>
<stop offset="1" stop-color="#00A9D2" style="stop-color:#00A9D2;stop-color:color(display-p3 0.0000 0.6627 0.8235);stop-opacity:1;"/>
</linearGradient>
<linearGradient id="paint26_linear_427_2457" x1="867" y1="58.0464" x2="809.5" y2="238.046" gradientUnits="userSpaceOnUse">
<stop stop-color="#E3E7EA" style="stop-color:#E3E7EA;stop-color:color(display-p3 0.8902 0.9059 0.9176);stop-opacity:1;"/>
<stop offset="1" stop-color="#CCCCCA" stop-opacity="0" style="stop-color:none;stop-opacity:0;"/>
</linearGradient>
<linearGradient id="paint27_linear_427_2457" x1="917" y1="526.046" x2="900" y2="588.046" gradientUnits="userSpaceOnUse">
<stop style="stop-color:black;stop-opacity:1;"/>
<stop offset="1" stop-color="#D5D7D6" stop-opacity="0" style="stop-color:none;stop-opacity:0;"/>
</linearGradient>
<linearGradient id="paint28_linear_427_2457" x1="1054.5" y1="859.046" x2="1004.5" y2="901.546" gradientUnits="userSpaceOnUse">
<stop stop-color="#D5D7D6" stop-opacity="0" style="stop-color:none;stop-opacity:0;"/>
<stop offset="1" stop-color="#AAACAC" style="stop-color:#AAACAC;stop-color:color(display-p3 0.6667 0.6745 0.6745);stop-opacity:1;"/>
</linearGradient>
<linearGradient id="paint29_linear_427_2457" x1="835.5" y1="558.046" x2="752" y2="528.546" gradientUnits="userSpaceOnUse">
<stop stop-color="#D5D7D6" stop-opacity="0" style="stop-color:none;stop-opacity:0;"/>
<stop offset="1" stop-color="#CCCCCA" style="stop-color:#CCCCCA;stop-color:color(display-p3 0.8000 0.8000 0.7922);stop-opacity:1;"/>
</linearGradient>
<linearGradient id="paint30_linear_427_2457" x1="1032" y1="1094.05" x2="1040.5" y2="1079.05" gradientUnits="userSpaceOnUse">
<stop stop-opacity="0" style="stop-color:none;stop-opacity:0;"/>
<stop offset="1" style="stop-color:black;stop-opacity:1;"/>
</linearGradient>
<linearGradient id="paint31_linear_427_2457" x1="1064.5" y1="943.046" x2="997.5" y2="988.546" gradientUnits="userSpaceOnUse">
<stop stop-color="#D9D9D9" style="stop-color:#D9D9D9;stop-color:color(display-p3 0.8510 0.8510 0.8510);stop-opacity:1;"/>
<stop offset="0.49" stop-color="#717777" style="stop-color:#717777;stop-color:color(display-p3 0.4431 0.4667 0.4667);stop-opacity:1;"/>
<stop offset="1" stop-color="#B0B2B1" style="stop-color:#B0B2B1;stop-color:color(display-p3 0.6902 0.6980 0.6941);stop-opacity:1;"/>
</linearGradient>
<linearGradient id="paint32_linear_427_2457" x1="969.5" y1="1002.05" x2="1059" y2="1022.55" gradientUnits="userSpaceOnUse">
<stop style="stop-color:black;stop-opacity:1;"/>
<stop offset="1" stop-color="#666666" stop-opacity="0" style="stop-color:none;stop-opacity:0;"/>
</linearGradient>
<linearGradient id="paint33_linear_427_2457" x1="1048.5" y1="996.546" x2="995" y2="1045.55" gradientUnits="userSpaceOnUse">
<stop stop-color="#A9ABAA" style="stop-color:#A9ABAA;stop-color:color(display-p3 0.6627 0.6706 0.6667);stop-opacity:1;"/>
<stop offset="1" stop-color="#B0B2B1" style="stop-color:#B0B2B1;stop-color:color(display-p3 0.6902 0.6980 0.6941);stop-opacity:1;"/>
</linearGradient>
<linearGradient id="paint34_linear_427_2457" x1="1407" y1="730.546" x2="1408.5" y2="619.546" gradientUnits="userSpaceOnUse">
<stop stop-color="#121A24" style="stop-color:#121A24;stop-color:color(display-p3 0.0706 0.1020 0.1412);stop-opacity:1;"/>
<stop offset="1" stop-color="#2B3C4D" style="stop-color:#2B3C4D;stop-color:color(display-p3 0.1686 0.2353 0.3020);stop-opacity:1;"/>
</linearGradient>
<linearGradient id="paint35_linear_427_2457" x1="1447.5" y1="590.046" x2="1448.5" y2="639.546" gradientUnits="userSpaceOnUse">
<stop stop-color="#2B3C4D" style="stop-color:#2B3C4D;stop-color:color(display-p3 0.1686 0.2353 0.3020);stop-opacity:1;"/>
<stop offset="1" stop-color="#263545" style="stop-color:#263545;stop-color:color(display-p3 0.1490 0.2078 0.2706);stop-opacity:1;"/>
</linearGradient>
<linearGradient id="paint36_linear_427_2457" x1="1658" y1="244.546" x2="1527.5" y2="112.546" gradientUnits="userSpaceOnUse">
<stop stop-color="#2A3749" style="stop-color:#2A3749;stop-color:color(display-p3 0.1647 0.2157 0.2863);stop-opacity:1;"/>
<stop offset="1" stop-color="#2C394B" style="stop-color:#2C394B;stop-color:color(display-p3 0.1725 0.2235 0.2941);stop-opacity:1;"/>
</linearGradient>
<radialGradient id="paint37_radial_427_2457" cx="0" cy="0" r="1" gradientUnits="userSpaceOnUse" gradientTransform="translate(1211.5 82.0464) rotate(90) scale(26.5)">
<stop stop-color="#727785" style="stop-color:#727785;stop-color:color(display-p3 0.4462 0.4668 0.5197);stop-opacity:1;"/>
<stop offset="0.945" stop-color="#2A334C" style="stop-color:#2A334C;stop-color:color(display-p3 0.1647 0.2000 0.2980);stop-opacity:1;"/>
</radialGradient>
<linearGradient id="paint38_linear_427_2457" x1="1637" y1="152.546" x2="1502" y2="63.0464" gradientUnits="userSpaceOnUse">
<stop stop-color="#53B7DD" style="stop-color:#53B7DD;stop-color:color(display-p3 0.3255 0.7176 0.8667);stop-opacity:1;"/>
<stop offset="1" stop-color="#5ABEE9" style="stop-color:#5ABEE9;stop-color:color(display-p3 0.3529 0.7451 0.9137);stop-opacity:1;"/>
</linearGradient>
<linearGradient id="paint39_linear_427_2457" x1="873.5" y1="124.546" x2="914" y2="40.0464" gradientUnits="userSpaceOnUse">
<stop stop-color="#4CBCE8" style="stop-color:#4CBCE8;stop-color:color(display-p3 0.2980 0.7373 0.9098);stop-opacity:1;"/>
<stop offset="1" stop-color="#5ABEE9" style="stop-color:#5ABEE9;stop-color:color(display-p3 0.3529 0.7451 0.9137);stop-opacity:1;"/>
</linearGradient>
<linearGradient id="paint40_linear_427_2457" x1="1689" y1="662.046" x2="1738.5" y2="608.546" gradientUnits="userSpaceOnUse">
<stop stop-color="#26A5D3" style="stop-color:#26A5D3;stop-color:color(display-p3 0.1490 0.6471 0.8275);stop-opacity:1;"/>
<stop offset="1" stop-color="#53B7DD" style="stop-color:#53B7DD;stop-color:color(display-p3 0.3255 0.7176 0.8667);stop-opacity:1;"/>
</linearGradient>
<linearGradient id="paint41_linear_427_2457" x1="1682.5" y1="743.546" x2="1758" y2="646.046" gradientUnits="userSpaceOnUse">
<stop stop-color="#1E8CB9" style="stop-color:#1E8CB9;stop-color:color(display-p3 0.1176 0.5490 0.7255);stop-opacity:1;"/>
<stop offset="1" stop-color="#00476F" style="stop-color:#00476F;stop-color:color(display-p3 0.0000 0.2784 0.4353);stop-opacity:1;"/>
</linearGradient>
</defs>
</svg>
